<svg width="20" height="20" viewBox="0 0 20 20" fill="none" xmlns="http://www.w3.org/2000/svg">
<path fill-rule="evenodd" clip-rule="evenodd" d="M10.2251 0.5C4.99896 0.5 0.725098 4.77386 0.725098 10C0.725098 15.2261 4.99896 19.5 10.2251 19.5C15.4844 19.5 19.2751 15.1917 19.2751 10V8.6H10.6251V11.85H15.815C15.1218 14.4619 12.9194 16.25 10.2251 16.25C6.81124 16.25 3.9751 13.4139 3.9751 10C3.9751 6.58614 6.81124 3.75 10.2251 3.75C11.9636 3.75 13.4544 4.49257 14.5387 5.66023L14.8918 6.04044L17.2322 3.7L16.8787 3.34645C15.1794 1.64718 12.8969 0.5 10.2251 0.5Z" fill="#EEB609"/>
</svg>
