<svg width="1509" height="1274" viewBox="0 0 1509 1274" fill="none" xmlns="http://www.w3.org/2000/svg">
<g filter="url(#filter0_d)">
<g filter="url(#filter1_d)">
<path fill-rule="evenodd" clip-rule="evenodd" d="M651.249 431.549L346.328 117C249.13 203.015 239.679 352.725 326.687 449.016L402.27 532.663L402.274 532.667C321.011 617.299 325.515 752.197 412.244 831.231L500.876 912L646.062 771.11L646.059 771.107C741.25 678.729 743.572 526.787 651.249 431.549Z" fill="url(#paint0_linear)"/>
<g opacity="0.6" filter="url(#filter2_f)">
<path d="M404.395 532L646 771C646 771 646 771 645.997 771H646C646.004 771 366 585.061 366 585.061C374.736 564.827 387.924 546.642 404.395 532Z" fill="#A76B25"/>
</g>
</g>
<path fill-rule="evenodd" clip-rule="evenodd" d="M858.751 431.549L1163.67 117C1260.87 203.015 1270.32 352.725 1183.31 449.016L1107.73 532.663L1107.73 532.667C1188.99 617.299 1184.48 752.197 1097.76 831.231L1009.12 912L863.938 771.11L863.941 771.107C768.75 678.729 766.428 526.787 858.751 431.549Z" fill="url(#paint1_linear)"/>
<g opacity="0.6" filter="url(#filter3_f)">
<path d="M1109.02 532C1109.02 532 867 771 867.003 771H867C866.996 771 1147 585.061 1147 585.061L1139.01 570.437C1131.17 556.079 1121.04 543.096 1109.02 532Z" fill="#A76B25"/>
</g>
</g>
<path d="M872.555 1220.66C869.296 1220.66 866.555 1219.54 864.333 1217.3C862.111 1215.07 861 1212.31 861 1209.03V1057.63C861 1054.2 862.111 1051.44 864.333 1049.35C866.555 1047.12 869.296 1046 872.555 1046H925.661C935.734 1046 944.548 1048.01 952.103 1052.04C959.806 1055.91 965.805 1061.36 970.101 1068.36C974.545 1075.37 976.767 1083.42 976.767 1092.52C976.767 1099.82 974.767 1106.46 970.768 1112.42C966.916 1118.23 961.583 1122.86 954.769 1126.28C964.546 1128.67 972.397 1133.37 978.323 1140.37C984.248 1147.38 987.211 1156.55 987.211 1167.88C987.211 1178.17 984.767 1187.26 979.878 1195.16C975.138 1203.07 968.472 1209.33 959.88 1213.95C951.288 1218.42 941.437 1220.66 930.327 1220.66H872.555ZM884.109 1117.79H925.661C934.104 1117.79 940.993 1115.7 946.326 1111.52C951.807 1107.35 954.547 1101.01 954.547 1092.52C954.547 1084.02 951.807 1077.76 946.326 1073.73C940.993 1069.56 934.104 1067.47 925.661 1067.47H884.109V1117.79ZM884.109 1199.19H930.327C940.4 1199.19 948.696 1196.58 955.214 1191.36C961.732 1185.99 964.991 1178.17 964.991 1167.88C964.991 1158.34 961.732 1151.18 955.214 1146.41C948.696 1141.64 940.4 1139.26 930.327 1139.26H884.109V1199.19Z" fill="url(#paint2_linear)"/>
<path d="M1074.9 1222C1063.05 1222 1052.39 1219.32 1042.91 1213.95C1033.57 1208.43 1026.17 1200.98 1020.69 1191.59C1015.35 1182.04 1012.69 1171.38 1012.69 1159.61C1012.69 1147.68 1015.35 1137.02 1020.69 1127.63C1026.17 1118.08 1033.57 1110.63 1042.91 1105.26C1052.39 1099.75 1063.05 1096.99 1074.9 1096.99C1086.75 1096.99 1097.35 1099.75 1106.68 1105.26C1116.01 1110.63 1123.34 1118.08 1128.68 1127.63C1134.16 1137.02 1136.9 1147.68 1136.9 1159.61V1213.95C1136.9 1215.89 1136.31 1217.53 1135.12 1218.87C1133.94 1220.06 1132.31 1220.66 1130.23 1220.66C1128.31 1220.66 1126.68 1220.06 1125.34 1218.87C1124.16 1217.53 1123.57 1215.89 1123.57 1213.95V1196.51C1118.68 1204.26 1112.01 1210.45 1103.57 1215.07C1095.12 1219.69 1085.57 1222 1074.9 1222ZM1074.9 1209.48C1084.24 1209.48 1092.53 1207.31 1099.79 1202.99C1107.2 1198.52 1112.97 1192.55 1117.12 1185.1C1121.42 1177.5 1123.57 1169 1123.57 1159.61C1123.57 1150.06 1121.42 1141.57 1117.12 1134.11C1112.97 1126.51 1107.2 1120.54 1099.79 1116.22C1092.53 1111.75 1084.24 1109.51 1074.9 1109.51C1065.72 1109.51 1057.42 1111.75 1050.02 1116.22C1042.61 1120.54 1036.76 1126.51 1032.46 1134.11C1028.17 1141.57 1026.02 1150.06 1026.02 1159.61C1026.02 1169 1028.17 1177.5 1032.46 1185.1C1036.76 1192.55 1042.61 1198.52 1050.02 1202.99C1057.42 1207.31 1065.72 1209.48 1074.9 1209.48Z" fill="url(#paint3_linear)"/>
<path d="M1219.94 1220.66C1211.79 1220.51 1204.53 1218.65 1198.16 1215.07C1191.79 1211.34 1186.83 1206.27 1183.27 1199.86C1179.72 1193.3 1177.94 1185.92 1177.94 1177.72V1114.88H1160.61C1158.83 1114.88 1157.35 1114.36 1156.17 1113.31C1155.13 1112.12 1154.61 1110.63 1154.61 1108.84C1154.61 1107.05 1155.13 1105.64 1156.17 1104.59C1157.35 1103.4 1158.83 1102.8 1160.61 1102.8H1177.94V1066.35C1177.94 1064.26 1178.53 1062.62 1179.72 1061.43C1181.05 1060.09 1182.68 1059.42 1184.61 1059.42C1186.68 1059.42 1188.31 1060.09 1189.5 1061.43C1190.83 1062.62 1191.5 1064.26 1191.5 1066.35V1102.8H1220.83C1222.6 1102.8 1224.01 1103.4 1225.05 1104.59C1226.23 1105.64 1226.83 1107.05 1226.83 1108.84C1226.83 1110.63 1226.23 1112.12 1225.05 1113.31C1224.01 1114.36 1222.6 1114.88 1220.83 1114.88H1191.5V1177.72C1191.5 1186.37 1194.16 1193.45 1199.5 1198.97C1204.83 1204.33 1211.72 1207.02 1220.16 1207.02H1225.05C1227.12 1207.02 1228.75 1207.69 1229.94 1209.03C1231.27 1210.22 1231.94 1211.86 1231.94 1213.95C1231.94 1215.89 1231.27 1217.53 1229.94 1218.87C1228.75 1220.06 1227.12 1220.66 1225.05 1220.66H1219.94Z" fill="url(#paint4_linear)"/>
<path d="M1309.56 1220.66C1301.41 1220.51 1294.15 1218.65 1287.78 1215.07C1281.41 1211.34 1276.45 1206.27 1272.89 1199.86C1269.34 1193.3 1267.56 1185.92 1267.56 1177.72V1114.88H1250.23C1248.45 1114.88 1246.97 1114.36 1245.78 1113.31C1244.75 1112.12 1244.23 1110.63 1244.23 1108.84C1244.23 1107.05 1244.75 1105.64 1245.78 1104.59C1246.97 1103.4 1248.45 1102.8 1250.23 1102.8H1267.56V1066.35C1267.56 1064.26 1268.15 1062.62 1269.34 1061.43C1270.67 1060.09 1272.3 1059.42 1274.23 1059.42C1276.3 1059.42 1277.93 1060.09 1279.11 1061.43C1280.45 1062.62 1281.11 1064.26 1281.11 1066.35V1102.8H1310.45C1312.22 1102.8 1313.63 1103.4 1314.67 1104.59C1315.85 1105.64 1316.44 1107.05 1316.44 1108.84C1316.44 1110.63 1315.85 1112.12 1314.67 1113.31C1313.63 1114.36 1312.22 1114.88 1310.45 1114.88H1281.11V1177.72C1281.11 1186.37 1283.78 1193.45 1289.11 1198.97C1294.45 1204.33 1301.33 1207.02 1309.78 1207.02H1314.67C1316.74 1207.02 1318.37 1207.69 1319.56 1209.03C1320.89 1210.22 1321.56 1211.86 1321.56 1213.95C1321.56 1215.89 1320.89 1217.53 1319.56 1218.87C1318.37 1220.06 1316.74 1220.66 1314.67 1220.66H1309.56Z" fill="url(#paint5_linear)"/>
<path d="M1373.84 1220.66C1365.4 1220.66 1358.44 1217.23 1352.96 1210.37C1347.62 1203.51 1344.96 1194.64 1344.96 1183.76V1052.71C1344.96 1050.62 1345.55 1048.98 1346.74 1047.79C1348.07 1046.6 1349.7 1046 1351.62 1046C1353.7 1046 1355.33 1046.6 1356.51 1047.79C1357.7 1048.98 1358.29 1050.62 1358.29 1052.71V1183.76C1358.29 1190.62 1359.7 1196.28 1362.51 1200.75C1365.47 1205.08 1369.25 1207.24 1373.84 1207.24H1379.4C1383.1 1207.24 1384.95 1209.48 1384.95 1213.95C1384.95 1215.89 1384.36 1217.53 1383.18 1218.87C1381.99 1220.06 1380.36 1220.66 1378.29 1220.66H1373.84Z" fill="url(#paint6_linear)"/>
<path d="M1456.34 1221.78C1444.64 1221.78 1434.19 1219.17 1425.01 1213.95C1415.97 1208.58 1408.86 1201.2 1403.68 1191.81C1398.49 1182.42 1395.9 1171.68 1395.9 1159.61C1395.9 1147.38 1398.34 1136.65 1403.23 1127.4C1408.12 1118.01 1414.86 1110.63 1423.45 1105.26C1432.04 1099.9 1441.9 1097.21 1453.01 1097.21C1463.97 1097.21 1473.67 1099.82 1482.11 1105.04C1490.56 1110.11 1497.15 1117.19 1501.89 1126.28C1506.63 1135.23 1509 1145.59 1509 1157.37C1509 1159.31 1508.41 1160.87 1507.22 1162.07C1506.04 1163.11 1504.48 1163.63 1502.56 1163.63H1409.45C1409.9 1172.58 1412.19 1180.48 1416.34 1187.34C1420.49 1194.19 1425.97 1199.56 1432.78 1203.44C1439.75 1207.31 1447.6 1209.25 1456.34 1209.25C1462.12 1209.25 1467.89 1208.28 1473.67 1206.35C1479.6 1204.26 1484.26 1201.57 1487.67 1198.29C1488.85 1197.1 1490.26 1196.51 1491.89 1196.51C1493.67 1196.36 1495.15 1196.8 1496.33 1197.85C1497.96 1199.19 1498.78 1200.68 1498.78 1202.32C1498.93 1203.96 1498.26 1205.45 1496.78 1206.79C1492.04 1211.12 1485.82 1214.69 1478.11 1217.53C1470.56 1220.36 1463.3 1221.78 1456.34 1221.78ZM1453.01 1109.74C1445.3 1109.74 1438.34 1111.52 1432.12 1115.1C1425.9 1118.68 1420.79 1123.68 1416.79 1130.09C1412.93 1136.35 1410.56 1143.65 1409.68 1152H1496.11C1495.08 1139.48 1490.63 1129.34 1482.78 1121.59C1474.93 1113.69 1465 1109.74 1453.01 1109.74Z" fill="url(#paint7_linear)"/>
<path d="M11.5668 1220.92C8.30439 1220.92 5.56098 1219.8 3.33659 1217.56C1.1122 1215.32 0 1212.56 0 1209.27V1057.65C0 1054.21 1.1122 1051.45 3.33659 1049.36C5.56098 1047.12 8.30439 1046 11.5668 1046H64.7298C74.8137 1046 83.6371 1048.02 91.2 1052.05C98.9112 1055.93 104.917 1061.38 109.218 1068.4C113.666 1075.41 115.891 1083.48 115.891 1092.59C115.891 1099.9 113.889 1106.55 109.885 1112.52C106.029 1118.34 100.691 1122.97 93.8693 1126.4C103.657 1128.79 111.516 1133.5 117.448 1140.51C123.379 1147.53 126.345 1156.72 126.345 1168.06C126.345 1178.37 123.899 1187.47 119.005 1195.39C114.259 1203.3 107.586 1209.57 98.9853 1214.2C90.3844 1218.68 80.5229 1220.92 69.401 1220.92H11.5668ZM23.1337 1117.89H64.7298C73.1824 1117.89 80.078 1115.8 85.4166 1111.62C90.9034 1107.44 93.6468 1101.1 93.6468 1092.59C93.6468 1084.07 90.9034 1077.8 85.4166 1073.77C80.078 1069.59 73.1824 1067.5 64.7298 1067.5H23.1337V1117.89ZM23.1337 1199.42H69.401C79.4849 1199.42 87.7893 1196.81 94.3141 1191.58C100.839 1186.2 104.101 1178.37 104.101 1168.06C104.101 1158.51 100.839 1151.34 94.3141 1146.56C87.7893 1141.78 79.4849 1139.39 69.401 1139.39H23.1337V1199.42Z" fill="url(#paint8_linear)"/>
<path d="M212.353 1222.04C200.638 1222.04 190.183 1219.43 180.989 1214.2C171.943 1208.83 164.825 1201.43 159.635 1192.03C154.444 1182.62 151.849 1171.87 151.849 1159.78C151.849 1147.53 154.296 1136.78 159.19 1127.52C164.083 1118.12 170.831 1110.73 179.432 1105.35C188.033 1099.98 197.894 1097.29 209.016 1097.29C219.99 1097.29 229.703 1099.9 238.156 1105.13C246.608 1110.2 253.207 1117.3 257.953 1126.4C262.698 1135.36 265.071 1145.74 265.071 1157.54C265.071 1159.48 264.478 1161.05 263.291 1162.24C262.105 1163.28 260.548 1163.81 258.62 1163.81H165.418C165.863 1172.77 168.162 1180.68 172.314 1187.55C176.466 1194.42 181.953 1199.79 188.774 1203.67C195.744 1207.56 203.603 1209.5 212.353 1209.5C218.136 1209.5 223.92 1208.53 229.703 1206.59C235.635 1204.5 240.306 1201.81 243.717 1198.52C244.903 1197.33 246.312 1196.73 247.943 1196.73C249.722 1196.58 251.205 1197.03 252.392 1198.07C254.023 1199.42 254.839 1200.91 254.839 1202.55C254.987 1204.2 254.32 1205.69 252.837 1207.03C248.091 1211.36 241.863 1214.95 234.152 1217.78C226.589 1220.62 219.323 1222.04 212.353 1222.04ZM209.016 1109.83C201.305 1109.83 194.335 1111.62 188.107 1115.21C181.879 1118.79 176.763 1123.79 172.759 1130.21C168.903 1136.48 166.53 1143.8 165.641 1152.16H252.169C251.131 1139.62 246.683 1129.47 238.823 1121.7C230.963 1113.79 221.028 1109.83 209.016 1109.83Z" fill="url(#paint9_linear)"/>
<path d="M345.337 1222.26C333.473 1222.26 322.796 1219.58 313.305 1214.2C303.963 1208.68 296.548 1201.21 291.061 1191.8C285.723 1182.25 283.054 1171.57 283.054 1159.78C283.054 1147.83 285.723 1137.16 291.061 1127.75C296.548 1118.19 303.963 1110.73 313.305 1105.35C322.796 1099.83 333.473 1097.06 345.337 1097.06C357.2 1097.06 367.803 1099.83 377.145 1105.35C386.488 1110.73 393.828 1118.19 399.167 1127.75C404.654 1137.16 407.397 1147.83 407.397 1159.78V1214.2C407.397 1216.14 406.804 1217.78 405.617 1219.13C404.431 1220.32 402.8 1220.92 400.724 1220.92C398.796 1220.92 397.165 1220.32 395.83 1219.13C394.644 1217.78 394.051 1216.14 394.051 1214.2V1196.73C389.157 1204.5 382.484 1210.69 374.031 1215.32C365.578 1219.95 356.014 1222.26 345.337 1222.26ZM345.337 1209.72C354.679 1209.72 362.983 1207.56 370.25 1203.23C377.664 1198.75 383.448 1192.77 387.6 1185.31C391.9 1177.69 394.051 1169.18 394.051 1159.78C394.051 1150.22 391.9 1141.71 387.6 1134.24C383.448 1126.63 377.664 1120.66 370.25 1116.33C362.983 1111.85 354.679 1109.61 345.337 1109.61C336.142 1109.61 327.838 1111.85 320.423 1116.33C313.009 1120.66 307.151 1126.63 302.851 1134.24C298.55 1141.71 296.4 1150.22 296.4 1159.78C296.4 1169.18 298.55 1177.69 302.851 1185.31C307.151 1192.77 313.009 1198.75 320.423 1203.23C327.838 1207.56 336.142 1209.72 345.337 1209.72Z" fill="url(#paint10_linear)"/>
<path d="M494.751 1222.49C484.074 1222.49 474.509 1220.32 466.057 1215.99C457.604 1211.51 450.857 1205.02 445.815 1196.51C440.921 1188 438.474 1177.62 438.474 1165.38V1105.13C438.474 1103.19 439.067 1101.62 440.254 1100.42C441.588 1099.08 443.219 1098.41 445.147 1098.41C447.075 1098.41 448.632 1099.08 449.819 1100.42C451.153 1101.62 451.82 1103.19 451.82 1105.13V1165.38C451.82 1175.08 453.674 1183.22 457.381 1189.79C461.237 1196.21 466.353 1201.06 472.73 1204.35C479.255 1207.48 486.595 1209.05 494.751 1209.05C502.759 1209.05 509.951 1207.48 516.328 1204.35C522.704 1201.21 527.746 1197.03 531.454 1191.8C535.161 1186.43 537.015 1180.38 537.015 1173.66V1105.13C537.015 1103.04 537.608 1101.39 538.794 1100.2C540.129 1099.01 541.76 1098.41 543.688 1098.41C545.764 1098.41 547.395 1099.01 548.581 1100.2C549.768 1101.39 550.361 1103.04 550.361 1105.13V1214.2C550.361 1216.14 549.768 1217.78 548.581 1219.13C547.395 1220.32 545.764 1220.92 543.688 1220.92C541.76 1220.92 540.129 1220.32 538.794 1219.13C537.608 1217.78 537.015 1216.14 537.015 1214.2V1202.55C532.121 1208.68 525.967 1213.53 518.552 1217.11C511.286 1220.7 503.352 1222.49 494.751 1222.49Z" fill="url(#paint11_linear)"/>
<path d="M640.193 1220.92C632.037 1220.77 624.771 1218.9 618.394 1215.32C612.018 1211.59 607.05 1206.51 603.491 1200.09C599.932 1193.52 598.152 1186.13 598.152 1177.92V1114.98H580.802C579.023 1114.98 577.54 1114.46 576.353 1113.41C575.315 1112.22 574.796 1110.73 574.796 1108.94C574.796 1107.14 575.315 1105.72 576.353 1104.68C577.54 1103.49 579.023 1102.89 580.802 1102.89H598.152V1066.38C598.152 1064.29 598.745 1062.65 599.932 1061.45C601.266 1060.11 602.898 1059.44 604.825 1059.44C606.902 1059.44 608.533 1060.11 609.719 1061.45C611.054 1062.65 611.721 1064.29 611.721 1066.38V1102.89H641.083C642.863 1102.89 644.271 1103.49 645.309 1104.68C646.496 1105.72 647.089 1107.14 647.089 1108.94C647.089 1110.73 646.496 1112.22 645.309 1113.41C644.271 1114.46 642.863 1114.98 641.083 1114.98H611.721V1177.92C611.721 1186.58 614.39 1193.67 619.729 1199.19C625.067 1204.57 631.963 1207.26 640.416 1207.26H645.309C647.385 1207.26 649.017 1207.93 650.203 1209.27C651.538 1210.47 652.205 1212.11 652.205 1214.2C652.205 1216.14 651.538 1217.78 650.203 1219.13C649.017 1220.32 647.385 1220.92 645.309 1220.92H640.193Z" fill="url(#paint12_linear)"/>
<path d="M700.323 1274C699.433 1274 698.395 1273.78 697.209 1273.33C693.205 1271.69 692.093 1268.92 693.872 1265.04L716.116 1216.66C715.82 1216.22 715.523 1215.69 715.227 1215.1L666.512 1107.59C664.585 1103.56 665.548 1100.65 669.404 1098.86C673.408 1096.92 676.3 1097.89 678.079 1101.77L723.234 1201.21L768.612 1101.99C770.391 1098.26 773.135 1097.14 776.842 1098.63C780.846 1100.28 781.958 1103.04 780.179 1106.92L705.439 1269.97C704.105 1272.66 702.399 1274 700.323 1274Z" fill="url(#paint13_linear)"/>
<path d="M950.911 41.6641C945.973 41.6641 941.977 45.6857 941.977 50.5982C941.977 54.0599 943.911 57.1396 947.016 58.6414H947.042C947.525 58.8705 947.933 59.0486 948.289 59.125C954.449 61.0086 959.845 56.3761 959.845 50.5982C959.845 45.6603 955.823 41.6641 950.911 41.6641Z" fill="url(#paint14_linear)"/>
<path d="M894.094 145.895C893.509 146.074 892.949 146.175 892.414 146.175C891.676 146.175 890.989 145.997 890.327 145.641C881.037 140.525 885.033 87.8618 890.505 41.7149C864.492 121.969 850.366 139.812 842.959 139.812C842.704 139.812 842.475 139.787 842.246 139.761C834.966 138.565 826.312 117.948 826.388 26.952C807.222 98.2977 793.197 134.467 784.67 134.467C784.467 134.467 784.263 134.442 784.06 134.416C773.827 132.278 762.424 71.9026 754.61 21.0977C754.534 21.0977 754.483 21.1231 754.406 21.1231C754.33 21.1231 754.279 21.0977 754.203 21.0977C746.389 71.928 734.986 132.303 724.753 134.416C724.55 134.467 724.346 134.467 724.142 134.467C715.616 134.467 701.565 98.2977 682.424 26.952C682.501 117.948 673.847 138.565 666.567 139.761C666.338 139.787 666.109 139.812 665.854 139.812C658.447 139.812 644.321 121.969 618.307 41.7149C623.754 87.8364 627.751 140.499 618.46 145.616C617.824 145.972 617.136 146.15 616.398 146.15C615.864 146.15 615.304 146.048 614.718 145.87C603.544 142.358 580.153 98.934 564.906 68.5173C573.535 97.4577 589.774 151.953 594.432 167.658C603.035 156.56 640.248 150.401 663.563 147.575C690.315 144.317 721.724 142.587 754.381 142.587C787.038 142.587 818.447 144.317 845.199 147.575C868.514 150.401 905.701 156.56 914.33 167.658C919.013 151.953 935.227 97.4323 943.881 68.4919C928.609 99.0868 905.243 142.383 894.094 145.895Z" fill="url(#paint15_linear)"/>
<path d="M899.825 169.445C894.887 169.445 890.891 173.467 890.891 178.405C890.891 183.343 894.912 187.339 899.825 187.339C904.763 187.339 908.784 183.317 908.784 178.405C908.81 173.467 904.788 169.445 899.825 169.445Z" fill="url(#paint16_linear)"/>
<path d="M891.65 32.9885C892.108 33.1412 892.592 33.243 893.101 33.2939C893.534 33.3448 893.916 33.3703 894.297 33.3703C899.235 33.3703 903.232 29.3487 903.232 24.4362C903.232 19.4982 899.21 15.4766 894.297 15.4766C889.359 15.4766 885.363 19.4982 885.363 24.4362C885.363 28.3051 887.934 31.8176 891.625 32.963L891.65 32.9885Z" fill="url(#paint17_linear)"/>
<path d="M871.798 177.077L875.54 171.681L871.798 166.336L868.082 171.681L871.798 177.077Z" fill="url(#paint18_linear)"/>
<path d="M839.168 184.307C813.842 181.508 784.545 180.031 754.408 180.031C724.272 180.031 694.975 181.508 669.649 184.307C615.153 190.34 595.809 200.139 595.809 206.706C595.809 219.586 659.518 233.382 754.383 233.382C849.248 233.382 912.957 219.586 912.957 206.706C913.008 200.139 893.664 190.34 839.168 184.307ZM754.434 229.385C683.546 229.385 626.047 219.229 626.047 206.706C626.047 198.587 650.126 191.485 686.346 187.464C706.073 185.275 729.413 184.027 754.408 184.027C779.404 184.027 802.744 185.275 822.471 187.464C858.691 191.46 882.77 198.587 882.77 206.706C882.795 219.204 825.321 229.385 754.434 229.385Z" fill="url(#paint19_linear)"/>
<path d="M843.925 157.303H843.874C843.39 157.176 842.78 157.125 842.143 157.125C837.205 157.125 833.184 161.147 833.184 166.059C833.184 170.284 836.213 173.975 840.361 174.841C840.921 174.968 841.481 175.044 842.143 175.044C847.081 175.044 851.077 171.023 851.077 166.085C851.077 161.834 848.074 158.169 843.925 157.303Z" fill="url(#paint20_linear)"/>
<path d="M825.827 22.9338C831.732 24.5119 837.026 19.9303 837.052 14.3052C837.052 9.36727 833.03 5.37109 828.118 5.37109C823.18 5.37109 819.184 9.39272 819.184 14.3052C819.158 18.3522 821.907 21.9156 825.827 22.9338Z" fill="url(#paint21_linear)"/>
<path d="M809.52 163.513L813.261 168.884L817.003 163.513L813.261 158.168L809.52 163.513Z" fill="url(#paint22_linear)"/>
<path d="M784.417 152.238C779.479 152.238 775.457 156.26 775.457 161.172C775.457 166.11 779.479 170.106 784.417 170.106C789.355 170.106 793.351 166.085 793.351 161.172C793.351 156.26 789.329 152.238 784.417 152.238Z" fill="url(#paint23_linear)"/>
<path d="M557.934 41.6641C552.996 41.6641 549 45.6857 549 50.5982C549 55.5107 553.022 59.5323 557.934 59.5323C558.774 59.5323 559.64 59.4051 560.429 59.1505C560.912 59.0487 561.319 58.8705 561.778 58.6414H561.803C564.908 57.1397 566.843 54.0599 566.843 50.5982C566.868 45.6603 562.872 41.6641 557.934 41.6641Z" fill="url(#paint24_linear)"/>
<path d="M844.87 150.784C818.245 147.551 786.963 145.82 754.434 145.82C721.904 145.82 690.622 147.526 663.998 150.784C613.702 156.893 595.859 166.31 595.859 172.521V200.418C607.721 189.142 649.642 183.288 669.343 181.099C694.771 178.273 724.195 176.797 754.434 176.797C784.672 176.797 814.096 178.273 839.524 181.099C859.225 183.288 901.172 189.142 913.008 200.418L913.059 172.495H912.983C913.008 166.31 895.165 156.893 844.87 150.784ZM609.019 190.567C602.299 190.567 596.852 185.12 596.852 178.426C596.852 171.706 602.325 166.259 609.019 166.259C615.713 166.259 621.16 171.732 621.16 178.426C621.16 185.12 615.713 190.567 609.019 190.567ZM637.043 182.702L629.381 171.681L637.043 160.711L644.653 171.681L637.043 182.702ZM669.14 177.968C669.089 177.968 669.038 177.993 668.987 177.993C668.325 178.146 667.562 178.223 666.696 178.223C660.002 178.223 654.555 172.75 654.555 166.056C654.555 160.329 658.627 155.34 664.227 154.169C664.278 154.169 664.329 154.169 664.38 154.144C665.093 153.991 665.856 153.889 666.696 153.889C673.416 153.889 678.863 159.336 678.863 166.03C678.888 171.808 674.79 176.797 669.14 177.968ZM695.56 174.481L687.95 163.51L695.56 152.54L703.222 163.51L695.56 174.481ZM724.424 173.335C717.73 173.335 712.283 167.888 712.283 161.194C712.283 154.5 717.73 149.053 724.424 149.053C731.144 149.053 736.591 154.5 736.591 161.194C736.616 167.888 731.144 173.335 724.424 173.335ZM754.434 173.335C747.74 173.335 742.292 167.888 742.292 161.194C742.292 154.5 747.74 149.053 754.434 149.053C761.128 149.053 766.575 154.5 766.575 161.194C766.575 167.888 761.128 173.335 754.434 173.335ZM784.418 173.335C777.698 173.335 772.251 167.888 772.251 161.194C772.251 154.5 777.724 149.053 784.418 149.053C791.112 149.053 796.559 154.5 796.559 161.194C796.559 167.888 791.112 173.335 784.418 173.335ZM813.282 174.481L805.62 163.51L813.282 152.54L820.892 163.51L813.282 174.481ZM842.146 178.223C841.306 178.223 840.568 178.146 839.855 177.993C839.779 177.968 839.728 177.968 839.652 177.968C834.052 176.823 829.954 171.808 829.954 166.056C829.954 159.362 835.426 153.915 842.121 153.915C842.961 153.915 843.724 154.016 844.437 154.169C844.488 154.169 844.539 154.169 844.59 154.194C850.189 155.365 854.262 160.354 854.262 166.081C854.287 172.776 848.84 178.223 842.146 178.223ZM871.799 182.702L864.189 171.681L871.799 160.711L879.461 171.681L871.799 182.702ZM899.823 190.567C893.129 190.567 887.682 185.12 887.682 178.426C887.682 171.706 893.129 166.259 899.823 166.259C906.543 166.259 911.99 171.732 911.99 178.426C912.015 185.12 906.543 190.567 899.823 190.567Z" fill="url(#paint25_linear)"/>
<path d="M609.014 169.445C604.076 169.445 600.055 173.467 600.055 178.405C600.055 183.343 604.076 187.339 609.014 187.339C613.952 187.339 617.948 183.317 617.948 178.405C617.948 173.467 613.927 169.445 609.014 169.445Z" fill="url(#paint26_linear)"/>
<path d="M623.454 24.4596C623.454 19.5216 619.433 15.5 614.52 15.5C609.608 15.5 605.586 19.5216 605.586 24.4596C605.586 29.3976 609.608 33.3938 614.52 33.3938C614.927 33.3938 615.284 33.3683 615.665 33.3174C616.225 33.2665 616.709 33.1647 617.167 33.012H617.193C620.883 31.8157 623.454 28.3031 623.454 24.4596Z" fill="url(#paint27_linear)"/>
<path d="M633.305 171.681L637.046 177.077L640.762 171.681L637.046 166.336L633.305 171.681Z" fill="url(#paint28_linear)"/>
<path d="M666.7 157.125C666.063 157.125 665.453 157.176 664.969 157.303H664.918C660.769 158.169 657.766 161.834 657.766 166.059C657.766 170.997 661.787 175.019 666.7 175.019C667.362 175.019 667.921 174.968 668.431 174.841C672.63 173.975 675.659 170.284 675.659 166.059C675.685 161.121 671.663 157.125 666.7 157.125Z" fill="url(#paint29_linear)"/>
<path d="M683.012 22.9338C686.932 21.9156 689.681 18.3522 689.681 14.3052C689.681 9.36726 685.659 5.37109 680.747 5.37109C675.834 5.37109 671.812 9.39272 671.812 14.3052C671.812 19.2431 675.834 23.2393 680.747 23.2393C681.536 23.2393 682.274 23.1374 683.012 22.9338Z" fill="url(#paint30_linear)"/>
<path d="M695.564 168.884L699.331 163.513L695.564 158.168L691.848 163.513L695.564 168.884Z" fill="url(#paint31_linear)"/>
<path d="M724.422 152.238C719.484 152.238 715.488 156.26 715.488 161.172C715.488 166.11 719.51 170.106 724.422 170.106C729.36 170.106 733.382 166.085 733.382 161.172C733.407 156.26 729.386 152.238 724.422 152.238Z" fill="url(#paint32_linear)"/>
<path d="M752.038 17.5119C752.318 17.5882 752.598 17.6645 752.903 17.7154C753.387 17.7918 753.896 17.8682 754.405 17.8682C754.914 17.8682 755.398 17.7918 755.881 17.7154C756.212 17.6645 756.517 17.5882 756.823 17.4864C757.052 17.41 757.281 17.3591 757.51 17.2827C757.816 17.1809 758.096 17.0282 758.375 16.9009C758.579 16.7991 758.783 16.6973 758.986 16.57C759.266 16.4173 759.521 16.2392 759.775 16.0355C759.954 15.9083 760.132 15.7556 760.31 15.6029C760.539 15.3992 760.768 15.1701 760.972 14.9411C761.125 14.7629 761.277 14.5847 761.43 14.4066C761.608 14.1775 761.812 13.9229 761.964 13.6684C762.092 13.4648 762.219 13.2357 762.321 13.0066C762.448 12.752 762.601 12.4975 762.703 12.2175C762.804 11.9375 762.906 11.6321 762.983 11.3267C763.059 11.0976 763.135 10.8685 763.186 10.6394C763.288 10.0795 763.364 9.51947 763.364 8.93404C763.364 3.99611 759.343 0 754.43 0C749.492 0 745.496 4.02156 745.496 8.93404C745.496 9.51947 745.572 10.0795 745.674 10.6394C745.725 10.8685 745.802 11.0976 745.852 11.3013C745.929 11.6067 746.031 11.9121 746.132 12.2175C746.234 12.4721 746.362 12.7012 746.489 12.9557C746.616 13.2102 746.743 13.4393 746.871 13.6684C747.023 13.8975 747.176 14.1266 747.354 14.3302C747.532 14.5593 747.685 14.7629 747.889 14.9665C748.067 15.1702 748.245 15.3483 748.449 15.5265C748.678 15.7301 748.881 15.9082 749.136 16.0864C749.34 16.2391 749.543 16.3664 749.747 16.5191C750.001 16.6719 750.281 16.8246 750.536 16.9519C750.765 17.0537 750.994 17.1809 751.223 17.2573C751.503 17.3846 751.758 17.4355 752.038 17.5119Z" fill="url(#paint33_linear)"/>
<path d="M754.43 152.238C749.492 152.238 745.496 156.26 745.496 161.172C745.496 166.11 749.518 170.106 754.43 170.106C759.368 170.106 763.364 166.085 763.364 161.172C763.364 156.26 759.343 152.238 754.43 152.238Z" fill="url(#paint34_linear)"/>
<defs>
<filter id="filter0_d" x="237" y="103" width="1036" height="855" filterUnits="userSpaceOnUse" color-interpolation-filters="sRGB">
<feFlood flood-opacity="0" result="BackgroundImageFix"/>
<feColorMatrix in="SourceAlpha" type="matrix" values="0 0 0 0 0 0 0 0 0 0 0 0 0 0 0 0 0 0 127 0"/>
<feOffset dy="16"/>
<feGaussianBlur stdDeviation="15"/>
<feColorMatrix type="matrix" values="0 0 0 0 0 0 0 0 0 0 0 0 0 0 0 0 0 0 0.31 0"/>
<feBlend mode="normal" in2="BackgroundImageFix" result="effect1_dropShadow"/>
<feBlend mode="normal" in="SourceGraphic" in2="effect1_dropShadow" result="shape"/>
</filter>
<filter id="filter1_d" x="263" y="117" width="460" height="803" filterUnits="userSpaceOnUse" color-interpolation-filters="sRGB">
<feFlood flood-opacity="0" result="BackgroundImageFix"/>
<feColorMatrix in="SourceAlpha" type="matrix" values="0 0 0 0 0 0 0 0 0 0 0 0 0 0 0 0 0 0 127 0"/>
<feOffset dy="4"/>
<feGaussianBlur stdDeviation="2"/>
<feColorMatrix type="matrix" values="0 0 0 0 0 0 0 0 0 0 0 0 0 0 0 0 0 0 0.25 0"/>
<feBlend mode="normal" in2="BackgroundImageFix" result="effect1_dropShadow"/>
<feBlend mode="normal" in="SourceGraphic" in2="effect1_dropShadow" result="shape"/>
</filter>
<filter id="filter2_f" x="363" y="529" width="286" height="245" filterUnits="userSpaceOnUse" color-interpolation-filters="sRGB">
<feFlood flood-opacity="0" result="BackgroundImageFix"/>
<feBlend mode="normal" in="SourceGraphic" in2="BackgroundImageFix" result="shape"/>
<feGaussianBlur stdDeviation="1.5" result="effect1_foregroundBlur"/>
</filter>
<filter id="filter3_f" x="864" y="529" width="286" height="245" filterUnits="userSpaceOnUse" color-interpolation-filters="sRGB">
<feFlood flood-opacity="0" result="BackgroundImageFix"/>
<feBlend mode="normal" in="SourceGraphic" in2="BackgroundImageFix" result="shape"/>
<feGaussianBlur stdDeviation="1.5" result="effect1_foregroundBlur"/>
</filter>
<linearGradient id="paint0_linear" x1="675.36" y1="912.001" x2="169.412" y2="723.81" gradientUnits="userSpaceOnUse">
<stop offset="0.223842" stop-color="#CC8128"/>
<stop offset="1" stop-color="#FFCB28"/>
</linearGradient>
<linearGradient id="paint1_linear" x1="834.64" y1="912.001" x2="1340.59" y2="723.81" gradientUnits="userSpaceOnUse">
<stop offset="0.223842" stop-color="#CC8128"/>
<stop offset="1" stop-color="#FFCB28"/>
</linearGradient>
<linearGradient id="paint2_linear" x1="1446.44" y1="1222" x2="1325.04" y2="929.601" gradientUnits="userSpaceOnUse">
<stop offset="0.223842" stop-color="#CC8128"/>
<stop offset="1" stop-color="#FFCB28"/>
</linearGradient>
<linearGradient id="paint3_linear" x1="1446.44" y1="1222" x2="1325.04" y2="929.601" gradientUnits="userSpaceOnUse">
<stop offset="0.223842" stop-color="#CC8128"/>
<stop offset="1" stop-color="#FFCB28"/>
</linearGradient>
<linearGradient id="paint4_linear" x1="1446.44" y1="1222" x2="1325.04" y2="929.601" gradientUnits="userSpaceOnUse">
<stop offset="0.223842" stop-color="#CC8128"/>
<stop offset="1" stop-color="#FFCB28"/>
</linearGradient>
<linearGradient id="paint5_linear" x1="1446.44" y1="1222" x2="1325.04" y2="929.601" gradientUnits="userSpaceOnUse">
<stop offset="0.223842" stop-color="#CC8128"/>
<stop offset="1" stop-color="#FFCB28"/>
</linearGradient>
<linearGradient id="paint6_linear" x1="1446.44" y1="1222" x2="1325.04" y2="929.601" gradientUnits="userSpaceOnUse">
<stop offset="0.223842" stop-color="#CC8128"/>
<stop offset="1" stop-color="#FFCB28"/>
</linearGradient>
<linearGradient id="paint7_linear" x1="1446.44" y1="1222" x2="1325.04" y2="929.601" gradientUnits="userSpaceOnUse">
<stop offset="0.223842" stop-color="#CC8128"/>
<stop offset="1" stop-color="#FFCB28"/>
</linearGradient>
<linearGradient id="paint8_linear" x1="705.596" y1="1274" x2="540.34" y2="903.666" gradientUnits="userSpaceOnUse">
<stop offset="0.223842" stop-color="#CC8128"/>
<stop offset="1" stop-color="#FFCB28"/>
</linearGradient>
<linearGradient id="paint9_linear" x1="705.596" y1="1274" x2="540.34" y2="903.666" gradientUnits="userSpaceOnUse">
<stop offset="0.223842" stop-color="#CC8128"/>
<stop offset="1" stop-color="#FFCB28"/>
</linearGradient>
<linearGradient id="paint10_linear" x1="705.596" y1="1274" x2="540.34" y2="903.666" gradientUnits="userSpaceOnUse">
<stop offset="0.223842" stop-color="#CC8128"/>
<stop offset="1" stop-color="#FFCB28"/>
</linearGradient>
<linearGradient id="paint11_linear" x1="705.596" y1="1274" x2="540.34" y2="903.666" gradientUnits="userSpaceOnUse">
<stop offset="0.223842" stop-color="#CC8128"/>
<stop offset="1" stop-color="#FFCB28"/>
</linearGradient>
<linearGradient id="paint12_linear" x1="705.596" y1="1274" x2="540.34" y2="903.666" gradientUnits="userSpaceOnUse">
<stop offset="0.223842" stop-color="#CC8128"/>
<stop offset="1" stop-color="#FFCB28"/>
</linearGradient>
<linearGradient id="paint13_linear" x1="705.596" y1="1274" x2="540.34" y2="903.666" gradientUnits="userSpaceOnUse">
<stop offset="0.223842" stop-color="#CC8128"/>
<stop offset="1" stop-color="#FFCB28"/>
</linearGradient>
<linearGradient id="paint14_linear" x1="958.061" y1="59.4741" x2="942.241" y2="49.13" gradientUnits="userSpaceOnUse">
<stop offset="0.223842" stop-color="#CC8128"/>
<stop offset="1" stop-color="#FFCB28"/>
</linearGradient>
<linearGradient id="paint15_linear" x1="906.053" y1="167.026" x2="782.116" y2="-42.7437" gradientUnits="userSpaceOnUse">
<stop offset="0.223842" stop-color="#CC8128"/>
<stop offset="1" stop-color="#FFCB28"/>
</linearGradient>
<linearGradient id="paint16_linear" x1="906.998" y1="187.262" x2="891.166" y2="176.898" gradientUnits="userSpaceOnUse">
<stop offset="0.223842" stop-color="#CC8128"/>
<stop offset="1" stop-color="#FFCB28"/>
</linearGradient>
<linearGradient id="paint17_linear" x1="901.448" y1="33.2931" x2="885.625" y2="22.9505" gradientUnits="userSpaceOnUse">
<stop offset="0.223842" stop-color="#CC8128"/>
<stop offset="1" stop-color="#FFCB28"/>
</linearGradient>
<linearGradient id="paint18_linear" x1="874.795" y1="177.031" x2="866.983" y2="173.48" gradientUnits="userSpaceOnUse">
<stop offset="0.223842" stop-color="#CC8128"/>
<stop offset="1" stop-color="#FFCB28"/>
</linearGradient>
<linearGradient id="paint19_linear" x1="881.301" y1="233.152" x2="856.467" y2="136.519" gradientUnits="userSpaceOnUse">
<stop offset="0.223842" stop-color="#CC8128"/>
<stop offset="1" stop-color="#FFCB28"/>
</linearGradient>
<linearGradient id="paint20_linear" x1="849.291" y1="174.967" x2="833.445" y2="164.61" gradientUnits="userSpaceOnUse">
<stop offset="0.223842" stop-color="#CC8128"/>
<stop offset="1" stop-color="#FFCB28"/>
</linearGradient>
<linearGradient id="paint21_linear" x1="835.268" y1="23.1716" x2="819.453" y2="12.8252" gradientUnits="userSpaceOnUse">
<stop offset="0.223842" stop-color="#CC8128"/>
<stop offset="1" stop-color="#FFCB28"/>
</linearGradient>
<linearGradient id="paint22_linear" x1="816.256" y1="168.838" x2="808.432" y2="165.262" gradientUnits="userSpaceOnUse">
<stop offset="0.223842" stop-color="#CC8128"/>
<stop offset="1" stop-color="#FFCB28"/>
</linearGradient>
<linearGradient id="paint23_linear" x1="791.565" y1="170.029" x2="775.746" y2="159.66" gradientUnits="userSpaceOnUse">
<stop offset="0.223842" stop-color="#CC8128"/>
<stop offset="1" stop-color="#FFCB28"/>
</linearGradient>
<linearGradient id="paint24_linear" x1="565.062" y1="59.4553" x2="549.261" y2="49.1273" gradientUnits="userSpaceOnUse">
<stop offset="0.223842" stop-color="#CC8128"/>
<stop offset="1" stop-color="#FFCB28"/>
</linearGradient>
<linearGradient id="paint25_linear" x1="881.397" y1="200.182" x2="855.468" y2="101.578" gradientUnits="userSpaceOnUse">
<stop offset="0.223842" stop-color="#CC8128"/>
<stop offset="1" stop-color="#FFCB28"/>
</linearGradient>
<linearGradient id="paint26_linear" x1="616.162" y1="187.262" x2="600.33" y2="176.899" gradientUnits="userSpaceOnUse">
<stop offset="0.223842" stop-color="#CC8128"/>
<stop offset="1" stop-color="#FFCB28"/>
</linearGradient>
<linearGradient id="paint27_linear" x1="621.671" y1="33.3166" x2="605.847" y2="22.974" gradientUnits="userSpaceOnUse">
<stop offset="0.223842" stop-color="#CC8128"/>
<stop offset="1" stop-color="#FFCB28"/>
</linearGradient>
<linearGradient id="paint28_linear" x1="640.018" y1="177.031" x2="632.206" y2="173.48" gradientUnits="userSpaceOnUse">
<stop offset="0.223842" stop-color="#CC8128"/>
<stop offset="1" stop-color="#FFCB28"/>
</linearGradient>
<linearGradient id="paint29_linear" x1="673.873" y1="174.942" x2="658.041" y2="164.578" gradientUnits="userSpaceOnUse">
<stop offset="0.223842" stop-color="#CC8128"/>
<stop offset="1" stop-color="#FFCB28"/>
</linearGradient>
<linearGradient id="paint30_linear" x1="687.897" y1="23.1622" x2="672.087" y2="12.8138" gradientUnits="userSpaceOnUse">
<stop offset="0.223842" stop-color="#CC8128"/>
<stop offset="1" stop-color="#FFCB28"/>
</linearGradient>
<linearGradient id="paint31_linear" x1="698.584" y1="168.838" x2="690.761" y2="165.262" gradientUnits="userSpaceOnUse">
<stop offset="0.223842" stop-color="#CC8128"/>
<stop offset="1" stop-color="#FFCB28"/>
</linearGradient>
<linearGradient id="paint32_linear" x1="731.596" y1="170.029" x2="715.777" y2="159.66" gradientUnits="userSpaceOnUse">
<stop offset="0.223842" stop-color="#CC8128"/>
<stop offset="1" stop-color="#FFCB28"/>
</linearGradient>
<linearGradient id="paint33_linear" x1="761.581" y1="17.7911" x2="745.771" y2="7.44261" gradientUnits="userSpaceOnUse">
<stop offset="0.223842" stop-color="#CC8128"/>
<stop offset="1" stop-color="#FFCB28"/>
</linearGradient>
<linearGradient id="paint34_linear" x1="761.581" y1="170.029" x2="745.771" y2="159.681" gradientUnits="userSpaceOnUse">
<stop offset="0.223842" stop-color="#CC8128"/>
<stop offset="1" stop-color="#FFCB28"/>
</linearGradient>
</defs>
</svg>
