<svg width="116" height="67" viewBox="0 0 116 67" fill="none" xmlns="http://www.w3.org/2000/svg">
<path fill-rule="evenodd" clip-rule="evenodd" d="M80.8466 41.2891C80.8403 41.3059 80.0352 43.4827 78.6146 45.2153L68.7342 45.2153C67.8907 45.2153 66.8464 44.8972 66.9724 44.0633C67.5557 40.2015 70.1629 37.7134 70.1629 37.7134C70.1629 37.7134 72.365 34.8169 75.0429 34.052C76.2834 33.8101 77.5148 34.1773 78.6146 34.9264C80.3714 36.123 82.1318 37.4137 80.8469 41.2882L80.8467 41.2885L80.8467 41.2887L80.8466 41.2891Z" fill="url(#paint0_linear)"/>
<path d="M64.5467 9.54156C66.1888 8.21439 67.9537 7.89007 69.9566 7.78473C70.221 7.77082 70.5746 7.66729 70.9861 7.54683L70.9863 7.54676C71.1877 7.4878 71.403 7.42478 71.6284 7.36624C71.9862 7.27334 72.3624 7.30619 72.7103 7.4311C72.7103 7.4311 73.3536 7.6466 73.1357 8.24252C73.1051 8.32611 73.0533 8.39944 73.0014 8.47281L73.0013 8.47286C72.9519 8.54282 72.9023 8.61282 72.8712 8.69178C73.2339 9.12642 73.4939 9.6173 73.6531 10.1333C74.0533 11.4301 73.9853 12.858 73.9174 14.2856C73.8471 15.7624 73.7768 17.2387 74.2247 18.5691C74.6631 19.8712 75.4663 22.4897 75.647 23.3394C76.8815 29.1439 80.2949 31.7597 80.2949 31.7597C80.4314 31.8565 80.564 31.949 80.6927 32.0388L80.693 32.039C81.9573 32.9212 83.3669 34.7264 83.9646 36.6001C84.2678 37.8215 84.4503 39.1767 84.2677 41.0251C84.2677 41.3319 84.2475 41.6173 84.2083 41.8827C84.2512 41.8853 84.2944 41.8946 84.3362 41.9113C84.9554 42.158 85.5816 42.3839 86.2139 42.589C92.2472 44.5453 98.7184 43.28 104.864 41.7101L105.267 41.607C105.596 41.607 105.862 41.8733 105.862 42.2017C105.862 42.5302 105.596 42.7965 105.267 42.7965L102.708 43.5944C98.0835 45.0364 93.2525 45.7943 88.4626 45.0715C86.9813 44.8479 85.5662 44.6026 84.3952 44.3868L82.9864 44.1273C82.0334 44.8785 80.609 45.1565 78.9201 45.2095L79.3868 44.4904C81.1215 41.8177 82.6364 38.436 80.4358 36.1317C79.6379 35.2962 78.6294 34.5856 77.5781 34.1215C74.8878 32.9339 72.2789 35.076 70.2549 37.209L69.5265 37.9766C69.6692 36.3126 69.4859 35.0715 69.3258 34.3681C69.2242 33.9218 69.0138 33.5127 68.7673 33.127C68.6577 32.9555 68.1507 32.0596 67.6372 31.1459C67.5654 31.0182 67.4031 31.0901 67.4414 31.2314C68.2407 34.1787 67.6132 37.8271 66.9723 40.7373C66.5165 42.8072 65.3647 45.3143 63.2504 45.2153L59.1167 45.0217C58.4144 43.7686 60.0884 42.0435 61.3594 42.7105C62.3229 43.2163 63.9274 41.2882 63.9274 41.2882C66.1019 34.052 64.2739 32.039 64.2739 32.039C60.9919 27.75 61.8724 22.0957 65.1865 18.3432C66.4344 16.9303 67.5076 15.6505 67.9315 14.9776C67.1276 14.8054 65.6285 15.0243 64.4171 15.2011L64.4155 15.2014L64.35 15.2109L64.314 15.2162C64.3006 15.2181 64.2872 15.2201 64.2739 15.222C63.78 15.294 63.5429 14.8286 63.5881 14.3312C63.5975 14.2277 63.5844 14.134 63.5371 14.0599L63.2816 13.7732C63.2443 13.7382 63.2058 13.7033 63.1672 13.6682L63.1663 13.6674C62.9799 13.4982 62.7897 13.3256 62.7155 13.1382C62.4712 12.521 62.7155 11.858 62.7155 11.858C62.4222 11.7065 62.243 11.3868 62.2444 11.0798C62.246 10.7437 62.5821 10.5474 62.8886 10.4097C63.42 10.171 64.2528 9.77902 64.5467 9.54156Z" fill="url(#paint1_linear)"/>
<path fill-rule="evenodd" clip-rule="evenodd" d="M70.3732 3.68078L74.951 5.31031L73.6736 8.89914C74.5676 9.35005 75.1037 9.76921 75.0223 10.01C74.9794 10.1989 74.7832 10.31 74.5991 10.2497L67.6603 7.97894C67.4245 7.90178 67.2868 7.65726 67.343 7.41564C67.4238 7.17656 68.0952 7.1668 69.0683 7.34649L70.3732 3.68078Z" fill="white"/>
<path fill-rule="evenodd" clip-rule="evenodd" d="M69.1479 3.07471C69.4659 2.80719 69.8908 2.72692 70.2846 2.85997C70.4767 2.92484 70.6452 3.03536 70.7791 3.18289C71.1045 2.98579 71.4983 2.94068 71.8674 3.06537C71.9033 3.0775 71.9381 3.09135 71.9722 3.10623L72.3156 2.93635C72.5296 2.8305 72.767 2.7986 72.9976 2.84232L73.1173 2.48798C73.1671 2.34061 73.088 2.18078 72.9406 2.131V2.131C72.861 2.10409 72.8182 2.01773 72.8451 1.93811C72.872 1.85849 72.9584 1.81577 73.038 1.84267L73.3049 1.93282L73.6858 2.06396C73.8139 2.10806 73.9991 2.18496 73.9557 2.31332V2.31332C73.9288 2.39294 73.8425 2.43567 73.7628 2.40875V2.40875C73.6154 2.35896 73.4556 2.43808 73.4058 2.58546L73.2861 2.93978C73.4959 3.04487 73.6654 3.2142 73.7713 3.42813L73.9412 3.77115C73.9584 3.7754 73.9755 3.77992 73.9926 3.78481C74.0104 3.78989 74.0281 3.79536 74.0458 3.80134C74.4149 3.92603 74.7007 4.20072 74.8399 4.55476C75.0358 4.51868 75.2368 4.53299 75.4289 4.59787C75.8227 4.73092 76.1119 5.05247 76.2025 5.45799C76.293 5.86353 76.1681 6.27735 75.8683 6.565L75.086 7.31534C75.1883 7.44093 75.2261 7.61466 75.1705 7.77907C75.1016 7.9831 74.9097 8.11149 74.7052 8.10999L74.3973 9.02134C74.5608 9.14422 74.6355 9.36264 74.5666 9.56667C74.4807 9.82104 74.2037 9.95804 73.9492 9.87205L68.2663 7.95216C68.0118 7.86618 67.8746 7.58929 67.9606 7.33491C68.0295 7.13088 68.2213 7.00251 68.4259 7.00399L68.7338 6.09264C68.5702 5.96976 68.4955 5.75134 68.5645 5.54731C68.6196 5.38408 68.7535 5.26932 68.9095 5.23067L68.7423 4.15759C68.6783 3.74706 68.8299 3.34223 69.1479 3.07471ZM70.8084 3.53536C70.5395 3.76166 70.4112 4.10409 70.4653 4.45138L70.6667 5.74354L71.8773 6.15253L72.3959 4.61749C72.5718 4.09667 72.291 3.52973 71.7699 3.35369C71.4368 3.24115 71.0774 3.30907 70.8084 3.53536ZM73.4985 3.56311C73.4058 3.37607 73.2459 3.23624 73.0482 3.16935L73.0479 3.16927L73.0476 3.16915C72.8498 3.10241 72.6378 3.1166 72.4507 3.20915L72.2786 3.2943C72.5224 3.49565 72.6842 3.77952 72.7353 4.0885C72.964 3.87315 73.266 3.74537 73.583 3.73383L73.4985 3.56311ZM73.9485 4.08968C73.4274 3.91363 72.8603 4.19413 72.6844 4.71495L72.1658 6.24999L73.3764 6.65897L74.3201 5.75367C74.5738 5.51035 74.6795 5.16029 74.6028 4.81724C74.5262 4.4742 74.2816 4.20222 73.9485 4.08968ZM75.9053 5.52423C75.8381 5.22341 75.6236 4.9849 75.3315 4.8862C75.1967 4.84065 75.0559 4.82865 74.9181 4.85014C74.9785 5.26539 74.8377 5.6791 74.531 5.97328L73.7016 6.76885L74.8216 7.14721L75.6574 6.34539C75.8798 6.13203 75.9725 5.82505 75.9053 5.52423ZM68.3637 7.66384L74.0466 9.58374C74.1421 9.61598 74.2459 9.56461 74.2781 9.46922C74.3104 9.37382 74.2589 9.26999 74.1635 9.23775L68.4806 7.31786C68.3851 7.28561 68.2813 7.33698 68.249 7.43238C68.2168 7.52777 68.2682 7.6316 68.3637 7.66384ZM68.9676 5.87624L71.1591 6.61661C71.2387 6.64352 71.2815 6.72988 71.2546 6.8095C71.2277 6.88912 71.1413 6.93184 71.0617 6.90493L69.0144 6.21329L68.7222 7.07826L74.1167 8.9007L74.4089 8.03573L72.3598 7.34348C72.2801 7.31657 72.2374 7.23021 72.2643 7.15059C72.2912 7.07097 72.3776 7.02824 72.4572 7.05516L74.6505 7.79614C74.746 7.82838 74.8498 7.77701 74.8821 7.68162C74.9143 7.58622 74.8629 7.48239 74.7674 7.45015L69.0845 5.53026C68.989 5.49801 68.8852 5.54938 68.853 5.64477C68.8207 5.74017 68.8722 5.844 68.9676 5.87624ZM69.0431 4.11086L69.2215 5.25531L70.3414 5.63366L70.1645 4.49812C70.099 4.07823 70.238 3.66388 70.5378 3.37032C70.4412 3.26963 70.322 3.19383 70.1872 3.14828C69.8951 3.04959 69.5799 3.10915 69.344 3.30759C69.1082 3.50603 68.9957 3.80632 69.0431 4.11086ZM72.8883 7.84327C72.9263 7.85609 72.9583 7.88408 72.9761 7.91996C72.9938 7.95584 72.9967 7.99824 72.9839 8.03616C72.9711 8.07407 72.9431 8.10605 72.9072 8.1238C72.8713 8.14155 72.8289 8.14441 72.7909 8.13159C72.753 8.11878 72.721 8.09078 72.7032 8.0549C72.6855 8.01902 72.6826 7.97662 72.6954 7.9387C72.7082 7.90079 72.7362 7.86881 72.7721 7.85106C72.808 7.83331 72.8504 7.83045 72.8883 7.84327ZM71.702 7.48954C71.6842 7.45366 71.6522 7.42566 71.6143 7.41285C71.5762 7.39999 71.5339 7.40289 71.498 7.42064C71.462 7.43834 71.4341 7.47036 71.4213 7.50828C71.4085 7.54619 71.4113 7.58855 71.4292 7.62448C71.4469 7.66035 71.4788 7.68831 71.5169 7.70117C71.5548 7.71399 71.5972 7.71113 71.6331 7.69338C71.669 7.67563 71.697 7.64365 71.7098 7.60574C71.7226 7.56782 71.7198 7.52542 71.702 7.48954ZM70.2427 7.27071C70.2048 7.25789 70.1729 7.22994 70.155 7.19402C70.1372 7.15814 70.1344 7.11573 70.1472 7.07782C70.16 7.0399 70.188 7.00792 70.2239 6.99017C70.2597 6.97242 70.3022 6.96957 70.3401 6.98238C70.3782 6.99525 70.41 7.0232 70.428 7.05912C70.4457 7.095 70.4484 7.13736 70.4356 7.17527C70.4228 7.21319 70.395 7.24521 70.3591 7.26297C70.3231 7.28066 70.2808 7.28357 70.2427 7.27071ZM71.8961 6.91154C71.8784 6.87567 71.8465 6.84786 71.8084 6.835C71.7705 6.82219 71.7281 6.8249 71.6922 6.84264C71.6562 6.86053 71.6283 6.89237 71.6154 6.93043C71.6026 6.96835 71.6055 7.01075 71.6233 7.04663C71.6411 7.08251 71.6731 7.11051 71.711 7.12332C71.7491 7.13619 71.7913 7.13328 71.8272 7.11553C71.8633 7.09783 71.8911 7.0658 71.9039 7.02789C71.9168 6.98983 71.914 6.94761 71.8961 6.91154Z" fill="url(#paint2_linear)"/>
<path d="M72.3525 9.5688C72.3836 9.48985 72.4331 9.41986 72.4826 9.34991L72.4826 9.34985C72.5345 9.2765 72.5864 9.20317 72.6169 9.11959C72.8348 8.52375 72.1916 8.30829 72.1916 8.30829C71.8438 8.18339 71.4677 8.15054 71.1101 8.24343C70.8847 8.30196 70.6695 8.36497 70.4682 8.42393L70.4679 8.424C70.0566 8.54444 69.703 8.64796 69.4387 8.66187L72.3525 9.5688Z" fill="#FECA29"/>
<path fill-rule="evenodd" clip-rule="evenodd" d="M35.1532 41.3453C35.1594 41.3622 35.9645 43.539 37.3852 45.2715L47.2655 45.2716C48.109 45.2716 49.1533 44.9535 49.0274 44.1195C48.4441 40.2577 45.8369 37.7697 45.8369 37.7697C45.8369 37.7697 43.6348 34.8732 40.9568 34.1082C39.7163 33.8664 38.485 34.2336 37.3852 34.9827C35.6283 36.1792 33.8679 37.47 35.1529 41.3444L35.153 41.3448L35.1531 41.345L35.1532 41.3453Z" fill="url(#paint3_linear)"/>
<path d="M51.4531 9.59783C49.811 8.27067 48.046 7.94635 46.0432 7.841C45.7788 7.8271 45.4251 7.72356 45.0136 7.6031L45.0135 7.60305L45.0134 7.60304C44.812 7.54407 44.5968 7.48106 44.3713 7.42252C44.0136 7.32961 43.6374 7.36247 43.2895 7.48738C43.2895 7.48738 42.6461 7.70287 42.8641 8.29879C42.8946 8.38238 42.9465 8.45571 42.9984 8.52908L42.9984 8.52911L42.9984 8.52914C43.0479 8.5991 43.0974 8.66909 43.1285 8.74805C42.7659 9.18269 42.5059 9.67357 42.3466 10.1896C41.9465 11.4863 42.0144 12.9143 42.0824 14.3419V14.3419C42.1527 15.8186 42.2229 17.295 41.775 18.6254C41.3367 19.9274 40.5335 22.546 40.3527 23.3957C39.1183 29.2002 35.7048 31.816 35.7048 31.816C35.5683 31.9127 35.4358 32.0053 35.307 32.0951L35.3067 32.0953C34.0425 32.9775 32.6329 34.7827 32.0352 36.6564C31.732 37.8777 31.5494 39.2329 31.732 41.0814C31.732 41.3882 31.7522 41.6736 31.7915 41.939C31.7485 41.9416 31.7054 41.9509 31.6635 41.9676C31.0444 42.2142 30.4181 42.4402 29.7858 42.6452C23.7526 44.6016 17.2814 43.3363 11.1362 41.7664L10.7327 41.6633C10.4042 41.6633 10.1379 41.9296 10.1379 42.258C10.1379 42.5865 10.4042 42.8527 10.7327 42.8527L13.2918 43.6507C17.9162 45.0927 22.7473 45.8506 27.5371 45.1278C29.0185 44.9042 30.4336 44.6589 31.6046 44.4431L33.0134 44.1836C33.9664 44.9348 35.3908 45.2128 37.0797 45.2658L36.6129 44.5466C34.8783 41.874 33.3634 38.4922 35.564 36.188C36.3618 35.3525 37.3703 34.6418 38.4217 34.1778C41.112 32.9902 43.7208 35.1322 45.7449 37.2653L46.4732 38.0329C46.3306 36.3689 46.5139 35.1278 46.6739 34.4244C46.7755 33.978 46.9859 33.569 47.2325 33.1833C47.3421 33.0118 47.8491 32.1159 48.3626 31.2021C48.4343 31.0744 48.5967 31.1463 48.5583 31.2877C47.759 34.2349 48.3865 37.8833 49.0274 40.7936C49.4833 42.8635 50.6351 45.3706 52.7494 45.2716L56.883 45.078C57.5853 43.8249 55.9113 42.0997 54.6404 42.7668C53.6769 43.2725 52.0724 41.3444 52.0724 41.3444C49.8979 34.1082 51.7259 32.0953 51.7259 32.0953C55.0079 27.8063 54.1274 22.152 50.8132 18.3994C49.5654 16.9865 48.4922 15.7067 48.0683 15.0339C48.8722 14.8617 50.3712 15.0805 51.5826 15.2574H51.5826L51.5826 15.2574L51.5843 15.2577L51.6498 15.2672L51.6858 15.2725C51.6992 15.2744 51.7125 15.2764 51.7259 15.2783C52.2198 15.3502 52.4569 14.8848 52.4117 14.3875C52.4023 14.2839 52.4154 14.1902 52.4626 14.1161L52.7182 13.8294C52.7554 13.7945 52.7939 13.7596 52.8326 13.7245L52.8335 13.7237C53.0199 13.5545 53.21 13.3819 53.2842 13.1944C53.5285 12.5773 53.2842 11.9143 53.2842 11.9143C53.5776 11.7628 53.7568 11.4431 53.7553 11.1361C53.7537 10.8 53.4176 10.6036 53.1112 10.466C52.5797 10.2273 51.7469 9.83529 51.4531 9.59783Z" fill="url(#paint4_linear)"/>
<path fill-rule="evenodd" clip-rule="evenodd" d="M45.6269 3.69433L41.049 5.32385L42.3396 8.94937C41.4377 9.40277 40.896 9.82484 40.9777 10.0668C41.0207 10.2557 41.2168 10.3668 41.401 10.3065L48.3398 8.03574C48.5755 7.95858 48.7133 7.71405 48.657 7.47244C48.5767 7.23454 47.9115 7.22371 46.9462 7.40064L45.6269 3.69433Z" fill="white"/>
<path fill-rule="evenodd" clip-rule="evenodd" d="M46.8518 3.13147C46.5339 2.86395 46.1089 2.78368 45.7151 2.91673C45.5231 2.9816 45.3546 3.09213 45.2206 3.23966C44.8953 3.04255 44.5015 2.99745 44.1324 3.12213C44.0965 3.13426 44.0617 3.14811 44.0276 3.16299L43.6841 2.99311C43.4701 2.88727 43.2327 2.85536 43.0021 2.89908L42.8824 2.54474C42.8326 2.39737 42.9118 2.23755 43.0591 2.18776V2.18776C43.1388 2.16085 43.1816 2.07449 43.1547 1.99487C43.1278 1.91525 43.0414 1.87253 42.9617 1.89944L42.6949 1.98958L42.314 2.12072C42.1859 2.16483 42.0007 2.24173 42.044 2.37008V2.37008C42.0709 2.4497 42.1573 2.49243 42.237 2.46552V2.46552C42.3843 2.41572 42.5442 2.49484 42.594 2.64222L42.7137 2.99654C42.5038 3.10163 42.3344 3.27096 42.2284 3.4849L42.0585 3.82791C42.0414 3.83216 42.0242 3.83668 42.0071 3.84157C41.9894 3.84665 41.9716 3.85212 41.9539 3.8581C41.5848 3.9828 41.299 4.25748 41.1599 4.61152C40.9639 4.57544 40.7629 4.58975 40.5709 4.65463C40.1771 4.78768 39.8879 5.10923 39.7973 5.51475C39.7067 5.92029 39.8316 6.33412 40.1315 6.62176L40.9137 7.37211C40.8114 7.49769 40.7737 7.67143 40.8292 7.83583C40.8982 8.03986 41.09 8.16826 41.2946 8.16675L41.6025 9.07811C41.4389 9.20098 41.3642 9.4194 41.4332 9.62343C41.5191 9.8778 41.7961 10.0148 42.0506 9.92882L47.7335 8.00892C47.988 7.92294 48.1251 7.64605 48.0392 7.39168C47.9703 7.18764 47.7784 7.05927 47.5739 7.06076L47.266 6.1494C47.4295 6.02652 47.5042 5.80811 47.4353 5.60407C47.3801 5.44084 47.2463 5.32608 47.0902 5.28743L47.2575 4.21436C47.3214 3.80382 47.1698 3.399 46.8518 3.13147ZM45.1913 3.59212C45.4603 3.81842 45.5886 4.16085 45.5344 4.50814L45.3331 5.8003L44.1225 6.20929L43.6039 4.67425C43.4279 4.15344 43.7087 3.5865 44.2298 3.41046C44.5629 3.29792 44.9224 3.36583 45.1913 3.59212ZM42.5013 3.61987C42.5939 3.43283 42.7538 3.293 42.9516 3.22611L42.9519 3.22603L42.9522 3.22592C43.15 3.15917 43.3619 3.17337 43.549 3.26591L43.7212 3.35106C43.4774 3.55242 43.3156 3.83628 43.2645 4.14526C43.0357 3.92991 42.7338 3.80213 42.4167 3.7906L42.5013 3.61987ZM42.0513 4.14644C42.5724 3.9704 43.1395 4.25089 43.3154 4.77171L43.834 6.30675L42.6234 6.71574L41.6796 5.81043C41.426 5.56712 41.3203 5.21705 41.3969 4.87401C41.4735 4.53096 41.7182 4.25898 42.0513 4.14644ZM40.0944 5.58099C40.1616 5.28017 40.3761 5.04166 40.6683 4.94296C40.8031 4.89741 40.9438 4.88541 41.0817 4.9069C41.0213 5.32215 41.1621 5.73587 41.4688 6.03004L42.2981 6.82562L41.1782 7.20397L40.3423 6.40216C40.1199 6.18879 40.0272 5.88181 40.0944 5.58099ZM47.6361 7.72061L41.9531 9.6405C41.8577 9.67274 41.7538 9.62138 41.7216 9.52598C41.6894 9.43059 41.7408 9.32676 41.8363 9.29451L47.5192 7.37462C47.6146 7.34237 47.7185 7.39375 47.7507 7.48914C47.7829 7.58453 47.7315 7.68836 47.6361 7.72061ZM47.0322 5.93301L44.8407 6.67337C44.761 6.70028 44.7182 6.78664 44.7451 6.86626C44.772 6.94588 44.8584 6.9886 44.9381 6.9617L46.9853 6.27006L47.2775 7.13503L41.8831 8.95746L41.5909 8.09249L43.6399 7.40024C43.7196 7.37333 43.7624 7.28697 43.7355 7.20735C43.7086 7.12773 43.6222 7.08501 43.5425 7.11192L41.3492 7.8529C41.2538 7.88514 41.1499 7.83377 41.1177 7.73838C41.0855 7.64299 41.1369 7.53915 41.2323 7.50691L46.9153 5.58702C47.0107 5.55477 47.1146 5.60615 47.1468 5.70154C47.179 5.79693 47.1276 5.90076 47.0322 5.93301ZM46.9566 4.16762L46.7783 5.31207L45.6583 5.69042L45.8353 4.55488C45.9007 4.13499 45.7618 3.72065 45.462 3.42708C45.5585 3.32639 45.6777 3.2506 45.8125 3.20504C46.1047 3.10635 46.4199 3.16591 46.6557 3.36435C46.8916 3.56279 47.0041 3.86308 46.9566 4.16762ZM43.1114 7.90003C43.0735 7.91285 43.0415 7.94085 43.0237 7.97672C43.0059 8.0126 43.0031 8.05501 43.0159 8.09292C43.0287 8.13084 43.0567 8.16282 43.0926 8.18057C43.1285 8.19831 43.1709 8.20117 43.2088 8.18835C43.2467 8.17554 43.2788 8.14754 43.2965 8.11167C43.3143 8.07579 43.3172 8.03338 43.3043 7.99546C43.2915 7.95755 43.2635 7.92557 43.2277 7.90782C43.1918 7.89007 43.1493 7.88722 43.1114 7.90003ZM44.2978 7.5463C44.3155 7.51043 44.3475 7.48243 44.3855 7.46961C44.4235 7.45675 44.4658 7.45965 44.5017 7.4774C44.5377 7.4951 44.5656 7.52713 44.5784 7.56504C44.5912 7.60295 44.5885 7.64532 44.5706 7.68124C44.5528 7.71711 44.5209 7.74507 44.4829 7.75793C44.4449 7.77075 44.4025 7.76789 44.3666 7.75015C44.3307 7.7324 44.3027 7.70041 44.2899 7.6625C44.2771 7.62459 44.28 7.58218 44.2978 7.5463ZM45.7571 7.32747C45.795 7.31465 45.8268 7.2867 45.8448 7.25078C45.8625 7.21491 45.8654 7.17249 45.8526 7.13458C45.8398 7.09666 45.8118 7.06468 45.7759 7.04693C45.74 7.02918 45.6976 7.02633 45.6596 7.03915C45.6216 7.05201 45.5897 7.07996 45.5718 7.11588C45.554 7.15176 45.5513 7.19412 45.5641 7.23204C45.5769 7.26995 45.6048 7.30198 45.6407 7.31973C45.6767 7.33743 45.719 7.34034 45.7571 7.32747ZM44.1036 6.96831C44.1214 6.93243 44.1533 6.90463 44.1914 6.89176C44.2293 6.87895 44.2717 6.88166 44.3076 6.8994C44.3435 6.91729 44.3714 6.94913 44.3843 6.98719C44.3971 7.02511 44.3942 7.06752 44.3765 7.10339C44.3587 7.13927 44.3267 7.16727 44.2888 7.18009C44.2507 7.19295 44.2084 7.19004 44.1725 7.17229C44.1365 7.15459 44.1086 7.12257 44.0958 7.08465C44.083 7.04659 44.0857 7.00438 44.1036 6.96831Z" fill="url(#paint5_linear)"/>
<path d="M43.6475 9.62556C43.6164 9.54661 43.5669 9.47662 43.5174 9.40668L43.5174 9.40662C43.4655 9.33326 43.4136 9.25994 43.3831 9.17636C43.1652 8.58052 43.8084 8.36505 43.8084 8.36505C44.1562 8.24015 44.5323 8.2073 44.8899 8.30019C45.1153 8.35873 45.3305 8.42173 45.5318 8.48069L45.5321 8.48076C45.9434 8.6012 46.297 8.70472 46.5613 8.71863L43.6475 9.62556Z" fill="#FDC729"/>
<path d="M8.74891 66.2396H5.18164L5.19626 66.0933H5.3717C5.62511 66.0933 5.83954 66.0055 6.01498 65.8299C6.20016 65.6544 6.29763 65.4398 6.30738 65.1862V57.0512C6.30738 56.7976 6.21478 56.583 6.0296 56.4074C5.84441 56.2319 5.62511 56.1441 5.3717 56.1441H5.19626L5.18164 55.9978H8.09101C9.09491 55.9978 9.87465 56.2221 10.4302 56.6708C10.9858 57.1097 11.2635 57.6999 11.2635 58.4412C11.2635 59.0264 11.1076 59.5141 10.7957 59.9043C10.4838 60.2847 10.1037 60.5383 9.65535 60.6651C10.4253 60.7822 11.0345 61.0992 11.4828 61.6162C11.9312 62.1331 12.1554 62.7867 12.1554 63.5767C12.1554 64.3571 11.8532 64.996 11.2489 65.4934C10.6544 65.9909 9.82104 66.2396 8.74891 66.2396ZM7.25767 65.7129H8.69043C8.70018 65.7129 8.70992 65.7129 8.71967 65.7129C9.46041 65.7129 10.0355 65.5129 10.4448 65.113C10.8542 64.7033 11.0589 64.1279 11.0589 63.3865C11.0589 62.9671 10.9858 62.6013 10.8396 62.2892C10.7031 61.9673 10.5277 61.7137 10.3132 61.5284C9.74794 61.0602 8.89998 60.8261 7.76937 60.8261C7.76937 60.8261 7.7645 60.8261 7.75475 60.8261V60.6944C7.7645 60.6944 7.80836 60.6944 7.88633 60.6944C7.97405 60.6944 8.09588 60.6846 8.25183 60.6651C8.40778 60.6456 8.58322 60.6115 8.77815 60.5627C8.97308 60.5139 9.14852 60.4359 9.30447 60.3286C9.46041 60.2213 9.60661 60.0945 9.74307 59.9482C10.0257 59.6263 10.167 59.1484 10.167 58.5143C10.167 57.8706 9.98186 57.3682 9.61149 57.0073C9.25086 56.6464 8.72454 56.466 8.03253 56.466H7.25767V65.7129Z" fill="url(#paint6_linear)"/>
<path d="M13.7368 66.0933C13.9707 66.0933 14.1657 66.0202 14.3216 65.8738C14.4873 65.7178 14.575 65.5324 14.5848 65.3179V58.368C14.5848 58.1534 14.5019 57.973 14.3362 57.8267C14.1705 57.6804 13.9707 57.6072 13.7368 57.6072H13.5321V57.4609H17.8012C18.2008 57.4609 18.5517 57.4316 18.8538 57.3731C19.156 57.3146 19.3509 57.2658 19.4386 57.2268V58.8948L19.2778 58.8801V58.6607C19.2778 58.4558 19.2096 58.2802 19.0731 58.1339C18.9367 57.9876 18.7612 57.9145 18.5468 57.9145H15.5058V61.6308H18.0059C18.2008 61.6308 18.347 61.5723 18.4444 61.4552C18.5517 61.3382 18.6053 61.1919 18.6053 61.0163V60.8261H18.7661V62.8744H18.6053V62.6842C18.6053 62.4111 18.5029 62.2258 18.2982 62.1283C18.2203 62.099 18.1374 62.0795 18.0497 62.0697H15.5058V65.7861H17.8012C18.2495 65.7861 18.6248 65.708 18.9269 65.552C19.2388 65.3959 19.4727 65.2106 19.6287 64.996C19.7944 64.7814 19.96 64.4985 20.1257 64.1474H20.2719L19.4678 66.2396H13.5321V66.0933H13.7368Z" fill="url(#paint7_linear)"/>
<path d="M30.3582 66.0933H30.4752V66.2396H27.4781V66.0933H27.5951C27.7802 66.0933 27.9216 66.0299 28.019 65.9031C28.1165 65.7763 28.1652 65.6593 28.1652 65.552C28.1652 65.4349 28.1457 65.3227 28.1068 65.2154L27.3027 63.2695H23.6038L22.7997 65.1715C22.751 65.2983 22.7266 65.4203 22.7266 65.5373C22.7266 65.6446 22.7753 65.7665 22.8728 65.9031C22.9703 66.0299 23.1165 66.0933 23.3114 66.0933H23.4284V66.2396H20.636V66.0933H20.7529C20.9576 66.0933 21.1623 66.025 21.367 65.8885C21.5814 65.7422 21.7568 65.5276 21.8933 65.2447C24.0278 60.6798 25.1389 58.29 25.2266 58.0754C25.3923 57.6657 25.48 57.3926 25.4898 57.2561H25.6214L29.2325 65.2447C29.5151 65.8104 29.8904 66.0933 30.3582 66.0933ZM23.7939 62.8305H27.1272L25.4898 58.8216L23.7939 62.8305Z" fill="url(#paint8_linear)"/>
<path d="M39.5402 57.6072H39.3209C39.0578 57.6072 38.858 57.7096 38.7215 57.9145C38.663 58.0022 38.6289 58.1047 38.6192 58.2217V63.1524C38.6192 64.1669 38.2927 64.9716 37.6396 65.5666C36.9964 66.1518 36.1094 66.4445 34.9788 66.4445C33.8482 66.4445 32.9564 66.1518 32.3034 65.5666C31.6503 64.9813 31.3238 64.1815 31.3238 63.1671V58.2363C31.3238 58.0608 31.2556 57.9145 31.1191 57.7974C30.9827 57.6706 30.817 57.6072 30.6221 57.6072H30.4028V57.4609H33.1806V57.6072H32.9613C32.7663 57.6072 32.6006 57.6706 32.4642 57.7974C32.3277 57.9145 32.2595 58.0608 32.2595 58.2363V62.9915C32.2595 63.9376 32.4983 64.6838 32.9759 65.2301C33.4632 65.7763 34.1455 66.0494 35.0227 66.0494C35.9096 66.0494 36.6162 65.7909 37.1426 65.274C37.6786 64.757 37.9467 64.0498 37.9467 63.1524V58.2363C37.9369 58.051 37.8638 57.8998 37.7274 57.7828C37.6007 57.6657 37.4398 57.6072 37.2449 57.6072H37.0256V57.4609H39.5402V57.6072Z" fill="url(#paint9_linear)"/>
<path d="M44.7624 57.8852V65.3179C44.7722 65.6202 44.9184 65.8446 45.201 65.9909C45.3277 66.0592 45.469 66.0933 45.625 66.0933H45.7858V66.2396H42.7741V66.0933H42.9495C43.1835 66.0933 43.3833 66.0153 43.549 65.8592C43.7147 65.7031 43.8024 65.5178 43.8121 65.3032V57.8852H41.1659C40.9417 57.8852 40.7614 57.9584 40.625 58.1047C40.4983 58.251 40.4349 58.4266 40.4349 58.6314V58.8655H40.2741V57.2122C40.469 57.2902 40.7419 57.3487 41.0928 57.3877C41.4534 57.4268 41.7215 57.4463 41.8969 57.4463H46.663C47.3648 57.4463 47.9106 57.3682 48.3004 57.2122V58.8655H48.1396V58.6314C48.1396 58.4266 48.0714 58.251 47.9349 58.1047C47.7985 57.9584 47.6231 57.8852 47.4086 57.8852H44.7624Z" fill="url(#paint10_linear)"/>
<path d="M58.0796 57.6072H57.9042C57.641 57.6072 57.3876 57.6804 57.1439 57.8267C56.91 57.9632 56.7151 58.1388 56.5591 58.3534L53.7521 62.6111V65.3032C53.7521 65.5178 53.8349 65.7031 54.0006 65.8592C54.1663 66.0153 54.3661 66.0933 54.6 66.0933H54.7755V66.2396H51.7784V66.0933H51.9538C52.1877 66.0933 52.3876 66.0153 52.5532 65.8592C52.7189 65.7031 52.8018 65.5178 52.8018 65.3032V62.5965L50.0971 58.3388C49.7657 57.8511 49.3174 57.6072 48.7521 57.6072H48.5766V57.4609H51.9684V57.6072H51.793C51.6078 57.6072 51.4714 57.6657 51.3836 57.7828C51.3057 57.8998 51.2667 58.0022 51.2667 58.09C51.2667 58.1681 51.2764 58.2412 51.2959 58.3095L53.4304 62.099L55.6965 58.3241C55.7258 58.2461 55.7404 58.1681 55.7404 58.09C55.7404 58.0022 55.6965 57.8998 55.6088 57.7828C55.5308 57.6657 55.3944 57.6072 55.1995 57.6072H55.024V57.4609H58.0796V57.6072Z" fill="url(#paint11_linear)"/>
<path d="M66.1008 66.2396H62.5335L62.5482 66.0933H62.7236C62.977 66.0933 63.1914 66.0055 63.3669 65.8299C63.5521 65.6544 63.6495 65.4398 63.6593 65.1862V57.0512C63.6593 56.7976 63.5667 56.583 63.3815 56.4074C63.1963 56.2319 62.977 56.1441 62.7236 56.1441H62.5482L62.5335 55.9978H65.4429C66.4468 55.9978 67.2265 56.2221 67.7821 56.6708C68.3377 57.1097 68.6154 57.6999 68.6154 58.4412C68.6154 59.0264 68.4595 59.5141 68.1476 59.9043C67.8357 60.2847 67.4556 60.5383 67.0072 60.6651C67.7772 60.7822 68.3864 61.0992 68.8347 61.6162C69.2831 62.1331 69.5073 62.7867 69.5073 63.5767C69.5073 64.3571 69.2051 64.996 68.6008 65.4934C68.0063 65.9909 67.1729 66.2396 66.1008 66.2396ZM64.6096 65.7129H66.0423C66.0521 65.7129 66.0618 65.7129 66.0716 65.7129C66.8123 65.7129 67.3874 65.5129 67.7967 65.113C68.2061 64.7033 68.4108 64.1279 68.4108 63.3865C68.4108 62.9671 68.3377 62.6013 68.1915 62.2892C68.055 61.9673 67.8796 61.7137 67.6651 61.5284C67.0998 61.0602 66.2519 60.8261 65.1213 60.8261C65.1213 60.8261 65.1164 60.8261 65.1066 60.8261V60.6944C65.1164 60.6944 65.1603 60.6944 65.2382 60.6944C65.3259 60.6944 65.4478 60.6846 65.6037 60.6651C65.7597 60.6456 65.9351 60.6115 66.13 60.5627C66.325 60.5139 66.5004 60.4359 66.6564 60.3286C66.8123 60.2213 66.9585 60.0945 67.095 59.9482C67.3776 59.6263 67.5189 59.1484 67.5189 58.5143C67.5189 57.8706 67.3338 57.3682 66.9634 57.0073C66.6028 56.6464 66.0764 56.466 65.3844 56.466H64.6096V65.7129Z" fill="url(#paint12_linear)"/>
<path d="M79.6577 66.0933H79.7747V66.2396H76.7776V66.0933H76.8946C77.0797 66.0933 77.2211 66.0299 77.3185 65.9031C77.416 65.7763 77.4647 65.6593 77.4647 65.552C77.4647 65.4349 77.4452 65.3227 77.4063 65.2154L76.6022 63.2695H72.9033L72.0992 65.1715C72.0505 65.2983 72.0261 65.4203 72.0261 65.5373C72.0261 65.6446 72.0748 65.7665 72.1723 65.9031C72.2698 66.0299 72.416 66.0933 72.6109 66.0933H72.7279V66.2396H69.9355V66.0933H70.0524C70.2571 66.0933 70.4618 66.025 70.6665 65.8885C70.8809 65.7422 71.0563 65.5276 71.1928 65.2447C73.3273 60.6798 74.4384 58.29 74.5261 58.0754C74.6918 57.6657 74.7795 57.3926 74.7893 57.2561H74.9209L78.532 65.2447C78.8146 65.8104 79.1899 66.0933 79.6577 66.0933ZM73.0934 62.8305H76.4267L74.7893 58.8216L73.0934 62.8305Z" fill="url(#paint13_linear)"/>
<path d="M83.3825 57.8852V65.3179C83.3922 65.6202 83.5384 65.8446 83.8211 65.9909C83.9478 66.0592 84.0891 66.0933 84.2451 66.0933H84.4059V66.2396H81.3942V66.0933H81.5696C81.8035 66.0933 82.0033 66.0153 82.169 65.8592C82.3347 65.7031 82.4225 65.5178 82.4322 65.3032V57.8852H79.786C79.5618 57.8852 79.3815 57.9584 79.245 58.1047C79.1183 58.251 79.055 58.4266 79.055 58.6314V58.8655H78.8942V57.2122C79.0891 57.2902 79.362 57.3487 79.7129 57.3877C80.0735 57.4268 80.3415 57.4463 80.517 57.4463H85.2831C85.9848 57.4463 86.5307 57.3682 86.9205 57.2122V58.8655H86.7597V58.6314C86.7597 58.4266 86.6915 58.251 86.555 58.1047C86.4186 57.9584 86.2431 57.8852 86.0287 57.8852H83.3825Z" fill="url(#paint14_linear)"/>
<path d="M92.0488 57.8852V65.3179C92.0586 65.6202 92.2048 65.8446 92.4874 65.9909C92.6141 66.0592 92.7555 66.0933 92.9114 66.0933H93.0722V66.2396H90.0605V66.0933H90.2359C90.4699 66.0933 90.6697 66.0153 90.8354 65.8592C91.001 65.7031 91.0888 65.5178 91.0985 65.3032V57.8852H88.4523C88.2281 57.8852 88.0478 57.9584 87.9114 58.1047C87.7847 58.251 87.7213 58.4266 87.7213 58.6314V58.8655H87.5605V57.2122C87.7554 57.2902 88.0283 57.3487 88.3792 57.3877C88.7398 57.4268 89.0079 57.4463 89.1833 57.4463H93.9494C94.6512 57.4463 95.197 57.3682 95.5868 57.2122V58.8655H95.426V58.6314C95.426 58.4266 95.3578 58.251 95.2213 58.1047C95.0849 57.9584 94.9095 57.8852 94.695 57.8852H92.0488Z" fill="url(#paint15_linear)"/>
<path d="M96.8021 66.0933C97.036 66.0933 97.231 66.0202 97.3869 65.8738C97.5526 65.7178 97.6403 65.5324 97.6501 65.3179V58.3973C97.6403 58.1827 97.5477 57.9974 97.3723 57.8413C97.2066 57.6852 97.0068 57.6072 96.7729 57.6072H96.5974V57.4609H99.6238V57.6072H99.4483C99.2144 57.6072 99.0097 57.6852 98.8343 57.8413C98.6686 57.9974 98.5858 58.1827 98.5858 58.3973V65.7861H100.866C101.315 65.7861 101.695 65.708 102.007 65.552C102.319 65.3959 102.553 65.2106 102.709 64.996C102.874 64.7814 103.035 64.4985 103.191 64.1474H103.337L102.533 66.2396H96.5974V66.0933H96.8021Z" fill="url(#paint16_linear)"/>
<path d="M104.283 66.0933C104.517 66.0933 104.712 66.0202 104.868 65.8738C105.034 65.7178 105.122 65.5324 105.131 65.3179V58.368C105.131 58.1534 105.049 57.973 104.883 57.8267C104.717 57.6804 104.517 57.6072 104.283 57.6072H104.079V57.4609H108.348C108.747 57.4609 109.098 57.4316 109.4 57.3731C109.703 57.3146 109.897 57.2658 109.985 57.2268V58.8948L109.824 58.8801V58.6607C109.824 58.4558 109.756 58.2802 109.62 58.1339C109.483 57.9876 109.308 57.9145 109.093 57.9145H106.052V61.6308H108.552C108.747 61.6308 108.894 61.5723 108.991 61.4552C109.098 61.3382 109.152 61.1919 109.152 61.0163V60.8261H109.313V62.8744H109.152V62.6842C109.152 62.4111 109.05 62.2258 108.845 62.1283C108.767 62.099 108.684 62.0795 108.596 62.0697H106.052V65.7861H108.348C108.796 65.7861 109.171 65.708 109.474 65.552C109.785 65.3959 110.019 65.2106 110.175 64.996C110.341 64.7814 110.507 64.4985 110.672 64.1474H110.819L110.014 66.2396H104.079V66.0933H104.283Z" fill="url(#paint17_linear)"/>
<path d="M113.568 44.9856C113.455 45.0153 113.346 45.0533 113.241 45.0984C113.329 44.7304 113.385 44.3516 113.41 43.9649C113.484 43.9718 113.558 43.9754 113.633 43.9754C114.253 43.9754 114.86 43.7351 115.308 43.2932C115.903 42.7067 116.138 41.8437 115.92 41.0409C115.886 40.9145 115.786 40.8159 115.658 40.7822C114.844 40.5681 113.969 40.7993 113.374 41.3857C113.292 41.4669 113.217 41.5535 113.149 41.6443C113.055 41.3264 112.939 41.0152 112.8 40.7143C113.411 40.4216 113.876 39.8777 114.055 39.2191C114.273 38.4178 114.038 37.5548 113.443 36.9667C113.349 36.8742 113.213 36.838 113.085 36.872C112.271 37.0879 111.631 37.7197 111.413 38.5209C111.201 39.3027 111.419 40.1434 111.983 40.73C112.44 41.5924 112.682 42.5642 112.682 43.5444C112.682 46.6045 110.364 49.1965 107.29 49.5737L72.5417 49.5737V49.5737C72.5417 49.974 72.8662 50.2985 73.2665 50.2985L107.382 50.2985C108.088 50.2118 108.759 50.0206 109.379 49.7421C109.802 50.4564 110.584 50.8998 111.421 50.8998C112.262 50.8998 113.047 50.4531 113.469 49.7339C113.535 49.6207 113.535 49.4812 113.469 49.3681C113.068 48.6852 112.341 48.2482 111.548 48.2059C111.83 47.91 112.085 47.5896 112.309 47.2485C112.709 47.5229 113.184 47.6699 113.668 47.6699C113.871 47.6699 114.075 47.6441 114.276 47.5911C115.088 47.3764 115.729 46.7446 115.948 45.9423C115.982 45.816 115.946 45.6813 115.852 45.5889C115.255 45.0021 114.38 44.7708 113.568 44.9856ZM113.898 41.9022C114.253 41.5517 114.754 41.386 115.247 41.4458C115.308 41.9319 115.14 42.4263 114.785 42.7768C114.429 43.1273 113.928 43.2929 113.435 43.2332C113.374 42.7472 113.542 42.2527 113.898 41.9022ZM112.128 38.71C112.258 38.2312 112.609 37.8404 113.066 37.6493C113.365 38.0402 113.47 38.5513 113.34 39.0301C113.21 39.5089 112.859 39.8997 112.402 40.0908C112.103 39.6999 111.998 39.1888 112.128 38.71ZM112.703 49.551C112.397 49.937 111.924 50.1695 111.421 50.1695C110.919 50.1695 110.445 49.937 110.14 49.551C110.445 49.1651 110.919 48.9326 111.421 48.9326C111.924 48.9326 112.397 49.1651 112.703 49.551ZM114.084 46.8857C113.599 47.014 113.08 46.9103 112.684 46.6155C112.878 46.1647 113.274 45.8193 113.76 45.691C114.245 45.5628 114.763 45.6665 115.16 45.9613C114.966 46.412 114.57 46.7574 114.084 46.8857Z" fill="url(#paint18_linear)"/>
<path d="M2.43668 44.9856C2.54943 45.0153 2.65868 45.0533 2.76415 45.0984C2.67645 44.7304 2.61954 44.3516 2.59539 43.9649C2.52082 43.9718 2.44622 43.9754 2.37176 43.9754C1.75027 43.9754 1.14185 43.7351 0.692948 43.2932C0.0970945 42.7067 -0.137885 41.8437 0.079777 41.0409C0.11402 40.9145 0.21426 40.8159 0.342587 40.7822C1.15807 40.5681 2.03493 40.7993 2.63082 41.3857C2.71326 41.4669 2.78849 41.5535 2.8569 41.6443C2.95046 41.3264 3.06692 41.0152 3.20652 40.7143C2.59371 40.4216 2.12798 39.8777 1.94868 39.2191C1.73057 38.4178 1.96552 37.5548 2.56174 36.9667C2.65553 36.8742 2.79238 36.838 2.92071 36.872C3.73586 37.0879 4.37769 37.7197 4.5958 38.5209C4.8086 39.3027 4.58987 40.1434 4.02507 40.73C3.56649 41.5924 3.32387 42.5642 3.32387 43.5444C3.32387 46.6045 5.64646 49.1965 8.72646 49.5737L43.5417 49.5737V49.5737C43.5417 49.974 43.2172 50.2985 42.817 50.2985L8.63486 50.2985C7.92711 50.2118 7.2552 50.0206 6.63397 49.7421C6.21004 50.4564 5.42682 50.8998 4.58734 50.8998C3.74463 50.8998 2.95856 50.4531 2.53574 49.7339C2.46922 49.6207 2.46922 49.4812 2.53574 49.3681C2.93723 48.6852 3.66642 48.2482 4.4605 48.2059C4.17821 47.91 3.92276 47.5896 3.69764 47.2485C3.29763 47.5229 2.82107 47.6699 2.33663 47.6699C2.13317 47.6699 1.92839 47.6441 1.72742 47.5911C0.913459 47.3764 0.271582 46.7446 0.0522877 45.9423C0.0177481 45.816 0.0544723 45.6813 0.148445 45.5889C0.745894 45.0021 1.62268 44.7708 2.43668 44.9856ZM2.10613 41.9022C1.75005 41.5517 1.24792 41.386 0.753976 41.4458C0.693207 41.9319 0.861562 42.4263 1.21764 42.7768C1.57369 43.1273 2.07607 43.2929 2.56979 43.2332C2.63056 42.7472 2.46221 42.2527 2.10613 41.9022ZM3.87909 38.71C3.74876 38.2312 3.39785 37.8404 2.93989 37.6493C2.64039 38.0402 2.53503 38.5513 2.66536 39.0301C2.79572 39.5089 3.14661 39.8997 3.60452 40.0908C3.90403 39.6999 4.00942 39.1888 3.87909 38.71ZM3.30335 49.551C3.60949 49.937 4.08375 50.1695 4.5873 50.1695C5.09085 50.1695 5.56513 49.937 5.87128 49.551C5.56513 49.1651 5.09085 48.9326 4.5873 48.9326C4.08375 48.9326 3.60949 49.1651 3.30335 49.551ZM1.91944 46.8857C2.40586 47.014 2.92505 46.9103 3.32227 46.6155C3.12805 46.1647 2.73103 45.8193 2.24465 45.691C1.75809 45.5628 1.23898 45.6665 0.841829 45.9613C1.03604 46.412 1.43303 46.7574 1.91944 46.8857Z" fill="url(#paint19_linear)"/>
<defs>
<linearGradient id="paint0_linear" x1="101.333" y1="45.3491" x2="65.128" y2="16.1367" gradientUnits="userSpaceOnUse">
<stop offset="0.223842" stop-color="#CC8128"/>
<stop offset="1" stop-color="#FFCB28"/>
</linearGradient>
<linearGradient id="paint1_linear" x1="101.333" y1="45.3491" x2="65.128" y2="16.1367" gradientUnits="userSpaceOnUse">
<stop offset="0.223842" stop-color="#CC8128"/>
<stop offset="1" stop-color="#FFCB28"/>
</linearGradient>
<linearGradient id="paint2_linear" x1="68.128" y1="7.90546" x2="75.9498" y2="5.63305" gradientUnits="userSpaceOnUse">
<stop offset="0.223842" stop-color="#CC8128"/>
<stop offset="1" stop-color="#FFCB28"/>
</linearGradient>
<linearGradient id="paint3_linear" x1="14.6671" y1="45.4053" x2="50.8718" y2="16.193" gradientUnits="userSpaceOnUse">
<stop offset="0.223842" stop-color="#CC8128"/>
<stop offset="1" stop-color="#FFCB28"/>
</linearGradient>
<linearGradient id="paint4_linear" x1="14.6671" y1="45.4053" x2="50.8718" y2="16.193" gradientUnits="userSpaceOnUse">
<stop offset="0.223842" stop-color="#CC8128"/>
<stop offset="1" stop-color="#FFCB28"/>
</linearGradient>
<linearGradient id="paint5_linear" x1="47.8718" y1="7.96222" x2="40.05" y2="5.68981" gradientUnits="userSpaceOnUse">
<stop offset="0.223842" stop-color="#CC8128"/>
<stop offset="1" stop-color="#FFCB28"/>
</linearGradient>
<linearGradient id="paint6_linear" x1="100.62" y1="66.4445" x2="97.6125" y2="46.5519" gradientUnits="userSpaceOnUse">
<stop offset="0.223842" stop-color="#CC8128"/>
<stop offset="1" stop-color="#FFCB28"/>
</linearGradient>
<linearGradient id="paint7_linear" x1="100.62" y1="66.4445" x2="97.6125" y2="46.5519" gradientUnits="userSpaceOnUse">
<stop offset="0.223842" stop-color="#CC8128"/>
<stop offset="1" stop-color="#FFCB28"/>
</linearGradient>
<linearGradient id="paint8_linear" x1="100.62" y1="66.4445" x2="97.6125" y2="46.5519" gradientUnits="userSpaceOnUse">
<stop offset="0.223842" stop-color="#CC8128"/>
<stop offset="1" stop-color="#FFCB28"/>
</linearGradient>
<linearGradient id="paint9_linear" x1="100.62" y1="66.4445" x2="97.6125" y2="46.5519" gradientUnits="userSpaceOnUse">
<stop offset="0.223842" stop-color="#CC8128"/>
<stop offset="1" stop-color="#FFCB28"/>
</linearGradient>
<linearGradient id="paint10_linear" x1="100.62" y1="66.4445" x2="97.6125" y2="46.5519" gradientUnits="userSpaceOnUse">
<stop offset="0.223842" stop-color="#CC8128"/>
<stop offset="1" stop-color="#FFCB28"/>
</linearGradient>
<linearGradient id="paint11_linear" x1="100.62" y1="66.4445" x2="97.6125" y2="46.5519" gradientUnits="userSpaceOnUse">
<stop offset="0.223842" stop-color="#CC8128"/>
<stop offset="1" stop-color="#FFCB28"/>
</linearGradient>
<linearGradient id="paint12_linear" x1="100.62" y1="66.4445" x2="97.6125" y2="46.5519" gradientUnits="userSpaceOnUse">
<stop offset="0.223842" stop-color="#CC8128"/>
<stop offset="1" stop-color="#FFCB28"/>
</linearGradient>
<linearGradient id="paint13_linear" x1="100.62" y1="66.4445" x2="97.6125" y2="46.5519" gradientUnits="userSpaceOnUse">
<stop offset="0.223842" stop-color="#CC8128"/>
<stop offset="1" stop-color="#FFCB28"/>
</linearGradient>
<linearGradient id="paint14_linear" x1="100.62" y1="66.4445" x2="97.6125" y2="46.5519" gradientUnits="userSpaceOnUse">
<stop offset="0.223842" stop-color="#CC8128"/>
<stop offset="1" stop-color="#FFCB28"/>
</linearGradient>
<linearGradient id="paint15_linear" x1="100.62" y1="66.4445" x2="97.6125" y2="46.5519" gradientUnits="userSpaceOnUse">
<stop offset="0.223842" stop-color="#CC8128"/>
<stop offset="1" stop-color="#FFCB28"/>
</linearGradient>
<linearGradient id="paint16_linear" x1="100.62" y1="66.4445" x2="97.6125" y2="46.5519" gradientUnits="userSpaceOnUse">
<stop offset="0.223842" stop-color="#CC8128"/>
<stop offset="1" stop-color="#FFCB28"/>
</linearGradient>
<linearGradient id="paint17_linear" x1="100.62" y1="66.4445" x2="97.6125" y2="46.5519" gradientUnits="userSpaceOnUse">
<stop offset="0.223842" stop-color="#CC8128"/>
<stop offset="1" stop-color="#FFCB28"/>
</linearGradient>
<linearGradient id="paint18_linear" x1="111.804" y1="50.8998" x2="100.947" y2="28.9149" gradientUnits="userSpaceOnUse">
<stop offset="0.223842" stop-color="#CC8128"/>
<stop offset="1" stop-color="#FFCB28"/>
</linearGradient>
<linearGradient id="paint19_linear" x1="4.20383" y1="50.8998" x2="15.0481" y2="28.8984" gradientUnits="userSpaceOnUse">
<stop offset="0.223842" stop-color="#CC8128"/>
<stop offset="1" stop-color="#FFCB28"/>
</linearGradient>
</defs>
</svg>
