<svg width="522" height="55" viewBox="0 0 522 55" fill="none" xmlns="http://www.w3.org/2000/svg">
<path d="M26.2749 40.2397L23.8921 8.19092C23.3758 13.592 22.4227 18.6356 21.0327 23.3218C19.6427 27.9881 18.0641 31.6021 16.2969 34.1636C14.5296 36.7052 12.7227 38.4924 10.876 39.5249C9.0293 40.5575 7.20247 41.0737 5.39551 41.0737C4.30339 41.0737 3.45947 40.8454 2.86377 40.3887C2.28792 39.9518 2 39.4157 2 38.7803C2 38.2441 2.2085 37.7775 2.62549 37.3804C3.06234 36.9832 3.6084 36.7847 4.26367 36.7847C4.74023 36.7847 5.42529 36.8939 6.31885 37.1123C7.13298 37.3307 7.80811 37.4399 8.34424 37.4399C9.27751 37.4399 10.2505 37.0924 11.2632 36.3975C12.7922 35.3649 14.3013 33.5182 15.7905 30.8574C17.2996 28.1768 18.64 24.4536 19.8115 19.688C21.0029 14.9025 21.7476 10.2362 22.0454 5.68896C17.5379 5.68896 13.8743 6.81087 11.0547 9.05469C8.81087 10.8418 7.68896 12.8374 7.68896 15.0415C7.68896 16.0145 8.2251 17.186 9.29736 18.5562C9.87321 19.2909 10.1611 19.8866 10.1611 20.3433C10.1611 20.8595 9.99235 21.2865 9.65479 21.624C9.33708 21.9616 8.94987 22.1304 8.49316 22.1304C7.71875 22.1304 7.03369 21.6935 6.43799 20.8198C5.62386 19.6483 5.2168 18.2583 5.2168 16.6499C5.2168 14.3862 5.97135 12.2218 7.48047 10.1567C9.00944 8.07178 11.1143 6.49316 13.7949 5.4209C16.4954 4.32878 19.6527 3.77279 23.2666 3.75293C25.2126 3.75293 26.7713 3.57422 27.9429 3.2168C27.8833 5.00391 27.8535 5.96696 27.8535 6.10596C27.8535 6.28467 27.8833 6.69173 27.9429 7.32715L29.7002 29.9639C34.4857 21.6042 39.1619 14.7238 43.729 9.32275C46.9657 5.4904 49.7853 2.89909 52.188 1.54883C50.8179 5.32161 49.3485 10.2957 47.7798 16.4712L44.146 30.7681C43.9474 31.5623 43.6794 32.724 43.3418 34.2529L42.627 37.4399C44.1361 37.7974 45.5161 37.9761 46.7671 37.9761C47.7798 37.9761 48.862 37.8569 50.0137 37.6187L49.6265 39.3462C48.6138 39.5249 47.8294 39.6143 47.2734 39.6143C46.4593 39.6143 45.2878 39.5249 43.7588 39.3462C42.5078 39.1873 41.3958 39.1079 40.4229 39.1079C39.3903 39.1079 38.2188 39.3065 36.9082 39.7036C38.0003 36.8442 39.1421 33.002 40.3335 28.1768L42.627 19.0625C43.5999 15.1309 44.4438 12.4303 45.1587 10.9609C43.5701 12.7679 41.1178 16.084 37.8018 20.9092C35.1409 24.8011 32.1624 29.7256 28.8662 35.6826L26.2749 40.2397Z" fill="#761B2B"/>
<path d="M74.7056 14.7437H78.9351L76.1353 25.1387C74.4871 31.1751 73.6631 34.6104 73.6631 35.4443C73.6631 35.8216 73.7524 36.1095 73.9312 36.3081C74.1099 36.5067 74.3084 36.606 74.5269 36.606C74.8644 36.606 75.2616 36.457 75.7183 36.1592C76.3735 35.7025 77.6146 34.5508 79.4414 32.7041L80.4243 33.8062C76.4331 37.9562 73.4943 40.0312 71.6079 40.0312C70.9725 40.0312 70.4264 39.783 69.9697 39.2866C69.5329 38.8101 69.3145 38.125 69.3145 37.2314C69.3145 36.1989 69.5329 34.8188 69.9697 33.0913C68.2025 35.1167 66.0182 36.8939 63.417 38.4229C61.6895 39.4355 60.1903 39.9419 58.9194 39.9419C58.2244 39.9419 57.6784 39.7135 57.2812 39.2568C56.8841 38.8001 56.6855 38.0754 56.6855 37.0825C56.6855 36.3081 56.7749 35.4741 56.9536 34.5806C57.2118 33.3296 57.867 30.8177 58.9194 27.0449C60.2498 22.2594 60.915 19.3901 60.915 18.437C60.915 17.881 60.7165 17.603 60.3193 17.603C59.9619 17.603 59.4754 17.7917 58.8599 18.1689C58.2443 18.5264 57.1919 19.41 55.7026 20.8198L54.3921 19.7773C57.0529 17.3945 59.0783 15.8358 60.4683 15.1011C61.8781 14.3465 63.0099 13.9692 63.8638 13.9692C64.3403 13.9692 64.7275 14.1479 65.0254 14.5054C65.3232 14.8429 65.4722 15.3791 65.4722 16.1138C65.4722 17.4839 64.7573 20.8496 63.3276 26.2109C62.0568 31.0361 61.4214 33.7863 61.4214 34.4614C61.4214 34.8784 61.5505 35.2358 61.8086 35.5337C62.0866 35.8315 62.3844 35.9805 62.7021 35.9805C63.8141 35.9805 65.3927 35.0671 67.438 33.2402C69.4832 31.3936 70.8236 29.2987 71.459 26.9556L74.7056 14.7437Z" fill="#761B2B"/>
<path d="M98.9805 32.5254L99.606 34.2529C94.88 37.9661 90.8888 39.8228 87.6323 39.8228C85.9048 39.8228 84.6439 39.2072 83.8496 37.9761C83.0752 36.745 82.688 35.1862 82.688 33.2998C82.688 30.1624 83.522 26.9357 85.1899 23.6196C86.8579 20.3035 88.8833 17.7619 91.2661 15.9946C93.1327 14.6245 95.2375 13.9395 97.5806 13.9395C99.05 13.9395 100.162 14.2174 100.917 14.7734C101.671 15.3294 102.048 16.0046 102.048 16.7988C102.048 17.4144 101.85 17.9207 101.453 18.3179C101.056 18.6952 100.5 18.8838 99.7847 18.8838C99.0897 18.8838 98.1961 18.5661 97.104 17.9307C95.9722 17.2555 95.029 16.918 94.2744 16.918C93.3014 16.918 92.3285 17.3647 91.3555 18.2583C90.4023 19.132 89.4889 20.8397 88.6152 23.3813C87.7415 25.923 87.3047 28.4746 87.3047 31.0361C87.3047 32.9225 87.672 34.382 88.4067 35.4146C88.9429 36.2088 89.6974 36.606 90.6704 36.606C92.9937 36.606 95.7637 35.2458 98.9805 32.5254Z" fill="#761B2B"/>
<path d="M119.711 32.5254L120.336 34.2529C115.611 37.9661 111.619 39.8228 108.363 39.8228C106.635 39.8228 105.374 39.2072 104.58 37.9761C103.806 36.745 103.418 35.1862 103.418 33.2998C103.418 30.1624 104.252 26.9357 105.92 23.6196C107.588 20.3035 109.614 17.7619 111.997 15.9946C113.863 14.6245 115.968 13.9395 118.311 13.9395C119.78 13.9395 120.892 14.2174 121.647 14.7734C122.402 15.3294 122.779 16.0046 122.779 16.7988C122.779 17.4144 122.58 17.9207 122.183 18.3179C121.786 18.6952 121.23 18.8838 120.515 18.8838C119.82 18.8838 118.927 18.5661 117.834 17.9307C116.703 17.2555 115.759 16.918 115.005 16.918C114.032 16.918 113.059 17.3647 112.086 18.2583C111.133 19.132 110.219 20.8397 109.346 23.3813C108.472 25.923 108.035 28.4746 108.035 31.0361C108.035 32.9225 108.403 34.382 109.137 35.4146C109.673 36.2088 110.428 36.606 111.401 36.606C113.724 36.606 116.494 35.2458 119.711 32.5254Z" fill="#761B2B"/>
<path d="M166.533 37.4399C166.752 37.4598 167.228 37.5293 167.963 37.6484C169.095 37.847 170.008 37.9463 170.703 37.9463C171.557 37.9463 172.48 37.847 173.473 37.6484L173.086 39.3462C172.093 39.4653 171.319 39.5249 170.763 39.5249C169.909 39.5249 168.777 39.4554 167.367 39.3164C165.858 39.1774 164.567 39.1079 163.495 39.1079C162.582 39.1079 161.698 39.2469 160.844 39.5249C161.321 38.2739 162.244 35.0968 163.614 29.9937L167.576 15.3989C163.803 19.7078 159.603 24.1359 154.977 28.6831C151.601 31.9793 149.278 34.3026 148.007 35.6528C146.557 37.2017 145.167 38.4526 143.837 39.4058C142.526 40.3787 140.997 40.8652 139.25 40.8652C137.681 40.8652 136.341 40.5277 135.229 39.8525C134.137 39.1973 133.591 38.4626 133.591 37.6484C133.591 37.2116 133.76 36.7946 134.097 36.3975C134.435 36.0003 134.862 35.8018 135.378 35.8018C136.152 35.8018 136.947 36.3478 137.761 37.4399C138.535 38.4725 139.28 38.9888 139.995 38.9888C141.643 38.9888 143.132 37.6683 144.462 35.0273C145.813 32.3864 147.798 26.1613 150.419 16.3521L153.249 5.77832C149.337 5.81803 146.369 6.47331 144.343 7.74414C142.318 9.01497 141.305 10.4943 141.305 12.1821C141.305 12.7381 141.563 13.443 142.08 14.2969C142.576 15.0911 142.824 15.7365 142.824 16.2329C142.824 16.769 142.646 17.2357 142.288 17.6328C141.931 18.0101 141.464 18.1987 140.888 18.1987C140.173 18.1987 139.568 17.8612 139.071 17.186C138.595 16.491 138.356 15.528 138.356 14.2969C138.356 12.5693 138.833 10.9808 139.786 9.53125C140.739 8.06185 142.04 6.8903 143.688 6.0166C145.336 5.1429 147.113 4.55713 149.02 4.25928C150.926 3.96143 154.272 3.8125 159.057 3.8125C158.362 5.20247 157.816 6.47331 157.419 7.625C157.042 8.77669 155.92 12.7183 154.053 19.4497L151.194 29.8149C152.822 28.0278 154.579 26.1911 156.466 24.3047C162.522 18.2682 167.04 13.0955 170.018 8.78662C172.48 2.92887 176.144 0 181.009 0C182.756 0 184.097 0.347493 185.03 1.04248C185.983 1.71761 186.459 2.49202 186.459 3.36572C186.459 4.51742 185.854 5.09326 184.643 5.09326C183.948 5.09326 183.163 4.59684 182.29 3.604C181.396 2.61117 180.602 2.11475 179.907 2.11475C177.861 2.11475 175.816 4.79541 173.771 10.1567C171.726 15.5181 169.313 24.6125 166.533 37.4399Z" fill="#761B2B"/>
<path d="M204.926 33.8062C200.955 37.9562 198.016 40.0312 196.11 40.0312C195.554 40.0312 195.028 39.783 194.531 39.2866C194.055 38.7902 193.816 38.1051 193.816 37.2314C193.816 36.2188 194.015 34.9082 194.412 33.2998L195.812 27.4023H187.532L184.792 38.9888H180.354C180.393 38.7505 180.602 37.9463 180.979 36.5762C181.257 35.5833 181.783 33.5381 182.558 30.4404L185.208 19.8071C185.347 19.2511 185.417 18.8143 185.417 18.4966C185.417 17.9009 185.208 17.603 184.792 17.603C183.918 17.603 182.389 18.6753 180.205 20.8198L178.894 19.8071C183.064 15.9152 186.211 13.9692 188.336 13.9692C189.428 13.9692 189.974 14.694 189.974 16.1436C189.974 17.5335 189.319 20.6808 188.008 25.5854H196.318L199.208 14.7437H203.437L200.637 25.1387C198.989 31.1751 198.165 34.6104 198.165 35.4443C198.165 36.2188 198.453 36.606 199.029 36.606C199.744 36.606 201.382 35.3053 203.943 32.7041L204.926 33.8062Z" fill="#761B2B"/>
<path d="M223.482 32.5254L224.108 34.2529C219.382 37.9661 215.391 39.8228 212.134 39.8228C210.407 39.8228 209.146 39.2072 208.352 37.9761C207.577 36.745 207.19 35.1862 207.19 33.2998C207.19 30.1624 208.024 26.9357 209.692 23.6196C211.36 20.3035 213.385 17.7619 215.768 15.9946C217.635 14.6245 219.739 13.9395 222.083 13.9395C223.552 13.9395 224.664 14.2174 225.418 14.7734C226.173 15.3294 226.55 16.0046 226.55 16.7988C226.55 17.4144 226.352 17.9207 225.955 18.3179C225.557 18.6952 225.001 18.8838 224.287 18.8838C223.592 18.8838 222.698 18.5661 221.606 17.9307C220.474 17.2555 219.531 16.918 218.776 16.918C217.803 16.918 216.83 17.3647 215.857 18.2583C214.904 19.132 213.991 20.8397 213.117 23.3813C212.243 25.923 211.807 28.4746 211.807 31.0361C211.807 32.9225 212.174 34.382 212.909 35.4146C213.445 36.2088 214.199 36.606 215.172 36.606C217.496 36.606 220.266 35.2458 223.482 32.5254Z" fill="#761B2B"/>
<path d="M228.665 20.79L227.771 19.5986C229.737 17.6328 231.604 16.1833 233.371 15.25C235.138 14.3167 236.528 13.8501 237.541 13.8501C237.958 13.8501 238.266 13.9395 238.464 14.1182C238.683 14.2969 238.792 14.5451 238.792 14.8628C238.792 15.2599 238.633 16.0244 238.315 17.1562C237.859 18.8242 237.541 20.1447 237.362 21.1177C242.128 16.2726 245.772 13.8501 248.293 13.8501C248.949 13.8501 249.445 14.0288 249.783 14.3862C250.12 14.7437 250.289 15.3096 250.289 16.084C250.289 16.918 249.991 18.3377 249.396 20.3433C251.659 17.9803 253.625 16.3123 255.293 15.3394C256.961 14.3465 258.262 13.8501 259.195 13.8501C260.029 13.8501 260.674 14.0884 261.131 14.5649C261.588 15.0415 261.816 15.7762 261.816 16.769C261.816 17.3647 261.717 18.0697 261.518 18.8838C261.319 19.6979 260.595 22.18 259.344 26.3301C257.775 31.473 256.991 34.5409 256.991 35.5337C256.991 36.2088 257.269 36.5464 257.825 36.5464C258.202 36.5464 258.569 36.4272 258.927 36.189C260.098 35.355 261.3 34.3224 262.531 33.0913L263.514 34.1636C263.097 34.5011 262.312 35.1961 261.161 36.2485C259.572 37.6782 258.48 38.5718 257.884 38.9292C256.733 39.6043 255.76 39.9419 254.965 39.9419C254.37 39.9419 253.843 39.644 253.387 39.0483C252.93 38.4725 252.702 37.6683 252.702 36.6357C252.702 35.6826 252.841 34.5706 253.119 33.2998C253.397 32.0091 254.211 29.1299 255.561 24.6621C256.574 21.3063 257.08 19.271 257.08 18.5562C257.08 17.881 256.782 17.5435 256.187 17.5435C255.69 17.5435 255.025 17.7917 254.191 18.2881C252.483 19.3206 251.054 20.5815 249.902 22.0708C249.108 23.1034 248.413 24.7415 247.817 26.9854C246.486 31.89 245.494 35.8911 244.838 38.9888H240.609L245.047 20.79C245.365 19.4795 245.523 18.7249 245.523 18.5264C245.523 18.2087 245.444 17.9704 245.285 17.8115C245.126 17.6328 244.898 17.5435 244.6 17.5435C244.064 17.5435 243.23 17.9604 242.098 18.7944C240.132 20.2043 238.713 21.5744 237.839 22.9048C236.985 24.2153 236.25 26.2209 235.635 28.9214L233.341 38.9888H229.082L232.448 24.7812C233.441 20.6709 233.937 18.437 233.937 18.0796C233.937 17.6229 233.758 17.3945 233.401 17.3945C232.626 17.3945 231.048 18.5264 228.665 20.79Z" fill="#761B2B"/>
<path d="M286.001 13.4331L287.967 13.0161L285.733 20.5518C284.84 23.5501 283.996 27.0052 283.202 30.917C282.765 33.0417 282.546 34.4118 282.546 35.0273C282.546 35.6429 282.795 35.9507 283.291 35.9507C283.609 35.9507 284.115 35.7422 284.81 35.3252C286.041 34.5905 287.223 33.6771 288.354 32.585L289.308 33.7466C287.044 35.8117 285.594 37.0627 284.959 37.4995C283.688 38.3732 282.477 39.0186 281.325 39.4355C280.571 39.7135 279.836 39.8525 279.121 39.8525C278.605 39.8525 278.218 39.7334 277.959 39.4951C277.701 39.2568 277.572 38.9093 277.572 38.4526C277.572 38.1548 277.652 37.7477 277.811 37.2314L279.002 33.1807C277.294 35.2259 275.259 36.9832 272.896 38.4526C271.446 39.366 270.116 39.8228 268.905 39.8228C267.753 39.8228 266.869 39.4157 266.254 38.6016C265.42 37.5094 265.003 36.0798 265.003 34.3125C265.003 32.2077 265.559 29.8646 266.671 27.2832C267.803 24.7018 269.312 22.3587 271.198 20.2539C273.085 18.1491 275.07 16.6003 277.155 15.6074C278.764 14.8529 280.829 14.4756 283.351 14.4756C283.986 14.4756 284.631 14.5153 285.287 14.5947L286.001 13.4331ZM282.308 17.9902C281.236 17.7718 280.332 17.6626 279.598 17.6626C277.811 17.6626 276.252 18.159 274.921 19.1519C273.591 20.1248 272.35 21.8921 271.198 24.4536C270.066 26.9953 269.5 29.5369 269.5 32.0786C269.5 33.4289 269.729 34.4019 270.186 34.9976C270.642 35.5933 271.238 35.8911 271.973 35.8911C273.343 35.8911 274.812 35.1564 276.381 33.687C277.95 32.1978 279.101 30.0632 279.836 27.2832L282.308 17.9902Z" fill="#761B2B"/>
<path d="M309.889 18.3774C309.889 19.7873 309.442 21.2865 308.549 22.875C307.675 24.4437 305.421 26.34 301.788 28.564C298.352 30.6688 296.198 32.1183 295.324 32.9126C294.47 33.7069 294.043 34.5806 294.043 35.5337C294.043 37.2414 295.185 38.0952 297.469 38.0952C298.501 38.0952 299.315 37.8768 299.911 37.4399C300.507 36.9832 301.073 36.2287 301.609 35.1763C302.185 34.0246 302.711 33.2502 303.188 32.853C303.664 32.436 304.28 32.2275 305.034 32.2275C306.126 32.2275 306.672 32.7935 306.672 33.9253C306.672 35.216 305.709 36.5166 303.783 37.8271C301.877 39.1377 299.713 39.793 297.29 39.793C292.822 39.793 290.588 38.1449 290.588 34.8486C290.588 33.1608 291.184 31.6418 292.375 30.2915C293.567 28.9412 295.811 27.2038 299.107 25.0791C302.284 23.0339 304.379 21.5148 305.392 20.522C306.404 19.5093 306.911 18.4966 306.911 17.4839C306.911 16.3719 306.375 15.8159 305.302 15.8159C304.468 15.8159 303.168 16.5407 301.4 17.9902C300.249 18.9036 299.286 19.3604 298.511 19.3604C297.419 19.3604 296.873 18.8937 296.873 17.9604C296.873 17.0073 297.608 16.0939 299.077 15.2202C300.547 14.3267 302.264 13.8799 304.23 13.8799C306.017 13.8799 307.407 14.2869 308.4 15.1011C309.393 15.9152 309.889 17.0073 309.889 18.3774Z" fill="#761B2B"/>
<path d="M312.659 21.3262L311.498 20.1348C313.305 17.9704 315.102 16.3719 316.889 15.3394C318.676 14.3068 320.225 13.7905 321.535 13.7905C322.032 13.7905 322.419 13.9196 322.697 14.1777C322.995 14.416 323.144 14.7734 323.144 15.25C323.144 15.8258 323.074 16.4215 322.935 17.0371C322.816 17.6328 322.419 19.0625 321.744 21.3262C324.782 18.2881 326.857 16.4116 327.969 15.6968C329.835 14.4855 331.543 13.8799 333.092 13.8799C334.104 13.8799 334.958 14.3564 335.653 15.3096C336.348 16.2627 336.696 17.7023 336.696 19.6284C336.696 24.4338 335.197 29.0008 332.198 33.3296C329.2 37.6584 325.884 39.8228 322.25 39.8228C320.82 39.8228 319.391 39.4355 317.961 38.6611L315.429 48.4902C315.27 49.0859 315.191 49.5724 315.191 49.9497C315.191 50.6844 315.469 51.2106 316.025 51.5283C316.879 52.0247 318.676 52.4318 321.416 52.7495L321.029 54.2388C317.832 53.9806 315.32 53.8516 313.493 53.8516C311.607 53.8516 309.164 53.9806 306.166 54.2388L306.553 52.7495C308.062 52.5907 309.154 52.1737 309.83 51.4985C310.525 50.8234 311.081 49.6221 311.498 47.8945L316.889 25.2876C317.901 21.078 318.408 18.7349 318.408 18.2583C318.408 17.742 318.16 17.4839 317.663 17.4839C316.789 17.4839 315.121 18.7646 312.659 21.3262ZM318.676 35.3848C320.244 36.9534 321.853 37.7378 323.501 37.7378C325.884 37.7378 327.969 35.8812 329.756 32.168C331.563 28.4548 332.466 24.8309 332.466 21.2964C332.466 20.1646 332.208 19.3107 331.692 18.7349C331.195 18.1392 330.52 17.8413 329.667 17.8413C328.713 17.8413 327.641 18.3079 326.45 19.2412C324.603 20.6908 323.193 22.1304 322.22 23.5601C321.525 24.5926 320.87 26.3797 320.254 28.9214L318.676 35.3848Z" fill="#761B2B"/>
<path d="M359.392 13.4331L361.358 13.0161L359.124 20.5518C358.23 23.5501 357.387 27.0052 356.592 30.917C356.155 33.0417 355.937 34.4118 355.937 35.0273C355.937 35.6429 356.185 35.9507 356.682 35.9507C356.999 35.9507 357.506 35.7422 358.201 35.3252C359.432 34.5905 360.613 33.6771 361.745 32.585L362.698 33.7466C360.435 35.8117 358.985 37.0627 358.35 37.4995C357.079 38.3732 355.868 39.0186 354.716 39.4355C353.961 39.7135 353.227 39.8525 352.512 39.8525C351.995 39.8525 351.608 39.7334 351.35 39.4951C351.092 39.2568 350.963 38.9093 350.963 38.4526C350.963 38.1548 351.042 37.7477 351.201 37.2314L352.393 33.1807C350.685 35.2259 348.65 36.9832 346.287 38.4526C344.837 39.366 343.507 39.8228 342.295 39.8228C341.144 39.8228 340.26 39.4157 339.645 38.6016C338.811 37.5094 338.394 36.0798 338.394 34.3125C338.394 32.2077 338.95 29.8646 340.062 27.2832C341.193 24.7018 342.702 22.3587 344.589 20.2539C346.475 18.1491 348.461 16.6003 350.546 15.6074C352.154 14.8529 354.219 14.4756 356.741 14.4756C357.377 14.4756 358.022 14.5153 358.677 14.5947L359.392 13.4331ZM355.699 17.9902C354.626 17.7718 353.723 17.6626 352.988 17.6626C351.201 17.6626 349.642 18.159 348.312 19.1519C346.982 20.1248 345.741 21.8921 344.589 24.4536C343.457 26.9953 342.891 29.5369 342.891 32.0786C342.891 33.4289 343.119 34.4019 343.576 34.9976C344.033 35.5933 344.629 35.8911 345.363 35.8911C346.733 35.8911 348.203 35.1564 349.771 33.687C351.34 32.1978 352.492 30.0632 353.227 27.2832L355.699 17.9902Z" fill="#761B2B"/>
<path d="M370.293 20.8198L368.983 19.7773C373.173 15.9053 376.36 13.9692 378.544 13.9692C379.577 13.9692 380.162 14.6047 380.301 15.8755L382.327 34.4019L394.717 14.7437H398.947L396.117 25.1387C394.489 31.1751 393.675 34.6104 393.675 35.4443C393.675 36.2188 393.963 36.606 394.539 36.606C395.253 36.606 396.892 35.3053 399.453 32.7041L400.436 33.8062C396.465 37.9562 393.526 40.0312 391.62 40.0312C391.083 40.0312 390.567 39.783 390.071 39.2866C389.574 38.8101 389.326 38.125 389.326 37.2314C389.326 35.901 390.021 32.5949 391.411 27.313L393.228 20.373L381.076 39.7632H378.842L376.906 22.4878C374.126 30.5298 371.862 35.4245 370.115 37.1719C368.387 38.9193 366.461 39.793 364.336 39.793C363.284 39.793 362.48 39.515 361.924 38.959C361.388 38.3831 361.12 37.7279 361.12 36.9932C361.12 36.2783 361.358 35.6528 361.834 35.1167C362.311 34.5806 362.907 34.3125 363.622 34.3125C364.078 34.3125 364.664 34.4614 365.379 34.7593C366.173 35.0571 366.739 35.2061 367.077 35.2061C367.95 35.2061 368.834 34.6799 369.728 33.6274C370.621 32.575 371.932 29.944 373.659 25.7344C375.387 21.5247 376.25 18.9831 376.25 18.1094C376.25 17.613 376.002 17.3647 375.506 17.3647C374.314 17.3647 372.577 18.5164 370.293 20.8198Z" fill="#761B2B"/>
<path d="M422.864 12.2417L421.345 11.4971C422.914 8.37956 424.532 6.2251 426.2 5.03369C427.888 3.82243 429.774 3.2168 431.859 3.2168C434.361 3.2168 436.357 4.01107 437.846 5.59961C439.335 7.18815 440.08 9.04476 440.08 11.1694C440.08 12.48 439.812 13.8104 439.276 15.1606C438.74 16.5109 437.856 17.9207 436.625 19.3901C435.831 20.3631 433.646 22.3786 430.072 25.4365C425.267 29.6064 421.891 32.9722 419.945 35.5337C422.547 35.4146 425.227 35.355 427.987 35.355C428.881 35.355 429.655 35.3649 430.311 35.3848C431.76 35.4443 432.753 35.3053 433.289 34.9678C433.825 34.6302 434.709 33.4984 435.94 31.5723H437.995C436.387 33.7962 434.987 36.5265 433.795 39.7632C432.386 39.505 430.896 39.3065 429.328 39.1675C427.759 39.0483 426.111 38.9888 424.383 38.9888C422.338 38.9888 419.33 39.1178 415.358 39.376L415.954 37.4995C417.761 34.8188 420.462 31.7907 424.056 28.415C427.61 25.0791 429.903 22.7459 430.936 21.4155C432.425 19.4894 433.507 17.6725 434.183 15.9648C434.699 14.694 434.957 13.4629 434.957 12.2715C434.957 10.4844 434.471 9.05469 433.498 7.98242C432.525 6.91016 431.323 6.37402 429.894 6.37402C428.702 6.37402 427.531 6.80094 426.379 7.65479C425.247 8.50863 424.076 10.0376 422.864 12.2417Z" fill="#761B2B"/>
<path d="M458.666 3.30615C461.506 3.30615 463.779 4.34863 465.487 6.43359C467.214 8.51855 468.078 11.6361 468.078 15.7861C468.078 21.6836 466.589 27.174 463.61 32.2573C460.652 37.3208 457.058 39.8525 452.828 39.8525C450.346 39.8525 448.241 38.7703 446.514 36.606C444.806 34.4416 443.952 31.4928 443.952 27.7598C443.952 23.3714 444.806 19.0824 446.514 14.8926C448.221 10.6829 450.147 7.70443 452.292 5.95703C454.437 4.18978 456.561 3.30615 458.666 3.30615ZM458.13 5.06348C456.899 5.06348 455.638 5.88753 454.347 7.53564C453.076 9.1639 451.895 12.1623 450.803 16.5308C449.73 20.8794 449.194 25.0295 449.194 28.981C449.194 32.158 449.651 34.4714 450.564 35.9209C451.498 37.3704 452.56 38.0952 453.751 38.0952C454.804 38.0952 455.846 37.569 456.879 36.5166C458.408 34.9479 459.788 31.9992 461.019 27.6704C462.25 23.3218 462.866 18.9533 462.866 14.5649C462.866 11.1694 462.349 8.62777 461.317 6.93994C460.542 5.68896 459.48 5.06348 458.13 5.06348Z" fill="#761B2B"/>
<path d="M476.597 12.2417L475.078 11.4971C476.646 8.37956 478.265 6.2251 479.933 5.03369C481.62 3.82243 483.507 3.2168 485.592 3.2168C488.094 3.2168 490.089 4.01107 491.579 5.59961C493.068 7.18815 493.812 9.04476 493.812 11.1694C493.812 12.48 493.544 13.8104 493.008 15.1606C492.472 16.5109 491.589 17.9207 490.357 19.3901C489.563 20.3631 487.379 22.3786 483.805 25.4365C478.999 29.6064 475.624 32.9722 473.678 35.5337C476.279 35.4146 478.96 35.355 481.72 35.355C482.613 35.355 483.388 35.3649 484.043 35.3848C485.493 35.4443 486.485 35.3053 487.021 34.9678C487.558 34.6302 488.441 33.4984 489.672 31.5723H491.728C490.119 33.7962 488.719 36.5265 487.528 39.7632C486.118 39.505 484.629 39.3065 483.06 39.1675C481.491 39.0483 479.843 38.9888 478.116 38.9888C476.07 38.9888 473.062 39.1178 469.091 39.376L469.687 37.4995C471.493 34.8188 474.194 31.7907 477.788 28.415C481.342 25.0791 483.636 22.7459 484.668 21.4155C486.158 19.4894 487.24 17.6725 487.915 15.9648C488.431 14.694 488.689 13.4629 488.689 12.2715C488.689 10.4844 488.203 9.05469 487.23 7.98242C486.257 6.91016 485.056 6.37402 483.626 6.37402C482.435 6.37402 481.263 6.80094 480.111 7.65479C478.979 8.50863 477.808 10.0376 476.597 12.2417Z" fill="#761B2B"/>
<path d="M512.398 3.30615C515.238 3.30615 517.512 4.34863 519.219 6.43359C520.947 8.51855 521.811 11.6361 521.811 15.7861C521.811 21.6836 520.321 27.174 517.343 32.2573C514.384 37.3208 510.79 39.8525 506.561 39.8525C504.078 39.8525 501.974 38.7703 500.246 36.606C498.538 34.4416 497.685 31.4928 497.685 27.7598C497.685 23.3714 498.538 19.0824 500.246 14.8926C501.954 10.6829 503.88 7.70443 506.024 5.95703C508.169 4.18978 510.294 3.30615 512.398 3.30615ZM511.862 5.06348C510.631 5.06348 509.37 5.88753 508.08 7.53564C506.809 9.1639 505.627 12.1623 504.535 16.5308C503.463 20.8794 502.927 25.0295 502.927 28.981C502.927 32.158 503.383 34.4714 504.297 35.9209C505.23 37.3704 506.292 38.0952 507.484 38.0952C508.536 38.0952 509.579 37.569 510.611 36.5166C512.14 34.9479 513.52 31.9992 514.751 27.6704C515.983 23.3218 516.598 18.9533 516.598 14.5649C516.598 11.1694 516.082 8.62777 515.049 6.93994C514.275 5.68896 513.213 5.06348 511.862 5.06348Z" fill="#761B2B"/>
<path d="M24.2749 40.2397L21.8921 8.19092C21.3758 13.592 20.4227 18.6356 19.0327 23.3218C17.6427 27.9881 16.0641 31.6021 14.2969 34.1636C12.5296 36.7052 10.7227 38.4924 8.87598 39.5249C7.0293 40.5575 5.20247 41.0737 3.39551 41.0737C2.30339 41.0737 1.45947 40.8454 0.86377 40.3887C0.287923 39.9518 0 39.4157 0 38.7803C0 38.2441 0.208496 37.7775 0.625488 37.3804C1.06234 36.9832 1.6084 36.7847 2.26367 36.7847C2.74023 36.7847 3.42529 36.8939 4.31885 37.1123C5.13298 37.3307 5.80811 37.4399 6.34424 37.4399C7.27751 37.4399 8.25049 37.0924 9.26318 36.3975C10.7922 35.3649 12.3013 33.5182 13.7905 30.8574C15.2996 28.1768 16.64 24.4536 17.8115 19.688C19.0029 14.9025 19.7476 10.2362 20.0454 5.68896C15.5379 5.68896 11.8743 6.81087 9.05469 9.05469C6.81087 10.8418 5.68896 12.8374 5.68896 15.0415C5.68896 16.0145 6.2251 17.186 7.29736 18.5562C7.87321 19.2909 8.16113 19.8866 8.16113 20.3433C8.16113 20.8595 7.99235 21.2865 7.65479 21.624C7.33708 21.9616 6.94987 22.1304 6.49316 22.1304C5.71875 22.1304 5.03369 21.6935 4.43799 20.8198C3.62386 19.6483 3.2168 18.2583 3.2168 16.6499C3.2168 14.3862 3.97135 12.2218 5.48047 10.1567C7.00944 8.07178 9.11426 6.49316 11.7949 5.4209C14.4954 4.32878 17.6527 3.77279 21.2666 3.75293C23.2126 3.75293 24.7713 3.57422 25.9429 3.2168C25.8833 5.00391 25.8535 5.96696 25.8535 6.10596C25.8535 6.28467 25.8833 6.69173 25.9429 7.32715L27.7002 29.9639C32.4857 21.6042 37.1619 14.7238 41.729 9.32275C44.9657 5.4904 47.7853 2.89909 50.188 1.54883C48.8179 5.32161 47.3485 10.2957 45.7798 16.4712L42.146 30.7681C41.9474 31.5623 41.6794 32.724 41.3418 34.2529L40.627 37.4399C42.1361 37.7974 43.5161 37.9761 44.7671 37.9761C45.7798 37.9761 46.862 37.8569 48.0137 37.6187L47.6265 39.3462C46.6138 39.5249 45.8294 39.6143 45.2734 39.6143C44.4593 39.6143 43.2878 39.5249 41.7588 39.3462C40.5078 39.1873 39.3958 39.1079 38.4229 39.1079C37.3903 39.1079 36.2188 39.3065 34.9082 39.7036C36.0003 36.8442 37.1421 33.002 38.3335 28.1768L40.627 19.0625C41.5999 15.1309 42.4438 12.4303 43.1587 10.9609C41.5701 12.7679 39.1178 16.084 35.8018 20.9092C33.1409 24.8011 30.1624 29.7256 26.8662 35.6826L24.2749 40.2397Z" fill="url(#paint0_linear)"/>
<path d="M24.2749 40.2397L21.8921 8.19092C21.3758 13.592 20.4227 18.6356 19.0327 23.3218C17.6427 27.9881 16.0641 31.6021 14.2969 34.1636C12.5296 36.7052 10.7227 38.4924 8.87598 39.5249C7.0293 40.5575 5.20247 41.0737 3.39551 41.0737C2.30339 41.0737 1.45947 40.8454 0.86377 40.3887C0.287923 39.9518 0 39.4157 0 38.7803C0 38.2441 0.208496 37.7775 0.625488 37.3804C1.06234 36.9832 1.6084 36.7847 2.26367 36.7847C2.74023 36.7847 3.42529 36.8939 4.31885 37.1123C5.13298 37.3307 5.80811 37.4399 6.34424 37.4399C7.27751 37.4399 8.25049 37.0924 9.26318 36.3975C10.7922 35.3649 12.3013 33.5182 13.7905 30.8574C15.2996 28.1768 16.64 24.4536 17.8115 19.688C19.0029 14.9025 19.7476 10.2362 20.0454 5.68896C15.5379 5.68896 11.8743 6.81087 9.05469 9.05469C6.81087 10.8418 5.68896 12.8374 5.68896 15.0415C5.68896 16.0145 6.2251 17.186 7.29736 18.5562C7.87321 19.2909 8.16113 19.8866 8.16113 20.3433C8.16113 20.8595 7.99235 21.2865 7.65479 21.624C7.33708 21.9616 6.94987 22.1304 6.49316 22.1304C5.71875 22.1304 5.03369 21.6935 4.43799 20.8198C3.62386 19.6483 3.2168 18.2583 3.2168 16.6499C3.2168 14.3862 3.97135 12.2218 5.48047 10.1567C7.00944 8.07178 9.11426 6.49316 11.7949 5.4209C14.4954 4.32878 17.6527 3.77279 21.2666 3.75293C23.2126 3.75293 24.7713 3.57422 25.9429 3.2168C25.8833 5.00391 25.8535 5.96696 25.8535 6.10596C25.8535 6.28467 25.8833 6.69173 25.9429 7.32715L27.7002 29.9639C32.4857 21.6042 37.1619 14.7238 41.729 9.32275C44.9657 5.4904 47.7853 2.89909 50.188 1.54883C48.8179 5.32161 47.3485 10.2957 45.7798 16.4712L42.146 30.7681C41.9474 31.5623 41.6794 32.724 41.3418 34.2529L40.627 37.4399C42.1361 37.7974 43.5161 37.9761 44.7671 37.9761C45.7798 37.9761 46.862 37.8569 48.0137 37.6187L47.6265 39.3462C46.6138 39.5249 45.8294 39.6143 45.2734 39.6143C44.4593 39.6143 43.2878 39.5249 41.7588 39.3462C40.5078 39.1873 39.3958 39.1079 38.4229 39.1079C37.3903 39.1079 36.2188 39.3065 34.9082 39.7036C36.0003 36.8442 37.1421 33.002 38.3335 28.1768L40.627 19.0625C41.5999 15.1309 42.4438 12.4303 43.1587 10.9609C41.5701 12.7679 39.1178 16.084 35.8018 20.9092C33.1409 24.8011 30.1624 29.7256 26.8662 35.6826L24.2749 40.2397Z" fill="#531818" fill-opacity="0.11"/>
<path d="M72.7056 14.7437H76.9351L74.1353 25.1387C72.4871 31.1751 71.6631 34.6104 71.6631 35.4443C71.6631 35.8216 71.7524 36.1095 71.9312 36.3081C72.1099 36.5067 72.3084 36.606 72.5269 36.606C72.8644 36.606 73.2616 36.457 73.7183 36.1592C74.3735 35.7025 75.6146 34.5508 77.4414 32.7041L78.4243 33.8062C74.4331 37.9562 71.4943 40.0312 69.6079 40.0312C68.9725 40.0312 68.4264 39.783 67.9697 39.2866C67.5329 38.8101 67.3145 38.125 67.3145 37.2314C67.3145 36.1989 67.5329 34.8188 67.9697 33.0913C66.2025 35.1167 64.0182 36.8939 61.417 38.4229C59.6895 39.4355 58.1903 39.9419 56.9194 39.9419C56.2244 39.9419 55.6784 39.7135 55.2812 39.2568C54.8841 38.8001 54.6855 38.0754 54.6855 37.0825C54.6855 36.3081 54.7749 35.4741 54.9536 34.5806C55.2118 33.3296 55.867 30.8177 56.9194 27.0449C58.2498 22.2594 58.915 19.3901 58.915 18.437C58.915 17.881 58.7165 17.603 58.3193 17.603C57.9619 17.603 57.4754 17.7917 56.8599 18.1689C56.2443 18.5264 55.1919 19.41 53.7026 20.8198L52.3921 19.7773C55.0529 17.3945 57.0783 15.8358 58.4683 15.1011C59.8781 14.3465 61.0099 13.9692 61.8638 13.9692C62.3403 13.9692 62.7275 14.1479 63.0254 14.5054C63.3232 14.8429 63.4722 15.3791 63.4722 16.1138C63.4722 17.4839 62.7573 20.8496 61.3276 26.2109C60.0568 31.0361 59.4214 33.7863 59.4214 34.4614C59.4214 34.8784 59.5505 35.2358 59.8086 35.5337C60.0866 35.8315 60.3844 35.9805 60.7021 35.9805C61.8141 35.9805 63.3927 35.0671 65.438 33.2402C67.4832 31.3936 68.8236 29.2987 69.459 26.9556L72.7056 14.7437Z" fill="url(#paint1_linear)"/>
<path d="M72.7056 14.7437H76.9351L74.1353 25.1387C72.4871 31.1751 71.6631 34.6104 71.6631 35.4443C71.6631 35.8216 71.7524 36.1095 71.9312 36.3081C72.1099 36.5067 72.3084 36.606 72.5269 36.606C72.8644 36.606 73.2616 36.457 73.7183 36.1592C74.3735 35.7025 75.6146 34.5508 77.4414 32.7041L78.4243 33.8062C74.4331 37.9562 71.4943 40.0312 69.6079 40.0312C68.9725 40.0312 68.4264 39.783 67.9697 39.2866C67.5329 38.8101 67.3145 38.125 67.3145 37.2314C67.3145 36.1989 67.5329 34.8188 67.9697 33.0913C66.2025 35.1167 64.0182 36.8939 61.417 38.4229C59.6895 39.4355 58.1903 39.9419 56.9194 39.9419C56.2244 39.9419 55.6784 39.7135 55.2812 39.2568C54.8841 38.8001 54.6855 38.0754 54.6855 37.0825C54.6855 36.3081 54.7749 35.4741 54.9536 34.5806C55.2118 33.3296 55.867 30.8177 56.9194 27.0449C58.2498 22.2594 58.915 19.3901 58.915 18.437C58.915 17.881 58.7165 17.603 58.3193 17.603C57.9619 17.603 57.4754 17.7917 56.8599 18.1689C56.2443 18.5264 55.1919 19.41 53.7026 20.8198L52.3921 19.7773C55.0529 17.3945 57.0783 15.8358 58.4683 15.1011C59.8781 14.3465 61.0099 13.9692 61.8638 13.9692C62.3403 13.9692 62.7275 14.1479 63.0254 14.5054C63.3232 14.8429 63.4722 15.3791 63.4722 16.1138C63.4722 17.4839 62.7573 20.8496 61.3276 26.2109C60.0568 31.0361 59.4214 33.7863 59.4214 34.4614C59.4214 34.8784 59.5505 35.2358 59.8086 35.5337C60.0866 35.8315 60.3844 35.9805 60.7021 35.9805C61.8141 35.9805 63.3927 35.0671 65.438 33.2402C67.4832 31.3936 68.8236 29.2987 69.459 26.9556L72.7056 14.7437Z" fill="#531818" fill-opacity="0.11"/>
<path d="M96.9805 32.5254L97.606 34.2529C92.88 37.9661 88.8888 39.8228 85.6323 39.8228C83.9048 39.8228 82.6439 39.2072 81.8496 37.9761C81.0752 36.745 80.688 35.1862 80.688 33.2998C80.688 30.1624 81.522 26.9357 83.1899 23.6196C84.8579 20.3035 86.8833 17.7619 89.2661 15.9946C91.1327 14.6245 93.2375 13.9395 95.5806 13.9395C97.05 13.9395 98.1619 14.2174 98.9165 14.7734C99.6711 15.3294 100.048 16.0046 100.048 16.7988C100.048 17.4144 99.8498 17.9207 99.4526 18.3179C99.0555 18.6952 98.4995 18.8838 97.7847 18.8838C97.0897 18.8838 96.1961 18.5661 95.104 17.9307C93.9722 17.2555 93.029 16.918 92.2744 16.918C91.3014 16.918 90.3285 17.3647 89.3555 18.2583C88.4023 19.132 87.4889 20.8397 86.6152 23.3813C85.7415 25.923 85.3047 28.4746 85.3047 31.0361C85.3047 32.9225 85.672 34.382 86.4067 35.4146C86.9429 36.2088 87.6974 36.606 88.6704 36.606C90.9937 36.606 93.7637 35.2458 96.9805 32.5254Z" fill="url(#paint2_linear)"/>
<path d="M96.9805 32.5254L97.606 34.2529C92.88 37.9661 88.8888 39.8228 85.6323 39.8228C83.9048 39.8228 82.6439 39.2072 81.8496 37.9761C81.0752 36.745 80.688 35.1862 80.688 33.2998C80.688 30.1624 81.522 26.9357 83.1899 23.6196C84.8579 20.3035 86.8833 17.7619 89.2661 15.9946C91.1327 14.6245 93.2375 13.9395 95.5806 13.9395C97.05 13.9395 98.1619 14.2174 98.9165 14.7734C99.6711 15.3294 100.048 16.0046 100.048 16.7988C100.048 17.4144 99.8498 17.9207 99.4526 18.3179C99.0555 18.6952 98.4995 18.8838 97.7847 18.8838C97.0897 18.8838 96.1961 18.5661 95.104 17.9307C93.9722 17.2555 93.029 16.918 92.2744 16.918C91.3014 16.918 90.3285 17.3647 89.3555 18.2583C88.4023 19.132 87.4889 20.8397 86.6152 23.3813C85.7415 25.923 85.3047 28.4746 85.3047 31.0361C85.3047 32.9225 85.672 34.382 86.4067 35.4146C86.9429 36.2088 87.6974 36.606 88.6704 36.606C90.9937 36.606 93.7637 35.2458 96.9805 32.5254Z" fill="#531818" fill-opacity="0.11"/>
<path d="M117.711 32.5254L118.336 34.2529C113.611 37.9661 109.619 39.8228 106.363 39.8228C104.635 39.8228 103.374 39.2072 102.58 37.9761C101.806 36.745 101.418 35.1862 101.418 33.2998C101.418 30.1624 102.252 26.9357 103.92 23.6196C105.588 20.3035 107.614 17.7619 109.997 15.9946C111.863 14.6245 113.968 13.9395 116.311 13.9395C117.78 13.9395 118.892 14.2174 119.647 14.7734C120.402 15.3294 120.779 16.0046 120.779 16.7988C120.779 17.4144 120.58 17.9207 120.183 18.3179C119.786 18.6952 119.23 18.8838 118.515 18.8838C117.82 18.8838 116.927 18.5661 115.834 17.9307C114.703 17.2555 113.759 16.918 113.005 16.918C112.032 16.918 111.059 17.3647 110.086 18.2583C109.133 19.132 108.219 20.8397 107.346 23.3813C106.472 25.923 106.035 28.4746 106.035 31.0361C106.035 32.9225 106.403 34.382 107.137 35.4146C107.673 36.2088 108.428 36.606 109.401 36.606C111.724 36.606 114.494 35.2458 117.711 32.5254Z" fill="url(#paint3_linear)"/>
<path d="M117.711 32.5254L118.336 34.2529C113.611 37.9661 109.619 39.8228 106.363 39.8228C104.635 39.8228 103.374 39.2072 102.58 37.9761C101.806 36.745 101.418 35.1862 101.418 33.2998C101.418 30.1624 102.252 26.9357 103.92 23.6196C105.588 20.3035 107.614 17.7619 109.997 15.9946C111.863 14.6245 113.968 13.9395 116.311 13.9395C117.78 13.9395 118.892 14.2174 119.647 14.7734C120.402 15.3294 120.779 16.0046 120.779 16.7988C120.779 17.4144 120.58 17.9207 120.183 18.3179C119.786 18.6952 119.23 18.8838 118.515 18.8838C117.82 18.8838 116.927 18.5661 115.834 17.9307C114.703 17.2555 113.759 16.918 113.005 16.918C112.032 16.918 111.059 17.3647 110.086 18.2583C109.133 19.132 108.219 20.8397 107.346 23.3813C106.472 25.923 106.035 28.4746 106.035 31.0361C106.035 32.9225 106.403 34.382 107.137 35.4146C107.673 36.2088 108.428 36.606 109.401 36.606C111.724 36.606 114.494 35.2458 117.711 32.5254Z" fill="#531818" fill-opacity="0.11"/>
<path d="M164.533 37.4399C164.752 37.4598 165.228 37.5293 165.963 37.6484C167.095 37.847 168.008 37.9463 168.703 37.9463C169.557 37.9463 170.48 37.847 171.473 37.6484L171.086 39.3462C170.093 39.4653 169.319 39.5249 168.763 39.5249C167.909 39.5249 166.777 39.4554 165.367 39.3164C163.858 39.1774 162.567 39.1079 161.495 39.1079C160.582 39.1079 159.698 39.2469 158.844 39.5249C159.321 38.2739 160.244 35.0968 161.614 29.9937L165.576 15.3989C161.803 19.7078 157.603 24.1359 152.977 28.6831C149.601 31.9793 147.278 34.3026 146.007 35.6528C144.557 37.2017 143.167 38.4526 141.837 39.4058C140.526 40.3787 138.997 40.8652 137.25 40.8652C135.681 40.8652 134.341 40.5277 133.229 39.8525C132.137 39.1973 131.591 38.4626 131.591 37.6484C131.591 37.2116 131.76 36.7946 132.097 36.3975C132.435 36.0003 132.862 35.8018 133.378 35.8018C134.152 35.8018 134.947 36.3478 135.761 37.4399C136.535 38.4725 137.28 38.9888 137.995 38.9888C139.643 38.9888 141.132 37.6683 142.462 35.0273C143.813 32.3864 145.798 26.1613 148.419 16.3521L151.249 5.77832C147.337 5.81803 144.369 6.47331 142.343 7.74414C140.318 9.01497 139.305 10.4943 139.305 12.1821C139.305 12.7381 139.563 13.443 140.08 14.2969C140.576 15.0911 140.824 15.7365 140.824 16.2329C140.824 16.769 140.646 17.2357 140.288 17.6328C139.931 18.0101 139.464 18.1987 138.888 18.1987C138.173 18.1987 137.568 17.8612 137.071 17.186C136.595 16.491 136.356 15.528 136.356 14.2969C136.356 12.5693 136.833 10.9808 137.786 9.53125C138.739 8.06185 140.04 6.8903 141.688 6.0166C143.336 5.1429 145.113 4.55713 147.02 4.25928C148.926 3.96143 152.272 3.8125 157.057 3.8125C156.362 5.20247 155.816 6.47331 155.419 7.625C155.042 8.77669 153.92 12.7183 152.053 19.4497L149.194 29.8149C150.822 28.0278 152.579 26.1911 154.466 24.3047C160.522 18.2682 165.04 13.0955 168.018 8.78662C170.48 2.92887 174.144 0 179.009 0C180.756 0 182.097 0.347493 183.03 1.04248C183.983 1.71761 184.459 2.49202 184.459 3.36572C184.459 4.51742 183.854 5.09326 182.643 5.09326C181.948 5.09326 181.163 4.59684 180.29 3.604C179.396 2.61117 178.602 2.11475 177.907 2.11475C175.861 2.11475 173.816 4.79541 171.771 10.1567C169.726 15.5181 167.313 24.6125 164.533 37.4399Z" fill="url(#paint4_linear)"/>
<path d="M164.533 37.4399C164.752 37.4598 165.228 37.5293 165.963 37.6484C167.095 37.847 168.008 37.9463 168.703 37.9463C169.557 37.9463 170.48 37.847 171.473 37.6484L171.086 39.3462C170.093 39.4653 169.319 39.5249 168.763 39.5249C167.909 39.5249 166.777 39.4554 165.367 39.3164C163.858 39.1774 162.567 39.1079 161.495 39.1079C160.582 39.1079 159.698 39.2469 158.844 39.5249C159.321 38.2739 160.244 35.0968 161.614 29.9937L165.576 15.3989C161.803 19.7078 157.603 24.1359 152.977 28.6831C149.601 31.9793 147.278 34.3026 146.007 35.6528C144.557 37.2017 143.167 38.4526 141.837 39.4058C140.526 40.3787 138.997 40.8652 137.25 40.8652C135.681 40.8652 134.341 40.5277 133.229 39.8525C132.137 39.1973 131.591 38.4626 131.591 37.6484C131.591 37.2116 131.76 36.7946 132.097 36.3975C132.435 36.0003 132.862 35.8018 133.378 35.8018C134.152 35.8018 134.947 36.3478 135.761 37.4399C136.535 38.4725 137.28 38.9888 137.995 38.9888C139.643 38.9888 141.132 37.6683 142.462 35.0273C143.813 32.3864 145.798 26.1613 148.419 16.3521L151.249 5.77832C147.337 5.81803 144.369 6.47331 142.343 7.74414C140.318 9.01497 139.305 10.4943 139.305 12.1821C139.305 12.7381 139.563 13.443 140.08 14.2969C140.576 15.0911 140.824 15.7365 140.824 16.2329C140.824 16.769 140.646 17.2357 140.288 17.6328C139.931 18.0101 139.464 18.1987 138.888 18.1987C138.173 18.1987 137.568 17.8612 137.071 17.186C136.595 16.491 136.356 15.528 136.356 14.2969C136.356 12.5693 136.833 10.9808 137.786 9.53125C138.739 8.06185 140.04 6.8903 141.688 6.0166C143.336 5.1429 145.113 4.55713 147.02 4.25928C148.926 3.96143 152.272 3.8125 157.057 3.8125C156.362 5.20247 155.816 6.47331 155.419 7.625C155.042 8.77669 153.92 12.7183 152.053 19.4497L149.194 29.8149C150.822 28.0278 152.579 26.1911 154.466 24.3047C160.522 18.2682 165.04 13.0955 168.018 8.78662C170.48 2.92887 174.144 0 179.009 0C180.756 0 182.097 0.347493 183.03 1.04248C183.983 1.71761 184.459 2.49202 184.459 3.36572C184.459 4.51742 183.854 5.09326 182.643 5.09326C181.948 5.09326 181.163 4.59684 180.29 3.604C179.396 2.61117 178.602 2.11475 177.907 2.11475C175.861 2.11475 173.816 4.79541 171.771 10.1567C169.726 15.5181 167.313 24.6125 164.533 37.4399Z" fill="#531818" fill-opacity="0.11"/>
<path d="M202.926 33.8062C198.955 37.9562 196.016 40.0312 194.11 40.0312C193.554 40.0312 193.028 39.783 192.531 39.2866C192.055 38.7902 191.816 38.1051 191.816 37.2314C191.816 36.2188 192.015 34.9082 192.412 33.2998L193.812 27.4023H185.532L182.792 38.9888H178.354C178.393 38.7505 178.602 37.9463 178.979 36.5762C179.257 35.5833 179.783 33.5381 180.558 30.4404L183.208 19.8071C183.347 19.2511 183.417 18.8143 183.417 18.4966C183.417 17.9009 183.208 17.603 182.792 17.603C181.918 17.603 180.389 18.6753 178.205 20.8198L176.894 19.8071C181.064 15.9152 184.211 13.9692 186.336 13.9692C187.428 13.9692 187.974 14.694 187.974 16.1436C187.974 17.5335 187.319 20.6808 186.008 25.5854H194.318L197.208 14.7437H201.437L198.637 25.1387C196.989 31.1751 196.165 34.6104 196.165 35.4443C196.165 36.2188 196.453 36.606 197.029 36.606C197.744 36.606 199.382 35.3053 201.943 32.7041L202.926 33.8062Z" fill="url(#paint5_linear)"/>
<path d="M202.926 33.8062C198.955 37.9562 196.016 40.0312 194.11 40.0312C193.554 40.0312 193.028 39.783 192.531 39.2866C192.055 38.7902 191.816 38.1051 191.816 37.2314C191.816 36.2188 192.015 34.9082 192.412 33.2998L193.812 27.4023H185.532L182.792 38.9888H178.354C178.393 38.7505 178.602 37.9463 178.979 36.5762C179.257 35.5833 179.783 33.5381 180.558 30.4404L183.208 19.8071C183.347 19.2511 183.417 18.8143 183.417 18.4966C183.417 17.9009 183.208 17.603 182.792 17.603C181.918 17.603 180.389 18.6753 178.205 20.8198L176.894 19.8071C181.064 15.9152 184.211 13.9692 186.336 13.9692C187.428 13.9692 187.974 14.694 187.974 16.1436C187.974 17.5335 187.319 20.6808 186.008 25.5854H194.318L197.208 14.7437H201.437L198.637 25.1387C196.989 31.1751 196.165 34.6104 196.165 35.4443C196.165 36.2188 196.453 36.606 197.029 36.606C197.744 36.606 199.382 35.3053 201.943 32.7041L202.926 33.8062Z" fill="#531818" fill-opacity="0.11"/>
<path d="M221.482 32.5254L222.108 34.2529C217.382 37.9661 213.391 39.8228 210.134 39.8228C208.407 39.8228 207.146 39.2072 206.352 37.9761C205.577 36.745 205.19 35.1862 205.19 33.2998C205.19 30.1624 206.024 26.9357 207.692 23.6196C209.36 20.3035 211.385 17.7619 213.768 15.9946C215.635 14.6245 217.739 13.9395 220.083 13.9395C221.552 13.9395 222.664 14.2174 223.418 14.7734C224.173 15.3294 224.55 16.0046 224.55 16.7988C224.55 17.4144 224.352 17.9207 223.955 18.3179C223.557 18.6952 223.001 18.8838 222.287 18.8838C221.592 18.8838 220.698 18.5661 219.606 17.9307C218.474 17.2555 217.531 16.918 216.776 16.918C215.803 16.918 214.83 17.3647 213.857 18.2583C212.904 19.132 211.991 20.8397 211.117 23.3813C210.243 25.923 209.807 28.4746 209.807 31.0361C209.807 32.9225 210.174 34.382 210.909 35.4146C211.445 36.2088 212.199 36.606 213.172 36.606C215.496 36.606 218.266 35.2458 221.482 32.5254Z" fill="url(#paint6_linear)"/>
<path d="M221.482 32.5254L222.108 34.2529C217.382 37.9661 213.391 39.8228 210.134 39.8228C208.407 39.8228 207.146 39.2072 206.352 37.9761C205.577 36.745 205.19 35.1862 205.19 33.2998C205.19 30.1624 206.024 26.9357 207.692 23.6196C209.36 20.3035 211.385 17.7619 213.768 15.9946C215.635 14.6245 217.739 13.9395 220.083 13.9395C221.552 13.9395 222.664 14.2174 223.418 14.7734C224.173 15.3294 224.55 16.0046 224.55 16.7988C224.55 17.4144 224.352 17.9207 223.955 18.3179C223.557 18.6952 223.001 18.8838 222.287 18.8838C221.592 18.8838 220.698 18.5661 219.606 17.9307C218.474 17.2555 217.531 16.918 216.776 16.918C215.803 16.918 214.83 17.3647 213.857 18.2583C212.904 19.132 211.991 20.8397 211.117 23.3813C210.243 25.923 209.807 28.4746 209.807 31.0361C209.807 32.9225 210.174 34.382 210.909 35.4146C211.445 36.2088 212.199 36.606 213.172 36.606C215.496 36.606 218.266 35.2458 221.482 32.5254Z" fill="#531818" fill-opacity="0.11"/>
<path d="M226.665 20.79L225.771 19.5986C227.737 17.6328 229.604 16.1833 231.371 15.25C233.138 14.3167 234.528 13.8501 235.541 13.8501C235.958 13.8501 236.266 13.9395 236.464 14.1182C236.683 14.2969 236.792 14.5451 236.792 14.8628C236.792 15.2599 236.633 16.0244 236.315 17.1562C235.859 18.8242 235.541 20.1447 235.362 21.1177C240.128 16.2726 243.772 13.8501 246.293 13.8501C246.949 13.8501 247.445 14.0288 247.783 14.3862C248.12 14.7437 248.289 15.3096 248.289 16.084C248.289 16.918 247.991 18.3377 247.396 20.3433C249.659 17.9803 251.625 16.3123 253.293 15.3394C254.961 14.3465 256.262 13.8501 257.195 13.8501C258.029 13.8501 258.674 14.0884 259.131 14.5649C259.588 15.0415 259.816 15.7762 259.816 16.769C259.816 17.3647 259.717 18.0697 259.518 18.8838C259.319 19.6979 258.595 22.18 257.344 26.3301C255.775 31.473 254.991 34.5409 254.991 35.5337C254.991 36.2088 255.269 36.5464 255.825 36.5464C256.202 36.5464 256.569 36.4272 256.927 36.189C258.098 35.355 259.3 34.3224 260.531 33.0913L261.514 34.1636C261.097 34.5011 260.312 35.1961 259.161 36.2485C257.572 37.6782 256.48 38.5718 255.884 38.9292C254.733 39.6043 253.76 39.9419 252.965 39.9419C252.37 39.9419 251.843 39.644 251.387 39.0483C250.93 38.4725 250.702 37.6683 250.702 36.6357C250.702 35.6826 250.841 34.5706 251.119 33.2998C251.397 32.0091 252.211 29.1299 253.561 24.6621C254.574 21.3063 255.08 19.271 255.08 18.5562C255.08 17.881 254.782 17.5435 254.187 17.5435C253.69 17.5435 253.025 17.7917 252.191 18.2881C250.483 19.3206 249.054 20.5815 247.902 22.0708C247.108 23.1034 246.413 24.7415 245.817 26.9854C244.486 31.89 243.494 35.8911 242.838 38.9888H238.609L243.047 20.79C243.365 19.4795 243.523 18.7249 243.523 18.5264C243.523 18.2087 243.444 17.9704 243.285 17.8115C243.126 17.6328 242.898 17.5435 242.6 17.5435C242.064 17.5435 241.23 17.9604 240.098 18.7944C238.132 20.2043 236.713 21.5744 235.839 22.9048C234.985 24.2153 234.25 26.2209 233.635 28.9214L231.341 38.9888H227.082L230.448 24.7812C231.441 20.6709 231.937 18.437 231.937 18.0796C231.937 17.6229 231.758 17.3945 231.401 17.3945C230.626 17.3945 229.048 18.5264 226.665 20.79Z" fill="url(#paint7_linear)"/>
<path d="M226.665 20.79L225.771 19.5986C227.737 17.6328 229.604 16.1833 231.371 15.25C233.138 14.3167 234.528 13.8501 235.541 13.8501C235.958 13.8501 236.266 13.9395 236.464 14.1182C236.683 14.2969 236.792 14.5451 236.792 14.8628C236.792 15.2599 236.633 16.0244 236.315 17.1562C235.859 18.8242 235.541 20.1447 235.362 21.1177C240.128 16.2726 243.772 13.8501 246.293 13.8501C246.949 13.8501 247.445 14.0288 247.783 14.3862C248.12 14.7437 248.289 15.3096 248.289 16.084C248.289 16.918 247.991 18.3377 247.396 20.3433C249.659 17.9803 251.625 16.3123 253.293 15.3394C254.961 14.3465 256.262 13.8501 257.195 13.8501C258.029 13.8501 258.674 14.0884 259.131 14.5649C259.588 15.0415 259.816 15.7762 259.816 16.769C259.816 17.3647 259.717 18.0697 259.518 18.8838C259.319 19.6979 258.595 22.18 257.344 26.3301C255.775 31.473 254.991 34.5409 254.991 35.5337C254.991 36.2088 255.269 36.5464 255.825 36.5464C256.202 36.5464 256.569 36.4272 256.927 36.189C258.098 35.355 259.3 34.3224 260.531 33.0913L261.514 34.1636C261.097 34.5011 260.312 35.1961 259.161 36.2485C257.572 37.6782 256.48 38.5718 255.884 38.9292C254.733 39.6043 253.76 39.9419 252.965 39.9419C252.37 39.9419 251.843 39.644 251.387 39.0483C250.93 38.4725 250.702 37.6683 250.702 36.6357C250.702 35.6826 250.841 34.5706 251.119 33.2998C251.397 32.0091 252.211 29.1299 253.561 24.6621C254.574 21.3063 255.08 19.271 255.08 18.5562C255.08 17.881 254.782 17.5435 254.187 17.5435C253.69 17.5435 253.025 17.7917 252.191 18.2881C250.483 19.3206 249.054 20.5815 247.902 22.0708C247.108 23.1034 246.413 24.7415 245.817 26.9854C244.486 31.89 243.494 35.8911 242.838 38.9888H238.609L243.047 20.79C243.365 19.4795 243.523 18.7249 243.523 18.5264C243.523 18.2087 243.444 17.9704 243.285 17.8115C243.126 17.6328 242.898 17.5435 242.6 17.5435C242.064 17.5435 241.23 17.9604 240.098 18.7944C238.132 20.2043 236.713 21.5744 235.839 22.9048C234.985 24.2153 234.25 26.2209 233.635 28.9214L231.341 38.9888H227.082L230.448 24.7812C231.441 20.6709 231.937 18.437 231.937 18.0796C231.937 17.6229 231.758 17.3945 231.401 17.3945C230.626 17.3945 229.048 18.5264 226.665 20.79Z" fill="#531818" fill-opacity="0.11"/>
<path d="M284.001 13.4331L285.967 13.0161L283.733 20.5518C282.84 23.5501 281.996 27.0052 281.202 30.917C280.765 33.0417 280.546 34.4118 280.546 35.0273C280.546 35.6429 280.795 35.9507 281.291 35.9507C281.609 35.9507 282.115 35.7422 282.81 35.3252C284.041 34.5905 285.223 33.6771 286.354 32.585L287.308 33.7466C285.044 35.8117 283.594 37.0627 282.959 37.4995C281.688 38.3732 280.477 39.0186 279.325 39.4355C278.571 39.7135 277.836 39.8525 277.121 39.8525C276.605 39.8525 276.218 39.7334 275.959 39.4951C275.701 39.2568 275.572 38.9093 275.572 38.4526C275.572 38.1548 275.652 37.7477 275.811 37.2314L277.002 33.1807C275.294 35.2259 273.259 36.9832 270.896 38.4526C269.446 39.366 268.116 39.8228 266.905 39.8228C265.753 39.8228 264.869 39.4157 264.254 38.6016C263.42 37.5094 263.003 36.0798 263.003 34.3125C263.003 32.2077 263.559 29.8646 264.671 27.2832C265.803 24.7018 267.312 22.3587 269.198 20.2539C271.085 18.1491 273.07 16.6003 275.155 15.6074C276.764 14.8529 278.829 14.4756 281.351 14.4756C281.986 14.4756 282.631 14.5153 283.287 14.5947L284.001 13.4331ZM280.308 17.9902C279.236 17.7718 278.332 17.6626 277.598 17.6626C275.811 17.6626 274.252 18.159 272.921 19.1519C271.591 20.1248 270.35 21.8921 269.198 24.4536C268.066 26.9953 267.5 29.5369 267.5 32.0786C267.5 33.4289 267.729 34.4019 268.186 34.9976C268.642 35.5933 269.238 35.8911 269.973 35.8911C271.343 35.8911 272.812 35.1564 274.381 33.687C275.95 32.1978 277.101 30.0632 277.836 27.2832L280.308 17.9902Z" fill="url(#paint8_linear)"/>
<path d="M284.001 13.4331L285.967 13.0161L283.733 20.5518C282.84 23.5501 281.996 27.0052 281.202 30.917C280.765 33.0417 280.546 34.4118 280.546 35.0273C280.546 35.6429 280.795 35.9507 281.291 35.9507C281.609 35.9507 282.115 35.7422 282.81 35.3252C284.041 34.5905 285.223 33.6771 286.354 32.585L287.308 33.7466C285.044 35.8117 283.594 37.0627 282.959 37.4995C281.688 38.3732 280.477 39.0186 279.325 39.4355C278.571 39.7135 277.836 39.8525 277.121 39.8525C276.605 39.8525 276.218 39.7334 275.959 39.4951C275.701 39.2568 275.572 38.9093 275.572 38.4526C275.572 38.1548 275.652 37.7477 275.811 37.2314L277.002 33.1807C275.294 35.2259 273.259 36.9832 270.896 38.4526C269.446 39.366 268.116 39.8228 266.905 39.8228C265.753 39.8228 264.869 39.4157 264.254 38.6016C263.42 37.5094 263.003 36.0798 263.003 34.3125C263.003 32.2077 263.559 29.8646 264.671 27.2832C265.803 24.7018 267.312 22.3587 269.198 20.2539C271.085 18.1491 273.07 16.6003 275.155 15.6074C276.764 14.8529 278.829 14.4756 281.351 14.4756C281.986 14.4756 282.631 14.5153 283.287 14.5947L284.001 13.4331ZM280.308 17.9902C279.236 17.7718 278.332 17.6626 277.598 17.6626C275.811 17.6626 274.252 18.159 272.921 19.1519C271.591 20.1248 270.35 21.8921 269.198 24.4536C268.066 26.9953 267.5 29.5369 267.5 32.0786C267.5 33.4289 267.729 34.4019 268.186 34.9976C268.642 35.5933 269.238 35.8911 269.973 35.8911C271.343 35.8911 272.812 35.1564 274.381 33.687C275.95 32.1978 277.101 30.0632 277.836 27.2832L280.308 17.9902Z" fill="#531818" fill-opacity="0.11"/>
<path d="M307.889 18.3774C307.889 19.7873 307.442 21.2865 306.549 22.875C305.675 24.4437 303.421 26.34 299.788 28.564C296.352 30.6688 294.198 32.1183 293.324 32.9126C292.47 33.7069 292.043 34.5806 292.043 35.5337C292.043 37.2414 293.185 38.0952 295.469 38.0952C296.501 38.0952 297.315 37.8768 297.911 37.4399C298.507 36.9832 299.073 36.2287 299.609 35.1763C300.185 34.0246 300.711 33.2502 301.188 32.853C301.664 32.436 302.28 32.2275 303.034 32.2275C304.126 32.2275 304.672 32.7935 304.672 33.9253C304.672 35.216 303.709 36.5166 301.783 37.8271C299.877 39.1377 297.713 39.793 295.29 39.793C290.822 39.793 288.588 38.1449 288.588 34.8486C288.588 33.1608 289.184 31.6418 290.375 30.2915C291.567 28.9412 293.811 27.2038 297.107 25.0791C300.284 23.0339 302.379 21.5148 303.392 20.522C304.404 19.5093 304.911 18.4966 304.911 17.4839C304.911 16.3719 304.375 15.8159 303.302 15.8159C302.468 15.8159 301.168 16.5407 299.4 17.9902C298.249 18.9036 297.286 19.3604 296.511 19.3604C295.419 19.3604 294.873 18.8937 294.873 17.9604C294.873 17.0073 295.608 16.0939 297.077 15.2202C298.547 14.3267 300.264 13.8799 302.23 13.8799C304.017 13.8799 305.407 14.2869 306.4 15.1011C307.393 15.9152 307.889 17.0073 307.889 18.3774Z" fill="url(#paint9_linear)"/>
<path d="M307.889 18.3774C307.889 19.7873 307.442 21.2865 306.549 22.875C305.675 24.4437 303.421 26.34 299.788 28.564C296.352 30.6688 294.198 32.1183 293.324 32.9126C292.47 33.7069 292.043 34.5806 292.043 35.5337C292.043 37.2414 293.185 38.0952 295.469 38.0952C296.501 38.0952 297.315 37.8768 297.911 37.4399C298.507 36.9832 299.073 36.2287 299.609 35.1763C300.185 34.0246 300.711 33.2502 301.188 32.853C301.664 32.436 302.28 32.2275 303.034 32.2275C304.126 32.2275 304.672 32.7935 304.672 33.9253C304.672 35.216 303.709 36.5166 301.783 37.8271C299.877 39.1377 297.713 39.793 295.29 39.793C290.822 39.793 288.588 38.1449 288.588 34.8486C288.588 33.1608 289.184 31.6418 290.375 30.2915C291.567 28.9412 293.811 27.2038 297.107 25.0791C300.284 23.0339 302.379 21.5148 303.392 20.522C304.404 19.5093 304.911 18.4966 304.911 17.4839C304.911 16.3719 304.375 15.8159 303.302 15.8159C302.468 15.8159 301.168 16.5407 299.4 17.9902C298.249 18.9036 297.286 19.3604 296.511 19.3604C295.419 19.3604 294.873 18.8937 294.873 17.9604C294.873 17.0073 295.608 16.0939 297.077 15.2202C298.547 14.3267 300.264 13.8799 302.23 13.8799C304.017 13.8799 305.407 14.2869 306.4 15.1011C307.393 15.9152 307.889 17.0073 307.889 18.3774Z" fill="#531818" fill-opacity="0.11"/>
<path d="M310.659 21.3262L309.498 20.1348C311.305 17.9704 313.102 16.3719 314.889 15.3394C316.676 14.3068 318.225 13.7905 319.535 13.7905C320.032 13.7905 320.419 13.9196 320.697 14.1777C320.995 14.416 321.144 14.7734 321.144 15.25C321.144 15.8258 321.074 16.4215 320.935 17.0371C320.816 17.6328 320.419 19.0625 319.744 21.3262C322.782 18.2881 324.857 16.4116 325.969 15.6968C327.835 14.4855 329.543 13.8799 331.092 13.8799C332.104 13.8799 332.958 14.3564 333.653 15.3096C334.348 16.2627 334.696 17.7023 334.696 19.6284C334.696 24.4338 333.197 29.0008 330.198 33.3296C327.2 37.6584 323.884 39.8228 320.25 39.8228C318.82 39.8228 317.391 39.4355 315.961 38.6611L313.429 48.4902C313.27 49.0859 313.191 49.5724 313.191 49.9497C313.191 50.6844 313.469 51.2106 314.025 51.5283C314.879 52.0247 316.676 52.4318 319.416 52.7495L319.029 54.2388C315.832 53.9806 313.32 53.8516 311.493 53.8516C309.607 53.8516 307.164 53.9806 304.166 54.2388L304.553 52.7495C306.062 52.5907 307.154 52.1737 307.83 51.4985C308.525 50.8234 309.081 49.6221 309.498 47.8945L314.889 25.2876C315.901 21.078 316.408 18.7349 316.408 18.2583C316.408 17.742 316.16 17.4839 315.663 17.4839C314.789 17.4839 313.121 18.7646 310.659 21.3262ZM316.676 35.3848C318.244 36.9534 319.853 37.7378 321.501 37.7378C323.884 37.7378 325.969 35.8812 327.756 32.168C329.563 28.4548 330.466 24.8309 330.466 21.2964C330.466 20.1646 330.208 19.3107 329.692 18.7349C329.195 18.1392 328.52 17.8413 327.667 17.8413C326.713 17.8413 325.641 18.3079 324.45 19.2412C322.603 20.6908 321.193 22.1304 320.22 23.5601C319.525 24.5926 318.87 26.3797 318.254 28.9214L316.676 35.3848Z" fill="url(#paint10_linear)"/>
<path d="M310.659 21.3262L309.498 20.1348C311.305 17.9704 313.102 16.3719 314.889 15.3394C316.676 14.3068 318.225 13.7905 319.535 13.7905C320.032 13.7905 320.419 13.9196 320.697 14.1777C320.995 14.416 321.144 14.7734 321.144 15.25C321.144 15.8258 321.074 16.4215 320.935 17.0371C320.816 17.6328 320.419 19.0625 319.744 21.3262C322.782 18.2881 324.857 16.4116 325.969 15.6968C327.835 14.4855 329.543 13.8799 331.092 13.8799C332.104 13.8799 332.958 14.3564 333.653 15.3096C334.348 16.2627 334.696 17.7023 334.696 19.6284C334.696 24.4338 333.197 29.0008 330.198 33.3296C327.2 37.6584 323.884 39.8228 320.25 39.8228C318.82 39.8228 317.391 39.4355 315.961 38.6611L313.429 48.4902C313.27 49.0859 313.191 49.5724 313.191 49.9497C313.191 50.6844 313.469 51.2106 314.025 51.5283C314.879 52.0247 316.676 52.4318 319.416 52.7495L319.029 54.2388C315.832 53.9806 313.32 53.8516 311.493 53.8516C309.607 53.8516 307.164 53.9806 304.166 54.2388L304.553 52.7495C306.062 52.5907 307.154 52.1737 307.83 51.4985C308.525 50.8234 309.081 49.6221 309.498 47.8945L314.889 25.2876C315.901 21.078 316.408 18.7349 316.408 18.2583C316.408 17.742 316.16 17.4839 315.663 17.4839C314.789 17.4839 313.121 18.7646 310.659 21.3262ZM316.676 35.3848C318.244 36.9534 319.853 37.7378 321.501 37.7378C323.884 37.7378 325.969 35.8812 327.756 32.168C329.563 28.4548 330.466 24.8309 330.466 21.2964C330.466 20.1646 330.208 19.3107 329.692 18.7349C329.195 18.1392 328.52 17.8413 327.667 17.8413C326.713 17.8413 325.641 18.3079 324.45 19.2412C322.603 20.6908 321.193 22.1304 320.22 23.5601C319.525 24.5926 318.87 26.3797 318.254 28.9214L316.676 35.3848Z" fill="#531818" fill-opacity="0.11"/>
<path d="M357.392 13.4331L359.358 13.0161L357.124 20.5518C356.23 23.5501 355.387 27.0052 354.592 30.917C354.155 33.0417 353.937 34.4118 353.937 35.0273C353.937 35.6429 354.185 35.9507 354.682 35.9507C354.999 35.9507 355.506 35.7422 356.201 35.3252C357.432 34.5905 358.613 33.6771 359.745 32.585L360.698 33.7466C358.435 35.8117 356.985 37.0627 356.35 37.4995C355.079 38.3732 353.868 39.0186 352.716 39.4355C351.961 39.7135 351.227 39.8525 350.512 39.8525C349.995 39.8525 349.608 39.7334 349.35 39.4951C349.092 39.2568 348.963 38.9093 348.963 38.4526C348.963 38.1548 349.042 37.7477 349.201 37.2314L350.393 33.1807C348.685 35.2259 346.65 36.9832 344.287 38.4526C342.837 39.366 341.507 39.8228 340.295 39.8228C339.144 39.8228 338.26 39.4157 337.645 38.6016C336.811 37.5094 336.394 36.0798 336.394 34.3125C336.394 32.2077 336.95 29.8646 338.062 27.2832C339.193 24.7018 340.702 22.3587 342.589 20.2539C344.475 18.1491 346.461 16.6003 348.546 15.6074C350.154 14.8529 352.219 14.4756 354.741 14.4756C355.377 14.4756 356.022 14.5153 356.677 14.5947L357.392 13.4331ZM353.699 17.9902C352.626 17.7718 351.723 17.6626 350.988 17.6626C349.201 17.6626 347.642 18.159 346.312 19.1519C344.982 20.1248 343.741 21.8921 342.589 24.4536C341.457 26.9953 340.891 29.5369 340.891 32.0786C340.891 33.4289 341.119 34.4019 341.576 34.9976C342.033 35.5933 342.629 35.8911 343.363 35.8911C344.733 35.8911 346.203 35.1564 347.771 33.687C349.34 32.1978 350.492 30.0632 351.227 27.2832L353.699 17.9902Z" fill="url(#paint11_linear)"/>
<path d="M357.392 13.4331L359.358 13.0161L357.124 20.5518C356.23 23.5501 355.387 27.0052 354.592 30.917C354.155 33.0417 353.937 34.4118 353.937 35.0273C353.937 35.6429 354.185 35.9507 354.682 35.9507C354.999 35.9507 355.506 35.7422 356.201 35.3252C357.432 34.5905 358.613 33.6771 359.745 32.585L360.698 33.7466C358.435 35.8117 356.985 37.0627 356.35 37.4995C355.079 38.3732 353.868 39.0186 352.716 39.4355C351.961 39.7135 351.227 39.8525 350.512 39.8525C349.995 39.8525 349.608 39.7334 349.35 39.4951C349.092 39.2568 348.963 38.9093 348.963 38.4526C348.963 38.1548 349.042 37.7477 349.201 37.2314L350.393 33.1807C348.685 35.2259 346.65 36.9832 344.287 38.4526C342.837 39.366 341.507 39.8228 340.295 39.8228C339.144 39.8228 338.26 39.4157 337.645 38.6016C336.811 37.5094 336.394 36.0798 336.394 34.3125C336.394 32.2077 336.95 29.8646 338.062 27.2832C339.193 24.7018 340.702 22.3587 342.589 20.2539C344.475 18.1491 346.461 16.6003 348.546 15.6074C350.154 14.8529 352.219 14.4756 354.741 14.4756C355.377 14.4756 356.022 14.5153 356.677 14.5947L357.392 13.4331ZM353.699 17.9902C352.626 17.7718 351.723 17.6626 350.988 17.6626C349.201 17.6626 347.642 18.159 346.312 19.1519C344.982 20.1248 343.741 21.8921 342.589 24.4536C341.457 26.9953 340.891 29.5369 340.891 32.0786C340.891 33.4289 341.119 34.4019 341.576 34.9976C342.033 35.5933 342.629 35.8911 343.363 35.8911C344.733 35.8911 346.203 35.1564 347.771 33.687C349.34 32.1978 350.492 30.0632 351.227 27.2832L353.699 17.9902Z" fill="#531818" fill-opacity="0.11"/>
<path d="M368.293 20.8198L366.983 19.7773C371.173 15.9053 374.36 13.9692 376.544 13.9692C377.577 13.9692 378.162 14.6047 378.301 15.8755L380.327 34.4019L392.717 14.7437H396.947L394.117 25.1387C392.489 31.1751 391.675 34.6104 391.675 35.4443C391.675 36.2188 391.963 36.606 392.539 36.606C393.253 36.606 394.892 35.3053 397.453 32.7041L398.436 33.8062C394.465 37.9562 391.526 40.0312 389.62 40.0312C389.083 40.0312 388.567 39.783 388.071 39.2866C387.574 38.8101 387.326 38.125 387.326 37.2314C387.326 35.901 388.021 32.5949 389.411 27.313L391.228 20.373L379.076 39.7632H376.842L374.906 22.4878C372.126 30.5298 369.862 35.4245 368.115 37.1719C366.387 38.9193 364.461 39.793 362.336 39.793C361.284 39.793 360.48 39.515 359.924 38.959C359.388 38.3831 359.12 37.7279 359.12 36.9932C359.12 36.2783 359.358 35.6528 359.834 35.1167C360.311 34.5806 360.907 34.3125 361.622 34.3125C362.078 34.3125 362.664 34.4614 363.379 34.7593C364.173 35.0571 364.739 35.2061 365.077 35.2061C365.95 35.2061 366.834 34.6799 367.728 33.6274C368.621 32.575 369.932 29.944 371.659 25.7344C373.387 21.5247 374.25 18.9831 374.25 18.1094C374.25 17.613 374.002 17.3647 373.506 17.3647C372.314 17.3647 370.577 18.5164 368.293 20.8198Z" fill="url(#paint12_linear)"/>
<path d="M368.293 20.8198L366.983 19.7773C371.173 15.9053 374.36 13.9692 376.544 13.9692C377.577 13.9692 378.162 14.6047 378.301 15.8755L380.327 34.4019L392.717 14.7437H396.947L394.117 25.1387C392.489 31.1751 391.675 34.6104 391.675 35.4443C391.675 36.2188 391.963 36.606 392.539 36.606C393.253 36.606 394.892 35.3053 397.453 32.7041L398.436 33.8062C394.465 37.9562 391.526 40.0312 389.62 40.0312C389.083 40.0312 388.567 39.783 388.071 39.2866C387.574 38.8101 387.326 38.125 387.326 37.2314C387.326 35.901 388.021 32.5949 389.411 27.313L391.228 20.373L379.076 39.7632H376.842L374.906 22.4878C372.126 30.5298 369.862 35.4245 368.115 37.1719C366.387 38.9193 364.461 39.793 362.336 39.793C361.284 39.793 360.48 39.515 359.924 38.959C359.388 38.3831 359.12 37.7279 359.12 36.9932C359.12 36.2783 359.358 35.6528 359.834 35.1167C360.311 34.5806 360.907 34.3125 361.622 34.3125C362.078 34.3125 362.664 34.4614 363.379 34.7593C364.173 35.0571 364.739 35.2061 365.077 35.2061C365.95 35.2061 366.834 34.6799 367.728 33.6274C368.621 32.575 369.932 29.944 371.659 25.7344C373.387 21.5247 374.25 18.9831 374.25 18.1094C374.25 17.613 374.002 17.3647 373.506 17.3647C372.314 17.3647 370.577 18.5164 368.293 20.8198Z" fill="#531818" fill-opacity="0.11"/>
<path d="M420.864 12.2417L419.345 11.4971C420.914 8.37956 422.532 6.2251 424.2 5.03369C425.888 3.82243 427.774 3.2168 429.859 3.2168C432.361 3.2168 434.357 4.01107 435.846 5.59961C437.335 7.18815 438.08 9.04476 438.08 11.1694C438.08 12.48 437.812 13.8104 437.276 15.1606C436.74 16.5109 435.856 17.9207 434.625 19.3901C433.831 20.3631 431.646 22.3786 428.072 25.4365C423.267 29.6064 419.891 32.9722 417.945 35.5337C420.547 35.4146 423.227 35.355 425.987 35.355C426.881 35.355 427.655 35.3649 428.311 35.3848C429.76 35.4443 430.753 35.3053 431.289 34.9678C431.825 34.6302 432.709 33.4984 433.94 31.5723H435.995C434.387 33.7962 432.987 36.5265 431.795 39.7632C430.386 39.505 428.896 39.3065 427.328 39.1675C425.759 39.0483 424.111 38.9888 422.383 38.9888C420.338 38.9888 417.33 39.1178 413.358 39.376L413.954 37.4995C415.761 34.8188 418.462 31.7907 422.056 28.415C425.61 25.0791 427.903 22.7459 428.936 21.4155C430.425 19.4894 431.507 17.6725 432.183 15.9648C432.699 14.694 432.957 13.4629 432.957 12.2715C432.957 10.4844 432.471 9.05469 431.498 7.98242C430.525 6.91016 429.323 6.37402 427.894 6.37402C426.702 6.37402 425.531 6.80094 424.379 7.65479C423.247 8.50863 422.076 10.0376 420.864 12.2417Z" fill="url(#paint13_linear)"/>
<path d="M420.864 12.2417L419.345 11.4971C420.914 8.37956 422.532 6.2251 424.2 5.03369C425.888 3.82243 427.774 3.2168 429.859 3.2168C432.361 3.2168 434.357 4.01107 435.846 5.59961C437.335 7.18815 438.08 9.04476 438.08 11.1694C438.08 12.48 437.812 13.8104 437.276 15.1606C436.74 16.5109 435.856 17.9207 434.625 19.3901C433.831 20.3631 431.646 22.3786 428.072 25.4365C423.267 29.6064 419.891 32.9722 417.945 35.5337C420.547 35.4146 423.227 35.355 425.987 35.355C426.881 35.355 427.655 35.3649 428.311 35.3848C429.76 35.4443 430.753 35.3053 431.289 34.9678C431.825 34.6302 432.709 33.4984 433.94 31.5723H435.995C434.387 33.7962 432.987 36.5265 431.795 39.7632C430.386 39.505 428.896 39.3065 427.328 39.1675C425.759 39.0483 424.111 38.9888 422.383 38.9888C420.338 38.9888 417.33 39.1178 413.358 39.376L413.954 37.4995C415.761 34.8188 418.462 31.7907 422.056 28.415C425.61 25.0791 427.903 22.7459 428.936 21.4155C430.425 19.4894 431.507 17.6725 432.183 15.9648C432.699 14.694 432.957 13.4629 432.957 12.2715C432.957 10.4844 432.471 9.05469 431.498 7.98242C430.525 6.91016 429.323 6.37402 427.894 6.37402C426.702 6.37402 425.531 6.80094 424.379 7.65479C423.247 8.50863 422.076 10.0376 420.864 12.2417Z" fill="#531818" fill-opacity="0.11"/>
<path d="M456.666 3.30615C459.506 3.30615 461.779 4.34863 463.487 6.43359C465.214 8.51855 466.078 11.6361 466.078 15.7861C466.078 21.6836 464.589 27.174 461.61 32.2573C458.652 37.3208 455.058 39.8525 450.828 39.8525C448.346 39.8525 446.241 38.7703 444.514 36.606C442.806 34.4416 441.952 31.4928 441.952 27.7598C441.952 23.3714 442.806 19.0824 444.514 14.8926C446.221 10.6829 448.147 7.70443 450.292 5.95703C452.437 4.18978 454.561 3.30615 456.666 3.30615ZM456.13 5.06348C454.899 5.06348 453.638 5.88753 452.347 7.53564C451.076 9.1639 449.895 12.1623 448.803 16.5308C447.73 20.8794 447.194 25.0295 447.194 28.981C447.194 32.158 447.651 34.4714 448.564 35.9209C449.498 37.3704 450.56 38.0952 451.751 38.0952C452.804 38.0952 453.846 37.569 454.879 36.5166C456.408 34.9479 457.788 31.9992 459.019 27.6704C460.25 23.3218 460.866 18.9533 460.866 14.5649C460.866 11.1694 460.349 8.62777 459.317 6.93994C458.542 5.68896 457.48 5.06348 456.13 5.06348Z" fill="url(#paint14_linear)"/>
<path d="M456.666 3.30615C459.506 3.30615 461.779 4.34863 463.487 6.43359C465.214 8.51855 466.078 11.6361 466.078 15.7861C466.078 21.6836 464.589 27.174 461.61 32.2573C458.652 37.3208 455.058 39.8525 450.828 39.8525C448.346 39.8525 446.241 38.7703 444.514 36.606C442.806 34.4416 441.952 31.4928 441.952 27.7598C441.952 23.3714 442.806 19.0824 444.514 14.8926C446.221 10.6829 448.147 7.70443 450.292 5.95703C452.437 4.18978 454.561 3.30615 456.666 3.30615ZM456.13 5.06348C454.899 5.06348 453.638 5.88753 452.347 7.53564C451.076 9.1639 449.895 12.1623 448.803 16.5308C447.73 20.8794 447.194 25.0295 447.194 28.981C447.194 32.158 447.651 34.4714 448.564 35.9209C449.498 37.3704 450.56 38.0952 451.751 38.0952C452.804 38.0952 453.846 37.569 454.879 36.5166C456.408 34.9479 457.788 31.9992 459.019 27.6704C460.25 23.3218 460.866 18.9533 460.866 14.5649C460.866 11.1694 460.349 8.62777 459.317 6.93994C458.542 5.68896 457.48 5.06348 456.13 5.06348Z" fill="#531818" fill-opacity="0.11"/>
<path d="M474.597 12.2417L473.078 11.4971C474.646 8.37956 476.265 6.2251 477.933 5.03369C479.62 3.82243 481.507 3.2168 483.592 3.2168C486.094 3.2168 488.089 4.01107 489.579 5.59961C491.068 7.18815 491.812 9.04476 491.812 11.1694C491.812 12.48 491.544 13.8104 491.008 15.1606C490.472 16.5109 489.589 17.9207 488.357 19.3901C487.563 20.3631 485.379 22.3786 481.805 25.4365C476.999 29.6064 473.624 32.9722 471.678 35.5337C474.279 35.4146 476.96 35.355 479.72 35.355C480.613 35.355 481.388 35.3649 482.043 35.3848C483.493 35.4443 484.485 35.3053 485.021 34.9678C485.558 34.6302 486.441 33.4984 487.672 31.5723H489.728C488.119 33.7962 486.719 36.5265 485.528 39.7632C484.118 39.505 482.629 39.3065 481.06 39.1675C479.491 39.0483 477.843 38.9888 476.116 38.9888C474.07 38.9888 471.062 39.1178 467.091 39.376L467.687 37.4995C469.493 34.8188 472.194 31.7907 475.788 28.415C479.342 25.0791 481.636 22.7459 482.668 21.4155C484.158 19.4894 485.24 17.6725 485.915 15.9648C486.431 14.694 486.689 13.4629 486.689 12.2715C486.689 10.4844 486.203 9.05469 485.23 7.98242C484.257 6.91016 483.056 6.37402 481.626 6.37402C480.435 6.37402 479.263 6.80094 478.111 7.65479C476.979 8.50863 475.808 10.0376 474.597 12.2417Z" fill="url(#paint15_linear)"/>
<path d="M474.597 12.2417L473.078 11.4971C474.646 8.37956 476.265 6.2251 477.933 5.03369C479.62 3.82243 481.507 3.2168 483.592 3.2168C486.094 3.2168 488.089 4.01107 489.579 5.59961C491.068 7.18815 491.812 9.04476 491.812 11.1694C491.812 12.48 491.544 13.8104 491.008 15.1606C490.472 16.5109 489.589 17.9207 488.357 19.3901C487.563 20.3631 485.379 22.3786 481.805 25.4365C476.999 29.6064 473.624 32.9722 471.678 35.5337C474.279 35.4146 476.96 35.355 479.72 35.355C480.613 35.355 481.388 35.3649 482.043 35.3848C483.493 35.4443 484.485 35.3053 485.021 34.9678C485.558 34.6302 486.441 33.4984 487.672 31.5723H489.728C488.119 33.7962 486.719 36.5265 485.528 39.7632C484.118 39.505 482.629 39.3065 481.06 39.1675C479.491 39.0483 477.843 38.9888 476.116 38.9888C474.07 38.9888 471.062 39.1178 467.091 39.376L467.687 37.4995C469.493 34.8188 472.194 31.7907 475.788 28.415C479.342 25.0791 481.636 22.7459 482.668 21.4155C484.158 19.4894 485.24 17.6725 485.915 15.9648C486.431 14.694 486.689 13.4629 486.689 12.2715C486.689 10.4844 486.203 9.05469 485.23 7.98242C484.257 6.91016 483.056 6.37402 481.626 6.37402C480.435 6.37402 479.263 6.80094 478.111 7.65479C476.979 8.50863 475.808 10.0376 474.597 12.2417Z" fill="#531818" fill-opacity="0.11"/>
<path d="M510.398 3.30615C513.238 3.30615 515.512 4.34863 517.219 6.43359C518.947 8.51855 519.811 11.6361 519.811 15.7861C519.811 21.6836 518.321 27.174 515.343 32.2573C512.384 37.3208 508.79 39.8525 504.561 39.8525C502.078 39.8525 499.974 38.7703 498.246 36.606C496.538 34.4416 495.685 31.4928 495.685 27.7598C495.685 23.3714 496.538 19.0824 498.246 14.8926C499.954 10.6829 501.88 7.70443 504.024 5.95703C506.169 4.18978 508.294 3.30615 510.398 3.30615ZM509.862 5.06348C508.631 5.06348 507.37 5.88753 506.08 7.53564C504.809 9.1639 503.627 12.1623 502.535 16.5308C501.463 20.8794 500.927 25.0295 500.927 28.981C500.927 32.158 501.383 34.4714 502.297 35.9209C503.23 37.3704 504.292 38.0952 505.484 38.0952C506.536 38.0952 507.579 37.569 508.611 36.5166C510.14 34.9479 511.52 31.9992 512.751 27.6704C513.983 23.3218 514.598 18.9533 514.598 14.5649C514.598 11.1694 514.082 8.62777 513.049 6.93994C512.275 5.68896 511.213 5.06348 509.862 5.06348Z" fill="url(#paint16_linear)"/>
<path d="M510.398 3.30615C513.238 3.30615 515.512 4.34863 517.219 6.43359C518.947 8.51855 519.811 11.6361 519.811 15.7861C519.811 21.6836 518.321 27.174 515.343 32.2573C512.384 37.3208 508.79 39.8525 504.561 39.8525C502.078 39.8525 499.974 38.7703 498.246 36.606C496.538 34.4416 495.685 31.4928 495.685 27.7598C495.685 23.3714 496.538 19.0824 498.246 14.8926C499.954 10.6829 501.88 7.70443 504.024 5.95703C506.169 4.18978 508.294 3.30615 510.398 3.30615ZM509.862 5.06348C508.631 5.06348 507.37 5.88753 506.08 7.53564C504.809 9.1639 503.627 12.1623 502.535 16.5308C501.463 20.8794 500.927 25.0295 500.927 28.981C500.927 32.158 501.383 34.4714 502.297 35.9209C503.23 37.3704 504.292 38.0952 505.484 38.0952C506.536 38.0952 507.579 37.569 508.611 36.5166C510.14 34.9479 511.52 31.9992 512.751 27.6704C513.983 23.3218 514.598 18.9533 514.598 14.5649C514.598 11.1694 514.082 8.62777 513.049 6.93994C512.275 5.68896 511.213 5.06348 509.862 5.06348Z" fill="#531818" fill-opacity="0.11"/>
<defs>
<linearGradient id="paint0_linear" x1="519.811" y1="27.1194" x2="3.38879e-06" y2="27.1195" gradientUnits="userSpaceOnUse">
<stop stop-color="#DC802C"/>
<stop offset="1" stop-color="#FFCF31"/>
</linearGradient>
<linearGradient id="paint1_linear" x1="519.811" y1="27.1194" x2="3.38879e-06" y2="27.1195" gradientUnits="userSpaceOnUse">
<stop stop-color="#DC802C"/>
<stop offset="1" stop-color="#FFCF31"/>
</linearGradient>
<linearGradient id="paint2_linear" x1="519.811" y1="27.1194" x2="3.38879e-06" y2="27.1195" gradientUnits="userSpaceOnUse">
<stop stop-color="#DC802C"/>
<stop offset="1" stop-color="#FFCF31"/>
</linearGradient>
<linearGradient id="paint3_linear" x1="519.811" y1="27.1194" x2="3.38879e-06" y2="27.1195" gradientUnits="userSpaceOnUse">
<stop stop-color="#DC802C"/>
<stop offset="1" stop-color="#FFCF31"/>
</linearGradient>
<linearGradient id="paint4_linear" x1="519.811" y1="27.1194" x2="3.38879e-06" y2="27.1195" gradientUnits="userSpaceOnUse">
<stop stop-color="#DC802C"/>
<stop offset="1" stop-color="#FFCF31"/>
</linearGradient>
<linearGradient id="paint5_linear" x1="519.811" y1="27.1194" x2="3.38879e-06" y2="27.1195" gradientUnits="userSpaceOnUse">
<stop stop-color="#DC802C"/>
<stop offset="1" stop-color="#FFCF31"/>
</linearGradient>
<linearGradient id="paint6_linear" x1="519.811" y1="27.1194" x2="3.38879e-06" y2="27.1195" gradientUnits="userSpaceOnUse">
<stop stop-color="#DC802C"/>
<stop offset="1" stop-color="#FFCF31"/>
</linearGradient>
<linearGradient id="paint7_linear" x1="519.811" y1="27.1194" x2="3.38879e-06" y2="27.1195" gradientUnits="userSpaceOnUse">
<stop stop-color="#DC802C"/>
<stop offset="1" stop-color="#FFCF31"/>
</linearGradient>
<linearGradient id="paint8_linear" x1="519.811" y1="27.1194" x2="3.38879e-06" y2="27.1195" gradientUnits="userSpaceOnUse">
<stop stop-color="#DC802C"/>
<stop offset="1" stop-color="#FFCF31"/>
</linearGradient>
<linearGradient id="paint9_linear" x1="519.811" y1="27.1194" x2="3.38879e-06" y2="27.1195" gradientUnits="userSpaceOnUse">
<stop stop-color="#DC802C"/>
<stop offset="1" stop-color="#FFCF31"/>
</linearGradient>
<linearGradient id="paint10_linear" x1="519.811" y1="27.1194" x2="3.38879e-06" y2="27.1195" gradientUnits="userSpaceOnUse">
<stop stop-color="#DC802C"/>
<stop offset="1" stop-color="#FFCF31"/>
</linearGradient>
<linearGradient id="paint11_linear" x1="519.811" y1="27.1194" x2="3.38879e-06" y2="27.1195" gradientUnits="userSpaceOnUse">
<stop stop-color="#DC802C"/>
<stop offset="1" stop-color="#FFCF31"/>
</linearGradient>
<linearGradient id="paint12_linear" x1="519.811" y1="27.1194" x2="3.38879e-06" y2="27.1195" gradientUnits="userSpaceOnUse">
<stop stop-color="#DC802C"/>
<stop offset="1" stop-color="#FFCF31"/>
</linearGradient>
<linearGradient id="paint13_linear" x1="519.811" y1="27.1194" x2="3.38879e-06" y2="27.1195" gradientUnits="userSpaceOnUse">
<stop stop-color="#DC802C"/>
<stop offset="1" stop-color="#FFCF31"/>
</linearGradient>
<linearGradient id="paint14_linear" x1="519.811" y1="27.1194" x2="3.38879e-06" y2="27.1195" gradientUnits="userSpaceOnUse">
<stop stop-color="#DC802C"/>
<stop offset="1" stop-color="#FFCF31"/>
</linearGradient>
<linearGradient id="paint15_linear" x1="519.811" y1="27.1194" x2="3.38879e-06" y2="27.1195" gradientUnits="userSpaceOnUse">
<stop stop-color="#DC802C"/>
<stop offset="1" stop-color="#FFCF31"/>
</linearGradient>
<linearGradient id="paint16_linear" x1="519.811" y1="27.1194" x2="3.38879e-06" y2="27.1195" gradientUnits="userSpaceOnUse">
<stop stop-color="#DC802C"/>
<stop offset="1" stop-color="#FFCF31"/>
</linearGradient>
</defs>
</svg>
