<svg width="448" height="59" viewBox="0 0 448 59" fill="none" xmlns="http://www.w3.org/2000/svg">
<path d="M26.6729 43.9268L24.251 11.3525C23.7262 16.8421 22.7575 21.9684 21.3447 26.7314C19.932 31.4743 18.3275 35.1475 16.5312 37.751C14.735 40.3343 12.8984 42.1507 11.0215 43.2002C9.14453 44.2497 7.28776 44.7744 5.45117 44.7744C4.34115 44.7744 3.4834 44.5423 2.87793 44.0781C2.29264 43.6341 2 43.0892 2 42.4434C2 41.8984 2.21191 41.4242 2.63574 41.0205C3.07975 40.6169 3.63477 40.415 4.30078 40.415C4.78516 40.415 5.48145 40.526 6.38965 40.748C7.21712 40.9701 7.90332 41.0811 8.44824 41.0811C9.39681 41.0811 10.3857 40.7279 11.415 40.0215C12.9691 38.972 14.5029 37.0951 16.0166 34.3906C17.5505 31.666 18.9128 27.8818 20.1035 23.0381C21.3145 18.1742 22.0713 13.4313 22.374 8.80957C17.7926 8.80957 14.069 9.94987 11.2031 12.2305C8.92253 14.0469 7.78223 16.0752 7.78223 18.3154C7.78223 19.3044 8.32715 20.4951 9.41699 21.8877C10.0023 22.6344 10.2949 23.2399 10.2949 23.7041C10.2949 24.2288 10.1234 24.6628 9.78027 25.0059C9.45736 25.349 9.0638 25.5205 8.59961 25.5205C7.8125 25.5205 7.11621 25.0765 6.51074 24.1885C5.68327 22.9977 5.26953 21.585 5.26953 19.9502C5.26953 17.6494 6.03646 15.4495 7.57031 13.3506C9.12435 11.2314 11.2637 9.62695 13.9883 8.53711C16.7331 7.42708 19.9421 6.86198 23.6152 6.8418C25.5931 6.8418 27.1774 6.66016 28.3682 6.29688C28.3076 8.11328 28.2773 9.09212 28.2773 9.2334C28.2773 9.41504 28.3076 9.82878 28.3682 10.4746L30.1543 33.4824C35.0182 24.9857 39.7712 17.9925 44.4131 12.5029C47.7028 8.60775 50.5687 5.97396 53.0107 4.60156C51.6182 8.4362 50.1247 13.4919 48.5303 19.7686L44.8369 34.2998C44.6351 35.1071 44.3626 36.2878 44.0195 37.8418L43.293 41.0811C44.8268 41.4443 46.2295 41.626 47.501 41.626C48.5303 41.626 49.6302 41.5049 50.8008 41.2627L50.4072 43.0186C49.3779 43.2002 48.5807 43.291 48.0156 43.291C47.1882 43.291 45.9974 43.2002 44.4434 43.0186C43.1719 42.8571 42.0417 42.7764 41.0527 42.7764C40.0033 42.7764 38.8125 42.9782 37.4805 43.3818C38.5905 40.4756 39.751 36.5703 40.9619 31.666L43.293 22.4023C44.2819 18.4062 45.1396 15.6615 45.8662 14.168C44.2516 16.0046 41.7591 19.375 38.3887 24.2793C35.6842 28.235 32.6569 33.2402 29.3066 39.2949L26.6729 43.9268Z" fill="#761B2B"/>
<path d="M75.8975 18.0127H80.1963L77.3506 28.5781C75.6755 34.7135 74.8379 38.2051 74.8379 39.0527C74.8379 39.4362 74.9287 39.7288 75.1104 39.9307C75.292 40.1325 75.4938 40.2334 75.7158 40.2334C76.0589 40.2334 76.4626 40.082 76.9268 39.7793C77.5928 39.3151 78.8542 38.1445 80.7109 36.2676L81.71 37.3877C77.6533 41.6058 74.6663 43.7148 72.749 43.7148C72.1032 43.7148 71.5482 43.4626 71.084 42.958C70.64 42.4736 70.418 41.7773 70.418 40.8691C70.418 39.8197 70.64 38.417 71.084 36.6611C69.2878 38.7197 67.0677 40.526 64.4238 42.0801C62.668 43.1094 61.1442 43.624 59.8525 43.624C59.1462 43.624 58.5911 43.3919 58.1875 42.9277C57.7839 42.4635 57.582 41.7269 57.582 40.7178C57.582 39.9307 57.6729 39.083 57.8545 38.1748C58.1169 36.9033 58.7829 34.3503 59.8525 30.5156C61.2048 25.6517 61.8809 22.7354 61.8809 21.7666C61.8809 21.2015 61.679 20.9189 61.2754 20.9189C60.9121 20.9189 60.4176 21.1107 59.792 21.4941C59.1663 21.8574 58.0967 22.7555 56.583 24.1885L55.251 23.1289C57.9554 20.707 60.014 19.1227 61.4268 18.376C62.8597 17.609 64.0101 17.2256 64.8779 17.2256C65.3623 17.2256 65.7559 17.4072 66.0586 17.7705C66.3613 18.1136 66.5127 18.6585 66.5127 19.4053C66.5127 20.7979 65.7861 24.2188 64.333 29.668C63.0413 34.5723 62.3955 37.3675 62.3955 38.0537C62.3955 38.4775 62.5267 38.8408 62.7891 39.1436C63.0716 39.4463 63.3743 39.5977 63.6973 39.5977C64.8275 39.5977 66.432 38.6693 68.5107 36.8125C70.5895 34.9355 71.9518 32.8063 72.5977 30.4248L75.8975 18.0127Z" fill="#761B2B"/>
<path d="M100.57 36.0859L101.206 37.8418C96.4027 41.6159 92.346 43.5029 89.0361 43.5029C87.2803 43.5029 85.9987 42.8773 85.1914 41.626C84.4043 40.3747 84.0107 38.7904 84.0107 36.873C84.0107 33.6842 84.8584 30.4046 86.5537 27.0342C88.249 23.6637 90.3076 21.0804 92.7295 19.2842C94.6266 17.8916 96.766 17.1953 99.1475 17.1953C100.641 17.1953 101.771 17.4779 102.538 18.043C103.305 18.6081 103.688 19.2943 103.688 20.1016C103.688 20.7272 103.487 21.2419 103.083 21.6455C102.679 22.029 102.114 22.2207 101.388 22.2207C100.681 22.2207 99.7731 21.8978 98.6631 21.252C97.5127 20.5658 96.554 20.2227 95.7871 20.2227C94.7982 20.2227 93.8092 20.6768 92.8203 21.585C91.8516 22.473 90.9232 24.2087 90.0352 26.792C89.1471 29.3753 88.7031 31.9688 88.7031 34.5723C88.7031 36.4896 89.0765 37.973 89.8232 39.0225C90.3682 39.8298 91.1351 40.2334 92.124 40.2334C94.4854 40.2334 97.3008 38.8509 100.57 36.0859Z" fill="#761B2B"/>
<path d="M121.641 36.0859L122.276 37.8418C117.473 41.6159 113.416 43.5029 110.106 43.5029C108.351 43.5029 107.069 42.8773 106.262 41.626C105.475 40.3747 105.081 38.7904 105.081 36.873C105.081 33.6842 105.929 30.4046 107.624 27.0342C109.319 23.6637 111.378 21.0804 113.8 19.2842C115.697 17.8916 117.836 17.1953 120.218 17.1953C121.711 17.1953 122.841 17.4779 123.608 18.043C124.375 18.6081 124.759 19.2943 124.759 20.1016C124.759 20.7272 124.557 21.2419 124.153 21.6455C123.75 22.029 123.185 22.2207 122.458 22.2207C121.752 22.2207 120.843 21.8978 119.733 21.252C118.583 20.5658 117.624 20.2227 116.857 20.2227C115.868 20.2227 114.88 20.6768 113.891 21.585C112.922 22.473 111.993 24.2087 111.105 26.792C110.217 29.3753 109.773 31.9688 109.773 34.5723C109.773 36.4896 110.147 37.973 110.894 39.0225C111.438 39.8298 112.205 40.2334 113.194 40.2334C115.556 40.2334 118.371 38.8509 121.641 36.0859Z" fill="#761B2B"/>
<path d="M153.882 13.623L154.245 12.1699C156.546 12.0085 159.028 11.6048 161.692 10.959C160.986 13.0378 160.471 14.7129 160.148 15.9844L158.514 22.7354C162.086 22.7354 164.77 21.8473 166.566 20.0713C168.383 18.2751 169.291 16.1458 169.291 13.6836C169.291 11.9681 168.635 10.5856 167.323 9.53613C166.032 8.48665 164.094 7.96191 161.511 7.96191C157.858 7.96191 154.376 8.82975 151.066 10.5654C147.757 12.3011 145.173 14.5716 143.316 17.377C141.48 20.1621 140.562 22.9574 140.562 25.7627C140.562 26.5296 140.662 27.2461 140.864 27.9121C141.086 28.5579 141.399 29.1533 141.803 29.6982C142.045 30.0212 142.58 30.4652 143.407 31.0303C144.336 31.6761 144.911 32.1605 145.133 32.4834C145.355 32.7861 145.466 33.1494 145.466 33.5732C145.466 33.9971 145.304 34.3704 144.981 34.6934C144.679 34.9961 144.305 35.1475 143.861 35.1475C142.711 35.1475 141.54 34.3099 140.35 32.6348C139.179 30.9596 138.594 28.891 138.594 26.4287C138.594 23.0381 139.603 19.7585 141.621 16.5898C143.66 13.401 146.535 10.848 150.249 8.93066C153.963 7.01335 158.049 6.05469 162.51 6.05469C166.143 6.05469 168.897 6.77116 170.774 8.2041C172.672 9.63704 173.62 11.3828 173.62 13.4414C173.62 15.3991 172.984 17.1852 171.713 18.7998C170.441 20.3942 168.514 21.6253 165.931 22.4932C167.707 22.7757 169.109 23.2601 170.139 23.9463C171.168 24.6123 171.955 25.46 172.5 26.4893C173.065 27.5186 173.348 28.6992 173.348 30.0312C173.348 32.2109 172.702 34.2796 171.41 36.2373C170.139 38.1748 168.252 39.7894 165.749 41.0811C163.267 42.3525 160.673 42.9883 157.969 42.9883C157.182 42.9883 155.496 42.9076 152.913 42.7461C151.682 42.6855 150.39 42.6553 149.038 42.6553C146.979 42.6553 145.153 42.8167 143.559 43.1396L144.013 41.4746C146.132 41.3535 147.635 40.849 148.523 39.9609C149.432 39.0527 150.279 37.0648 151.066 33.9971L155.547 16.4082C155.729 15.6615 155.819 15.0964 155.819 14.7129C155.819 14.4102 155.688 14.1478 155.426 13.9258C155.184 13.6836 154.871 13.5625 154.487 13.5625C154.326 13.5625 154.124 13.5827 153.882 13.623ZM158.029 24.5518L156.485 30.6367C155.698 33.7852 154.941 36.207 154.215 37.9023C153.791 38.9115 153.246 39.7692 152.58 40.4756C154.396 40.9196 155.961 41.1416 157.272 41.1416C160.804 41.1416 163.468 40.0518 165.265 37.8721C167.081 35.6924 167.989 33.2604 167.989 30.5762C167.989 29.2441 167.646 28.1038 166.96 27.1553C166.294 26.1865 165.406 25.5104 164.296 25.127C163.206 24.7435 161.117 24.5518 158.029 24.5518Z" fill="#761B2B"/>
<path d="M192.813 35.0566L193.812 36.3887C188.868 41.0911 184.63 43.4424 181.098 43.4424C179.665 43.4424 178.565 42.958 177.798 41.9893C177.051 41.0205 176.678 39.4665 176.678 37.3271C176.678 33.0081 177.99 28.7093 180.613 24.4307C183.56 19.5667 187.082 17.1348 191.179 17.1348C192.612 17.1348 193.701 17.498 194.448 18.2246C195.215 18.931 195.599 19.9098 195.599 21.1611C195.599 22.473 195.145 23.7646 194.236 25.0361C193.328 26.3076 191.703 27.6296 189.362 29.002C188.192 29.668 185.689 30.8688 181.854 32.6045C181.673 33.6943 181.582 34.7337 181.582 35.7227C181.582 37.1556 181.804 38.1546 182.248 38.7197C182.712 39.2848 183.378 39.5674 184.246 39.5674C185.074 39.5674 185.982 39.3353 186.971 38.8711C188.303 38.2454 190.25 36.974 192.813 35.0566ZM182.218 30.667C185.467 29.2139 187.909 27.6497 189.544 25.9746C190.654 24.804 191.209 23.6436 191.209 22.4932C191.209 21.6253 190.977 20.9391 190.513 20.4346C190.069 19.9098 189.483 19.6475 188.757 19.6475C188.01 19.6475 187.284 19.93 186.577 20.4951C185.629 21.2419 184.831 22.3721 184.186 23.8857C183.257 26.1058 182.601 28.3662 182.218 30.667Z" fill="#761B2B"/>
<path d="M218.667 16.6807L220.665 16.2568L218.395 23.916C217.486 26.9635 216.629 30.4753 215.821 34.4512C215.377 36.6107 215.155 38.0033 215.155 38.6289C215.155 39.2546 215.408 39.5674 215.912 39.5674C216.235 39.5674 216.75 39.3555 217.456 38.9316C218.707 38.1849 219.908 37.2565 221.059 36.1465L222.027 37.3271C219.727 39.4261 218.253 40.6976 217.607 41.1416C216.316 42.0296 215.085 42.6855 213.914 43.1094C213.147 43.3919 212.4 43.5332 211.674 43.5332C211.149 43.5332 210.756 43.4121 210.493 43.1699C210.231 42.9277 210.1 42.5745 210.1 42.1104C210.1 41.8076 210.18 41.3939 210.342 40.8691L211.553 36.752C209.817 38.8307 207.748 40.6169 205.347 42.1104C203.873 43.0387 202.521 43.5029 201.29 43.5029C200.119 43.5029 199.221 43.0892 198.596 42.2617C197.748 41.1517 197.324 39.6986 197.324 37.9023C197.324 35.763 197.889 33.3815 199.02 30.7578C200.17 28.1341 201.704 25.7526 203.621 23.6133C205.538 21.474 207.557 19.8997 209.676 18.8906C211.311 18.1237 213.41 17.7402 215.973 17.7402C216.618 17.7402 217.274 17.7806 217.94 17.8613L218.667 16.6807ZM214.913 21.3125C213.823 21.0905 212.905 20.9795 212.158 20.9795C210.342 20.9795 208.757 21.484 207.405 22.4932C206.053 23.4821 204.792 25.2783 203.621 27.8818C202.471 30.4652 201.896 33.0485 201.896 35.6318C201.896 37.0042 202.128 37.9932 202.592 38.5986C203.056 39.2041 203.661 39.5068 204.408 39.5068C205.801 39.5068 207.294 38.7601 208.889 37.2666C210.483 35.7529 211.654 33.5833 212.4 30.7578L214.913 21.3125Z" fill="#761B2B"/>
<path d="M244.521 18.0127H248.819L245.974 28.5781C244.299 34.7135 243.461 38.2051 243.461 39.0527C243.461 39.4362 243.552 39.7288 243.733 39.9307C243.915 40.1325 244.117 40.2334 244.339 40.2334C244.682 40.2334 245.086 40.082 245.55 39.7793C246.216 39.3151 247.477 38.1445 249.334 36.2676L250.333 37.3877C246.276 41.6058 243.289 43.7148 241.372 43.7148C240.726 43.7148 240.171 43.4626 239.707 42.958C239.263 42.4736 239.041 41.7773 239.041 40.8691C239.041 39.8197 239.263 38.417 239.707 36.6611C237.911 38.7197 235.691 40.526 233.047 42.0801C231.291 43.1094 229.767 43.624 228.476 43.624C227.769 43.624 227.214 43.3919 226.811 42.9277C226.407 42.4635 226.205 41.7269 226.205 40.7178C226.205 39.9307 226.296 39.083 226.478 38.1748C226.74 36.9033 227.406 34.3503 228.476 30.5156C229.828 25.6517 230.504 22.7354 230.504 21.7666C230.504 21.2015 230.302 20.9189 229.898 20.9189C229.535 20.9189 229.041 21.1107 228.415 21.4941C227.789 21.8574 226.72 22.7555 225.206 24.1885L223.874 23.1289C226.578 20.707 228.637 19.1227 230.05 18.376C231.483 17.609 232.633 17.2256 233.501 17.2256C233.985 17.2256 234.379 17.4072 234.682 17.7705C234.984 18.1136 235.136 18.6585 235.136 19.4053C235.136 20.7979 234.409 24.2188 232.956 29.668C231.664 34.5723 231.019 37.3675 231.019 38.0537C231.019 38.4775 231.15 38.8408 231.412 39.1436C231.695 39.4463 231.997 39.5977 232.32 39.5977C233.451 39.5977 235.055 38.6693 237.134 36.8125C239.213 34.9355 240.575 32.8063 241.221 30.4248L244.521 18.0127Z" fill="#761B2B"/>
<path d="M261.05 12.5332L265.863 10.6865L263.684 19.1631H269.95L269.466 21.3125H263.199L260.535 31.4541C259.708 34.5016 259.294 36.6208 259.294 37.8115C259.294 38.3564 259.405 38.75 259.627 38.9922C259.869 39.2344 260.192 39.3555 260.596 39.3555C261.221 39.3555 262.18 38.9821 263.472 38.2354C265.167 37.2464 266.782 36.1263 268.315 34.875L269.466 36.2676C265.046 39.5977 262.089 41.6361 260.596 42.3828C259.102 43.1296 257.901 43.5029 256.993 43.5029C256.246 43.5029 255.651 43.2305 255.207 42.6855C254.783 42.1406 254.571 41.2526 254.571 40.0215C254.571 38.5684 254.955 36.3483 255.722 33.3613L258.84 21.3125H253.936L254.48 19.1631H259.354L261.05 12.5332Z" fill="#761B2B"/>
<path d="M272.342 23.3408L271.373 21.918L273.613 20.4043C275.793 18.9108 277.327 17.9521 278.215 17.5283C278.719 17.2861 279.184 17.165 279.607 17.165C280.031 17.165 280.435 17.4072 280.818 17.8916C282.594 20.1318 284.088 23.1592 285.299 26.9736C286.51 30.7679 287.115 34.4512 287.115 38.0234C287.115 38.4876 287.095 39.194 287.055 40.1426C290.465 33.8659 292.171 28.8809 292.171 25.1875C292.171 24.4206 291.999 23.4014 291.656 22.1299C291.293 20.7171 291.111 19.708 291.111 19.1025C291.111 18.5173 291.293 18.0329 291.656 17.6494C292.04 17.266 292.514 17.0742 293.079 17.0742C293.785 17.0742 294.351 17.3467 294.774 17.8916C295.218 18.4365 295.44 19.2135 295.44 20.2227C295.44 22.8262 294.845 26.0755 293.654 29.9707C292.464 33.8457 290.587 38.0234 288.023 42.5039C285.48 46.9642 283.149 50.2741 281.03 52.4336C278.931 54.6133 276.893 56.1673 274.915 57.0957C272.957 58.0443 271.101 58.5186 269.345 58.5186C268.013 58.5186 267.014 58.2663 266.348 57.7617C265.661 57.2773 265.318 56.6921 265.318 56.0059C265.318 55.4004 265.581 54.8757 266.105 54.4316C266.63 54.0078 267.337 53.7959 268.225 53.7959C268.911 53.7959 269.849 53.9271 271.04 54.1895C272.312 54.472 273.179 54.6133 273.644 54.6133C274.875 54.6133 276.176 54.0986 277.549 53.0693C279.426 51.6566 280.909 49.9714 281.999 48.0137C283.109 46.056 283.664 44.0781 283.664 42.0801C283.664 39.2747 283.25 35.9043 282.423 31.9688C281.616 28.0332 280.465 25.026 278.972 22.9473C278.225 21.8776 277.428 21.3428 276.58 21.3428C275.591 21.3428 274.178 22.0088 272.342 23.3408Z" fill="#761B2B"/>
<path d="M325.048 13.623L325.411 12.1699C327.712 12.0085 330.194 11.6048 332.858 10.959C332.152 13.0378 331.637 14.7129 331.314 15.9844L329.68 22.7354C333.252 22.7354 335.936 21.8473 337.732 20.0713C339.549 18.2751 340.457 16.1458 340.457 13.6836C340.457 11.9681 339.801 10.5856 338.489 9.53613C337.198 8.48665 335.26 7.96191 332.677 7.96191C329.024 7.96191 325.542 8.82975 322.232 10.5654C318.923 12.3011 316.339 14.5716 314.482 17.377C312.646 20.1621 311.728 22.9574 311.728 25.7627C311.728 26.5296 311.828 27.2461 312.03 27.9121C312.252 28.5579 312.565 29.1533 312.969 29.6982C313.211 30.0212 313.746 30.4652 314.573 31.0303C315.502 31.6761 316.077 32.1605 316.299 32.4834C316.521 32.7861 316.632 33.1494 316.632 33.5732C316.632 33.9971 316.47 34.3704 316.147 34.6934C315.845 34.9961 315.471 35.1475 315.027 35.1475C313.877 35.1475 312.706 34.3099 311.516 32.6348C310.345 30.9596 309.76 28.891 309.76 26.4287C309.76 23.0381 310.769 19.7585 312.787 16.5898C314.826 13.401 317.702 10.848 321.415 8.93066C325.129 7.01335 329.215 6.05469 333.676 6.05469C337.309 6.05469 340.063 6.77116 341.94 8.2041C343.838 9.63704 344.786 11.3828 344.786 13.4414C344.786 15.3991 344.15 17.1852 342.879 18.7998C341.607 20.3942 339.68 21.6253 337.097 22.4932C338.873 22.7757 340.275 23.2601 341.305 23.9463C342.334 24.6123 343.121 25.46 343.666 26.4893C344.231 27.5186 344.514 28.6992 344.514 30.0312C344.514 32.2109 343.868 34.2796 342.576 36.2373C341.305 38.1748 339.418 39.7894 336.915 41.0811C334.433 42.3525 331.839 42.9883 329.135 42.9883C328.348 42.9883 326.662 42.9076 324.079 42.7461C322.848 42.6855 321.556 42.6553 320.204 42.6553C318.146 42.6553 316.319 42.8167 314.725 43.1396L315.179 41.4746C317.298 41.3535 318.801 40.849 319.689 39.9609C320.598 39.0527 321.445 37.0648 322.232 33.9971L326.713 16.4082C326.895 15.6615 326.985 15.0964 326.985 14.7129C326.985 14.4102 326.854 14.1478 326.592 13.9258C326.35 13.6836 326.037 13.5625 325.653 13.5625C325.492 13.5625 325.29 13.5827 325.048 13.623ZM329.195 24.5518L327.651 30.6367C326.864 33.7852 326.107 36.207 325.381 37.9023C324.957 38.9115 324.412 39.7692 323.746 40.4756C325.562 40.9196 327.127 41.1416 328.438 41.1416C331.97 41.1416 334.634 40.0518 336.431 37.8721C338.247 35.6924 339.155 33.2604 339.155 30.5762C339.155 29.2441 338.812 28.1038 338.126 27.1553C337.46 26.1865 336.572 25.5104 335.462 25.127C334.372 24.7435 332.283 24.5518 329.195 24.5518Z" fill="#761B2B"/>
<path d="M368.763 16.6807L370.761 16.2568L368.49 23.916C367.582 26.9635 366.724 30.4753 365.917 34.4512C365.473 36.6107 365.251 38.0033 365.251 38.6289C365.251 39.2546 365.503 39.5674 366.008 39.5674C366.331 39.5674 366.845 39.3555 367.552 38.9316C368.803 38.1849 370.004 37.2565 371.154 36.1465L372.123 37.3271C369.822 39.4261 368.349 40.6976 367.703 41.1416C366.411 42.0296 365.18 42.6855 364.01 43.1094C363.243 43.3919 362.496 43.5332 361.77 43.5332C361.245 43.5332 360.851 43.4121 360.589 43.1699C360.327 42.9277 360.195 42.5745 360.195 42.1104C360.195 41.8076 360.276 41.3939 360.438 40.8691L361.648 36.752C359.913 38.8307 357.844 40.6169 355.442 42.1104C353.969 43.0387 352.617 43.5029 351.386 43.5029C350.215 43.5029 349.317 43.0892 348.691 42.2617C347.844 41.1517 347.42 39.6986 347.42 37.9023C347.42 35.763 347.985 33.3815 349.115 30.7578C350.266 28.1341 351.799 25.7526 353.717 23.6133C355.634 21.474 357.652 19.8997 359.771 18.8906C361.406 18.1237 363.505 17.7402 366.068 17.7402C366.714 17.7402 367.37 17.7806 368.036 17.8613L368.763 16.6807ZM365.009 21.3125C363.919 21.0905 363.001 20.9795 362.254 20.9795C360.438 20.9795 358.853 21.484 357.501 22.4932C356.149 23.4821 354.887 25.2783 353.717 27.8818C352.566 30.4652 351.991 33.0485 351.991 35.6318C351.991 37.0042 352.223 37.9932 352.688 38.5986C353.152 39.2041 353.757 39.5068 354.504 39.5068C355.896 39.5068 357.39 38.7601 358.984 37.2666C360.579 35.7529 361.749 33.5833 362.496 30.7578L365.009 21.3125Z" fill="#761B2B"/>
<path d="M382.628 12.5332L387.441 10.6865L385.262 19.1631H391.528L391.044 21.3125H384.777L382.113 31.4541C381.286 34.5016 380.872 36.6208 380.872 37.8115C380.872 38.3564 380.983 38.75 381.205 38.9922C381.447 39.2344 381.77 39.3555 382.174 39.3555C382.799 39.3555 383.758 38.9821 385.05 38.2354C386.745 37.2464 388.36 36.1263 389.894 34.875L391.044 36.2676C386.624 39.5977 383.667 41.6361 382.174 42.3828C380.68 43.1296 379.479 43.5029 378.571 43.5029C377.825 43.5029 377.229 43.2305 376.785 42.6855C376.361 42.1406 376.149 41.2526 376.149 40.0215C376.149 38.5684 376.533 36.3483 377.3 33.3613L380.418 21.3125H375.514L376.059 19.1631H380.933L382.628 12.5332Z" fill="#761B2B"/>
<path d="M402.487 12.5332L407.301 10.6865L405.121 19.1631H411.388L410.903 21.3125H404.637L401.973 31.4541C401.145 34.5016 400.731 36.6208 400.731 37.8115C400.731 38.3564 400.842 38.75 401.064 38.9922C401.307 39.2344 401.63 39.3555 402.033 39.3555C402.659 39.3555 403.618 38.9821 404.909 38.2354C406.604 37.2464 408.219 36.1263 409.753 34.875L410.903 36.2676C406.483 39.5977 403.527 41.6361 402.033 42.3828C400.54 43.1296 399.339 43.5029 398.431 43.5029C397.684 43.5029 397.089 43.2305 396.645 42.6855C396.221 42.1406 396.009 41.2526 396.009 40.0215C396.009 38.5684 396.392 36.3483 397.159 33.3613L400.277 21.3125H395.373L395.918 19.1631H400.792L402.487 12.5332Z" fill="#761B2B"/>
<path d="M426.464 35.3594L427.493 36.4492C425.919 38.2253 424.052 39.8499 421.893 41.3232C419.753 42.7764 417.987 43.5029 416.595 43.5029C415.969 43.5029 415.454 43.2607 415.051 42.7764C414.647 42.3122 414.445 41.6663 414.445 40.8389C414.445 39.2243 415.071 35.874 416.322 30.7881L419.592 17.498C420.783 12.6947 421.782 9.47559 422.589 7.84082C423.84 5.3584 425.606 3.43099 427.887 2.05859C430.188 0.686198 432.609 0 435.152 0C436.02 0 436.696 0.211914 437.181 0.635742C437.685 1.03939 437.938 1.53385 437.938 2.11914C437.938 2.76497 437.695 3.2998 437.211 3.72363C436.727 4.12728 436.02 4.3291 435.092 4.3291C434.486 4.3291 433.629 4.22819 432.519 4.02637C431.55 3.86491 430.652 3.78418 429.824 3.78418C428.997 3.78418 428.371 3.95573 427.947 4.29883C427.362 4.7832 426.827 5.80241 426.343 7.35645C425.879 8.91048 425.112 11.9782 424.042 16.5596L421.045 29.2441C419.551 35.6016 418.805 38.9216 418.805 39.2041C418.805 39.8499 419.037 40.1729 419.501 40.1729C419.945 40.1729 420.591 39.9105 421.438 39.3857C423.114 38.3363 424.789 36.9941 426.464 35.3594Z" fill="#761B2B"/>
<path d="M444.628 35.0566L445.627 36.3887C440.682 41.0911 436.444 43.4424 432.912 43.4424C431.479 43.4424 430.379 42.958 429.612 41.9893C428.866 41.0205 428.492 39.4665 428.492 37.3271C428.492 33.0081 429.804 28.7093 432.428 24.4307C435.374 19.5667 438.896 17.1348 442.993 17.1348C444.426 17.1348 445.516 17.498 446.263 18.2246C447.03 18.931 447.413 19.9098 447.413 21.1611C447.413 22.473 446.959 23.7646 446.051 25.0361C445.143 26.3076 443.518 27.6296 441.177 29.002C440.006 29.668 437.504 30.8688 433.669 32.6045C433.487 33.6943 433.396 34.7337 433.396 35.7227C433.396 37.1556 433.618 38.1546 434.062 38.7197C434.527 39.2848 435.193 39.5674 436.061 39.5674C436.888 39.5674 437.796 39.3353 438.785 38.8711C440.117 38.2454 442.065 36.974 444.628 35.0566ZM434.032 30.667C437.282 29.2139 439.724 27.6497 441.358 25.9746C442.468 24.804 443.023 23.6436 443.023 22.4932C443.023 21.6253 442.791 20.9391 442.327 20.4346C441.883 19.9098 441.298 19.6475 440.571 19.6475C439.825 19.6475 439.098 19.93 438.392 20.4951C437.443 21.2419 436.646 22.3721 436 23.8857C435.072 26.1058 434.416 28.3662 434.032 30.667Z" fill="#761B2B"/>
<path d="M24.6729 43.9268L22.251 11.3525C21.7262 16.8421 20.7575 21.9684 19.3447 26.7314C17.932 31.4743 16.3275 35.1475 14.5312 37.751C12.735 40.3343 10.8984 42.1507 9.02148 43.2002C7.14453 44.2497 5.28776 44.7744 3.45117 44.7744C2.34115 44.7744 1.4834 44.5423 0.87793 44.0781C0.292643 43.6341 0 43.0892 0 42.4434C0 41.8984 0.211914 41.4242 0.635742 41.0205C1.07975 40.6169 1.63477 40.415 2.30078 40.415C2.78516 40.415 3.48145 40.526 4.38965 40.748C5.21712 40.9701 5.90332 41.0811 6.44824 41.0811C7.39681 41.0811 8.38574 40.7279 9.41504 40.0215C10.9691 38.972 12.5029 37.0951 14.0166 34.3906C15.5505 31.666 16.9128 27.8818 18.1035 23.0381C19.3145 18.1742 20.0713 13.4313 20.374 8.80957C15.7926 8.80957 12.069 9.94987 9.20312 12.2305C6.92253 14.0469 5.78223 16.0752 5.78223 18.3154C5.78223 19.3044 6.32715 20.4951 7.41699 21.8877C8.00228 22.6344 8.29492 23.2399 8.29492 23.7041C8.29492 24.2288 8.12337 24.6628 7.78027 25.0059C7.45736 25.349 7.0638 25.5205 6.59961 25.5205C5.8125 25.5205 5.11621 25.0765 4.51074 24.1885C3.68327 22.9977 3.26953 21.585 3.26953 19.9502C3.26953 17.6494 4.03646 15.4495 5.57031 13.3506C7.12435 11.2314 9.26367 9.62695 11.9883 8.53711C14.7331 7.42708 17.9421 6.86198 21.6152 6.8418C23.5931 6.8418 25.1774 6.66016 26.3682 6.29688C26.3076 8.11328 26.2773 9.09212 26.2773 9.2334C26.2773 9.41504 26.3076 9.82878 26.3682 10.4746L28.1543 33.4824C33.0182 24.9857 37.7712 17.9925 42.4131 12.5029C45.7028 8.60775 48.5687 5.97396 51.0107 4.60156C49.6182 8.4362 48.1247 13.4919 46.5303 19.7686L42.8369 34.2998C42.6351 35.1071 42.3626 36.2878 42.0195 37.8418L41.293 41.0811C42.8268 41.4443 44.2295 41.626 45.501 41.626C46.5303 41.626 47.6302 41.5049 48.8008 41.2627L48.4072 43.0186C47.3779 43.2002 46.5807 43.291 46.0156 43.291C45.1882 43.291 43.9974 43.2002 42.4434 43.0186C41.1719 42.8571 40.0417 42.7764 39.0527 42.7764C38.0033 42.7764 36.8125 42.9782 35.4805 43.3818C36.5905 40.4756 37.751 36.5703 38.9619 31.666L41.293 22.4023C42.2819 18.4062 43.1396 15.6615 43.8662 14.168C42.2516 16.0046 39.7591 19.375 36.3887 24.2793C33.6842 28.235 30.6569 33.2402 27.3066 39.2949L24.6729 43.9268Z" fill="url(#paint0_linear)"/>
<path d="M73.8975 18.0127H78.1963L75.3506 28.5781C73.6755 34.7135 72.8379 38.2051 72.8379 39.0527C72.8379 39.4362 72.9287 39.7288 73.1104 39.9307C73.292 40.1325 73.4938 40.2334 73.7158 40.2334C74.0589 40.2334 74.4626 40.082 74.9268 39.7793C75.5928 39.3151 76.8542 38.1445 78.7109 36.2676L79.71 37.3877C75.6533 41.6058 72.6663 43.7148 70.749 43.7148C70.1032 43.7148 69.5482 43.4626 69.084 42.958C68.64 42.4736 68.418 41.7773 68.418 40.8691C68.418 39.8197 68.64 38.417 69.084 36.6611C67.2878 38.7197 65.0677 40.526 62.4238 42.0801C60.668 43.1094 59.1442 43.624 57.8525 43.624C57.1462 43.624 56.5911 43.3919 56.1875 42.9277C55.7839 42.4635 55.582 41.7269 55.582 40.7178C55.582 39.9307 55.6729 39.083 55.8545 38.1748C56.1169 36.9033 56.7829 34.3503 57.8525 30.5156C59.2048 25.6517 59.8809 22.7354 59.8809 21.7666C59.8809 21.2015 59.679 20.9189 59.2754 20.9189C58.9121 20.9189 58.4176 21.1107 57.792 21.4941C57.1663 21.8574 56.0967 22.7555 54.583 24.1885L53.251 23.1289C55.9554 20.707 58.014 19.1227 59.4268 18.376C60.8597 17.609 62.0101 17.2256 62.8779 17.2256C63.3623 17.2256 63.7559 17.4072 64.0586 17.7705C64.3613 18.1136 64.5127 18.6585 64.5127 19.4053C64.5127 20.7979 63.7861 24.2188 62.333 29.668C61.0413 34.5723 60.3955 37.3675 60.3955 38.0537C60.3955 38.4775 60.5267 38.8408 60.7891 39.1436C61.0716 39.4463 61.3743 39.5977 61.6973 39.5977C62.8275 39.5977 64.432 38.6693 66.5107 36.8125C68.5895 34.9355 69.9518 32.8063 70.5977 30.4248L73.8975 18.0127Z" fill="url(#paint1_linear)"/>
<path d="M98.5703 36.0859L99.2061 37.8418C94.4027 41.6159 90.346 43.5029 87.0361 43.5029C85.2803 43.5029 83.9987 42.8773 83.1914 41.626C82.4043 40.3747 82.0107 38.7904 82.0107 36.873C82.0107 33.6842 82.8584 30.4046 84.5537 27.0342C86.249 23.6637 88.3076 21.0804 90.7295 19.2842C92.6266 17.8916 94.766 17.1953 97.1475 17.1953C98.641 17.1953 99.7712 17.4779 100.538 18.043C101.305 18.6081 101.688 19.2943 101.688 20.1016C101.688 20.7272 101.487 21.2419 101.083 21.6455C100.679 22.029 100.114 22.2207 99.3877 22.2207C98.6813 22.2207 97.7731 21.8978 96.6631 21.252C95.5127 20.5658 94.554 20.2227 93.7871 20.2227C92.7982 20.2227 91.8092 20.6768 90.8203 21.585C89.8516 22.473 88.9232 24.2087 88.0352 26.792C87.1471 29.3753 86.7031 31.9688 86.7031 34.5723C86.7031 36.4896 87.0765 37.973 87.8232 39.0225C88.3682 39.8298 89.1351 40.2334 90.124 40.2334C92.4854 40.2334 95.3008 38.8509 98.5703 36.0859Z" fill="url(#paint2_linear)"/>
<path d="M119.641 36.0859L120.276 37.8418C115.473 41.6159 111.416 43.5029 108.106 43.5029C106.351 43.5029 105.069 42.8773 104.262 41.626C103.475 40.3747 103.081 38.7904 103.081 36.873C103.081 33.6842 103.929 30.4046 105.624 27.0342C107.319 23.6637 109.378 21.0804 111.8 19.2842C113.697 17.8916 115.836 17.1953 118.218 17.1953C119.711 17.1953 120.841 17.4779 121.608 18.043C122.375 18.6081 122.759 19.2943 122.759 20.1016C122.759 20.7272 122.557 21.2419 122.153 21.6455C121.75 22.029 121.185 22.2207 120.458 22.2207C119.752 22.2207 118.843 21.8978 117.733 21.252C116.583 20.5658 115.624 20.2227 114.857 20.2227C113.868 20.2227 112.88 20.6768 111.891 21.585C110.922 22.473 109.993 24.2087 109.105 26.792C108.217 29.3753 107.773 31.9688 107.773 34.5723C107.773 36.4896 108.147 37.973 108.894 39.0225C109.438 39.8298 110.205 40.2334 111.194 40.2334C113.556 40.2334 116.371 38.8509 119.641 36.0859Z" fill="url(#paint3_linear)"/>
<path d="M151.882 13.623L152.245 12.1699C154.546 12.0085 157.028 11.6048 159.692 10.959C158.986 13.0378 158.471 14.7129 158.148 15.9844L156.514 22.7354C160.086 22.7354 162.77 21.8473 164.566 20.0713C166.383 18.2751 167.291 16.1458 167.291 13.6836C167.291 11.9681 166.635 10.5856 165.323 9.53613C164.032 8.48665 162.094 7.96191 159.511 7.96191C155.858 7.96191 152.376 8.82975 149.066 10.5654C145.757 12.3011 143.173 14.5716 141.316 17.377C139.48 20.1621 138.562 22.9574 138.562 25.7627C138.562 26.5296 138.662 27.2461 138.864 27.9121C139.086 28.5579 139.399 29.1533 139.803 29.6982C140.045 30.0212 140.58 30.4652 141.407 31.0303C142.336 31.6761 142.911 32.1605 143.133 32.4834C143.355 32.7861 143.466 33.1494 143.466 33.5732C143.466 33.9971 143.304 34.3704 142.981 34.6934C142.679 34.9961 142.305 35.1475 141.861 35.1475C140.711 35.1475 139.54 34.3099 138.35 32.6348C137.179 30.9596 136.594 28.891 136.594 26.4287C136.594 23.0381 137.603 19.7585 139.621 16.5898C141.66 13.401 144.535 10.848 148.249 8.93066C151.963 7.01335 156.049 6.05469 160.51 6.05469C164.143 6.05469 166.897 6.77116 168.774 8.2041C170.672 9.63704 171.62 11.3828 171.62 13.4414C171.62 15.3991 170.984 17.1852 169.713 18.7998C168.441 20.3942 166.514 21.6253 163.931 22.4932C165.707 22.7757 167.109 23.2601 168.139 23.9463C169.168 24.6123 169.955 25.46 170.5 26.4893C171.065 27.5186 171.348 28.6992 171.348 30.0312C171.348 32.2109 170.702 34.2796 169.41 36.2373C168.139 38.1748 166.252 39.7894 163.749 41.0811C161.267 42.3525 158.673 42.9883 155.969 42.9883C155.182 42.9883 153.496 42.9076 150.913 42.7461C149.682 42.6855 148.39 42.6553 147.038 42.6553C144.979 42.6553 143.153 42.8167 141.559 43.1396L142.013 41.4746C144.132 41.3535 145.635 40.849 146.523 39.9609C147.432 39.0527 148.279 37.0648 149.066 33.9971L153.547 16.4082C153.729 15.6615 153.819 15.0964 153.819 14.7129C153.819 14.4102 153.688 14.1478 153.426 13.9258C153.184 13.6836 152.871 13.5625 152.487 13.5625C152.326 13.5625 152.124 13.5827 151.882 13.623ZM156.029 24.5518L154.485 30.6367C153.698 33.7852 152.941 36.207 152.215 37.9023C151.791 38.9115 151.246 39.7692 150.58 40.4756C152.396 40.9196 153.961 41.1416 155.272 41.1416C158.804 41.1416 161.468 40.0518 163.265 37.8721C165.081 35.6924 165.989 33.2604 165.989 30.5762C165.989 29.2441 165.646 28.1038 164.96 27.1553C164.294 26.1865 163.406 25.5104 162.296 25.127C161.206 24.7435 159.117 24.5518 156.029 24.5518Z" fill="url(#paint4_linear)"/>
<path d="M190.813 35.0566L191.812 36.3887C186.868 41.0911 182.63 43.4424 179.098 43.4424C177.665 43.4424 176.565 42.958 175.798 41.9893C175.051 41.0205 174.678 39.4665 174.678 37.3271C174.678 33.0081 175.99 28.7093 178.613 24.4307C181.56 19.5667 185.082 17.1348 189.179 17.1348C190.612 17.1348 191.701 17.498 192.448 18.2246C193.215 18.931 193.599 19.9098 193.599 21.1611C193.599 22.473 193.145 23.7646 192.236 25.0361C191.328 26.3076 189.703 27.6296 187.362 29.002C186.192 29.668 183.689 30.8688 179.854 32.6045C179.673 33.6943 179.582 34.7337 179.582 35.7227C179.582 37.1556 179.804 38.1546 180.248 38.7197C180.712 39.2848 181.378 39.5674 182.246 39.5674C183.074 39.5674 183.982 39.3353 184.971 38.8711C186.303 38.2454 188.25 36.974 190.813 35.0566ZM180.218 30.667C183.467 29.2139 185.909 27.6497 187.544 25.9746C188.654 24.804 189.209 23.6436 189.209 22.4932C189.209 21.6253 188.977 20.9391 188.513 20.4346C188.069 19.9098 187.483 19.6475 186.757 19.6475C186.01 19.6475 185.284 19.93 184.577 20.4951C183.629 21.2419 182.831 22.3721 182.186 23.8857C181.257 26.1058 180.601 28.3662 180.218 30.667Z" fill="url(#paint5_linear)"/>
<path d="M216.667 16.6807L218.665 16.2568L216.395 23.916C215.486 26.9635 214.629 30.4753 213.821 34.4512C213.377 36.6107 213.155 38.0033 213.155 38.6289C213.155 39.2546 213.408 39.5674 213.912 39.5674C214.235 39.5674 214.75 39.3555 215.456 38.9316C216.707 38.1849 217.908 37.2565 219.059 36.1465L220.027 37.3271C217.727 39.4261 216.253 40.6976 215.607 41.1416C214.316 42.0296 213.085 42.6855 211.914 43.1094C211.147 43.3919 210.4 43.5332 209.674 43.5332C209.149 43.5332 208.756 43.4121 208.493 43.1699C208.231 42.9277 208.1 42.5745 208.1 42.1104C208.1 41.8076 208.18 41.3939 208.342 40.8691L209.553 36.752C207.817 38.8307 205.748 40.6169 203.347 42.1104C201.873 43.0387 200.521 43.5029 199.29 43.5029C198.119 43.5029 197.221 43.0892 196.596 42.2617C195.748 41.1517 195.324 39.6986 195.324 37.9023C195.324 35.763 195.889 33.3815 197.02 30.7578C198.17 28.1341 199.704 25.7526 201.621 23.6133C203.538 21.474 205.557 19.8997 207.676 18.8906C209.311 18.1237 211.41 17.7402 213.973 17.7402C214.618 17.7402 215.274 17.7806 215.94 17.8613L216.667 16.6807ZM212.913 21.3125C211.823 21.0905 210.905 20.9795 210.158 20.9795C208.342 20.9795 206.757 21.484 205.405 22.4932C204.053 23.4821 202.792 25.2783 201.621 27.8818C200.471 30.4652 199.896 33.0485 199.896 35.6318C199.896 37.0042 200.128 37.9932 200.592 38.5986C201.056 39.2041 201.661 39.5068 202.408 39.5068C203.801 39.5068 205.294 38.7601 206.889 37.2666C208.483 35.7529 209.654 33.5833 210.4 30.7578L212.913 21.3125Z" fill="url(#paint6_linear)"/>
<path d="M242.521 18.0127H246.819L243.974 28.5781C242.299 34.7135 241.461 38.2051 241.461 39.0527C241.461 39.4362 241.552 39.7288 241.733 39.9307C241.915 40.1325 242.117 40.2334 242.339 40.2334C242.682 40.2334 243.086 40.082 243.55 39.7793C244.216 39.3151 245.477 38.1445 247.334 36.2676L248.333 37.3877C244.276 41.6058 241.289 43.7148 239.372 43.7148C238.726 43.7148 238.171 43.4626 237.707 42.958C237.263 42.4736 237.041 41.7773 237.041 40.8691C237.041 39.8197 237.263 38.417 237.707 36.6611C235.911 38.7197 233.691 40.526 231.047 42.0801C229.291 43.1094 227.767 43.624 226.476 43.624C225.769 43.624 225.214 43.3919 224.811 42.9277C224.407 42.4635 224.205 41.7269 224.205 40.7178C224.205 39.9307 224.296 39.083 224.478 38.1748C224.74 36.9033 225.406 34.3503 226.476 30.5156C227.828 25.6517 228.504 22.7354 228.504 21.7666C228.504 21.2015 228.302 20.9189 227.898 20.9189C227.535 20.9189 227.041 21.1107 226.415 21.4941C225.789 21.8574 224.72 22.7555 223.206 24.1885L221.874 23.1289C224.578 20.707 226.637 19.1227 228.05 18.376C229.483 17.609 230.633 17.2256 231.501 17.2256C231.985 17.2256 232.379 17.4072 232.682 17.7705C232.984 18.1136 233.136 18.6585 233.136 19.4053C233.136 20.7979 232.409 24.2188 230.956 29.668C229.664 34.5723 229.019 37.3675 229.019 38.0537C229.019 38.4775 229.15 38.8408 229.412 39.1436C229.695 39.4463 229.997 39.5977 230.32 39.5977C231.451 39.5977 233.055 38.6693 235.134 36.8125C237.213 34.9355 238.575 32.8063 239.221 30.4248L242.521 18.0127Z" fill="url(#paint7_linear)"/>
<path d="M259.05 12.5332L263.863 10.6865L261.684 19.1631H267.95L267.466 21.3125H261.199L258.535 31.4541C257.708 34.5016 257.294 36.6208 257.294 37.8115C257.294 38.3564 257.405 38.75 257.627 38.9922C257.869 39.2344 258.192 39.3555 258.596 39.3555C259.221 39.3555 260.18 38.9821 261.472 38.2354C263.167 37.2464 264.782 36.1263 266.315 34.875L267.466 36.2676C263.046 39.5977 260.089 41.6361 258.596 42.3828C257.102 43.1296 255.901 43.5029 254.993 43.5029C254.246 43.5029 253.651 43.2305 253.207 42.6855C252.783 42.1406 252.571 41.2526 252.571 40.0215C252.571 38.5684 252.955 36.3483 253.722 33.3613L256.84 21.3125H251.936L252.48 19.1631H257.354L259.05 12.5332Z" fill="url(#paint8_linear)"/>
<path d="M270.342 23.3408L269.373 21.918L271.613 20.4043C273.793 18.9108 275.327 17.9521 276.215 17.5283C276.719 17.2861 277.184 17.165 277.607 17.165C278.031 17.165 278.435 17.4072 278.818 17.8916C280.594 20.1318 282.088 23.1592 283.299 26.9736C284.51 30.7679 285.115 34.4512 285.115 38.0234C285.115 38.4876 285.095 39.194 285.055 40.1426C288.465 33.8659 290.171 28.8809 290.171 25.1875C290.171 24.4206 289.999 23.4014 289.656 22.1299C289.293 20.7171 289.111 19.708 289.111 19.1025C289.111 18.5173 289.293 18.0329 289.656 17.6494C290.04 17.266 290.514 17.0742 291.079 17.0742C291.785 17.0742 292.351 17.3467 292.774 17.8916C293.218 18.4365 293.44 19.2135 293.44 20.2227C293.44 22.8262 292.845 26.0755 291.654 29.9707C290.464 33.8457 288.587 38.0234 286.023 42.5039C283.48 46.9642 281.149 50.2741 279.03 52.4336C276.931 54.6133 274.893 56.1673 272.915 57.0957C270.957 58.0443 269.101 58.5186 267.345 58.5186C266.013 58.5186 265.014 58.2663 264.348 57.7617C263.661 57.2773 263.318 56.6921 263.318 56.0059C263.318 55.4004 263.581 54.8757 264.105 54.4316C264.63 54.0078 265.337 53.7959 266.225 53.7959C266.911 53.7959 267.849 53.9271 269.04 54.1895C270.312 54.472 271.179 54.6133 271.644 54.6133C272.875 54.6133 274.176 54.0986 275.549 53.0693C277.426 51.6566 278.909 49.9714 279.999 48.0137C281.109 46.056 281.664 44.0781 281.664 42.0801C281.664 39.2747 281.25 35.9043 280.423 31.9688C279.616 28.0332 278.465 25.026 276.972 22.9473C276.225 21.8776 275.428 21.3428 274.58 21.3428C273.591 21.3428 272.178 22.0088 270.342 23.3408Z" fill="url(#paint9_linear)"/>
<path d="M323.048 13.623L323.411 12.1699C325.712 12.0085 328.194 11.6048 330.858 10.959C330.152 13.0378 329.637 14.7129 329.314 15.9844L327.68 22.7354C331.252 22.7354 333.936 21.8473 335.732 20.0713C337.549 18.2751 338.457 16.1458 338.457 13.6836C338.457 11.9681 337.801 10.5856 336.489 9.53613C335.198 8.48665 333.26 7.96191 330.677 7.96191C327.024 7.96191 323.542 8.82975 320.232 10.5654C316.923 12.3011 314.339 14.5716 312.482 17.377C310.646 20.1621 309.728 22.9574 309.728 25.7627C309.728 26.5296 309.828 27.2461 310.03 27.9121C310.252 28.5579 310.565 29.1533 310.969 29.6982C311.211 30.0212 311.746 30.4652 312.573 31.0303C313.502 31.6761 314.077 32.1605 314.299 32.4834C314.521 32.7861 314.632 33.1494 314.632 33.5732C314.632 33.9971 314.47 34.3704 314.147 34.6934C313.845 34.9961 313.471 35.1475 313.027 35.1475C311.877 35.1475 310.706 34.3099 309.516 32.6348C308.345 30.9596 307.76 28.891 307.76 26.4287C307.76 23.0381 308.769 19.7585 310.787 16.5898C312.826 13.401 315.702 10.848 319.415 8.93066C323.129 7.01335 327.215 6.05469 331.676 6.05469C335.309 6.05469 338.063 6.77116 339.94 8.2041C341.838 9.63704 342.786 11.3828 342.786 13.4414C342.786 15.3991 342.15 17.1852 340.879 18.7998C339.607 20.3942 337.68 21.6253 335.097 22.4932C336.873 22.7757 338.275 23.2601 339.305 23.9463C340.334 24.6123 341.121 25.46 341.666 26.4893C342.231 27.5186 342.514 28.6992 342.514 30.0312C342.514 32.2109 341.868 34.2796 340.576 36.2373C339.305 38.1748 337.418 39.7894 334.915 41.0811C332.433 42.3525 329.839 42.9883 327.135 42.9883C326.348 42.9883 324.662 42.9076 322.079 42.7461C320.848 42.6855 319.556 42.6553 318.204 42.6553C316.146 42.6553 314.319 42.8167 312.725 43.1396L313.179 41.4746C315.298 41.3535 316.801 40.849 317.689 39.9609C318.598 39.0527 319.445 37.0648 320.232 33.9971L324.713 16.4082C324.895 15.6615 324.985 15.0964 324.985 14.7129C324.985 14.4102 324.854 14.1478 324.592 13.9258C324.35 13.6836 324.037 13.5625 323.653 13.5625C323.492 13.5625 323.29 13.5827 323.048 13.623ZM327.195 24.5518L325.651 30.6367C324.864 33.7852 324.107 36.207 323.381 37.9023C322.957 38.9115 322.412 39.7692 321.746 40.4756C323.562 40.9196 325.127 41.1416 326.438 41.1416C329.97 41.1416 332.634 40.0518 334.431 37.8721C336.247 35.6924 337.155 33.2604 337.155 30.5762C337.155 29.2441 336.812 28.1038 336.126 27.1553C335.46 26.1865 334.572 25.5104 333.462 25.127C332.372 24.7435 330.283 24.5518 327.195 24.5518Z" fill="url(#paint10_linear)"/>
<path d="M366.763 16.6807L368.761 16.2568L366.49 23.916C365.582 26.9635 364.724 30.4753 363.917 34.4512C363.473 36.6107 363.251 38.0033 363.251 38.6289C363.251 39.2546 363.503 39.5674 364.008 39.5674C364.331 39.5674 364.845 39.3555 365.552 38.9316C366.803 38.1849 368.004 37.2565 369.154 36.1465L370.123 37.3271C367.822 39.4261 366.349 40.6976 365.703 41.1416C364.411 42.0296 363.18 42.6855 362.01 43.1094C361.243 43.3919 360.496 43.5332 359.77 43.5332C359.245 43.5332 358.851 43.4121 358.589 43.1699C358.327 42.9277 358.195 42.5745 358.195 42.1104C358.195 41.8076 358.276 41.3939 358.438 40.8691L359.648 36.752C357.913 38.8307 355.844 40.6169 353.442 42.1104C351.969 43.0387 350.617 43.5029 349.386 43.5029C348.215 43.5029 347.317 43.0892 346.691 42.2617C345.844 41.1517 345.42 39.6986 345.42 37.9023C345.42 35.763 345.985 33.3815 347.115 30.7578C348.266 28.1341 349.799 25.7526 351.717 23.6133C353.634 21.474 355.652 19.8997 357.771 18.8906C359.406 18.1237 361.505 17.7402 364.068 17.7402C364.714 17.7402 365.37 17.7806 366.036 17.8613L366.763 16.6807ZM363.009 21.3125C361.919 21.0905 361.001 20.9795 360.254 20.9795C358.438 20.9795 356.853 21.484 355.501 22.4932C354.149 23.4821 352.887 25.2783 351.717 27.8818C350.566 30.4652 349.991 33.0485 349.991 35.6318C349.991 37.0042 350.223 37.9932 350.688 38.5986C351.152 39.2041 351.757 39.5068 352.504 39.5068C353.896 39.5068 355.39 38.7601 356.984 37.2666C358.579 35.7529 359.749 33.5833 360.496 30.7578L363.009 21.3125Z" fill="url(#paint11_linear)"/>
<path d="M380.628 12.5332L385.441 10.6865L383.262 19.1631H389.528L389.044 21.3125H382.777L380.113 31.4541C379.286 34.5016 378.872 36.6208 378.872 37.8115C378.872 38.3564 378.983 38.75 379.205 38.9922C379.447 39.2344 379.77 39.3555 380.174 39.3555C380.799 39.3555 381.758 38.9821 383.05 38.2354C384.745 37.2464 386.36 36.1263 387.894 34.875L389.044 36.2676C384.624 39.5977 381.667 41.6361 380.174 42.3828C378.68 43.1296 377.479 43.5029 376.571 43.5029C375.825 43.5029 375.229 43.2305 374.785 42.6855C374.361 42.1406 374.149 41.2526 374.149 40.0215C374.149 38.5684 374.533 36.3483 375.3 33.3613L378.418 21.3125H373.514L374.059 19.1631H378.933L380.628 12.5332Z" fill="url(#paint12_linear)"/>
<path d="M400.487 12.5332L405.301 10.6865L403.121 19.1631H409.388L408.903 21.3125H402.637L399.973 31.4541C399.145 34.5016 398.731 36.6208 398.731 37.8115C398.731 38.3564 398.842 38.75 399.064 38.9922C399.307 39.2344 399.63 39.3555 400.033 39.3555C400.659 39.3555 401.618 38.9821 402.909 38.2354C404.604 37.2464 406.219 36.1263 407.753 34.875L408.903 36.2676C404.483 39.5977 401.527 41.6361 400.033 42.3828C398.54 43.1296 397.339 43.5029 396.431 43.5029C395.684 43.5029 395.089 43.2305 394.645 42.6855C394.221 42.1406 394.009 41.2526 394.009 40.0215C394.009 38.5684 394.392 36.3483 395.159 33.3613L398.277 21.3125H393.373L393.918 19.1631H398.792L400.487 12.5332Z" fill="url(#paint13_linear)"/>
<path d="M424.464 35.3594L425.493 36.4492C423.919 38.2253 422.052 39.8499 419.893 41.3232C417.753 42.7764 415.987 43.5029 414.595 43.5029C413.969 43.5029 413.454 43.2607 413.051 42.7764C412.647 42.3122 412.445 41.6663 412.445 40.8389C412.445 39.2243 413.071 35.874 414.322 30.7881L417.592 17.498C418.783 12.6947 419.782 9.47559 420.589 7.84082C421.84 5.3584 423.606 3.43099 425.887 2.05859C428.188 0.686198 430.609 0 433.152 0C434.02 0 434.696 0.211914 435.181 0.635742C435.685 1.03939 435.938 1.53385 435.938 2.11914C435.938 2.76497 435.695 3.2998 435.211 3.72363C434.727 4.12728 434.02 4.3291 433.092 4.3291C432.486 4.3291 431.629 4.22819 430.519 4.02637C429.55 3.86491 428.652 3.78418 427.824 3.78418C426.997 3.78418 426.371 3.95573 425.947 4.29883C425.362 4.7832 424.827 5.80241 424.343 7.35645C423.879 8.91048 423.112 11.9782 422.042 16.5596L419.045 29.2441C417.551 35.6016 416.805 38.9216 416.805 39.2041C416.805 39.8499 417.037 40.1729 417.501 40.1729C417.945 40.1729 418.591 39.9105 419.438 39.3857C421.114 38.3363 422.789 36.9941 424.464 35.3594Z" fill="url(#paint14_linear)"/>
<path d="M442.628 35.0566L443.627 36.3887C438.682 41.0911 434.444 43.4424 430.912 43.4424C429.479 43.4424 428.379 42.958 427.612 41.9893C426.866 41.0205 426.492 39.4665 426.492 37.3271C426.492 33.0081 427.804 28.7093 430.428 24.4307C433.374 19.5667 436.896 17.1348 440.993 17.1348C442.426 17.1348 443.516 17.498 444.263 18.2246C445.03 18.931 445.413 19.9098 445.413 21.1611C445.413 22.473 444.959 23.7646 444.051 25.0361C443.143 26.3076 441.518 27.6296 439.177 29.002C438.006 29.668 435.504 30.8688 431.669 32.6045C431.487 33.6943 431.396 34.7337 431.396 35.7227C431.396 37.1556 431.618 38.1546 432.062 38.7197C432.527 39.2848 433.193 39.5674 434.061 39.5674C434.888 39.5674 435.796 39.3353 436.785 38.8711C438.117 38.2454 440.065 36.974 442.628 35.0566ZM432.032 30.667C435.282 29.2139 437.724 27.6497 439.358 25.9746C440.468 24.804 441.023 23.6436 441.023 22.4932C441.023 21.6253 440.791 20.9391 440.327 20.4346C439.883 19.9098 439.298 19.6475 438.571 19.6475C437.825 19.6475 437.098 19.93 436.392 20.4951C435.443 21.2419 434.646 22.3721 434 23.8857C433.072 26.1058 432.416 28.3662 432.032 30.667Z" fill="url(#paint15_linear)"/>
<defs>
<linearGradient id="paint0_linear" x1="445.413" y1="29.2593" x2="2.90377e-06" y2="29.2593" gradientUnits="userSpaceOnUse">
<stop stop-color="#DC802C"/>
<stop offset="1" stop-color="#FFCF31"/>
</linearGradient>
<linearGradient id="paint1_linear" x1="445.413" y1="29.2593" x2="2.90377e-06" y2="29.2593" gradientUnits="userSpaceOnUse">
<stop stop-color="#DC802C"/>
<stop offset="1" stop-color="#FFCF31"/>
</linearGradient>
<linearGradient id="paint2_linear" x1="445.413" y1="29.2593" x2="2.90377e-06" y2="29.2593" gradientUnits="userSpaceOnUse">
<stop stop-color="#DC802C"/>
<stop offset="1" stop-color="#FFCF31"/>
</linearGradient>
<linearGradient id="paint3_linear" x1="445.413" y1="29.2593" x2="2.90377e-06" y2="29.2593" gradientUnits="userSpaceOnUse">
<stop stop-color="#DC802C"/>
<stop offset="1" stop-color="#FFCF31"/>
</linearGradient>
<linearGradient id="paint4_linear" x1="445.413" y1="29.2593" x2="2.90377e-06" y2="29.2593" gradientUnits="userSpaceOnUse">
<stop stop-color="#DC802C"/>
<stop offset="1" stop-color="#FFCF31"/>
</linearGradient>
<linearGradient id="paint5_linear" x1="445.413" y1="29.2593" x2="2.90377e-06" y2="29.2593" gradientUnits="userSpaceOnUse">
<stop stop-color="#DC802C"/>
<stop offset="1" stop-color="#FFCF31"/>
</linearGradient>
<linearGradient id="paint6_linear" x1="445.413" y1="29.2593" x2="2.90377e-06" y2="29.2593" gradientUnits="userSpaceOnUse">
<stop stop-color="#DC802C"/>
<stop offset="1" stop-color="#FFCF31"/>
</linearGradient>
<linearGradient id="paint7_linear" x1="445.413" y1="29.2593" x2="2.90377e-06" y2="29.2593" gradientUnits="userSpaceOnUse">
<stop stop-color="#DC802C"/>
<stop offset="1" stop-color="#FFCF31"/>
</linearGradient>
<linearGradient id="paint8_linear" x1="445.413" y1="29.2593" x2="2.90377e-06" y2="29.2593" gradientUnits="userSpaceOnUse">
<stop stop-color="#DC802C"/>
<stop offset="1" stop-color="#FFCF31"/>
</linearGradient>
<linearGradient id="paint9_linear" x1="445.413" y1="29.2593" x2="2.90377e-06" y2="29.2593" gradientUnits="userSpaceOnUse">
<stop stop-color="#DC802C"/>
<stop offset="1" stop-color="#FFCF31"/>
</linearGradient>
<linearGradient id="paint10_linear" x1="445.413" y1="29.2593" x2="2.90377e-06" y2="29.2593" gradientUnits="userSpaceOnUse">
<stop stop-color="#DC802C"/>
<stop offset="1" stop-color="#FFCF31"/>
</linearGradient>
<linearGradient id="paint11_linear" x1="445.413" y1="29.2593" x2="2.90377e-06" y2="29.2593" gradientUnits="userSpaceOnUse">
<stop stop-color="#DC802C"/>
<stop offset="1" stop-color="#FFCF31"/>
</linearGradient>
<linearGradient id="paint12_linear" x1="445.413" y1="29.2593" x2="2.90377e-06" y2="29.2593" gradientUnits="userSpaceOnUse">
<stop stop-color="#DC802C"/>
<stop offset="1" stop-color="#FFCF31"/>
</linearGradient>
<linearGradient id="paint13_linear" x1="445.413" y1="29.2593" x2="2.90377e-06" y2="29.2593" gradientUnits="userSpaceOnUse">
<stop stop-color="#DC802C"/>
<stop offset="1" stop-color="#FFCF31"/>
</linearGradient>
<linearGradient id="paint14_linear" x1="445.413" y1="29.2593" x2="2.90377e-06" y2="29.2593" gradientUnits="userSpaceOnUse">
<stop stop-color="#DC802C"/>
<stop offset="1" stop-color="#FFCF31"/>
</linearGradient>
<linearGradient id="paint15_linear" x1="445.413" y1="29.2593" x2="2.90377e-06" y2="29.2593" gradientUnits="userSpaceOnUse">
<stop stop-color="#DC802C"/>
<stop offset="1" stop-color="#FFCF31"/>
</linearGradient>
</defs>
</svg>
