<svg width="432" height="59" viewBox="0 0 432 59" fill="none" xmlns="http://www.w3.org/2000/svg">
<path d="M26.6729 43.9268L24.251 11.3525C23.7262 16.8421 22.7575 21.9684 21.3447 26.7314C19.932 31.4743 18.3275 35.1475 16.5312 37.751C14.735 40.3343 12.8984 42.1507 11.0215 43.2002C9.14453 44.2497 7.28776 44.7744 5.45117 44.7744C4.34115 44.7744 3.4834 44.5423 2.87793 44.0781C2.29264 43.6341 2 43.0892 2 42.4434C2 41.8984 2.21191 41.4242 2.63574 41.0205C3.07975 40.6169 3.63477 40.415 4.30078 40.415C4.78516 40.415 5.48145 40.526 6.38965 40.748C7.21712 40.9701 7.90332 41.0811 8.44824 41.0811C9.39681 41.0811 10.3857 40.7279 11.415 40.0215C12.9691 38.972 14.5029 37.0951 16.0166 34.3906C17.5505 31.666 18.9128 27.8818 20.1035 23.0381C21.3145 18.1742 22.0713 13.4313 22.374 8.80957C17.7926 8.80957 14.069 9.94987 11.2031 12.2305C8.92253 14.0469 7.78223 16.0752 7.78223 18.3154C7.78223 19.3044 8.32715 20.4951 9.41699 21.8877C10.0023 22.6344 10.2949 23.2399 10.2949 23.7041C10.2949 24.2288 10.1234 24.6628 9.78027 25.0059C9.45736 25.349 9.0638 25.5205 8.59961 25.5205C7.8125 25.5205 7.11621 25.0765 6.51074 24.1885C5.68327 22.9977 5.26953 21.585 5.26953 19.9502C5.26953 17.6494 6.03646 15.4495 7.57031 13.3506C9.12435 11.2314 11.2637 9.62695 13.9883 8.53711C16.7331 7.42708 19.9421 6.86198 23.6152 6.8418C25.5931 6.8418 27.1774 6.66016 28.3682 6.29688C28.3076 8.11328 28.2773 9.09212 28.2773 9.2334C28.2773 9.41504 28.3076 9.82878 28.3682 10.4746L30.1543 33.4824C35.0182 24.9857 39.7712 17.9925 44.4131 12.5029C47.7028 8.60775 50.5687 5.97396 53.0107 4.60156C51.6182 8.4362 50.1247 13.4919 48.5303 19.7686L44.8369 34.2998C44.6351 35.1071 44.3626 36.2878 44.0195 37.8418L43.293 41.0811C44.8268 41.4443 46.2295 41.626 47.501 41.626C48.5303 41.626 49.6302 41.5049 50.8008 41.2627L50.4072 43.0186C49.3779 43.2002 48.5807 43.291 48.0156 43.291C47.1882 43.291 45.9974 43.2002 44.4434 43.0186C43.1719 42.8571 42.0417 42.7764 41.0527 42.7764C40.0033 42.7764 38.8125 42.9782 37.4805 43.3818C38.5905 40.4756 39.751 36.5703 40.9619 31.666L43.293 22.4023C44.2819 18.4062 45.1396 15.6615 45.8662 14.168C44.2516 16.0046 41.7591 19.375 38.3887 24.2793C35.6842 28.235 32.6569 33.2402 29.3066 39.2949L26.6729 43.9268Z" fill="#761B2B"/>
<path d="M68.3291 4.17773C68.9548 4.17773 69.4694 4.38965 69.873 4.81348C70.2767 5.21712 70.4785 5.74186 70.4785 6.3877C70.4785 7.27572 70.1657 8.06283 69.54 8.74902C68.9346 9.41504 68.2484 9.74805 67.4814 9.74805C66.876 9.74805 66.3714 9.53613 65.9678 9.1123C65.5641 8.68848 65.3623 8.13346 65.3623 7.44727C65.3623 6.53906 65.6549 5.77214 66.2402 5.14648C66.8255 4.50065 67.5218 4.17773 68.3291 4.17773ZM56.4014 24.2188L55.0693 23.1895C57.0876 20.9694 58.9242 19.3952 60.5791 18.4668C62.2542 17.5182 63.6771 17.0439 64.8477 17.0439C65.4935 17.0439 65.988 17.1852 66.3311 17.4678C66.6742 17.7503 66.8457 18.1338 66.8457 18.6182C66.8457 19.2035 66.1898 21.6859 64.8779 26.0654C62.7386 33.2301 61.6689 37.5492 61.6689 39.0225C61.6689 39.305 61.7396 39.5472 61.8809 39.749C62.0221 39.9307 62.1735 40.0215 62.335 40.0215C62.9808 40.0215 64.6357 38.7702 67.2998 36.2676L68.4805 37.418C65.7155 40.0215 63.6973 41.6865 62.4258 42.4131C61.1543 43.1396 60.1149 43.5029 59.3076 43.5029C58.6012 43.5029 58.0361 43.2809 57.6123 42.8369C57.2087 42.3929 57.0068 41.7773 57.0068 40.9902C57.0068 38.4674 58.5205 32.3018 61.5479 22.4932C61.6891 22.029 61.7598 21.6152 61.7598 21.252C61.7598 20.8483 61.5781 20.6465 61.2148 20.6465C60.8112 20.6465 60.347 20.8079 59.8223 21.1309C59.3177 21.4538 58.1774 22.4831 56.4014 24.2188Z" fill="#761B2B"/>
<path d="M83.6172 17.165C85.4134 17.165 86.7959 17.5182 87.7646 18.2246C88.7536 18.9108 89.248 19.708 89.248 20.6162C89.248 21.1611 89.0361 21.6354 88.6123 22.0391C88.2087 22.4427 87.7142 22.6445 87.1289 22.6445C86.7454 22.6445 86.4124 22.5638 86.1299 22.4023C85.8473 22.2207 85.4437 21.7868 84.9189 21.1006C83.93 19.7887 82.9512 19.1328 81.9824 19.1328C81.1549 19.1328 80.4183 19.4557 79.7725 20.1016C79.1468 20.7272 78.834 21.5143 78.834 22.4629C78.834 23.2904 79.0358 24.0977 79.4395 24.8848C79.8431 25.6517 80.8623 26.903 82.4971 28.6387C84.7373 31.0202 85.8574 33.2806 85.8574 35.4199C85.8574 37.5592 84.9492 39.4362 83.1328 41.0508C81.3164 42.6452 78.9753 43.4424 76.1094 43.4424C73.7077 43.4424 71.9215 42.958 70.751 41.9893C69.5804 41.0003 68.9951 39.7894 68.9951 38.3564C68.9951 37.6501 69.2171 37.0648 69.6611 36.6006C70.1051 36.1364 70.6501 35.9043 71.2959 35.9043C71.861 35.9043 72.3454 36.096 72.749 36.4795C73.1527 36.8428 73.3545 37.2767 73.3545 37.7812C73.3545 37.9831 73.3343 38.2454 73.2939 38.5684C73.2738 38.8307 73.2637 39.0527 73.2637 39.2344C73.2637 39.9004 73.5462 40.4655 74.1113 40.9297C74.6562 41.3939 75.403 41.626 76.3516 41.626C77.4414 41.626 78.4001 41.4443 79.2275 41.0811C80.055 40.6976 80.7008 40.1325 81.165 39.3857C81.6292 38.6188 81.8613 37.862 81.8613 37.1152C81.8613 36.3887 81.6393 35.6621 81.1953 34.9355C80.7715 34.209 79.8027 33.0081 78.2891 31.333C76.1901 28.9919 75.1406 26.7415 75.1406 24.582C75.1406 22.6042 75.9378 20.8786 77.5322 19.4053C79.1266 17.9118 81.1549 17.165 83.6172 17.165Z" fill="#761B2B"/>
<path d="M103.477 17.165C105.273 17.165 106.655 17.5182 107.624 18.2246C108.613 18.9108 109.107 19.708 109.107 20.6162C109.107 21.1611 108.896 21.6354 108.472 22.0391C108.068 22.4427 107.574 22.6445 106.988 22.6445C106.605 22.6445 106.272 22.5638 105.989 22.4023C105.707 22.2207 105.303 21.7868 104.778 21.1006C103.789 19.7887 102.811 19.1328 101.842 19.1328C101.014 19.1328 100.278 19.4557 99.6318 20.1016C99.0062 20.7272 98.6934 21.5143 98.6934 22.4629C98.6934 23.2904 98.8952 24.0977 99.2988 24.8848C99.7025 25.6517 100.722 26.903 102.356 28.6387C104.597 31.0202 105.717 33.2806 105.717 35.4199C105.717 37.5592 104.809 39.4362 102.992 41.0508C101.176 42.6452 98.8346 43.4424 95.9688 43.4424C93.5671 43.4424 91.7809 42.958 90.6104 41.9893C89.4398 41.0003 88.8545 39.7894 88.8545 38.3564C88.8545 37.6501 89.0765 37.0648 89.5205 36.6006C89.9645 36.1364 90.5094 35.9043 91.1553 35.9043C91.7204 35.9043 92.2048 36.096 92.6084 36.4795C93.012 36.8428 93.2139 37.2767 93.2139 37.7812C93.2139 37.9831 93.1937 38.2454 93.1533 38.5684C93.1331 38.8307 93.123 39.0527 93.123 39.2344C93.123 39.9004 93.4056 40.4655 93.9707 40.9297C94.5156 41.3939 95.2624 41.626 96.2109 41.626C97.3008 41.626 98.2594 41.4443 99.0869 41.0811C99.9144 40.6976 100.56 40.1325 101.024 39.3857C101.489 38.6188 101.721 37.862 101.721 37.1152C101.721 36.3887 101.499 35.6621 101.055 34.9355C100.631 34.209 99.6621 33.0081 98.1484 31.333C96.0495 28.9919 95 26.7415 95 24.582C95 22.6042 95.7972 20.8786 97.3916 19.4053C98.986 17.9118 101.014 17.165 103.477 17.165Z" fill="#761B2B"/>
<path d="M137.837 13.623L138.2 12.1699C140.501 12.0085 142.983 11.6048 145.647 10.959C144.941 13.0378 144.426 14.7129 144.104 15.9844L142.469 22.7354C146.041 22.7354 148.725 21.8473 150.521 20.0713C152.338 18.2751 153.246 16.1458 153.246 13.6836C153.246 11.9681 152.59 10.5856 151.278 9.53613C149.987 8.48665 148.049 7.96191 145.466 7.96191C141.813 7.96191 138.331 8.82975 135.021 10.5654C131.712 12.3011 129.128 14.5716 127.271 17.377C125.435 20.1621 124.517 22.9574 124.517 25.7627C124.517 26.5296 124.618 27.2461 124.819 27.9121C125.041 28.5579 125.354 29.1533 125.758 29.6982C126 30.0212 126.535 30.4652 127.362 31.0303C128.291 31.6761 128.866 32.1605 129.088 32.4834C129.31 32.7861 129.421 33.1494 129.421 33.5732C129.421 33.9971 129.259 34.3704 128.937 34.6934C128.634 34.9961 128.26 35.1475 127.816 35.1475C126.666 35.1475 125.495 34.3099 124.305 32.6348C123.134 30.9596 122.549 28.891 122.549 26.4287C122.549 23.0381 123.558 19.7585 125.576 16.5898C127.615 13.401 130.491 10.848 134.204 8.93066C137.918 7.01335 142.005 6.05469 146.465 6.05469C150.098 6.05469 152.853 6.77116 154.729 8.2041C156.627 9.63704 157.575 11.3828 157.575 13.4414C157.575 15.3991 156.939 17.1852 155.668 18.7998C154.396 20.3942 152.469 21.6253 149.886 22.4932C151.662 22.7757 153.064 23.2601 154.094 23.9463C155.123 24.6123 155.91 25.46 156.455 26.4893C157.02 27.5186 157.303 28.6992 157.303 30.0312C157.303 32.2109 156.657 34.2796 155.365 36.2373C154.094 38.1748 152.207 39.7894 149.704 41.0811C147.222 42.3525 144.628 42.9883 141.924 42.9883C141.137 42.9883 139.451 42.9076 136.868 42.7461C135.637 42.6855 134.345 42.6553 132.993 42.6553C130.935 42.6553 129.108 42.8167 127.514 43.1396L127.968 41.4746C130.087 41.3535 131.59 40.849 132.479 39.9609C133.387 39.0527 134.234 37.0648 135.021 33.9971L139.502 16.4082C139.684 15.6615 139.774 15.0964 139.774 14.7129C139.774 14.4102 139.643 14.1478 139.381 13.9258C139.139 13.6836 138.826 13.5625 138.442 13.5625C138.281 13.5625 138.079 13.5827 137.837 13.623ZM141.984 24.5518L140.44 30.6367C139.653 33.7852 138.896 36.207 138.17 37.9023C137.746 38.9115 137.201 39.7692 136.535 40.4756C138.352 40.9196 139.916 41.1416 141.228 41.1416C144.759 41.1416 147.424 40.0518 149.22 37.8721C151.036 35.6924 151.944 33.2604 151.944 30.5762C151.944 29.2441 151.601 28.1038 150.915 27.1553C150.249 26.1865 149.361 25.5104 148.251 25.127C147.161 24.7435 145.072 24.5518 141.984 24.5518Z" fill="#761B2B"/>
<path d="M176.769 35.0566L177.768 36.3887C172.823 41.0911 168.585 43.4424 165.053 43.4424C163.62 43.4424 162.52 42.958 161.753 41.9893C161.006 41.0205 160.633 39.4665 160.633 37.3271C160.633 33.0081 161.945 28.7093 164.568 24.4307C167.515 19.5667 171.037 17.1348 175.134 17.1348C176.567 17.1348 177.657 17.498 178.403 18.2246C179.17 18.931 179.554 19.9098 179.554 21.1611C179.554 22.473 179.1 23.7646 178.191 25.0361C177.283 26.3076 175.659 27.6296 173.317 29.002C172.147 29.668 169.644 30.8688 165.81 32.6045C165.628 33.6943 165.537 34.7337 165.537 35.7227C165.537 37.1556 165.759 38.1546 166.203 38.7197C166.667 39.2848 167.333 39.5674 168.201 39.5674C169.029 39.5674 169.937 39.3353 170.926 38.8711C172.258 38.2454 174.205 36.974 176.769 35.0566ZM166.173 30.667C169.422 29.2139 171.864 27.6497 173.499 25.9746C174.609 24.804 175.164 23.6436 175.164 22.4932C175.164 21.6253 174.932 20.9391 174.468 20.4346C174.024 19.9098 173.438 19.6475 172.712 19.6475C171.965 19.6475 171.239 19.93 170.532 20.4951C169.584 21.2419 168.786 22.3721 168.141 23.8857C167.212 26.1058 166.556 28.3662 166.173 30.667Z" fill="#761B2B"/>
<path d="M202.622 16.6807L204.62 16.2568L202.35 23.916C201.441 26.9635 200.584 30.4753 199.776 34.4512C199.332 36.6107 199.11 38.0033 199.11 38.6289C199.11 39.2546 199.363 39.5674 199.867 39.5674C200.19 39.5674 200.705 39.3555 201.411 38.9316C202.662 38.1849 203.863 37.2565 205.014 36.1465L205.982 37.3271C203.682 39.4261 202.208 40.6976 201.562 41.1416C200.271 42.0296 199.04 42.6855 197.869 43.1094C197.102 43.3919 196.355 43.5332 195.629 43.5332C195.104 43.5332 194.711 43.4121 194.448 43.1699C194.186 42.9277 194.055 42.5745 194.055 42.1104C194.055 41.8076 194.135 41.3939 194.297 40.8691L195.508 36.752C193.772 38.8307 191.703 40.6169 189.302 42.1104C187.828 43.0387 186.476 43.5029 185.245 43.5029C184.075 43.5029 183.176 43.0892 182.551 42.2617C181.703 41.1517 181.279 39.6986 181.279 37.9023C181.279 35.763 181.844 33.3815 182.975 30.7578C184.125 28.1341 185.659 25.7526 187.576 23.6133C189.493 21.474 191.512 19.8997 193.631 18.8906C195.266 18.1237 197.365 17.7402 199.928 17.7402C200.574 17.7402 201.229 17.7806 201.896 17.8613L202.622 16.6807ZM198.868 21.3125C197.778 21.0905 196.86 20.9795 196.113 20.9795C194.297 20.9795 192.713 21.484 191.36 22.4932C190.008 23.4821 188.747 25.2783 187.576 27.8818C186.426 30.4652 185.851 33.0485 185.851 35.6318C185.851 37.0042 186.083 37.9932 186.547 38.5986C187.011 39.2041 187.617 39.5068 188.363 39.5068C189.756 39.5068 191.249 38.7601 192.844 37.2666C194.438 35.7529 195.609 33.5833 196.355 30.7578L198.868 21.3125Z" fill="#761B2B"/>
<path d="M228.476 18.0127H232.774L229.929 28.5781C228.254 34.7135 227.416 38.2051 227.416 39.0527C227.416 39.4362 227.507 39.7288 227.688 39.9307C227.87 40.1325 228.072 40.2334 228.294 40.2334C228.637 40.2334 229.041 40.082 229.505 39.7793C230.171 39.3151 231.432 38.1445 233.289 36.2676L234.288 37.3877C230.231 41.6058 227.244 43.7148 225.327 43.7148C224.681 43.7148 224.126 43.4626 223.662 42.958C223.218 42.4736 222.996 41.7773 222.996 40.8691C222.996 39.8197 223.218 38.417 223.662 36.6611C221.866 38.7197 219.646 40.526 217.002 42.0801C215.246 43.1094 213.722 43.624 212.431 43.624C211.724 43.624 211.169 43.3919 210.766 42.9277C210.362 42.4635 210.16 41.7269 210.16 40.7178C210.16 39.9307 210.251 39.083 210.433 38.1748C210.695 36.9033 211.361 34.3503 212.431 30.5156C213.783 25.6517 214.459 22.7354 214.459 21.7666C214.459 21.2015 214.257 20.9189 213.854 20.9189C213.49 20.9189 212.996 21.1107 212.37 21.4941C211.744 21.8574 210.675 22.7555 209.161 24.1885L207.829 23.1289C210.534 20.707 212.592 19.1227 214.005 18.376C215.438 17.609 216.588 17.2256 217.456 17.2256C217.94 17.2256 218.334 17.4072 218.637 17.7705C218.939 18.1136 219.091 18.6585 219.091 19.4053C219.091 20.7979 218.364 24.2188 216.911 29.668C215.619 34.5723 214.974 37.3675 214.974 38.0537C214.974 38.4775 215.105 38.8408 215.367 39.1436C215.65 39.4463 215.952 39.5977 216.275 39.5977C217.406 39.5977 219.01 38.6693 221.089 36.8125C223.168 34.9355 224.53 32.8063 225.176 30.4248L228.476 18.0127Z" fill="#761B2B"/>
<path d="M245.005 12.5332L249.818 10.6865L247.639 19.1631H253.905L253.421 21.3125H247.154L244.49 31.4541C243.663 34.5016 243.249 36.6208 243.249 37.8115C243.249 38.3564 243.36 38.75 243.582 38.9922C243.824 39.2344 244.147 39.3555 244.551 39.3555C245.176 39.3555 246.135 38.9821 247.427 38.2354C249.122 37.2464 250.737 36.1263 252.271 34.875L253.421 36.2676C249.001 39.5977 246.044 41.6361 244.551 42.3828C243.057 43.1296 241.856 43.5029 240.948 43.5029C240.201 43.5029 239.606 43.2305 239.162 42.6855C238.738 42.1406 238.526 41.2526 238.526 40.0215C238.526 38.5684 238.91 36.3483 239.677 33.3613L242.795 21.3125H237.891L238.436 19.1631H243.31L245.005 12.5332Z" fill="#761B2B"/>
<path d="M256.297 23.3408L255.328 21.918L257.568 20.4043C259.748 18.9108 261.282 17.9521 262.17 17.5283C262.674 17.2861 263.139 17.165 263.562 17.165C263.986 17.165 264.39 17.4072 264.773 17.8916C266.549 20.1318 268.043 23.1592 269.254 26.9736C270.465 30.7679 271.07 34.4512 271.07 38.0234C271.07 38.4876 271.05 39.194 271.01 40.1426C274.421 33.8659 276.126 28.8809 276.126 25.1875C276.126 24.4206 275.954 23.4014 275.611 22.1299C275.248 20.7171 275.066 19.708 275.066 19.1025C275.066 18.5173 275.248 18.0329 275.611 17.6494C275.995 17.266 276.469 17.0742 277.034 17.0742C277.741 17.0742 278.306 17.3467 278.729 17.8916C279.173 18.4365 279.396 19.2135 279.396 20.2227C279.396 22.8262 278.8 26.0755 277.609 29.9707C276.419 33.8457 274.542 38.0234 271.979 42.5039C269.436 46.9642 267.104 50.2741 264.985 52.4336C262.886 54.6133 260.848 56.1673 258.87 57.0957C256.912 58.0443 255.056 58.5186 253.3 58.5186C251.968 58.5186 250.969 58.2663 250.303 57.7617C249.617 57.2773 249.273 56.6921 249.273 56.0059C249.273 55.4004 249.536 54.8757 250.061 54.4316C250.585 54.0078 251.292 53.7959 252.18 53.7959C252.866 53.7959 253.804 53.9271 254.995 54.1895C256.267 54.472 257.134 54.6133 257.599 54.6133C258.83 54.6133 260.132 54.0986 261.504 53.0693C263.381 51.6566 264.864 49.9714 265.954 48.0137C267.064 46.056 267.619 44.0781 267.619 42.0801C267.619 39.2747 267.205 35.9043 266.378 31.9688C265.571 28.0332 264.42 25.026 262.927 22.9473C262.18 21.8776 261.383 21.3428 260.535 21.3428C259.546 21.3428 258.133 22.0088 256.297 23.3408Z" fill="#761B2B"/>
<path d="M309.003 13.623L309.366 12.1699C311.667 12.0085 314.149 11.6048 316.813 10.959C316.107 13.0378 315.592 14.7129 315.27 15.9844L313.635 22.7354C317.207 22.7354 319.891 21.8473 321.688 20.0713C323.504 18.2751 324.412 16.1458 324.412 13.6836C324.412 11.9681 323.756 10.5856 322.444 9.53613C321.153 8.48665 319.215 7.96191 316.632 7.96191C312.979 7.96191 309.497 8.82975 306.188 10.5654C302.878 12.3011 300.294 14.5716 298.438 17.377C296.601 20.1621 295.683 22.9574 295.683 25.7627C295.683 26.5296 295.784 27.2461 295.985 27.9121C296.207 28.5579 296.52 29.1533 296.924 29.6982C297.166 30.0212 297.701 30.4652 298.528 31.0303C299.457 31.6761 300.032 32.1605 300.254 32.4834C300.476 32.7861 300.587 33.1494 300.587 33.5732C300.587 33.9971 300.425 34.3704 300.103 34.6934C299.8 34.9961 299.426 35.1475 298.982 35.1475C297.832 35.1475 296.661 34.3099 295.471 32.6348C294.3 30.9596 293.715 28.891 293.715 26.4287C293.715 23.0381 294.724 19.7585 296.742 16.5898C298.781 13.401 301.657 10.848 305.37 8.93066C309.084 7.01335 313.171 6.05469 317.631 6.05469C321.264 6.05469 324.019 6.77116 325.896 8.2041C327.793 9.63704 328.741 11.3828 328.741 13.4414C328.741 15.3991 328.105 17.1852 326.834 18.7998C325.562 20.3942 323.635 21.6253 321.052 22.4932C322.828 22.7757 324.23 23.2601 325.26 23.9463C326.289 24.6123 327.076 25.46 327.621 26.4893C328.186 27.5186 328.469 28.6992 328.469 30.0312C328.469 32.2109 327.823 34.2796 326.531 36.2373C325.26 38.1748 323.373 39.7894 320.87 41.0811C318.388 42.3525 315.794 42.9883 313.09 42.9883C312.303 42.9883 310.618 42.9076 308.034 42.7461C306.803 42.6855 305.511 42.6553 304.159 42.6553C302.101 42.6553 300.274 42.8167 298.68 43.1396L299.134 41.4746C301.253 41.3535 302.757 40.849 303.645 39.9609C304.553 39.0527 305.4 37.0648 306.188 33.9971L310.668 16.4082C310.85 15.6615 310.94 15.0964 310.94 14.7129C310.94 14.4102 310.809 14.1478 310.547 13.9258C310.305 13.6836 309.992 13.5625 309.608 13.5625C309.447 13.5625 309.245 13.5827 309.003 13.623ZM313.15 24.5518L311.606 30.6367C310.819 33.7852 310.062 36.207 309.336 37.9023C308.912 38.9115 308.367 39.7692 307.701 40.4756C309.518 40.9196 311.082 41.1416 312.394 41.1416C315.925 41.1416 318.59 40.0518 320.386 37.8721C322.202 35.6924 323.11 33.2604 323.11 30.5762C323.11 29.2441 322.767 28.1038 322.081 27.1553C321.415 26.1865 320.527 25.5104 319.417 25.127C318.327 24.7435 316.238 24.5518 313.15 24.5518Z" fill="#761B2B"/>
<path d="M352.718 16.6807L354.716 16.2568L352.445 23.916C351.537 26.9635 350.679 30.4753 349.872 34.4512C349.428 36.6107 349.206 38.0033 349.206 38.6289C349.206 39.2546 349.458 39.5674 349.963 39.5674C350.286 39.5674 350.8 39.3555 351.507 38.9316C352.758 38.1849 353.959 37.2565 355.109 36.1465L356.078 37.3271C353.777 39.4261 352.304 40.6976 351.658 41.1416C350.367 42.0296 349.135 42.6855 347.965 43.1094C347.198 43.3919 346.451 43.5332 345.725 43.5332C345.2 43.5332 344.806 43.4121 344.544 43.1699C344.282 42.9277 344.15 42.5745 344.15 42.1104C344.15 41.8076 344.231 41.3939 344.393 40.8691L345.604 36.752C343.868 38.8307 341.799 40.6169 339.397 42.1104C337.924 43.0387 336.572 43.5029 335.341 43.5029C334.17 43.5029 333.272 43.0892 332.646 42.2617C331.799 41.1517 331.375 39.6986 331.375 37.9023C331.375 35.763 331.94 33.3815 333.07 30.7578C334.221 28.1341 335.755 25.7526 337.672 23.6133C339.589 21.474 341.607 19.8997 343.727 18.8906C345.361 18.1237 347.46 17.7402 350.023 17.7402C350.669 17.7402 351.325 17.7806 351.991 17.8613L352.718 16.6807ZM348.964 21.3125C347.874 21.0905 346.956 20.9795 346.209 20.9795C344.393 20.9795 342.808 21.484 341.456 22.4932C340.104 23.4821 338.842 25.2783 337.672 27.8818C336.521 30.4652 335.946 33.0485 335.946 35.6318C335.946 37.0042 336.178 37.9932 336.643 38.5986C337.107 39.2041 337.712 39.5068 338.459 39.5068C339.852 39.5068 341.345 38.7601 342.939 37.2666C344.534 35.7529 345.704 33.5833 346.451 30.7578L348.964 21.3125Z" fill="#761B2B"/>
<path d="M366.583 12.5332L371.396 10.6865L369.217 19.1631H375.483L374.999 21.3125H368.732L366.068 31.4541C365.241 34.5016 364.827 36.6208 364.827 37.8115C364.827 38.3564 364.938 38.75 365.16 38.9922C365.402 39.2344 365.725 39.3555 366.129 39.3555C366.755 39.3555 367.713 38.9821 369.005 38.2354C370.7 37.2464 372.315 36.1263 373.849 34.875L374.999 36.2676C370.579 39.5977 367.622 41.6361 366.129 42.3828C364.635 43.1296 363.435 43.5029 362.526 43.5029C361.78 43.5029 361.184 43.2305 360.74 42.6855C360.316 42.1406 360.104 41.2526 360.104 40.0215C360.104 38.5684 360.488 36.3483 361.255 33.3613L364.373 21.3125H359.469L360.014 19.1631H364.888L366.583 12.5332Z" fill="#761B2B"/>
<path d="M386.442 12.5332L391.256 10.6865L389.076 19.1631H395.343L394.858 21.3125H388.592L385.928 31.4541C385.1 34.5016 384.687 36.6208 384.687 37.8115C384.687 38.3564 384.798 38.75 385.02 38.9922C385.262 39.2344 385.585 39.3555 385.988 39.3555C386.614 39.3555 387.573 38.9821 388.864 38.2354C390.56 37.2464 392.174 36.1263 393.708 34.875L394.858 36.2676C390.438 39.5977 387.482 41.6361 385.988 42.3828C384.495 43.1296 383.294 43.5029 382.386 43.5029C381.639 43.5029 381.044 43.2305 380.6 42.6855C380.176 42.1406 379.964 41.2526 379.964 40.0215C379.964 38.5684 380.347 36.3483 381.114 33.3613L384.232 21.3125H379.328L379.873 19.1631H384.747L386.442 12.5332Z" fill="#761B2B"/>
<path d="M410.419 35.3594L411.448 36.4492C409.874 38.2253 408.007 39.8499 405.848 41.3232C403.708 42.7764 401.942 43.5029 400.55 43.5029C399.924 43.5029 399.41 43.2607 399.006 42.7764C398.602 42.3122 398.4 41.6663 398.4 40.8389C398.4 39.2243 399.026 35.874 400.277 30.7881L403.547 17.498C404.738 12.6947 405.737 9.47559 406.544 7.84082C407.795 5.3584 409.561 3.43099 411.842 2.05859C414.143 0.686198 416.564 0 419.107 0C419.975 0 420.651 0.211914 421.136 0.635742C421.64 1.03939 421.893 1.53385 421.893 2.11914C421.893 2.76497 421.65 3.2998 421.166 3.72363C420.682 4.12728 419.975 4.3291 419.047 4.3291C418.441 4.3291 417.584 4.22819 416.474 4.02637C415.505 3.86491 414.607 3.78418 413.779 3.78418C412.952 3.78418 412.326 3.95573 411.902 4.29883C411.317 4.7832 410.782 5.80241 410.298 7.35645C409.834 8.91048 409.067 11.9782 407.997 16.5596L405 29.2441C403.507 35.6016 402.76 38.9216 402.76 39.2041C402.76 39.8499 402.992 40.1729 403.456 40.1729C403.9 40.1729 404.546 39.9105 405.394 39.3857C407.069 38.3363 408.744 36.9941 410.419 35.3594Z" fill="#761B2B"/>
<path d="M428.583 35.0566L429.582 36.3887C424.637 41.0911 420.399 43.4424 416.867 43.4424C415.434 43.4424 414.334 42.958 413.567 41.9893C412.821 41.0205 412.447 39.4665 412.447 37.3271C412.447 33.0081 413.759 28.7093 416.383 24.4307C419.329 19.5667 422.851 17.1348 426.948 17.1348C428.381 17.1348 429.471 17.498 430.218 18.2246C430.985 18.931 431.368 19.9098 431.368 21.1611C431.368 22.473 430.914 23.7646 430.006 25.0361C429.098 26.3076 427.473 27.6296 425.132 29.002C423.961 29.668 421.459 30.8688 417.624 32.6045C417.442 33.6943 417.352 34.7337 417.352 35.7227C417.352 37.1556 417.574 38.1546 418.018 38.7197C418.482 39.2848 419.148 39.5674 420.016 39.5674C420.843 39.5674 421.751 39.3353 422.74 38.8711C424.072 38.2454 426.02 36.974 428.583 35.0566ZM417.987 30.667C421.237 29.2139 423.679 27.6497 425.313 25.9746C426.423 24.804 426.979 23.6436 426.979 22.4932C426.979 21.6253 426.746 20.9391 426.282 20.4346C425.838 19.9098 425.253 19.6475 424.526 19.6475C423.78 19.6475 423.053 19.93 422.347 20.4951C421.398 21.2419 420.601 22.3721 419.955 23.8857C419.027 26.1058 418.371 28.3662 417.987 30.667Z" fill="#761B2B"/>
<path d="M24.6729 43.9268L22.251 11.3525C21.7262 16.8421 20.7575 21.9684 19.3447 26.7314C17.932 31.4743 16.3275 35.1475 14.5312 37.751C12.735 40.3343 10.8984 42.1507 9.02148 43.2002C7.14453 44.2497 5.28776 44.7744 3.45117 44.7744C2.34115 44.7744 1.4834 44.5423 0.87793 44.0781C0.292643 43.6341 0 43.0892 0 42.4434C0 41.8984 0.211914 41.4242 0.635742 41.0205C1.07975 40.6169 1.63477 40.415 2.30078 40.415C2.78516 40.415 3.48145 40.526 4.38965 40.748C5.21712 40.9701 5.90332 41.0811 6.44824 41.0811C7.39681 41.0811 8.38574 40.7279 9.41504 40.0215C10.9691 38.972 12.5029 37.0951 14.0166 34.3906C15.5505 31.666 16.9128 27.8818 18.1035 23.0381C19.3145 18.1742 20.0713 13.4313 20.374 8.80957C15.7926 8.80957 12.069 9.94987 9.20312 12.2305C6.92253 14.0469 5.78223 16.0752 5.78223 18.3154C5.78223 19.3044 6.32715 20.4951 7.41699 21.8877C8.00228 22.6344 8.29492 23.2399 8.29492 23.7041C8.29492 24.2288 8.12337 24.6628 7.78027 25.0059C7.45736 25.349 7.0638 25.5205 6.59961 25.5205C5.8125 25.5205 5.11621 25.0765 4.51074 24.1885C3.68327 22.9977 3.26953 21.585 3.26953 19.9502C3.26953 17.6494 4.03646 15.4495 5.57031 13.3506C7.12435 11.2314 9.26367 9.62695 11.9883 8.53711C14.7331 7.42708 17.9421 6.86198 21.6152 6.8418C23.5931 6.8418 25.1774 6.66016 26.3682 6.29688C26.3076 8.11328 26.2773 9.09212 26.2773 9.2334C26.2773 9.41504 26.3076 9.82878 26.3682 10.4746L28.1543 33.4824C33.0182 24.9857 37.7712 17.9925 42.4131 12.5029C45.7028 8.60775 48.5687 5.97396 51.0107 4.60156C49.6182 8.4362 48.1247 13.4919 46.5303 19.7686L42.8369 34.2998C42.6351 35.1071 42.3626 36.2878 42.0195 37.8418L41.293 41.0811C42.8268 41.4443 44.2295 41.626 45.501 41.626C46.5303 41.626 47.6302 41.5049 48.8008 41.2627L48.4072 43.0186C47.3779 43.2002 46.5807 43.291 46.0156 43.291C45.1882 43.291 43.9974 43.2002 42.4434 43.0186C41.1719 42.8571 40.0417 42.7764 39.0527 42.7764C38.0033 42.7764 36.8125 42.9782 35.4805 43.3818C36.5905 40.4756 37.751 36.5703 38.9619 31.666L41.293 22.4023C42.2819 18.4062 43.1396 15.6615 43.8662 14.168C42.2516 16.0046 39.7591 19.375 36.3887 24.2793C33.6842 28.235 30.6569 33.2402 27.3066 39.2949L24.6729 43.9268Z" fill="url(#paint0_linear)"/>
<path d="M66.3291 4.17773C66.9548 4.17773 67.4694 4.38965 67.873 4.81348C68.2767 5.21712 68.4785 5.74186 68.4785 6.3877C68.4785 7.27572 68.1657 8.06283 67.54 8.74902C66.9346 9.41504 66.2484 9.74805 65.4814 9.74805C64.876 9.74805 64.3714 9.53613 63.9678 9.1123C63.5641 8.68848 63.3623 8.13346 63.3623 7.44727C63.3623 6.53906 63.6549 5.77214 64.2402 5.14648C64.8255 4.50065 65.5218 4.17773 66.3291 4.17773ZM54.4014 24.2188L53.0693 23.1895C55.0876 20.9694 56.9242 19.3952 58.5791 18.4668C60.2542 17.5182 61.6771 17.0439 62.8477 17.0439C63.4935 17.0439 63.988 17.1852 64.3311 17.4678C64.6742 17.7503 64.8457 18.1338 64.8457 18.6182C64.8457 19.2035 64.1898 21.6859 62.8779 26.0654C60.7386 33.2301 59.6689 37.5492 59.6689 39.0225C59.6689 39.305 59.7396 39.5472 59.8809 39.749C60.0221 39.9307 60.1735 40.0215 60.335 40.0215C60.9808 40.0215 62.6357 38.7702 65.2998 36.2676L66.4805 37.418C63.7155 40.0215 61.6973 41.6865 60.4258 42.4131C59.1543 43.1396 58.1149 43.5029 57.3076 43.5029C56.6012 43.5029 56.0361 43.2809 55.6123 42.8369C55.2087 42.3929 55.0068 41.7773 55.0068 40.9902C55.0068 38.4674 56.5205 32.3018 59.5479 22.4932C59.6891 22.029 59.7598 21.6152 59.7598 21.252C59.7598 20.8483 59.5781 20.6465 59.2148 20.6465C58.8112 20.6465 58.347 20.8079 57.8223 21.1309C57.3177 21.4538 56.1774 22.4831 54.4014 24.2188Z" fill="url(#paint1_linear)"/>
<path d="M81.6172 17.165C83.4134 17.165 84.7959 17.5182 85.7646 18.2246C86.7536 18.9108 87.248 19.708 87.248 20.6162C87.248 21.1611 87.0361 21.6354 86.6123 22.0391C86.2087 22.4427 85.7142 22.6445 85.1289 22.6445C84.7454 22.6445 84.4124 22.5638 84.1299 22.4023C83.8473 22.2207 83.4437 21.7868 82.9189 21.1006C81.93 19.7887 80.9512 19.1328 79.9824 19.1328C79.1549 19.1328 78.4183 19.4557 77.7725 20.1016C77.1468 20.7272 76.834 21.5143 76.834 22.4629C76.834 23.2904 77.0358 24.0977 77.4395 24.8848C77.8431 25.6517 78.8623 26.903 80.4971 28.6387C82.7373 31.0202 83.8574 33.2806 83.8574 35.4199C83.8574 37.5592 82.9492 39.4362 81.1328 41.0508C79.3164 42.6452 76.9753 43.4424 74.1094 43.4424C71.7077 43.4424 69.9215 42.958 68.751 41.9893C67.5804 41.0003 66.9951 39.7894 66.9951 38.3564C66.9951 37.6501 67.2171 37.0648 67.6611 36.6006C68.1051 36.1364 68.6501 35.9043 69.2959 35.9043C69.861 35.9043 70.3454 36.096 70.749 36.4795C71.1527 36.8428 71.3545 37.2767 71.3545 37.7812C71.3545 37.9831 71.3343 38.2454 71.2939 38.5684C71.2738 38.8307 71.2637 39.0527 71.2637 39.2344C71.2637 39.9004 71.5462 40.4655 72.1113 40.9297C72.6562 41.3939 73.403 41.626 74.3516 41.626C75.4414 41.626 76.4001 41.4443 77.2275 41.0811C78.055 40.6976 78.7008 40.1325 79.165 39.3857C79.6292 38.6188 79.8613 37.862 79.8613 37.1152C79.8613 36.3887 79.6393 35.6621 79.1953 34.9355C78.7715 34.209 77.8027 33.0081 76.2891 31.333C74.1901 28.9919 73.1406 26.7415 73.1406 24.582C73.1406 22.6042 73.9378 20.8786 75.5322 19.4053C77.1266 17.9118 79.1549 17.165 81.6172 17.165Z" fill="url(#paint2_linear)"/>
<path d="M101.477 17.165C103.273 17.165 104.655 17.5182 105.624 18.2246C106.613 18.9108 107.107 19.708 107.107 20.6162C107.107 21.1611 106.896 21.6354 106.472 22.0391C106.068 22.4427 105.574 22.6445 104.988 22.6445C104.605 22.6445 104.272 22.5638 103.989 22.4023C103.707 22.2207 103.303 21.7868 102.778 21.1006C101.789 19.7887 100.811 19.1328 99.8418 19.1328C99.0143 19.1328 98.2777 19.4557 97.6318 20.1016C97.0062 20.7272 96.6934 21.5143 96.6934 22.4629C96.6934 23.2904 96.8952 24.0977 97.2988 24.8848C97.7025 25.6517 98.7217 26.903 100.356 28.6387C102.597 31.0202 103.717 33.2806 103.717 35.4199C103.717 37.5592 102.809 39.4362 100.992 41.0508C99.1758 42.6452 96.8346 43.4424 93.9688 43.4424C91.5671 43.4424 89.7809 42.958 88.6104 41.9893C87.4398 41.0003 86.8545 39.7894 86.8545 38.3564C86.8545 37.6501 87.0765 37.0648 87.5205 36.6006C87.9645 36.1364 88.5094 35.9043 89.1553 35.9043C89.7204 35.9043 90.2048 36.096 90.6084 36.4795C91.012 36.8428 91.2139 37.2767 91.2139 37.7812C91.2139 37.9831 91.1937 38.2454 91.1533 38.5684C91.1331 38.8307 91.123 39.0527 91.123 39.2344C91.123 39.9004 91.4056 40.4655 91.9707 40.9297C92.5156 41.3939 93.2624 41.626 94.2109 41.626C95.3008 41.626 96.2594 41.4443 97.0869 41.0811C97.9144 40.6976 98.5602 40.1325 99.0244 39.3857C99.4886 38.6188 99.7207 37.862 99.7207 37.1152C99.7207 36.3887 99.4987 35.6621 99.0547 34.9355C98.6309 34.209 97.6621 33.0081 96.1484 31.333C94.0495 28.9919 93 26.7415 93 24.582C93 22.6042 93.7972 20.8786 95.3916 19.4053C96.986 17.9118 99.0143 17.165 101.477 17.165Z" fill="url(#paint3_linear)"/>
<path d="M135.837 13.623L136.2 12.1699C138.501 12.0085 140.983 11.6048 143.647 10.959C142.941 13.0378 142.426 14.7129 142.104 15.9844L140.469 22.7354C144.041 22.7354 146.725 21.8473 148.521 20.0713C150.338 18.2751 151.246 16.1458 151.246 13.6836C151.246 11.9681 150.59 10.5856 149.278 9.53613C147.987 8.48665 146.049 7.96191 143.466 7.96191C139.813 7.96191 136.331 8.82975 133.021 10.5654C129.712 12.3011 127.128 14.5716 125.271 17.377C123.435 20.1621 122.517 22.9574 122.517 25.7627C122.517 26.5296 122.618 27.2461 122.819 27.9121C123.041 28.5579 123.354 29.1533 123.758 29.6982C124 30.0212 124.535 30.4652 125.362 31.0303C126.291 31.6761 126.866 32.1605 127.088 32.4834C127.31 32.7861 127.421 33.1494 127.421 33.5732C127.421 33.9971 127.259 34.3704 126.937 34.6934C126.634 34.9961 126.26 35.1475 125.816 35.1475C124.666 35.1475 123.495 34.3099 122.305 32.6348C121.134 30.9596 120.549 28.891 120.549 26.4287C120.549 23.0381 121.558 19.7585 123.576 16.5898C125.615 13.401 128.491 10.848 132.204 8.93066C135.918 7.01335 140.005 6.05469 144.465 6.05469C148.098 6.05469 150.853 6.77116 152.729 8.2041C154.627 9.63704 155.575 11.3828 155.575 13.4414C155.575 15.3991 154.939 17.1852 153.668 18.7998C152.396 20.3942 150.469 21.6253 147.886 22.4932C149.662 22.7757 151.064 23.2601 152.094 23.9463C153.123 24.6123 153.91 25.46 154.455 26.4893C155.02 27.5186 155.303 28.6992 155.303 30.0312C155.303 32.2109 154.657 34.2796 153.365 36.2373C152.094 38.1748 150.207 39.7894 147.704 41.0811C145.222 42.3525 142.628 42.9883 139.924 42.9883C139.137 42.9883 137.451 42.9076 134.868 42.7461C133.637 42.6855 132.345 42.6553 130.993 42.6553C128.935 42.6553 127.108 42.8167 125.514 43.1396L125.968 41.4746C128.087 41.3535 129.59 40.849 130.479 39.9609C131.387 39.0527 132.234 37.0648 133.021 33.9971L137.502 16.4082C137.684 15.6615 137.774 15.0964 137.774 14.7129C137.774 14.4102 137.643 14.1478 137.381 13.9258C137.139 13.6836 136.826 13.5625 136.442 13.5625C136.281 13.5625 136.079 13.5827 135.837 13.623ZM139.984 24.5518L138.44 30.6367C137.653 33.7852 136.896 36.207 136.17 37.9023C135.746 38.9115 135.201 39.7692 134.535 40.4756C136.352 40.9196 137.916 41.1416 139.228 41.1416C142.759 41.1416 145.424 40.0518 147.22 37.8721C149.036 35.6924 149.944 33.2604 149.944 30.5762C149.944 29.2441 149.601 28.1038 148.915 27.1553C148.249 26.1865 147.361 25.5104 146.251 25.127C145.161 24.7435 143.072 24.5518 139.984 24.5518Z" fill="url(#paint4_linear)"/>
<path d="M174.769 35.0566L175.768 36.3887C170.823 41.0911 166.585 43.4424 163.053 43.4424C161.62 43.4424 160.52 42.958 159.753 41.9893C159.006 41.0205 158.633 39.4665 158.633 37.3271C158.633 33.0081 159.945 28.7093 162.568 24.4307C165.515 19.5667 169.037 17.1348 173.134 17.1348C174.567 17.1348 175.657 17.498 176.403 18.2246C177.17 18.931 177.554 19.9098 177.554 21.1611C177.554 22.473 177.1 23.7646 176.191 25.0361C175.283 26.3076 173.659 27.6296 171.317 29.002C170.147 29.668 167.644 30.8688 163.81 32.6045C163.628 33.6943 163.537 34.7337 163.537 35.7227C163.537 37.1556 163.759 38.1546 164.203 38.7197C164.667 39.2848 165.333 39.5674 166.201 39.5674C167.029 39.5674 167.937 39.3353 168.926 38.8711C170.258 38.2454 172.205 36.974 174.769 35.0566ZM164.173 30.667C167.422 29.2139 169.864 27.6497 171.499 25.9746C172.609 24.804 173.164 23.6436 173.164 22.4932C173.164 21.6253 172.932 20.9391 172.468 20.4346C172.024 19.9098 171.438 19.6475 170.712 19.6475C169.965 19.6475 169.239 19.93 168.532 20.4951C167.584 21.2419 166.786 22.3721 166.141 23.8857C165.212 26.1058 164.556 28.3662 164.173 30.667Z" fill="url(#paint5_linear)"/>
<path d="M200.622 16.6807L202.62 16.2568L200.35 23.916C199.441 26.9635 198.584 30.4753 197.776 34.4512C197.332 36.6107 197.11 38.0033 197.11 38.6289C197.11 39.2546 197.363 39.5674 197.867 39.5674C198.19 39.5674 198.705 39.3555 199.411 38.9316C200.662 38.1849 201.863 37.2565 203.014 36.1465L203.982 37.3271C201.682 39.4261 200.208 40.6976 199.562 41.1416C198.271 42.0296 197.04 42.6855 195.869 43.1094C195.102 43.3919 194.355 43.5332 193.629 43.5332C193.104 43.5332 192.711 43.4121 192.448 43.1699C192.186 42.9277 192.055 42.5745 192.055 42.1104C192.055 41.8076 192.135 41.3939 192.297 40.8691L193.508 36.752C191.772 38.8307 189.703 40.6169 187.302 42.1104C185.828 43.0387 184.476 43.5029 183.245 43.5029C182.075 43.5029 181.176 43.0892 180.551 42.2617C179.703 41.1517 179.279 39.6986 179.279 37.9023C179.279 35.763 179.844 33.3815 180.975 30.7578C182.125 28.1341 183.659 25.7526 185.576 23.6133C187.493 21.474 189.512 19.8997 191.631 18.8906C193.266 18.1237 195.365 17.7402 197.928 17.7402C198.574 17.7402 199.229 17.7806 199.896 17.8613L200.622 16.6807ZM196.868 21.3125C195.778 21.0905 194.86 20.9795 194.113 20.9795C192.297 20.9795 190.713 21.484 189.36 22.4932C188.008 23.4821 186.747 25.2783 185.576 27.8818C184.426 30.4652 183.851 33.0485 183.851 35.6318C183.851 37.0042 184.083 37.9932 184.547 38.5986C185.011 39.2041 185.617 39.5068 186.363 39.5068C187.756 39.5068 189.249 38.7601 190.844 37.2666C192.438 35.7529 193.609 33.5833 194.355 30.7578L196.868 21.3125Z" fill="url(#paint6_linear)"/>
<path d="M226.476 18.0127H230.774L227.929 28.5781C226.254 34.7135 225.416 38.2051 225.416 39.0527C225.416 39.4362 225.507 39.7288 225.688 39.9307C225.87 40.1325 226.072 40.2334 226.294 40.2334C226.637 40.2334 227.041 40.082 227.505 39.7793C228.171 39.3151 229.432 38.1445 231.289 36.2676L232.288 37.3877C228.231 41.6058 225.244 43.7148 223.327 43.7148C222.681 43.7148 222.126 43.4626 221.662 42.958C221.218 42.4736 220.996 41.7773 220.996 40.8691C220.996 39.8197 221.218 38.417 221.662 36.6611C219.866 38.7197 217.646 40.526 215.002 42.0801C213.246 43.1094 211.722 43.624 210.431 43.624C209.724 43.624 209.169 43.3919 208.766 42.9277C208.362 42.4635 208.16 41.7269 208.16 40.7178C208.16 39.9307 208.251 39.083 208.433 38.1748C208.695 36.9033 209.361 34.3503 210.431 30.5156C211.783 25.6517 212.459 22.7354 212.459 21.7666C212.459 21.2015 212.257 20.9189 211.854 20.9189C211.49 20.9189 210.996 21.1107 210.37 21.4941C209.744 21.8574 208.675 22.7555 207.161 24.1885L205.829 23.1289C208.534 20.707 210.592 19.1227 212.005 18.376C213.438 17.609 214.588 17.2256 215.456 17.2256C215.94 17.2256 216.334 17.4072 216.637 17.7705C216.939 18.1136 217.091 18.6585 217.091 19.4053C217.091 20.7979 216.364 24.2188 214.911 29.668C213.619 34.5723 212.974 37.3675 212.974 38.0537C212.974 38.4775 213.105 38.8408 213.367 39.1436C213.65 39.4463 213.952 39.5977 214.275 39.5977C215.406 39.5977 217.01 38.6693 219.089 36.8125C221.168 34.9355 222.53 32.8063 223.176 30.4248L226.476 18.0127Z" fill="url(#paint7_linear)"/>
<path d="M243.005 12.5332L247.818 10.6865L245.639 19.1631H251.905L251.421 21.3125H245.154L242.49 31.4541C241.663 34.5016 241.249 36.6208 241.249 37.8115C241.249 38.3564 241.36 38.75 241.582 38.9922C241.824 39.2344 242.147 39.3555 242.551 39.3555C243.176 39.3555 244.135 38.9821 245.427 38.2354C247.122 37.2464 248.737 36.1263 250.271 34.875L251.421 36.2676C247.001 39.5977 244.044 41.6361 242.551 42.3828C241.057 43.1296 239.856 43.5029 238.948 43.5029C238.201 43.5029 237.606 43.2305 237.162 42.6855C236.738 42.1406 236.526 41.2526 236.526 40.0215C236.526 38.5684 236.91 36.3483 237.677 33.3613L240.795 21.3125H235.891L236.436 19.1631H241.31L243.005 12.5332Z" fill="url(#paint8_linear)"/>
<path d="M254.297 23.3408L253.328 21.918L255.568 20.4043C257.748 18.9108 259.282 17.9521 260.17 17.5283C260.674 17.2861 261.139 17.165 261.562 17.165C261.986 17.165 262.39 17.4072 262.773 17.8916C264.549 20.1318 266.043 23.1592 267.254 26.9736C268.465 30.7679 269.07 34.4512 269.07 38.0234C269.07 38.4876 269.05 39.194 269.01 40.1426C272.421 33.8659 274.126 28.8809 274.126 25.1875C274.126 24.4206 273.954 23.4014 273.611 22.1299C273.248 20.7171 273.066 19.708 273.066 19.1025C273.066 18.5173 273.248 18.0329 273.611 17.6494C273.995 17.266 274.469 17.0742 275.034 17.0742C275.741 17.0742 276.306 17.3467 276.729 17.8916C277.173 18.4365 277.396 19.2135 277.396 20.2227C277.396 22.8262 276.8 26.0755 275.609 29.9707C274.419 33.8457 272.542 38.0234 269.979 42.5039C267.436 46.9642 265.104 50.2741 262.985 52.4336C260.886 54.6133 258.848 56.1673 256.87 57.0957C254.912 58.0443 253.056 58.5186 251.3 58.5186C249.968 58.5186 248.969 58.2663 248.303 57.7617C247.617 57.2773 247.273 56.6921 247.273 56.0059C247.273 55.4004 247.536 54.8757 248.061 54.4316C248.585 54.0078 249.292 53.7959 250.18 53.7959C250.866 53.7959 251.804 53.9271 252.995 54.1895C254.267 54.472 255.134 54.6133 255.599 54.6133C256.83 54.6133 258.132 54.0986 259.504 53.0693C261.381 51.6566 262.864 49.9714 263.954 48.0137C265.064 46.056 265.619 44.0781 265.619 42.0801C265.619 39.2747 265.205 35.9043 264.378 31.9688C263.571 28.0332 262.42 25.026 260.927 22.9473C260.18 21.8776 259.383 21.3428 258.535 21.3428C257.546 21.3428 256.133 22.0088 254.297 23.3408Z" fill="url(#paint9_linear)"/>
<path d="M307.003 13.623L307.366 12.1699C309.667 12.0085 312.149 11.6048 314.813 10.959C314.107 13.0378 313.592 14.7129 313.27 15.9844L311.635 22.7354C315.207 22.7354 317.891 21.8473 319.688 20.0713C321.504 18.2751 322.412 16.1458 322.412 13.6836C322.412 11.9681 321.756 10.5856 320.444 9.53613C319.153 8.48665 317.215 7.96191 314.632 7.96191C310.979 7.96191 307.497 8.82975 304.188 10.5654C300.878 12.3011 298.294 14.5716 296.438 17.377C294.601 20.1621 293.683 22.9574 293.683 25.7627C293.683 26.5296 293.784 27.2461 293.985 27.9121C294.207 28.5579 294.52 29.1533 294.924 29.6982C295.166 30.0212 295.701 30.4652 296.528 31.0303C297.457 31.6761 298.032 32.1605 298.254 32.4834C298.476 32.7861 298.587 33.1494 298.587 33.5732C298.587 33.9971 298.425 34.3704 298.103 34.6934C297.8 34.9961 297.426 35.1475 296.982 35.1475C295.832 35.1475 294.661 34.3099 293.471 32.6348C292.3 30.9596 291.715 28.891 291.715 26.4287C291.715 23.0381 292.724 19.7585 294.742 16.5898C296.781 13.401 299.657 10.848 303.37 8.93066C307.084 7.01335 311.171 6.05469 315.631 6.05469C319.264 6.05469 322.019 6.77116 323.896 8.2041C325.793 9.63704 326.741 11.3828 326.741 13.4414C326.741 15.3991 326.105 17.1852 324.834 18.7998C323.562 20.3942 321.635 21.6253 319.052 22.4932C320.828 22.7757 322.23 23.2601 323.26 23.9463C324.289 24.6123 325.076 25.46 325.621 26.4893C326.186 27.5186 326.469 28.6992 326.469 30.0312C326.469 32.2109 325.823 34.2796 324.531 36.2373C323.26 38.1748 321.373 39.7894 318.87 41.0811C316.388 42.3525 313.794 42.9883 311.09 42.9883C310.303 42.9883 308.618 42.9076 306.034 42.7461C304.803 42.6855 303.511 42.6553 302.159 42.6553C300.101 42.6553 298.274 42.8167 296.68 43.1396L297.134 41.4746C299.253 41.3535 300.757 40.849 301.645 39.9609C302.553 39.0527 303.4 37.0648 304.188 33.9971L308.668 16.4082C308.85 15.6615 308.94 15.0964 308.94 14.7129C308.94 14.4102 308.809 14.1478 308.547 13.9258C308.305 13.6836 307.992 13.5625 307.608 13.5625C307.447 13.5625 307.245 13.5827 307.003 13.623ZM311.15 24.5518L309.606 30.6367C308.819 33.7852 308.062 36.207 307.336 37.9023C306.912 38.9115 306.367 39.7692 305.701 40.4756C307.518 40.9196 309.082 41.1416 310.394 41.1416C313.925 41.1416 316.59 40.0518 318.386 37.8721C320.202 35.6924 321.11 33.2604 321.11 30.5762C321.11 29.2441 320.767 28.1038 320.081 27.1553C319.415 26.1865 318.527 25.5104 317.417 25.127C316.327 24.7435 314.238 24.5518 311.15 24.5518Z" fill="url(#paint10_linear)"/>
<path d="M350.718 16.6807L352.716 16.2568L350.445 23.916C349.537 26.9635 348.679 30.4753 347.872 34.4512C347.428 36.6107 347.206 38.0033 347.206 38.6289C347.206 39.2546 347.458 39.5674 347.963 39.5674C348.286 39.5674 348.8 39.3555 349.507 38.9316C350.758 38.1849 351.959 37.2565 353.109 36.1465L354.078 37.3271C351.777 39.4261 350.304 40.6976 349.658 41.1416C348.367 42.0296 347.135 42.6855 345.965 43.1094C345.198 43.3919 344.451 43.5332 343.725 43.5332C343.2 43.5332 342.806 43.4121 342.544 43.1699C342.282 42.9277 342.15 42.5745 342.15 42.1104C342.15 41.8076 342.231 41.3939 342.393 40.8691L343.604 36.752C341.868 38.8307 339.799 40.6169 337.397 42.1104C335.924 43.0387 334.572 43.5029 333.341 43.5029C332.17 43.5029 331.272 43.0892 330.646 42.2617C329.799 41.1517 329.375 39.6986 329.375 37.9023C329.375 35.763 329.94 33.3815 331.07 30.7578C332.221 28.1341 333.755 25.7526 335.672 23.6133C337.589 21.474 339.607 19.8997 341.727 18.8906C343.361 18.1237 345.46 17.7402 348.023 17.7402C348.669 17.7402 349.325 17.7806 349.991 17.8613L350.718 16.6807ZM346.964 21.3125C345.874 21.0905 344.956 20.9795 344.209 20.9795C342.393 20.9795 340.808 21.484 339.456 22.4932C338.104 23.4821 336.842 25.2783 335.672 27.8818C334.521 30.4652 333.946 33.0485 333.946 35.6318C333.946 37.0042 334.178 37.9932 334.643 38.5986C335.107 39.2041 335.712 39.5068 336.459 39.5068C337.852 39.5068 339.345 38.7601 340.939 37.2666C342.534 35.7529 343.704 33.5833 344.451 30.7578L346.964 21.3125Z" fill="url(#paint11_linear)"/>
<path d="M364.583 12.5332L369.396 10.6865L367.217 19.1631H373.483L372.999 21.3125H366.732L364.068 31.4541C363.241 34.5016 362.827 36.6208 362.827 37.8115C362.827 38.3564 362.938 38.75 363.16 38.9922C363.402 39.2344 363.725 39.3555 364.129 39.3555C364.755 39.3555 365.713 38.9821 367.005 38.2354C368.7 37.2464 370.315 36.1263 371.849 34.875L372.999 36.2676C368.579 39.5977 365.622 41.6361 364.129 42.3828C362.635 43.1296 361.435 43.5029 360.526 43.5029C359.78 43.5029 359.184 43.2305 358.74 42.6855C358.316 42.1406 358.104 41.2526 358.104 40.0215C358.104 38.5684 358.488 36.3483 359.255 33.3613L362.373 21.3125H357.469L358.014 19.1631H362.888L364.583 12.5332Z" fill="url(#paint12_linear)"/>
<path d="M384.442 12.5332L389.256 10.6865L387.076 19.1631H393.343L392.858 21.3125H386.592L383.928 31.4541C383.1 34.5016 382.687 36.6208 382.687 37.8115C382.687 38.3564 382.798 38.75 383.02 38.9922C383.262 39.2344 383.585 39.3555 383.988 39.3555C384.614 39.3555 385.573 38.9821 386.864 38.2354C388.56 37.2464 390.174 36.1263 391.708 34.875L392.858 36.2676C388.438 39.5977 385.482 41.6361 383.988 42.3828C382.495 43.1296 381.294 43.5029 380.386 43.5029C379.639 43.5029 379.044 43.2305 378.6 42.6855C378.176 42.1406 377.964 41.2526 377.964 40.0215C377.964 38.5684 378.347 36.3483 379.114 33.3613L382.232 21.3125H377.328L377.873 19.1631H382.747L384.442 12.5332Z" fill="url(#paint13_linear)"/>
<path d="M408.419 35.3594L409.448 36.4492C407.874 38.2253 406.007 39.8499 403.848 41.3232C401.708 42.7764 399.942 43.5029 398.55 43.5029C397.924 43.5029 397.41 43.2607 397.006 42.7764C396.602 42.3122 396.4 41.6663 396.4 40.8389C396.4 39.2243 397.026 35.874 398.277 30.7881L401.547 17.498C402.738 12.6947 403.737 9.47559 404.544 7.84082C405.795 5.3584 407.561 3.43099 409.842 2.05859C412.143 0.686198 414.564 0 417.107 0C417.975 0 418.651 0.211914 419.136 0.635742C419.64 1.03939 419.893 1.53385 419.893 2.11914C419.893 2.76497 419.65 3.2998 419.166 3.72363C418.682 4.12728 417.975 4.3291 417.047 4.3291C416.441 4.3291 415.584 4.22819 414.474 4.02637C413.505 3.86491 412.607 3.78418 411.779 3.78418C410.952 3.78418 410.326 3.95573 409.902 4.29883C409.317 4.7832 408.782 5.80241 408.298 7.35645C407.834 8.91048 407.067 11.9782 405.997 16.5596L403 29.2441C401.507 35.6016 400.76 38.9216 400.76 39.2041C400.76 39.8499 400.992 40.1729 401.456 40.1729C401.9 40.1729 402.546 39.9105 403.394 39.3857C405.069 38.3363 406.744 36.9941 408.419 35.3594Z" fill="url(#paint14_linear)"/>
<path d="M426.583 35.0566L427.582 36.3887C422.637 41.0911 418.399 43.4424 414.867 43.4424C413.434 43.4424 412.334 42.958 411.567 41.9893C410.821 41.0205 410.447 39.4665 410.447 37.3271C410.447 33.0081 411.759 28.7093 414.383 24.4307C417.329 19.5667 420.851 17.1348 424.948 17.1348C426.381 17.1348 427.471 17.498 428.218 18.2246C428.985 18.931 429.368 19.9098 429.368 21.1611C429.368 22.473 428.914 23.7646 428.006 25.0361C427.098 26.3076 425.473 27.6296 423.132 29.002C421.961 29.668 419.459 30.8688 415.624 32.6045C415.442 33.6943 415.352 34.7337 415.352 35.7227C415.352 37.1556 415.574 38.1546 416.018 38.7197C416.482 39.2848 417.148 39.5674 418.016 39.5674C418.843 39.5674 419.751 39.3353 420.74 38.8711C422.072 38.2454 424.02 36.974 426.583 35.0566ZM415.987 30.667C419.237 29.2139 421.679 27.6497 423.313 25.9746C424.423 24.804 424.979 23.6436 424.979 22.4932C424.979 21.6253 424.746 20.9391 424.282 20.4346C423.838 19.9098 423.253 19.6475 422.526 19.6475C421.78 19.6475 421.053 19.93 420.347 20.4951C419.398 21.2419 418.601 22.3721 417.955 23.8857C417.027 26.1058 416.371 28.3662 415.987 30.667Z" fill="url(#paint15_linear)"/>
<defs>
<linearGradient id="paint0_linear" x1="429.368" y1="29.2593" x2="2.79917e-06" y2="29.2593" gradientUnits="userSpaceOnUse">
<stop stop-color="#DC802C"/>
<stop offset="1" stop-color="#FFCF31"/>
</linearGradient>
<linearGradient id="paint1_linear" x1="429.368" y1="29.2593" x2="2.79917e-06" y2="29.2593" gradientUnits="userSpaceOnUse">
<stop stop-color="#DC802C"/>
<stop offset="1" stop-color="#FFCF31"/>
</linearGradient>
<linearGradient id="paint2_linear" x1="429.368" y1="29.2593" x2="2.79917e-06" y2="29.2593" gradientUnits="userSpaceOnUse">
<stop stop-color="#DC802C"/>
<stop offset="1" stop-color="#FFCF31"/>
</linearGradient>
<linearGradient id="paint3_linear" x1="429.368" y1="29.2593" x2="2.79917e-06" y2="29.2593" gradientUnits="userSpaceOnUse">
<stop stop-color="#DC802C"/>
<stop offset="1" stop-color="#FFCF31"/>
</linearGradient>
<linearGradient id="paint4_linear" x1="429.368" y1="29.2593" x2="2.79917e-06" y2="29.2593" gradientUnits="userSpaceOnUse">
<stop stop-color="#DC802C"/>
<stop offset="1" stop-color="#FFCF31"/>
</linearGradient>
<linearGradient id="paint5_linear" x1="429.368" y1="29.2593" x2="2.79917e-06" y2="29.2593" gradientUnits="userSpaceOnUse">
<stop stop-color="#DC802C"/>
<stop offset="1" stop-color="#FFCF31"/>
</linearGradient>
<linearGradient id="paint6_linear" x1="429.368" y1="29.2593" x2="2.79917e-06" y2="29.2593" gradientUnits="userSpaceOnUse">
<stop stop-color="#DC802C"/>
<stop offset="1" stop-color="#FFCF31"/>
</linearGradient>
<linearGradient id="paint7_linear" x1="429.368" y1="29.2593" x2="2.79917e-06" y2="29.2593" gradientUnits="userSpaceOnUse">
<stop stop-color="#DC802C"/>
<stop offset="1" stop-color="#FFCF31"/>
</linearGradient>
<linearGradient id="paint8_linear" x1="429.368" y1="29.2593" x2="2.79917e-06" y2="29.2593" gradientUnits="userSpaceOnUse">
<stop stop-color="#DC802C"/>
<stop offset="1" stop-color="#FFCF31"/>
</linearGradient>
<linearGradient id="paint9_linear" x1="429.368" y1="29.2593" x2="2.79917e-06" y2="29.2593" gradientUnits="userSpaceOnUse">
<stop stop-color="#DC802C"/>
<stop offset="1" stop-color="#FFCF31"/>
</linearGradient>
<linearGradient id="paint10_linear" x1="429.368" y1="29.2593" x2="2.79917e-06" y2="29.2593" gradientUnits="userSpaceOnUse">
<stop stop-color="#DC802C"/>
<stop offset="1" stop-color="#FFCF31"/>
</linearGradient>
<linearGradient id="paint11_linear" x1="429.368" y1="29.2593" x2="2.79917e-06" y2="29.2593" gradientUnits="userSpaceOnUse">
<stop stop-color="#DC802C"/>
<stop offset="1" stop-color="#FFCF31"/>
</linearGradient>
<linearGradient id="paint12_linear" x1="429.368" y1="29.2593" x2="2.79917e-06" y2="29.2593" gradientUnits="userSpaceOnUse">
<stop stop-color="#DC802C"/>
<stop offset="1" stop-color="#FFCF31"/>
</linearGradient>
<linearGradient id="paint13_linear" x1="429.368" y1="29.2593" x2="2.79917e-06" y2="29.2593" gradientUnits="userSpaceOnUse">
<stop stop-color="#DC802C"/>
<stop offset="1" stop-color="#FFCF31"/>
</linearGradient>
<linearGradient id="paint14_linear" x1="429.368" y1="29.2593" x2="2.79917e-06" y2="29.2593" gradientUnits="userSpaceOnUse">
<stop stop-color="#DC802C"/>
<stop offset="1" stop-color="#FFCF31"/>
</linearGradient>
<linearGradient id="paint15_linear" x1="429.368" y1="29.2593" x2="2.79917e-06" y2="29.2593" gradientUnits="userSpaceOnUse">
<stop stop-color="#DC802C"/>
<stop offset="1" stop-color="#FFCF31"/>
</linearGradient>
</defs>
</svg>
