<svg width="469" height="55" viewBox="0 0 469 55" fill="none" xmlns="http://www.w3.org/2000/svg">
<path d="M26.3742 40.0972L23.9817 7.23765C23.4633 12.7753 22.5063 17.9465 21.1106 22.7512C19.7149 27.5356 18.1299 31.241 16.3554 33.8673C14.5809 36.4733 12.7665 38.3056 10.9123 39.3642C9.05806 40.4229 7.22376 40.9522 5.4094 40.9522C4.31281 40.9522 3.46544 40.7181 2.8673 40.2499C2.2891 39.802 2 39.2523 2 38.6008C2 38.0511 2.20935 37.5726 2.62805 37.1655C3.06668 36.7583 3.61498 36.5547 4.27293 36.5547C4.75145 36.5547 5.43931 36.6667 6.33652 36.8906C7.15398 37.1146 7.83187 37.2265 8.3702 37.2265C9.30729 37.2265 10.2842 36.8703 11.3011 36.1577C12.8363 35.099 14.3516 33.2056 15.847 30.4775C17.3622 27.729 18.7081 23.9117 19.8844 19.0255C21.0807 14.119 21.8284 9.33463 22.1274 4.6724C17.6015 4.6724 13.9229 5.82269 11.0917 8.12326C8.83874 9.95558 7.71224 12.0017 7.71224 14.2615C7.71224 15.2591 8.25057 16.4603 9.32722 17.8651C9.90543 18.6184 10.1945 19.2291 10.1945 19.6974C10.1945 20.2267 10.0251 20.6644 9.68611 21.0105C9.3671 21.3567 8.97831 21.5297 8.51973 21.5297C7.74215 21.5297 7.05429 21.0818 6.45615 20.186C5.63869 18.9848 5.22996 17.5597 5.22996 15.9106C5.22996 13.5897 5.9876 11.3705 7.50289 9.25319C9.03812 7.11549 11.1516 5.49695 13.8432 4.39756C16.5548 3.27781 19.7249 2.70775 23.3536 2.6874C25.3075 2.6874 26.8727 2.50416 28.049 2.1377C27.9892 3.97002 27.9593 4.95743 27.9593 5.09994C27.9593 5.28318 27.9892 5.70054 28.049 6.35203L29.8135 29.5614C34.6186 20.9902 39.314 13.9358 43.8998 8.39811C47.1497 4.46881 49.9809 1.81196 52.3934 0.42754C51.0176 4.29576 49.5422 9.39571 47.9671 15.7274L44.3185 30.3859C44.1191 31.2003 43.8499 32.3913 43.511 33.9589L42.7932 37.2265C44.3085 37.593 45.6942 37.7762 46.9503 37.7762C47.9671 37.7762 49.0537 37.6541 50.2101 37.4098L49.8213 39.181C48.8045 39.3642 48.017 39.4559 47.4587 39.4559C46.6412 39.4559 45.4649 39.3642 43.9297 39.181C42.6736 39.0181 41.557 38.9367 40.5801 38.9367C39.5433 38.9367 38.367 39.1403 37.051 39.5475C38.1476 36.6158 39.2941 32.6763 40.4904 27.729L42.7932 18.3842C43.7702 14.3531 44.6175 11.5843 45.3353 10.0777C43.7402 11.9304 41.2779 15.3304 37.9483 20.2776C35.2766 24.268 32.2859 29.317 28.9761 35.4248L26.3742 40.0972Z" fill="#761B2B"/>
<path d="M67.5263 0C68.1444 0 68.6528 0.21377 69.0516 0.64131C69.4503 1.04849 69.6497 1.57783 69.6497 2.22932C69.6497 3.12512 69.3407 3.91912 68.7226 4.61133C68.1245 5.28318 67.4466 5.6191 66.6889 5.6191C66.0908 5.6191 65.5923 5.40533 65.1936 4.97779C64.7948 4.55025 64.5954 3.99038 64.5954 3.29817C64.5954 2.38201 64.8845 1.60837 65.4627 0.977235C66.0409 0.325745 66.7288 0 67.5263 0ZM55.7429 20.2165L54.427 19.1782C56.4208 16.9387 58.2352 15.3507 59.8701 14.4142C61.525 13.4573 62.9306 12.9789 64.087 12.9789C64.725 12.9789 65.2135 13.1214 65.5524 13.4064C65.8914 13.6915 66.0609 14.0783 66.0609 14.5669C66.0609 15.1573 65.4129 17.6615 64.1169 22.0794C62.0035 29.3069 60.9468 33.6637 60.9468 35.1499C60.9468 35.4349 61.0165 35.6793 61.1561 35.8828C61.2957 36.0661 61.4452 36.1577 61.6047 36.1577C62.2427 36.1577 63.8776 34.8954 66.5095 32.3709L67.6758 33.5314C64.9443 36.1577 62.9505 37.8373 61.6944 38.5702C60.4383 39.3032 59.4115 39.6696 58.614 39.6696C57.9162 39.6696 57.3579 39.4457 56.9392 38.9978C56.5405 38.5499 56.3411 37.9289 56.3411 37.1349C56.3411 34.59 57.8364 28.3703 60.8271 18.4758C60.9667 18.0076 61.0365 17.5902 61.0365 17.2238C61.0365 16.8166 60.857 16.613 60.4982 16.613C60.0994 16.613 59.6408 16.7759 59.1224 17.1016C58.624 17.4274 57.4975 18.4657 55.7429 20.2165Z" fill="#761B2B"/>
<path d="M82.6294 13.1011C84.4038 13.1011 85.7696 13.4573 86.7266 14.1699C87.7036 14.8621 88.1921 15.6663 88.1921 16.5825C88.1921 17.1321 87.9827 17.6106 87.564 18.0178C87.1653 18.4249 86.6768 18.6285 86.0986 18.6285C85.7198 18.6285 85.3908 18.5471 85.1116 18.3842C84.8325 18.201 84.4338 17.7633 83.9154 17.0711C82.9384 15.7477 81.9714 15.0861 81.0144 15.0861C80.1969 15.0861 79.4692 15.4118 78.8312 16.0633C78.2131 16.6944 77.9041 17.4884 77.9041 18.4453C77.9041 19.28 78.1034 20.0944 78.5022 20.8884C78.9009 21.662 79.9078 22.9243 81.5228 24.6752C83.7359 27.0775 84.8425 29.3578 84.8425 31.5158C84.8425 33.6739 83.9453 35.5673 82.1508 37.196C80.3564 38.8044 78.0436 39.6086 75.2124 39.6086C72.8398 39.6086 71.0753 39.1199 69.9189 38.1427C68.7625 37.1451 68.1843 35.9236 68.1843 34.4781C68.1843 33.7655 68.4036 33.1751 68.8422 32.7068C69.2809 32.2386 69.8192 32.0044 70.4572 32.0044C71.0155 32.0044 71.494 32.1979 71.8927 32.5847C72.2915 32.9511 72.4909 33.3889 72.4909 33.8978C72.4909 34.1014 72.4709 34.3661 72.4311 34.6918C72.4111 34.9565 72.4012 35.1805 72.4012 35.3637C72.4012 36.0355 72.6803 36.6056 73.2386 37.0738C73.7769 37.5421 74.5146 37.7762 75.4517 37.7762C76.5283 37.7762 77.4754 37.593 78.2928 37.2265C79.1103 36.8397 79.7483 36.2697 80.2069 35.5164C80.6655 34.7427 80.8948 33.9793 80.8948 33.226C80.8948 32.4931 80.6754 31.7601 80.2368 31.0272C79.8181 30.2943 78.8611 29.0829 77.3657 27.3931C75.2922 25.0315 74.2554 22.7614 74.2554 20.583C74.2554 18.5878 75.0429 16.8471 76.618 15.3609C78.1932 13.8543 80.1969 13.1011 82.6294 13.1011Z" fill="#761B2B"/>
<path d="M102.248 13.1011C104.023 13.1011 105.389 13.4573 106.346 14.1699C107.323 14.8621 107.811 15.6663 107.811 16.5825C107.811 17.1321 107.602 17.6106 107.183 18.0178C106.784 18.4249 106.296 18.6285 105.718 18.6285C105.339 18.6285 105.01 18.5471 104.731 18.3842C104.452 18.201 104.053 17.7633 103.534 17.0711C102.557 15.7477 101.59 15.0861 100.633 15.0861C99.8159 15.0861 99.0882 15.4118 98.4502 16.0633C97.8321 16.6944 97.5231 17.4884 97.5231 18.4453C97.5231 19.28 97.7225 20.0944 98.1212 20.8884C98.52 21.662 99.5268 22.9243 101.142 24.6752C103.355 27.0775 104.461 29.3578 104.461 31.5158C104.461 33.6739 103.564 35.5673 101.77 37.196C99.9754 38.8044 97.6626 39.6086 94.8314 39.6086C92.4588 39.6086 90.6943 39.1199 89.5379 38.1427C88.3815 37.1451 87.8033 35.9236 87.8033 34.4781C87.8033 33.7655 88.0226 33.1751 88.4612 32.7068C88.8999 32.2386 89.4382 32.0044 90.0762 32.0044C90.6345 32.0044 91.113 32.1979 91.5117 32.5847C91.9105 32.9511 92.1099 33.3889 92.1099 33.8978C92.1099 34.1014 92.09 34.3661 92.0501 34.6918C92.0301 34.9565 92.0202 35.1805 92.0202 35.3637C92.0202 36.0355 92.2993 36.6056 92.8576 37.0738C93.3959 37.5421 94.1336 37.7762 95.0707 37.7762C96.1473 37.7762 97.0944 37.593 97.9119 37.2265C98.7293 36.8397 99.3673 36.2697 99.8259 35.5164C100.284 34.7427 100.514 33.9793 100.514 33.226C100.514 32.4931 100.294 31.7601 99.8558 31.0272C99.4371 30.2943 98.4801 29.0829 96.9847 27.3931C94.9112 25.0315 93.8744 22.7614 93.8744 20.583C93.8744 18.5878 94.662 16.8471 96.2371 15.3609C97.8122 13.8543 99.8159 13.1011 102.248 13.1011Z" fill="#761B2B"/>
<path d="M146.002 2.6874L145.494 4.33648C143.241 4.47899 141.746 4.76402 141.008 5.19156C140.529 5.47659 140.131 5.90413 139.812 6.47418C139.433 7.20711 138.326 11.0957 136.492 18.1399C135.894 20.4609 134.369 26.8027 131.916 37.1655C133.312 37.6337 135.076 37.8373 137.21 37.7762L136.731 39.2421C136.093 39.2624 134.817 39.181 132.903 38.9978C131.527 38.8756 129.922 38.8145 128.088 38.8145C125.556 38.8145 123.233 39.008 121.12 39.3948L121.479 37.7762C123.672 37.4301 125.337 36.9822 126.473 36.4325C126.752 36.29 126.972 36.117 127.131 35.9134C127.43 35.5469 127.749 34.814 128.088 33.7146C128.447 32.5949 129.643 28.0548 131.677 20.0944C132.275 17.7938 133.491 12.7651 135.326 5.00833C133.95 4.96761 132.265 5.16102 130.271 5.58856L130.839 3.90894C131.677 3.68499 132.534 3.5323 133.411 3.45086C134.289 3.34907 136.273 3.25745 139.363 3.17601C142.254 3.09458 144.467 2.9317 146.002 2.6874Z" fill="#761B2B"/>
<path d="M146.361 20.2776L145.344 19.2088C147.896 16.725 149.93 15.0759 151.445 14.2615C152.961 13.4472 154.257 13.04 155.333 13.04C155.752 13.04 156.081 13.1316 156.32 13.3148C156.56 13.4981 156.679 13.7118 156.679 13.9561C156.679 14.1394 156.629 14.4651 156.53 14.9334L155.184 21.0716C157.217 18.7711 159.77 16.6232 162.84 14.628C164.475 13.5897 165.821 13.0705 166.877 13.0705C167.655 13.0705 168.263 13.325 168.702 13.834C169.14 14.343 169.36 15.0759 169.36 16.0328C169.36 16.6639 169.27 17.3765 169.091 18.1705C168.772 19.4938 167.934 22.3746 166.578 26.8129C165.302 30.9661 164.664 33.7248 164.664 35.0888C164.664 35.496 164.724 35.8014 164.844 36.005C164.963 36.2086 165.133 36.3104 165.352 36.3104C165.93 36.3104 166.838 35.7403 168.074 34.6002C168.951 33.7859 169.828 33.0326 170.706 32.3404L171.453 33.4398C169.619 35.5164 167.715 37.1858 165.741 38.4481C164.485 39.2624 163.448 39.6696 162.631 39.6696C161.873 39.6696 161.285 39.3846 160.866 38.8145C160.447 38.2649 160.238 37.3589 160.238 36.0966C160.238 34.2847 161.345 29.7751 163.558 22.568C164.236 20.0028 164.575 18.5064 164.575 18.0788C164.575 17.4477 164.206 17.1321 163.468 17.1321C162.671 17.1321 161.644 17.5597 160.388 18.4148C158.513 19.677 156.948 21.1632 155.692 22.8734C154.895 23.9728 154.227 25.7237 153.688 28.126L151.266 38.784H146.81C147.647 35.7301 148.375 32.8086 148.993 30.0194L151.655 18.4148C151.754 17.9465 151.804 17.6106 151.804 17.407C151.804 16.8573 151.605 16.5825 151.206 16.5825C150.887 16.5825 150.429 16.7962 149.83 17.2238C148.594 18.0585 147.438 19.0764 146.361 20.2776Z" fill="#761B2B"/>
<path d="M186.766 13.1011C188.54 13.1011 189.906 13.4573 190.863 14.1699C191.84 14.8621 192.328 15.6663 192.328 16.5825C192.328 17.1321 192.119 17.6106 191.7 18.0178C191.302 18.4249 190.813 18.6285 190.235 18.6285C189.856 18.6285 189.527 18.5471 189.248 18.3842C188.969 18.201 188.57 17.7633 188.052 17.0711C187.075 15.7477 186.108 15.0861 185.151 15.0861C184.333 15.0861 183.605 15.4118 182.967 16.0633C182.349 16.6944 182.04 17.4884 182.04 18.4453C182.04 19.28 182.24 20.0944 182.638 20.8884C183.037 21.662 184.044 22.9243 185.659 24.6752C187.872 27.0775 188.979 29.3578 188.979 31.5158C188.979 33.6739 188.082 35.5673 186.287 37.196C184.493 38.8044 182.18 39.6086 179.349 39.6086C176.976 39.6086 175.212 39.1199 174.055 38.1427C172.899 37.1451 172.321 35.9236 172.321 34.4781C172.321 33.7655 172.54 33.1751 172.979 32.7068C173.417 32.2386 173.955 32.0044 174.593 32.0044C175.152 32.0044 175.63 32.1979 176.029 32.5847C176.428 32.9511 176.627 33.3889 176.627 33.8978C176.627 34.1014 176.607 34.3661 176.567 34.6918C176.547 34.9565 176.537 35.1805 176.537 35.3637C176.537 36.0355 176.817 36.6056 177.375 37.0738C177.913 37.5421 178.651 37.7762 179.588 37.7762C180.665 37.7762 181.612 37.593 182.429 37.2265C183.247 36.8397 183.885 36.2697 184.343 35.5164C184.802 34.7427 185.031 33.9793 185.031 33.226C185.031 32.4931 184.812 31.7601 184.373 31.0272C183.954 30.2943 182.997 29.0829 181.502 27.3931C179.428 25.0315 178.392 22.7614 178.392 20.583C178.392 18.5878 179.179 16.8471 180.754 15.3609C182.329 13.8543 184.333 13.1011 186.766 13.1011Z" fill="#761B2B"/>
<path d="M201.629 8.42865L206.385 6.5658L204.231 15.1166H210.422L209.944 17.2848H203.753L201.121 27.5153C200.304 30.5895 199.895 32.7272 199.895 33.9284C199.895 34.4781 200.005 34.8751 200.224 35.1194C200.463 35.3637 200.782 35.4858 201.181 35.4858C201.799 35.4858 202.746 35.1092 204.022 34.3559C205.697 33.3583 207.292 32.2284 208.807 30.9661L209.944 32.3709C205.577 35.7301 202.656 37.7864 201.181 38.5397C199.705 39.293 198.519 39.6696 197.622 39.6696C196.884 39.6696 196.296 39.3948 195.857 38.8451C195.439 38.2954 195.229 37.3996 195.229 36.1577C195.229 34.6918 195.608 32.4523 196.366 29.4392L199.446 17.2848H194.601L195.14 15.1166H199.955L201.629 8.42865Z" fill="#761B2B"/>
<path d="M233.271 12.6124L235.245 12.1849L233.002 19.9112C232.105 22.9854 231.257 26.5279 230.46 30.5386C230.021 32.717 229.802 34.1218 229.802 34.7529C229.802 35.384 230.051 35.6996 230.55 35.6996C230.869 35.6996 231.377 35.4858 232.075 35.0583C233.311 34.305 234.497 33.3685 235.634 32.2487L236.591 33.4398C234.318 35.5571 232.862 36.8397 232.224 37.2876C230.948 38.1834 229.732 38.8451 228.576 39.2726C227.818 39.5577 227.08 39.7002 226.363 39.7002C225.844 39.7002 225.455 39.578 225.196 39.3337C224.937 39.0894 224.807 38.7331 224.807 38.2649C224.807 37.9595 224.887 37.5421 225.047 37.0128L226.243 32.8595C224.528 34.9565 222.485 36.7583 220.112 38.2649C218.657 39.2014 217.321 39.6696 216.104 39.6696C214.948 39.6696 214.061 39.2523 213.443 38.4175C212.605 37.2978 212.187 35.8319 212.187 34.02C212.187 31.8619 212.745 29.4596 213.861 26.8129C214.998 24.1662 216.513 21.7638 218.407 19.6058C220.301 17.4477 222.295 15.8597 224.389 14.8418C226.004 14.0681 228.077 13.6813 230.609 13.6813C231.247 13.6813 231.895 13.722 232.553 13.8034L233.271 12.6124ZM229.563 17.2848C228.486 17.0609 227.579 16.9489 226.841 16.9489C225.047 16.9489 223.482 17.4579 222.146 18.4758C220.81 19.4734 219.564 21.2854 218.407 23.9117C217.271 26.5177 216.703 29.1236 216.703 31.7296C216.703 33.114 216.932 34.1116 217.39 34.7224C217.849 35.3331 218.447 35.6385 219.185 35.6385C220.561 35.6385 222.036 34.8852 223.611 33.3787C225.186 31.8517 226.343 29.6631 227.08 26.8129L229.563 17.2848Z" fill="#761B2B"/>
<path d="M258.722 12.9178L261.144 12.3681C259.689 17.1321 258.353 21.9063 257.137 26.6907C256.26 30.111 255.652 32.9613 255.313 35.2415C255.133 36.3816 255.033 37.8271 255.014 39.578C254.974 42.5097 254.655 44.8714 254.056 46.663C253.219 49.1671 251.654 51.1827 249.361 52.7096C247.088 54.2365 244.387 55 241.256 55C238.565 55 236.441 54.3485 234.886 53.0455C233.351 51.7629 232.583 50.2869 232.583 48.6174C232.583 46.9683 233.201 45.4312 234.437 44.0061C235.355 42.9271 237.269 41.6241 240.18 40.0972C241.655 39.3032 243.041 38.4888 244.337 37.6541C242.861 38.4277 241.715 38.8145 240.897 38.8145C240.16 38.8145 239.502 38.4684 238.924 37.7762C238.365 37.0637 238.086 36.1271 238.086 34.9667C238.086 31.2206 239.173 27.5051 241.346 23.8201C243.539 20.1147 246.171 17.3357 249.241 15.4831C251.136 14.343 253.508 13.7729 256.359 13.7729C256.918 13.7729 257.605 13.7933 258.423 13.834L258.722 12.9178ZM255.372 17.4375C254.415 17.2543 253.568 17.1627 252.83 17.1627C250.936 17.1627 249.311 17.6717 247.955 18.6896C246.6 19.7076 245.443 21.4177 244.486 23.8201C243.15 27.2201 242.482 30.0805 242.482 32.4014C242.482 33.3583 242.742 34.1625 243.26 34.814C243.798 35.4655 244.396 35.7912 245.054 35.7912C245.852 35.7912 246.839 35.4044 248.015 34.6308C249.192 33.8368 250.149 32.8493 250.886 31.6685C251.644 30.4877 252.412 28.4518 253.189 25.5608L255.372 17.4375ZM251.305 34.0811C249.949 35.323 247.337 37.308 243.469 40.0361C240.06 42.3977 237.966 44.0977 237.189 45.136C236.411 46.1947 236.023 47.3145 236.023 48.4953C236.023 49.6557 236.521 50.6941 237.518 51.6102C238.535 52.5467 239.761 53.015 241.196 53.015C242.552 53.015 243.868 52.6689 245.144 51.9767C246.42 51.3048 247.527 50.3174 248.464 49.0144C249.421 47.7318 250.079 46.2761 250.438 44.6474C250.797 43.0187 250.986 40.8606 251.006 38.1732C251.026 37.5828 251.126 36.2188 251.305 34.0811Z" fill="#761B2B"/>
<path d="M268.651 38.8145H264.195L266.288 30.5997C267.305 26.5686 268.193 22.7411 268.95 19.1172C269.13 18.2214 269.219 17.6615 269.219 17.4375C269.219 16.9489 269 16.7046 268.561 16.7046C268.262 16.7046 267.804 16.9184 267.186 17.3459C266.568 17.7531 265.451 18.7812 263.836 20.4303L262.909 19.3615C264.823 17.2645 266.727 15.6968 268.621 14.6585C270.535 13.5999 272.001 13.0705 273.018 13.0705C273.376 13.0705 273.656 13.1621 273.855 13.3454C274.074 13.5082 274.184 13.722 274.184 13.9867C274.184 14.2513 274.054 14.9537 273.795 16.0938L272.509 21.5602C274.523 18.3232 276.796 15.5543 279.328 13.2537C280.544 12.1544 281.561 11.6047 282.378 11.6047C282.977 11.6047 283.475 11.8083 283.874 12.2154C284.273 12.6023 284.472 13.0603 284.472 13.5897C284.472 14.1394 284.273 14.6076 283.874 14.9944C283.495 15.3813 282.528 15.8393 280.973 16.3687C279.497 16.8777 278.291 17.4884 277.354 18.201C276.437 18.9136 275.42 20.0028 274.304 21.4686C273.207 22.9345 272.439 24.2171 272.001 25.3165C271.562 26.3955 270.894 28.92 269.997 32.8901L268.651 38.8145Z" fill="#761B2B"/>
<path d="M301.878 12.6124L303.852 12.1849L301.609 19.9112C300.711 22.9854 299.864 26.5279 299.067 30.5386C298.628 32.717 298.409 34.1218 298.409 34.7529C298.409 35.384 298.658 35.6996 299.156 35.6996C299.475 35.6996 299.984 35.4858 300.682 35.0583C301.918 34.305 303.104 33.3685 304.24 32.2487L305.198 33.4398C302.925 35.5571 301.469 36.8397 300.831 37.2876C299.555 38.1834 298.339 38.8451 297.182 39.2726C296.425 39.5577 295.687 39.7002 294.969 39.7002C294.451 39.7002 294.062 39.578 293.803 39.3337C293.544 39.0894 293.414 38.7331 293.414 38.2649C293.414 37.9595 293.494 37.5421 293.653 37.0128L294.85 32.8595C293.135 34.9565 291.091 36.7583 288.719 38.2649C287.263 39.2014 285.927 39.6696 284.711 39.6696C283.555 39.6696 282.668 39.2523 282.049 38.4175C281.212 37.2978 280.793 35.8319 280.793 34.02C280.793 31.8619 281.352 29.4596 282.468 26.8129C283.605 24.1662 285.12 21.7638 287.014 19.6058C288.908 17.4477 290.902 15.8597 292.995 14.8418C294.61 14.0681 296.684 13.6813 299.216 13.6813C299.854 13.6813 300.502 13.722 301.16 13.8034L301.878 12.6124ZM298.169 17.2848C297.093 17.0609 296.186 16.9489 295.448 16.9489C293.653 16.9489 292.088 17.4579 290.752 18.4758C289.417 19.4734 288.17 21.2854 287.014 23.9117C285.878 26.5177 285.309 29.1236 285.309 31.7296C285.309 33.114 285.539 34.1116 285.997 34.7224C286.456 35.3331 287.054 35.6385 287.792 35.6385C289.167 35.6385 290.643 34.8852 292.218 33.3787C293.793 31.8517 294.949 29.6631 295.687 26.8129L298.169 17.2848Z" fill="#761B2B"/>
<path d="M308.009 20.1555L307.112 18.9339C309.085 16.9184 310.96 15.4322 312.734 14.4753C314.509 13.5184 315.904 13.04 316.921 13.04C317.34 13.04 317.649 13.1316 317.848 13.3148C318.068 13.4981 318.177 13.7525 318.177 14.0783C318.177 14.4855 318.018 15.2693 317.699 16.4298C317.24 18.1399 316.921 19.4938 316.742 20.4914C321.527 15.5238 325.185 13.04 327.717 13.04C328.375 13.04 328.874 13.2232 329.213 13.5897C329.552 13.9561 329.721 14.5364 329.721 15.3304C329.721 16.1855 329.422 17.6411 328.824 19.6974C331.097 17.2747 333.071 15.5645 334.746 14.5669C336.42 13.549 337.726 13.04 338.663 13.04C339.501 13.04 340.149 13.2843 340.607 13.7729C341.066 14.2615 341.295 15.0148 341.295 16.0328C341.295 16.6435 341.196 17.3663 340.996 18.201C340.797 19.0357 340.069 21.5806 338.813 25.8356C337.238 31.1086 336.45 34.2541 336.45 35.2721C336.45 35.9643 336.729 36.3104 337.288 36.3104C337.667 36.3104 338.035 36.1882 338.394 35.9439C339.571 35.0888 340.777 34.0302 342.013 32.7679L343 33.8673C342.581 34.2134 341.794 34.926 340.637 36.005C339.042 37.4708 337.946 38.387 337.348 38.7535C336.191 39.4457 335.214 39.7918 334.417 39.7918C333.819 39.7918 333.29 39.4864 332.832 38.8756C332.373 38.2852 332.144 37.4607 332.144 36.402C332.144 35.4248 332.283 34.2847 332.562 32.9817C332.842 31.6583 333.659 28.7063 335.015 24.1255C336.032 20.6848 336.54 18.598 336.54 17.8651C336.54 17.1729 336.241 16.8268 335.643 16.8268C335.144 16.8268 334.477 17.0813 333.639 17.5902C331.924 18.6489 330.489 19.9417 329.332 21.4686C328.535 22.5273 327.837 24.2069 327.239 26.5075C325.903 31.5362 324.906 35.6385 324.248 38.8145H320.001L324.458 20.1555C324.777 18.8118 324.936 18.0381 324.936 17.8345C324.936 17.5088 324.856 17.2645 324.697 17.1016C324.537 16.9184 324.308 16.8268 324.009 16.8268C323.471 16.8268 322.633 17.2543 321.497 18.1094C319.523 19.5549 318.097 20.9597 317.22 22.3237C316.363 23.6674 315.625 25.7237 315.007 28.4925L312.704 38.8145H308.427L311.807 24.2476C312.804 20.0333 313.302 17.7429 313.302 17.3765C313.302 16.9082 313.123 16.6741 312.764 16.6741C311.986 16.6741 310.401 17.8345 308.009 20.1555Z" fill="#761B2B"/>
<path d="M369.506 12.0249L367.987 11.2803C369.556 8.16276 371.174 6.0083 372.842 4.81689C374.53 3.60563 376.416 3 378.501 3C381.003 3 382.999 3.79427 384.488 5.38281C385.977 6.97135 386.722 8.82796 386.722 10.9526C386.722 12.2632 386.454 13.5936 385.917 14.9438C385.381 16.2941 384.498 17.7039 383.267 19.1733C382.472 20.1463 380.288 22.1618 376.714 25.2197C371.909 29.3896 368.533 32.7554 366.587 35.3169C369.188 35.1978 371.869 35.1382 374.629 35.1382C375.522 35.1382 376.297 35.1481 376.952 35.168C378.402 35.2275 379.395 35.0885 379.931 34.751C380.467 34.4134 381.35 33.2816 382.582 31.3555H384.637C383.028 33.5794 381.628 36.3097 380.437 39.5464C379.027 39.2882 377.538 39.0897 375.969 38.9507C374.401 38.8315 372.752 38.772 371.025 38.772C368.98 38.772 365.971 38.901 362 39.1592L362.596 37.2827C364.403 34.6021 367.103 31.5739 370.697 28.1982C374.252 24.8623 376.545 22.5291 377.578 21.1987C379.067 19.2726 380.149 17.4557 380.824 15.748C381.34 14.4772 381.599 13.2461 381.599 12.0547C381.599 10.2676 381.112 8.83789 380.139 7.76562C379.166 6.69336 377.965 6.15723 376.535 6.15723C375.344 6.15723 374.172 6.58415 373.021 7.43799C371.889 8.29183 370.717 9.8208 369.506 12.0249Z" fill="#761B2B"/>
<path d="M405.308 3.08936C408.147 3.08936 410.421 4.13184 412.128 6.2168C413.856 8.30176 414.72 11.4193 414.72 15.5693C414.72 21.4668 413.23 26.9572 410.252 32.0405C407.293 37.104 403.699 39.6357 399.47 39.6357C396.988 39.6357 394.883 38.5535 393.155 36.3892C391.448 34.2248 390.594 31.276 390.594 27.543C390.594 23.1546 391.448 18.8656 393.155 14.6758C394.863 10.4661 396.789 7.48763 398.934 5.74023C401.078 3.97298 403.203 3.08936 405.308 3.08936ZM404.771 4.84668C403.54 4.84668 402.279 5.67074 400.989 7.31885C399.718 8.9471 398.536 11.9455 397.444 16.314C396.372 20.6626 395.836 24.8127 395.836 28.7642C395.836 31.9412 396.293 34.2546 397.206 35.7041C398.139 37.1536 399.202 37.8784 400.393 37.8784C401.445 37.8784 402.488 37.3522 403.521 36.2998C405.049 34.7311 406.43 31.7824 407.661 27.4536C408.892 23.105 409.507 18.7365 409.507 14.3481C409.507 10.9526 408.991 8.41097 407.958 6.72314C407.184 5.47217 406.122 4.84668 404.771 4.84668Z" fill="#761B2B"/>
<path d="M423.238 12.0249L421.719 11.2803C423.288 8.16276 424.906 6.0083 426.574 4.81689C428.262 3.60563 430.148 3 432.233 3C434.735 3 436.731 3.79427 438.22 5.38281C439.709 6.97135 440.454 8.82796 440.454 10.9526C440.454 12.2632 440.186 13.5936 439.65 14.9438C439.114 16.2941 438.23 17.7039 436.999 19.1733C436.205 20.1463 434.021 22.1618 430.446 25.2197C425.641 29.3896 422.265 32.7554 420.319 35.3169C422.921 35.1978 425.601 35.1382 428.361 35.1382C429.255 35.1382 430.029 35.1481 430.685 35.168C432.134 35.2275 433.127 35.0885 433.663 34.751C434.199 34.4134 435.083 33.2816 436.314 31.3555H438.369C436.761 33.5794 435.361 36.3097 434.169 39.5464C432.76 39.2882 431.27 39.0897 429.702 38.9507C428.133 38.8315 426.485 38.772 424.757 38.772C422.712 38.772 419.704 38.901 415.732 39.1592L416.328 37.2827C418.135 34.6021 420.836 31.5739 424.43 28.1982C427.984 24.8623 430.278 22.5291 431.31 21.1987C432.799 19.2726 433.882 17.4557 434.557 15.748C435.073 14.4772 435.331 13.2461 435.331 12.0547C435.331 10.2676 434.845 8.83789 433.872 7.76562C432.899 6.69336 431.697 6.15723 430.268 6.15723C429.076 6.15723 427.905 6.58415 426.753 7.43799C425.621 8.29183 424.45 9.8208 423.238 12.0249Z" fill="#761B2B"/>
<path d="M459.04 3.08936C461.88 3.08936 464.153 4.13184 465.861 6.2168C467.588 8.30176 468.452 11.4193 468.452 15.5693C468.452 21.4668 466.963 26.9572 463.984 32.0405C461.026 37.104 457.432 39.6357 453.202 39.6357C450.72 39.6357 448.615 38.5535 446.888 36.3892C445.18 34.2248 444.326 31.276 444.326 27.543C444.326 23.1546 445.18 18.8656 446.888 14.6758C448.595 10.4661 450.521 7.48763 452.666 5.74023C454.811 3.97298 456.935 3.08936 459.04 3.08936ZM458.504 4.84668C457.273 4.84668 456.012 5.67074 454.721 7.31885C453.45 8.9471 452.269 11.9455 451.177 16.314C450.104 20.6626 449.568 24.8127 449.568 28.7642C449.568 31.9412 450.025 34.2546 450.938 35.7041C451.872 37.1536 452.934 37.8784 454.125 37.8784C455.178 37.8784 456.22 37.3522 457.253 36.2998C458.782 34.7311 460.162 31.7824 461.393 27.4536C462.624 23.105 463.24 18.7365 463.24 14.3481C463.24 10.9526 462.723 8.41097 461.691 6.72314C460.917 5.47217 459.854 4.84668 458.504 4.84668Z" fill="#761B2B"/>
<path d="M24.3742 40.0972L21.9817 7.23765C21.4633 12.7753 20.5063 17.9465 19.1106 22.7512C17.7149 27.5356 16.1299 31.241 14.3554 33.8673C12.5809 36.4733 10.7665 38.3056 8.9123 39.3642C7.05806 40.4229 5.22376 40.9522 3.4094 40.9522C2.31281 40.9522 1.46544 40.7181 0.867304 40.2499C0.289101 39.802 0 39.2523 0 38.6008C0 38.0511 0.209349 37.5726 0.628048 37.1655C1.06668 36.7583 1.61498 36.5547 2.27293 36.5547C2.75145 36.5547 3.43931 36.6667 4.33652 36.8906C5.15398 37.1146 5.83187 37.2265 6.3702 37.2265C7.30729 37.2265 8.28425 36.8703 9.30109 36.1577C10.8363 35.099 12.3516 33.2056 13.847 30.4775C15.3622 27.729 16.7081 23.9117 17.8844 19.0255C19.0807 14.119 19.8284 9.33463 20.1274 4.6724C15.6015 4.6724 11.9229 5.82269 9.09174 8.12326C6.83874 9.95558 5.71224 12.0017 5.71224 14.2615C5.71224 15.2591 6.25057 16.4603 7.32722 17.8651C7.90543 18.6184 8.19453 19.2291 8.19453 19.6974C8.19453 20.2267 8.02505 20.6644 7.68611 21.0105C7.3671 21.3567 6.97831 21.5297 6.51973 21.5297C5.74215 21.5297 5.05429 21.0818 4.45615 20.186C3.63869 18.9848 3.22996 17.5597 3.22996 15.9106C3.22996 13.5897 3.9876 11.3705 5.50289 9.25319C7.03812 7.11549 9.15155 5.49695 11.8432 4.39756C14.5548 3.27781 17.7249 2.70775 21.3536 2.6874C23.3075 2.6874 24.8727 2.50416 26.049 2.1377C25.9892 3.97002 25.9593 4.95743 25.9593 5.09994C25.9593 5.28318 25.9892 5.70054 26.049 6.35203L27.8135 29.5614C32.6186 20.9902 37.314 13.9358 41.8998 8.39811C45.1497 4.46881 47.9809 1.81196 50.3934 0.42754C49.0176 4.29576 47.5422 9.39571 45.9671 15.7274L42.3185 30.3859C42.1191 31.2003 41.8499 32.3913 41.511 33.9589L40.7932 37.2265C42.3085 37.593 43.6942 37.7762 44.9503 37.7762C45.9671 37.7762 47.0537 37.6541 48.2101 37.4098L47.8213 39.181C46.8045 39.3642 46.017 39.4559 45.4587 39.4559C44.6412 39.4559 43.4649 39.3642 41.9297 39.181C40.6736 39.0181 39.557 38.9367 38.5801 38.9367C37.5433 38.9367 36.367 39.1403 35.051 39.5475C36.1476 36.6158 37.2941 32.6763 38.4904 27.729L40.7932 18.3842C41.7702 14.3531 42.6175 11.5843 43.3353 10.0777C41.7402 11.9304 39.2779 15.3304 35.9483 20.2776C33.2766 24.268 30.2859 29.317 26.9761 35.4248L24.3742 40.0972Z" fill="url(#paint0_linear)"/>
<path d="M24.3742 40.0972L21.9817 7.23765C21.4633 12.7753 20.5063 17.9465 19.1106 22.7512C17.7149 27.5356 16.1299 31.241 14.3554 33.8673C12.5809 36.4733 10.7665 38.3056 8.9123 39.3642C7.05806 40.4229 5.22376 40.9522 3.4094 40.9522C2.31281 40.9522 1.46544 40.7181 0.867304 40.2499C0.289101 39.802 0 39.2523 0 38.6008C0 38.0511 0.209349 37.5726 0.628048 37.1655C1.06668 36.7583 1.61498 36.5547 2.27293 36.5547C2.75145 36.5547 3.43931 36.6667 4.33652 36.8906C5.15398 37.1146 5.83187 37.2265 6.3702 37.2265C7.30729 37.2265 8.28425 36.8703 9.30109 36.1577C10.8363 35.099 12.3516 33.2056 13.847 30.4775C15.3622 27.729 16.7081 23.9117 17.8844 19.0255C19.0807 14.119 19.8284 9.33463 20.1274 4.6724C15.6015 4.6724 11.9229 5.82269 9.09174 8.12326C6.83874 9.95558 5.71224 12.0017 5.71224 14.2615C5.71224 15.2591 6.25057 16.4603 7.32722 17.8651C7.90543 18.6184 8.19453 19.2291 8.19453 19.6974C8.19453 20.2267 8.02505 20.6644 7.68611 21.0105C7.3671 21.3567 6.97831 21.5297 6.51973 21.5297C5.74215 21.5297 5.05429 21.0818 4.45615 20.186C3.63869 18.9848 3.22996 17.5597 3.22996 15.9106C3.22996 13.5897 3.9876 11.3705 5.50289 9.25319C7.03812 7.11549 9.15155 5.49695 11.8432 4.39756C14.5548 3.27781 17.7249 2.70775 21.3536 2.6874C23.3075 2.6874 24.8727 2.50416 26.049 2.1377C25.9892 3.97002 25.9593 4.95743 25.9593 5.09994C25.9593 5.28318 25.9892 5.70054 26.049 6.35203L27.8135 29.5614C32.6186 20.9902 37.314 13.9358 41.8998 8.39811C45.1497 4.46881 47.9809 1.81196 50.3934 0.42754C49.0176 4.29576 47.5422 9.39571 45.9671 15.7274L42.3185 30.3859C42.1191 31.2003 41.8499 32.3913 41.511 33.9589L40.7932 37.2265C42.3085 37.593 43.6942 37.7762 44.9503 37.7762C45.9671 37.7762 47.0537 37.6541 48.2101 37.4098L47.8213 39.181C46.8045 39.3642 46.017 39.4559 45.4587 39.4559C44.6412 39.4559 43.4649 39.3642 41.9297 39.181C40.6736 39.0181 39.557 38.9367 38.5801 38.9367C37.5433 38.9367 36.367 39.1403 35.051 39.5475C36.1476 36.6158 37.2941 32.6763 38.4904 27.729L40.7932 18.3842C41.7702 14.3531 42.6175 11.5843 43.3353 10.0777C41.7402 11.9304 39.2779 15.3304 35.9483 20.2776C33.2766 24.268 30.2859 29.317 26.9761 35.4248L24.3742 40.0972Z" fill="#531818" fill-opacity="0.11"/>
<path d="M65.5263 0C66.1444 0 66.6528 0.21377 67.0516 0.64131C67.4503 1.04849 67.6497 1.57783 67.6497 2.22932C67.6497 3.12512 67.3407 3.91912 66.7226 4.61133C66.1245 5.28318 65.4466 5.6191 64.6889 5.6191C64.0908 5.6191 63.5923 5.40533 63.1936 4.97779C62.7948 4.55025 62.5954 3.99038 62.5954 3.29817C62.5954 2.38201 62.8845 1.60837 63.4627 0.977235C64.0409 0.325745 64.7288 0 65.5263 0ZM53.7429 20.2165L52.427 19.1782C54.4208 16.9387 56.2352 15.3507 57.8701 14.4142C59.525 13.4573 60.9306 12.9789 62.087 12.9789C62.725 12.9789 63.2135 13.1214 63.5524 13.4064C63.8914 13.6915 64.0609 14.0783 64.0609 14.5669C64.0609 15.1573 63.4129 17.6615 62.1169 22.0794C60.0035 29.3069 58.9468 33.6637 58.9468 35.1499C58.9468 35.4349 59.0165 35.6793 59.1561 35.8828C59.2957 36.0661 59.4452 36.1577 59.6047 36.1577C60.2427 36.1577 61.8776 34.8954 64.5095 32.3709L65.6758 33.5314C62.9443 36.1577 60.9505 37.8373 59.6944 38.5702C58.4383 39.3032 57.4115 39.6696 56.614 39.6696C55.9162 39.6696 55.3579 39.4457 54.9392 38.9978C54.5405 38.5499 54.3411 37.9289 54.3411 37.1349C54.3411 34.59 55.8364 28.3703 58.8271 18.4758C58.9667 18.0076 59.0365 17.5902 59.0365 17.2238C59.0365 16.8166 58.857 16.613 58.4982 16.613C58.0994 16.613 57.6408 16.7759 57.1224 17.1016C56.624 17.4274 55.4975 18.4657 53.7429 20.2165Z" fill="url(#paint1_linear)"/>
<path d="M65.5263 0C66.1444 0 66.6528 0.21377 67.0516 0.64131C67.4503 1.04849 67.6497 1.57783 67.6497 2.22932C67.6497 3.12512 67.3407 3.91912 66.7226 4.61133C66.1245 5.28318 65.4466 5.6191 64.6889 5.6191C64.0908 5.6191 63.5923 5.40533 63.1936 4.97779C62.7948 4.55025 62.5954 3.99038 62.5954 3.29817C62.5954 2.38201 62.8845 1.60837 63.4627 0.977235C64.0409 0.325745 64.7288 0 65.5263 0ZM53.7429 20.2165L52.427 19.1782C54.4208 16.9387 56.2352 15.3507 57.8701 14.4142C59.525 13.4573 60.9306 12.9789 62.087 12.9789C62.725 12.9789 63.2135 13.1214 63.5524 13.4064C63.8914 13.6915 64.0609 14.0783 64.0609 14.5669C64.0609 15.1573 63.4129 17.6615 62.1169 22.0794C60.0035 29.3069 58.9468 33.6637 58.9468 35.1499C58.9468 35.4349 59.0165 35.6793 59.1561 35.8828C59.2957 36.0661 59.4452 36.1577 59.6047 36.1577C60.2427 36.1577 61.8776 34.8954 64.5095 32.3709L65.6758 33.5314C62.9443 36.1577 60.9505 37.8373 59.6944 38.5702C58.4383 39.3032 57.4115 39.6696 56.614 39.6696C55.9162 39.6696 55.3579 39.4457 54.9392 38.9978C54.5405 38.5499 54.3411 37.9289 54.3411 37.1349C54.3411 34.59 55.8364 28.3703 58.8271 18.4758C58.9667 18.0076 59.0365 17.5902 59.0365 17.2238C59.0365 16.8166 58.857 16.613 58.4982 16.613C58.0994 16.613 57.6408 16.7759 57.1224 17.1016C56.624 17.4274 55.4975 18.4657 53.7429 20.2165Z" fill="#531818" fill-opacity="0.11"/>
<path d="M80.6294 13.1011C82.4038 13.1011 83.7696 13.4573 84.7266 14.1699C85.7036 14.8621 86.1921 15.6663 86.1921 16.5825C86.1921 17.1321 85.9827 17.6106 85.564 18.0178C85.1653 18.4249 84.6768 18.6285 84.0986 18.6285C83.7198 18.6285 83.3908 18.5471 83.1116 18.3842C82.8325 18.201 82.4338 17.7633 81.9154 17.0711C80.9384 15.7477 79.9714 15.0861 79.0144 15.0861C78.1969 15.0861 77.4692 15.4118 76.8312 16.0633C76.2131 16.6944 75.9041 17.4884 75.9041 18.4453C75.9041 19.28 76.1034 20.0944 76.5022 20.8884C76.9009 21.662 77.9078 22.9243 79.5228 24.6752C81.7359 27.0775 82.8425 29.3578 82.8425 31.5158C82.8425 33.6739 81.9453 35.5673 80.1508 37.196C78.3564 38.8044 76.0436 39.6086 73.2124 39.6086C70.8398 39.6086 69.0753 39.1199 67.9189 38.1427C66.7625 37.1451 66.1843 35.9236 66.1843 34.4781C66.1843 33.7655 66.4036 33.1751 66.8422 32.7068C67.2809 32.2386 67.8192 32.0044 68.4572 32.0044C69.0155 32.0044 69.494 32.1979 69.8927 32.5847C70.2915 32.9511 70.4909 33.3889 70.4909 33.8978C70.4909 34.1014 70.4709 34.3661 70.4311 34.6918C70.4111 34.9565 70.4012 35.1805 70.4012 35.3637C70.4012 36.0355 70.6803 36.6056 71.2386 37.0738C71.7769 37.5421 72.5146 37.7762 73.4517 37.7762C74.5283 37.7762 75.4754 37.593 76.2928 37.2265C77.1103 36.8397 77.7483 36.2697 78.2069 35.5164C78.6655 34.7427 78.8948 33.9793 78.8948 33.226C78.8948 32.4931 78.6754 31.7601 78.2368 31.0272C77.8181 30.2943 76.8611 29.0829 75.3657 27.3931C73.2922 25.0315 72.2554 22.7614 72.2554 20.583C72.2554 18.5878 73.0429 16.8471 74.618 15.3609C76.1932 13.8543 78.1969 13.1011 80.6294 13.1011Z" fill="url(#paint2_linear)"/>
<path d="M80.6294 13.1011C82.4038 13.1011 83.7696 13.4573 84.7266 14.1699C85.7036 14.8621 86.1921 15.6663 86.1921 16.5825C86.1921 17.1321 85.9827 17.6106 85.564 18.0178C85.1653 18.4249 84.6768 18.6285 84.0986 18.6285C83.7198 18.6285 83.3908 18.5471 83.1116 18.3842C82.8325 18.201 82.4338 17.7633 81.9154 17.0711C80.9384 15.7477 79.9714 15.0861 79.0144 15.0861C78.1969 15.0861 77.4692 15.4118 76.8312 16.0633C76.2131 16.6944 75.9041 17.4884 75.9041 18.4453C75.9041 19.28 76.1034 20.0944 76.5022 20.8884C76.9009 21.662 77.9078 22.9243 79.5228 24.6752C81.7359 27.0775 82.8425 29.3578 82.8425 31.5158C82.8425 33.6739 81.9453 35.5673 80.1508 37.196C78.3564 38.8044 76.0436 39.6086 73.2124 39.6086C70.8398 39.6086 69.0753 39.1199 67.9189 38.1427C66.7625 37.1451 66.1843 35.9236 66.1843 34.4781C66.1843 33.7655 66.4036 33.1751 66.8422 32.7068C67.2809 32.2386 67.8192 32.0044 68.4572 32.0044C69.0155 32.0044 69.494 32.1979 69.8927 32.5847C70.2915 32.9511 70.4909 33.3889 70.4909 33.8978C70.4909 34.1014 70.4709 34.3661 70.4311 34.6918C70.4111 34.9565 70.4012 35.1805 70.4012 35.3637C70.4012 36.0355 70.6803 36.6056 71.2386 37.0738C71.7769 37.5421 72.5146 37.7762 73.4517 37.7762C74.5283 37.7762 75.4754 37.593 76.2928 37.2265C77.1103 36.8397 77.7483 36.2697 78.2069 35.5164C78.6655 34.7427 78.8948 33.9793 78.8948 33.226C78.8948 32.4931 78.6754 31.7601 78.2368 31.0272C77.8181 30.2943 76.8611 29.0829 75.3657 27.3931C73.2922 25.0315 72.2554 22.7614 72.2554 20.583C72.2554 18.5878 73.0429 16.8471 74.618 15.3609C76.1932 13.8543 78.1969 13.1011 80.6294 13.1011Z" fill="#531818" fill-opacity="0.11"/>
<path d="M100.248 13.1011C102.023 13.1011 103.389 13.4573 104.346 14.1699C105.323 14.8621 105.811 15.6663 105.811 16.5825C105.811 17.1321 105.602 17.6106 105.183 18.0178C104.784 18.4249 104.296 18.6285 103.718 18.6285C103.339 18.6285 103.01 18.5471 102.731 18.3842C102.452 18.201 102.053 17.7633 101.534 17.0711C100.557 15.7477 99.5904 15.0861 98.6334 15.0861C97.8159 15.0861 97.0882 15.4118 96.4502 16.0633C95.8321 16.6944 95.5231 17.4884 95.5231 18.4453C95.5231 19.28 95.7225 20.0944 96.1212 20.8884C96.52 21.662 97.5268 22.9243 99.1418 24.6752C101.355 27.0775 102.461 29.3578 102.461 31.5158C102.461 33.6739 101.564 35.5673 99.7699 37.196C97.9754 38.8044 95.6626 39.6086 92.8314 39.6086C90.4588 39.6086 88.6943 39.1199 87.5379 38.1427C86.3815 37.1451 85.8033 35.9236 85.8033 34.4781C85.8033 33.7655 86.0226 33.1751 86.4612 32.7068C86.8999 32.2386 87.4382 32.0044 88.0762 32.0044C88.6345 32.0044 89.113 32.1979 89.5117 32.5847C89.9105 32.9511 90.1099 33.3889 90.1099 33.8978C90.1099 34.1014 90.09 34.3661 90.0501 34.6918C90.0301 34.9565 90.0202 35.1805 90.0202 35.3637C90.0202 36.0355 90.2993 36.6056 90.8576 37.0738C91.3959 37.5421 92.1336 37.7762 93.0707 37.7762C94.1473 37.7762 95.0944 37.593 95.9119 37.2265C96.7293 36.8397 97.3673 36.2697 97.8259 35.5164C98.2845 34.7427 98.5138 33.9793 98.5138 33.226C98.5138 32.4931 98.2944 31.7601 97.8558 31.0272C97.4371 30.2943 96.4801 29.0829 94.9847 27.3931C92.9112 25.0315 91.8744 22.7614 91.8744 20.583C91.8744 18.5878 92.662 16.8471 94.2371 15.3609C95.8122 13.8543 97.8159 13.1011 100.248 13.1011Z" fill="url(#paint3_linear)"/>
<path d="M100.248 13.1011C102.023 13.1011 103.389 13.4573 104.346 14.1699C105.323 14.8621 105.811 15.6663 105.811 16.5825C105.811 17.1321 105.602 17.6106 105.183 18.0178C104.784 18.4249 104.296 18.6285 103.718 18.6285C103.339 18.6285 103.01 18.5471 102.731 18.3842C102.452 18.201 102.053 17.7633 101.534 17.0711C100.557 15.7477 99.5904 15.0861 98.6334 15.0861C97.8159 15.0861 97.0882 15.4118 96.4502 16.0633C95.8321 16.6944 95.5231 17.4884 95.5231 18.4453C95.5231 19.28 95.7225 20.0944 96.1212 20.8884C96.52 21.662 97.5268 22.9243 99.1418 24.6752C101.355 27.0775 102.461 29.3578 102.461 31.5158C102.461 33.6739 101.564 35.5673 99.7699 37.196C97.9754 38.8044 95.6626 39.6086 92.8314 39.6086C90.4588 39.6086 88.6943 39.1199 87.5379 38.1427C86.3815 37.1451 85.8033 35.9236 85.8033 34.4781C85.8033 33.7655 86.0226 33.1751 86.4612 32.7068C86.8999 32.2386 87.4382 32.0044 88.0762 32.0044C88.6345 32.0044 89.113 32.1979 89.5117 32.5847C89.9105 32.9511 90.1099 33.3889 90.1099 33.8978C90.1099 34.1014 90.09 34.3661 90.0501 34.6918C90.0301 34.9565 90.0202 35.1805 90.0202 35.3637C90.0202 36.0355 90.2993 36.6056 90.8576 37.0738C91.3959 37.5421 92.1336 37.7762 93.0707 37.7762C94.1473 37.7762 95.0944 37.593 95.9119 37.2265C96.7293 36.8397 97.3673 36.2697 97.8259 35.5164C98.2845 34.7427 98.5138 33.9793 98.5138 33.226C98.5138 32.4931 98.2944 31.7601 97.8558 31.0272C97.4371 30.2943 96.4801 29.0829 94.9847 27.3931C92.9112 25.0315 91.8744 22.7614 91.8744 20.583C91.8744 18.5878 92.662 16.8471 94.2371 15.3609C95.8122 13.8543 97.8159 13.1011 100.248 13.1011Z" fill="#531818" fill-opacity="0.11"/>
<path d="M144.002 2.6874L143.494 4.33648C141.241 4.47899 139.746 4.76402 139.008 5.19156C138.529 5.47659 138.131 5.90413 137.812 6.47418C137.433 7.20711 136.326 11.0957 134.492 18.1399C133.894 20.4609 132.369 26.8027 129.916 37.1655C131.312 37.6337 133.076 37.8373 135.21 37.7762L134.731 39.2421C134.093 39.2624 132.817 39.181 130.903 38.9978C129.527 38.8756 127.922 38.8145 126.088 38.8145C123.556 38.8145 121.233 39.008 119.12 39.3948L119.479 37.7762C121.672 37.4301 123.337 36.9822 124.473 36.4325C124.752 36.29 124.972 36.117 125.131 35.9134C125.43 35.5469 125.749 34.814 126.088 33.7146C126.447 32.5949 127.643 28.0548 129.677 20.0944C130.275 17.7938 131.491 12.7651 133.326 5.00833C131.95 4.96761 130.265 5.16102 128.271 5.58856L128.839 3.90894C129.677 3.68499 130.534 3.5323 131.411 3.45086C132.289 3.34907 134.273 3.25745 137.363 3.17601C140.254 3.09458 142.467 2.9317 144.002 2.6874Z" fill="url(#paint4_linear)"/>
<path d="M144.002 2.6874L143.494 4.33648C141.241 4.47899 139.746 4.76402 139.008 5.19156C138.529 5.47659 138.131 5.90413 137.812 6.47418C137.433 7.20711 136.326 11.0957 134.492 18.1399C133.894 20.4609 132.369 26.8027 129.916 37.1655C131.312 37.6337 133.076 37.8373 135.21 37.7762L134.731 39.2421C134.093 39.2624 132.817 39.181 130.903 38.9978C129.527 38.8756 127.922 38.8145 126.088 38.8145C123.556 38.8145 121.233 39.008 119.12 39.3948L119.479 37.7762C121.672 37.4301 123.337 36.9822 124.473 36.4325C124.752 36.29 124.972 36.117 125.131 35.9134C125.43 35.5469 125.749 34.814 126.088 33.7146C126.447 32.5949 127.643 28.0548 129.677 20.0944C130.275 17.7938 131.491 12.7651 133.326 5.00833C131.95 4.96761 130.265 5.16102 128.271 5.58856L128.839 3.90894C129.677 3.68499 130.534 3.5323 131.411 3.45086C132.289 3.34907 134.273 3.25745 137.363 3.17601C140.254 3.09458 142.467 2.9317 144.002 2.6874Z" fill="#531818" fill-opacity="0.11"/>
<path d="M144.361 20.2776L143.344 19.2088C145.896 16.725 147.93 15.0759 149.445 14.2615C150.961 13.4472 152.257 13.04 153.333 13.04C153.752 13.04 154.081 13.1316 154.32 13.3148C154.56 13.4981 154.679 13.7118 154.679 13.9561C154.679 14.1394 154.629 14.4651 154.53 14.9334L153.184 21.0716C155.217 18.7711 157.77 16.6232 160.84 14.628C162.475 13.5897 163.821 13.0705 164.877 13.0705C165.655 13.0705 166.263 13.325 166.702 13.834C167.14 14.343 167.36 15.0759 167.36 16.0328C167.36 16.6639 167.27 17.3765 167.091 18.1705C166.772 19.4938 165.934 22.3746 164.578 26.8129C163.302 30.9661 162.664 33.7248 162.664 35.0888C162.664 35.496 162.724 35.8014 162.844 36.005C162.963 36.2086 163.133 36.3104 163.352 36.3104C163.93 36.3104 164.838 35.7403 166.074 34.6002C166.951 33.7859 167.828 33.0326 168.706 32.3404L169.453 33.4398C167.619 35.5164 165.715 37.1858 163.741 38.4481C162.485 39.2624 161.448 39.6696 160.631 39.6696C159.873 39.6696 159.285 39.3846 158.866 38.8145C158.447 38.2649 158.238 37.3589 158.238 36.0966C158.238 34.2847 159.345 29.7751 161.558 22.568C162.236 20.0028 162.575 18.5064 162.575 18.0788C162.575 17.4477 162.206 17.1321 161.468 17.1321C160.671 17.1321 159.644 17.5597 158.388 18.4148C156.513 19.677 154.948 21.1632 153.692 22.8734C152.895 23.9728 152.227 25.7237 151.688 28.126L149.266 38.784H144.81C145.647 35.7301 146.375 32.8086 146.993 30.0194L149.655 18.4148C149.754 17.9465 149.804 17.6106 149.804 17.407C149.804 16.8573 149.605 16.5825 149.206 16.5825C148.887 16.5825 148.429 16.7962 147.83 17.2238C146.594 18.0585 145.438 19.0764 144.361 20.2776Z" fill="url(#paint5_linear)"/>
<path d="M144.361 20.2776L143.344 19.2088C145.896 16.725 147.93 15.0759 149.445 14.2615C150.961 13.4472 152.257 13.04 153.333 13.04C153.752 13.04 154.081 13.1316 154.32 13.3148C154.56 13.4981 154.679 13.7118 154.679 13.9561C154.679 14.1394 154.629 14.4651 154.53 14.9334L153.184 21.0716C155.217 18.7711 157.77 16.6232 160.84 14.628C162.475 13.5897 163.821 13.0705 164.877 13.0705C165.655 13.0705 166.263 13.325 166.702 13.834C167.14 14.343 167.36 15.0759 167.36 16.0328C167.36 16.6639 167.27 17.3765 167.091 18.1705C166.772 19.4938 165.934 22.3746 164.578 26.8129C163.302 30.9661 162.664 33.7248 162.664 35.0888C162.664 35.496 162.724 35.8014 162.844 36.005C162.963 36.2086 163.133 36.3104 163.352 36.3104C163.93 36.3104 164.838 35.7403 166.074 34.6002C166.951 33.7859 167.828 33.0326 168.706 32.3404L169.453 33.4398C167.619 35.5164 165.715 37.1858 163.741 38.4481C162.485 39.2624 161.448 39.6696 160.631 39.6696C159.873 39.6696 159.285 39.3846 158.866 38.8145C158.447 38.2649 158.238 37.3589 158.238 36.0966C158.238 34.2847 159.345 29.7751 161.558 22.568C162.236 20.0028 162.575 18.5064 162.575 18.0788C162.575 17.4477 162.206 17.1321 161.468 17.1321C160.671 17.1321 159.644 17.5597 158.388 18.4148C156.513 19.677 154.948 21.1632 153.692 22.8734C152.895 23.9728 152.227 25.7237 151.688 28.126L149.266 38.784H144.81C145.647 35.7301 146.375 32.8086 146.993 30.0194L149.655 18.4148C149.754 17.9465 149.804 17.6106 149.804 17.407C149.804 16.8573 149.605 16.5825 149.206 16.5825C148.887 16.5825 148.429 16.7962 147.83 17.2238C146.594 18.0585 145.438 19.0764 144.361 20.2776Z" fill="#531818" fill-opacity="0.11"/>
<path d="M184.766 13.1011C186.54 13.1011 187.906 13.4573 188.863 14.1699C189.84 14.8621 190.328 15.6663 190.328 16.5825C190.328 17.1321 190.119 17.6106 189.7 18.0178C189.302 18.4249 188.813 18.6285 188.235 18.6285C187.856 18.6285 187.527 18.5471 187.248 18.3842C186.969 18.201 186.57 17.7633 186.052 17.0711C185.075 15.7477 184.108 15.0861 183.151 15.0861C182.333 15.0861 181.605 15.4118 180.967 16.0633C180.349 16.6944 180.04 17.4884 180.04 18.4453C180.04 19.28 180.24 20.0944 180.638 20.8884C181.037 21.662 182.044 22.9243 183.659 24.6752C185.872 27.0775 186.979 29.3578 186.979 31.5158C186.979 33.6739 186.082 35.5673 184.287 37.196C182.493 38.8044 180.18 39.6086 177.349 39.6086C174.976 39.6086 173.212 39.1199 172.055 38.1427C170.899 37.1451 170.321 35.9236 170.321 34.4781C170.321 33.7655 170.54 33.1751 170.979 32.7068C171.417 32.2386 171.955 32.0044 172.593 32.0044C173.152 32.0044 173.63 32.1979 174.029 32.5847C174.428 32.9511 174.627 33.3889 174.627 33.8978C174.627 34.1014 174.607 34.3661 174.567 34.6918C174.547 34.9565 174.537 35.1805 174.537 35.3637C174.537 36.0355 174.817 36.6056 175.375 37.0738C175.913 37.5421 176.651 37.7762 177.588 37.7762C178.665 37.7762 179.612 37.593 180.429 37.2265C181.247 36.8397 181.885 36.2697 182.343 35.5164C182.802 34.7427 183.031 33.9793 183.031 33.226C183.031 32.4931 182.812 31.7601 182.373 31.0272C181.954 30.2943 180.997 29.0829 179.502 27.3931C177.428 25.0315 176.392 22.7614 176.392 20.583C176.392 18.5878 177.179 16.8471 178.754 15.3609C180.329 13.8543 182.333 13.1011 184.766 13.1011Z" fill="url(#paint6_linear)"/>
<path d="M184.766 13.1011C186.54 13.1011 187.906 13.4573 188.863 14.1699C189.84 14.8621 190.328 15.6663 190.328 16.5825C190.328 17.1321 190.119 17.6106 189.7 18.0178C189.302 18.4249 188.813 18.6285 188.235 18.6285C187.856 18.6285 187.527 18.5471 187.248 18.3842C186.969 18.201 186.57 17.7633 186.052 17.0711C185.075 15.7477 184.108 15.0861 183.151 15.0861C182.333 15.0861 181.605 15.4118 180.967 16.0633C180.349 16.6944 180.04 17.4884 180.04 18.4453C180.04 19.28 180.24 20.0944 180.638 20.8884C181.037 21.662 182.044 22.9243 183.659 24.6752C185.872 27.0775 186.979 29.3578 186.979 31.5158C186.979 33.6739 186.082 35.5673 184.287 37.196C182.493 38.8044 180.18 39.6086 177.349 39.6086C174.976 39.6086 173.212 39.1199 172.055 38.1427C170.899 37.1451 170.321 35.9236 170.321 34.4781C170.321 33.7655 170.54 33.1751 170.979 32.7068C171.417 32.2386 171.955 32.0044 172.593 32.0044C173.152 32.0044 173.63 32.1979 174.029 32.5847C174.428 32.9511 174.627 33.3889 174.627 33.8978C174.627 34.1014 174.607 34.3661 174.567 34.6918C174.547 34.9565 174.537 35.1805 174.537 35.3637C174.537 36.0355 174.817 36.6056 175.375 37.0738C175.913 37.5421 176.651 37.7762 177.588 37.7762C178.665 37.7762 179.612 37.593 180.429 37.2265C181.247 36.8397 181.885 36.2697 182.343 35.5164C182.802 34.7427 183.031 33.9793 183.031 33.226C183.031 32.4931 182.812 31.7601 182.373 31.0272C181.954 30.2943 180.997 29.0829 179.502 27.3931C177.428 25.0315 176.392 22.7614 176.392 20.583C176.392 18.5878 177.179 16.8471 178.754 15.3609C180.329 13.8543 182.333 13.1011 184.766 13.1011Z" fill="#531818" fill-opacity="0.11"/>
<path d="M199.629 8.42865L204.385 6.5658L202.231 15.1166H208.422L207.944 17.2848H201.753L199.121 27.5153C198.304 30.5895 197.895 32.7272 197.895 33.9284C197.895 34.4781 198.005 34.8751 198.224 35.1194C198.463 35.3637 198.782 35.4858 199.181 35.4858C199.799 35.4858 200.746 35.1092 202.022 34.3559C203.697 33.3583 205.292 32.2284 206.807 30.9661L207.944 32.3709C203.577 35.7301 200.656 37.7864 199.181 38.5397C197.705 39.293 196.519 39.6696 195.622 39.6696C194.884 39.6696 194.296 39.3948 193.857 38.8451C193.439 38.2954 193.229 37.3996 193.229 36.1577C193.229 34.6918 193.608 32.4523 194.366 29.4392L197.446 17.2848H192.601L193.14 15.1166H197.955L199.629 8.42865Z" fill="url(#paint7_linear)"/>
<path d="M199.629 8.42865L204.385 6.5658L202.231 15.1166H208.422L207.944 17.2848H201.753L199.121 27.5153C198.304 30.5895 197.895 32.7272 197.895 33.9284C197.895 34.4781 198.005 34.8751 198.224 35.1194C198.463 35.3637 198.782 35.4858 199.181 35.4858C199.799 35.4858 200.746 35.1092 202.022 34.3559C203.697 33.3583 205.292 32.2284 206.807 30.9661L207.944 32.3709C203.577 35.7301 200.656 37.7864 199.181 38.5397C197.705 39.293 196.519 39.6696 195.622 39.6696C194.884 39.6696 194.296 39.3948 193.857 38.8451C193.439 38.2954 193.229 37.3996 193.229 36.1577C193.229 34.6918 193.608 32.4523 194.366 29.4392L197.446 17.2848H192.601L193.14 15.1166H197.955L199.629 8.42865Z" fill="#531818" fill-opacity="0.11"/>
<path d="M231.271 12.6124L233.245 12.1849L231.002 19.9112C230.105 22.9854 229.257 26.5279 228.46 30.5386C228.021 32.717 227.802 34.1218 227.802 34.7529C227.802 35.384 228.051 35.6996 228.55 35.6996C228.869 35.6996 229.377 35.4858 230.075 35.0583C231.311 34.305 232.497 33.3685 233.634 32.2487L234.591 33.4398C232.318 35.5571 230.862 36.8397 230.224 37.2876C228.948 38.1834 227.732 38.8451 226.576 39.2726C225.818 39.5577 225.08 39.7002 224.363 39.7002C223.844 39.7002 223.455 39.578 223.196 39.3337C222.937 39.0894 222.807 38.7331 222.807 38.2649C222.807 37.9595 222.887 37.5421 223.047 37.0128L224.243 32.8595C222.528 34.9565 220.485 36.7583 218.112 38.2649C216.657 39.2014 215.321 39.6696 214.104 39.6696C212.948 39.6696 212.061 39.2523 211.443 38.4175C210.605 37.2978 210.187 35.8319 210.187 34.02C210.187 31.8619 210.745 29.4596 211.861 26.8129C212.998 24.1662 214.513 21.7638 216.407 19.6058C218.301 17.4477 220.295 15.8597 222.389 14.8418C224.004 14.0681 226.077 13.6813 228.609 13.6813C229.247 13.6813 229.895 13.722 230.553 13.8034L231.271 12.6124ZM227.563 17.2848C226.486 17.0609 225.579 16.9489 224.841 16.9489C223.047 16.9489 221.482 17.4579 220.146 18.4758C218.81 19.4734 217.564 21.2854 216.407 23.9117C215.271 26.5177 214.703 29.1236 214.703 31.7296C214.703 33.114 214.932 34.1116 215.39 34.7224C215.849 35.3331 216.447 35.6385 217.185 35.6385C218.561 35.6385 220.036 34.8852 221.611 33.3787C223.186 31.8517 224.343 29.6631 225.08 26.8129L227.563 17.2848Z" fill="url(#paint8_linear)"/>
<path d="M231.271 12.6124L233.245 12.1849L231.002 19.9112C230.105 22.9854 229.257 26.5279 228.46 30.5386C228.021 32.717 227.802 34.1218 227.802 34.7529C227.802 35.384 228.051 35.6996 228.55 35.6996C228.869 35.6996 229.377 35.4858 230.075 35.0583C231.311 34.305 232.497 33.3685 233.634 32.2487L234.591 33.4398C232.318 35.5571 230.862 36.8397 230.224 37.2876C228.948 38.1834 227.732 38.8451 226.576 39.2726C225.818 39.5577 225.08 39.7002 224.363 39.7002C223.844 39.7002 223.455 39.578 223.196 39.3337C222.937 39.0894 222.807 38.7331 222.807 38.2649C222.807 37.9595 222.887 37.5421 223.047 37.0128L224.243 32.8595C222.528 34.9565 220.485 36.7583 218.112 38.2649C216.657 39.2014 215.321 39.6696 214.104 39.6696C212.948 39.6696 212.061 39.2523 211.443 38.4175C210.605 37.2978 210.187 35.8319 210.187 34.02C210.187 31.8619 210.745 29.4596 211.861 26.8129C212.998 24.1662 214.513 21.7638 216.407 19.6058C218.301 17.4477 220.295 15.8597 222.389 14.8418C224.004 14.0681 226.077 13.6813 228.609 13.6813C229.247 13.6813 229.895 13.722 230.553 13.8034L231.271 12.6124ZM227.563 17.2848C226.486 17.0609 225.579 16.9489 224.841 16.9489C223.047 16.9489 221.482 17.4579 220.146 18.4758C218.81 19.4734 217.564 21.2854 216.407 23.9117C215.271 26.5177 214.703 29.1236 214.703 31.7296C214.703 33.114 214.932 34.1116 215.39 34.7224C215.849 35.3331 216.447 35.6385 217.185 35.6385C218.561 35.6385 220.036 34.8852 221.611 33.3787C223.186 31.8517 224.343 29.6631 225.08 26.8129L227.563 17.2848Z" fill="#531818" fill-opacity="0.11"/>
<path d="M256.722 12.9178L259.144 12.3681C257.689 17.1321 256.353 21.9063 255.137 26.6907C254.26 30.111 253.652 32.9613 253.313 35.2415C253.133 36.3816 253.033 37.8271 253.014 39.578C252.974 42.5097 252.655 44.8714 252.056 46.663C251.219 49.1671 249.654 51.1827 247.361 52.7096C245.088 54.2365 242.387 55 239.256 55C236.565 55 234.441 54.3485 232.886 53.0455C231.351 51.7629 230.583 50.2869 230.583 48.6174C230.583 46.9683 231.201 45.4312 232.437 44.0061C233.355 42.9271 235.269 41.6241 238.18 40.0972C239.655 39.3032 241.041 38.4888 242.337 37.6541C240.861 38.4277 239.715 38.8145 238.897 38.8145C238.16 38.8145 237.502 38.4684 236.924 37.7762C236.365 37.0637 236.086 36.1271 236.086 34.9667C236.086 31.2206 237.173 27.5051 239.346 23.8201C241.539 20.1147 244.171 17.3357 247.241 15.4831C249.136 14.343 251.508 13.7729 254.359 13.7729C254.918 13.7729 255.605 13.7933 256.423 13.834L256.722 12.9178ZM253.372 17.4375C252.415 17.2543 251.568 17.1627 250.83 17.1627C248.936 17.1627 247.311 17.6717 245.955 18.6896C244.6 19.7076 243.443 21.4177 242.486 23.8201C241.15 27.2201 240.482 30.0805 240.482 32.4014C240.482 33.3583 240.742 34.1625 241.26 34.814C241.798 35.4655 242.396 35.7912 243.054 35.7912C243.852 35.7912 244.839 35.4044 246.015 34.6308C247.192 33.8368 248.149 32.8493 248.886 31.6685C249.644 30.4877 250.412 28.4518 251.189 25.5608L253.372 17.4375ZM249.305 34.0811C247.949 35.323 245.337 37.308 241.469 40.0361C238.06 42.3977 235.966 44.0977 235.189 45.136C234.411 46.1947 234.023 47.3145 234.023 48.4953C234.023 49.6557 234.521 50.6941 235.518 51.6102C236.535 52.5467 237.761 53.015 239.196 53.015C240.552 53.015 241.868 52.6689 243.144 51.9767C244.42 51.3048 245.527 50.3174 246.464 49.0144C247.421 47.7318 248.079 46.2761 248.438 44.6474C248.797 43.0187 248.986 40.8606 249.006 38.1732C249.026 37.5828 249.126 36.2188 249.305 34.0811Z" fill="url(#paint9_linear)"/>
<path d="M256.722 12.9178L259.144 12.3681C257.689 17.1321 256.353 21.9063 255.137 26.6907C254.26 30.111 253.652 32.9613 253.313 35.2415C253.133 36.3816 253.033 37.8271 253.014 39.578C252.974 42.5097 252.655 44.8714 252.056 46.663C251.219 49.1671 249.654 51.1827 247.361 52.7096C245.088 54.2365 242.387 55 239.256 55C236.565 55 234.441 54.3485 232.886 53.0455C231.351 51.7629 230.583 50.2869 230.583 48.6174C230.583 46.9683 231.201 45.4312 232.437 44.0061C233.355 42.9271 235.269 41.6241 238.18 40.0972C239.655 39.3032 241.041 38.4888 242.337 37.6541C240.861 38.4277 239.715 38.8145 238.897 38.8145C238.16 38.8145 237.502 38.4684 236.924 37.7762C236.365 37.0637 236.086 36.1271 236.086 34.9667C236.086 31.2206 237.173 27.5051 239.346 23.8201C241.539 20.1147 244.171 17.3357 247.241 15.4831C249.136 14.343 251.508 13.7729 254.359 13.7729C254.918 13.7729 255.605 13.7933 256.423 13.834L256.722 12.9178ZM253.372 17.4375C252.415 17.2543 251.568 17.1627 250.83 17.1627C248.936 17.1627 247.311 17.6717 245.955 18.6896C244.6 19.7076 243.443 21.4177 242.486 23.8201C241.15 27.2201 240.482 30.0805 240.482 32.4014C240.482 33.3583 240.742 34.1625 241.26 34.814C241.798 35.4655 242.396 35.7912 243.054 35.7912C243.852 35.7912 244.839 35.4044 246.015 34.6308C247.192 33.8368 248.149 32.8493 248.886 31.6685C249.644 30.4877 250.412 28.4518 251.189 25.5608L253.372 17.4375ZM249.305 34.0811C247.949 35.323 245.337 37.308 241.469 40.0361C238.06 42.3977 235.966 44.0977 235.189 45.136C234.411 46.1947 234.023 47.3145 234.023 48.4953C234.023 49.6557 234.521 50.6941 235.518 51.6102C236.535 52.5467 237.761 53.015 239.196 53.015C240.552 53.015 241.868 52.6689 243.144 51.9767C244.42 51.3048 245.527 50.3174 246.464 49.0144C247.421 47.7318 248.079 46.2761 248.438 44.6474C248.797 43.0187 248.986 40.8606 249.006 38.1732C249.026 37.5828 249.126 36.2188 249.305 34.0811Z" fill="#531818" fill-opacity="0.11"/>
<path d="M266.651 38.8145H262.195L264.288 30.5997C265.305 26.5686 266.193 22.7411 266.95 19.1172C267.13 18.2214 267.219 17.6615 267.219 17.4375C267.219 16.9489 267 16.7046 266.561 16.7046C266.262 16.7046 265.804 16.9184 265.186 17.3459C264.568 17.7531 263.451 18.7812 261.836 20.4303L260.909 19.3615C262.823 17.2645 264.727 15.6968 266.621 14.6585C268.535 13.5999 270.001 13.0705 271.018 13.0705C271.376 13.0705 271.656 13.1621 271.855 13.3454C272.074 13.5082 272.184 13.722 272.184 13.9867C272.184 14.2513 272.054 14.9537 271.795 16.0938L270.509 21.5602C272.523 18.3232 274.796 15.5543 277.328 13.2537C278.544 12.1544 279.561 11.6047 280.378 11.6047C280.977 11.6047 281.475 11.8083 281.874 12.2154C282.273 12.6023 282.472 13.0603 282.472 13.5897C282.472 14.1394 282.273 14.6076 281.874 14.9944C281.495 15.3813 280.528 15.8393 278.973 16.3687C277.497 16.8777 276.291 17.4884 275.354 18.201C274.437 18.9136 273.42 20.0028 272.304 21.4686C271.207 22.9345 270.439 24.2171 270.001 25.3165C269.562 26.3955 268.894 28.92 267.997 32.8901L266.651 38.8145Z" fill="url(#paint10_linear)"/>
<path d="M266.651 38.8145H262.195L264.288 30.5997C265.305 26.5686 266.193 22.7411 266.95 19.1172C267.13 18.2214 267.219 17.6615 267.219 17.4375C267.219 16.9489 267 16.7046 266.561 16.7046C266.262 16.7046 265.804 16.9184 265.186 17.3459C264.568 17.7531 263.451 18.7812 261.836 20.4303L260.909 19.3615C262.823 17.2645 264.727 15.6968 266.621 14.6585C268.535 13.5999 270.001 13.0705 271.018 13.0705C271.376 13.0705 271.656 13.1621 271.855 13.3454C272.074 13.5082 272.184 13.722 272.184 13.9867C272.184 14.2513 272.054 14.9537 271.795 16.0938L270.509 21.5602C272.523 18.3232 274.796 15.5543 277.328 13.2537C278.544 12.1544 279.561 11.6047 280.378 11.6047C280.977 11.6047 281.475 11.8083 281.874 12.2154C282.273 12.6023 282.472 13.0603 282.472 13.5897C282.472 14.1394 282.273 14.6076 281.874 14.9944C281.495 15.3813 280.528 15.8393 278.973 16.3687C277.497 16.8777 276.291 17.4884 275.354 18.201C274.437 18.9136 273.42 20.0028 272.304 21.4686C271.207 22.9345 270.439 24.2171 270.001 25.3165C269.562 26.3955 268.894 28.92 267.997 32.8901L266.651 38.8145Z" fill="#531818" fill-opacity="0.11"/>
<path d="M299.878 12.6124L301.852 12.1849L299.609 19.9112C298.711 22.9854 297.864 26.5279 297.067 30.5386C296.628 32.717 296.409 34.1218 296.409 34.7529C296.409 35.384 296.658 35.6996 297.156 35.6996C297.475 35.6996 297.984 35.4858 298.682 35.0583C299.918 34.305 301.104 33.3685 302.24 32.2487L303.198 33.4398C300.925 35.5571 299.469 36.8397 298.831 37.2876C297.555 38.1834 296.339 38.8451 295.182 39.2726C294.425 39.5577 293.687 39.7002 292.969 39.7002C292.451 39.7002 292.062 39.578 291.803 39.3337C291.544 39.0894 291.414 38.7331 291.414 38.2649C291.414 37.9595 291.494 37.5421 291.653 37.0128L292.85 32.8595C291.135 34.9565 289.091 36.7583 286.719 38.2649C285.263 39.2014 283.927 39.6696 282.711 39.6696C281.555 39.6696 280.668 39.2523 280.049 38.4175C279.212 37.2978 278.793 35.8319 278.793 34.02C278.793 31.8619 279.352 29.4596 280.468 26.8129C281.605 24.1662 283.12 21.7638 285.014 19.6058C286.908 17.4477 288.902 15.8597 290.995 14.8418C292.61 14.0681 294.684 13.6813 297.216 13.6813C297.854 13.6813 298.502 13.722 299.16 13.8034L299.878 12.6124ZM296.169 17.2848C295.093 17.0609 294.186 16.9489 293.448 16.9489C291.653 16.9489 290.088 17.4579 288.752 18.4758C287.417 19.4734 286.17 21.2854 285.014 23.9117C283.878 26.5177 283.309 29.1236 283.309 31.7296C283.309 33.114 283.539 34.1116 283.997 34.7224C284.456 35.3331 285.054 35.6385 285.792 35.6385C287.167 35.6385 288.643 34.8852 290.218 33.3787C291.793 31.8517 292.949 29.6631 293.687 26.8129L296.169 17.2848Z" fill="url(#paint11_linear)"/>
<path d="M299.878 12.6124L301.852 12.1849L299.609 19.9112C298.711 22.9854 297.864 26.5279 297.067 30.5386C296.628 32.717 296.409 34.1218 296.409 34.7529C296.409 35.384 296.658 35.6996 297.156 35.6996C297.475 35.6996 297.984 35.4858 298.682 35.0583C299.918 34.305 301.104 33.3685 302.24 32.2487L303.198 33.4398C300.925 35.5571 299.469 36.8397 298.831 37.2876C297.555 38.1834 296.339 38.8451 295.182 39.2726C294.425 39.5577 293.687 39.7002 292.969 39.7002C292.451 39.7002 292.062 39.578 291.803 39.3337C291.544 39.0894 291.414 38.7331 291.414 38.2649C291.414 37.9595 291.494 37.5421 291.653 37.0128L292.85 32.8595C291.135 34.9565 289.091 36.7583 286.719 38.2649C285.263 39.2014 283.927 39.6696 282.711 39.6696C281.555 39.6696 280.668 39.2523 280.049 38.4175C279.212 37.2978 278.793 35.8319 278.793 34.02C278.793 31.8619 279.352 29.4596 280.468 26.8129C281.605 24.1662 283.12 21.7638 285.014 19.6058C286.908 17.4477 288.902 15.8597 290.995 14.8418C292.61 14.0681 294.684 13.6813 297.216 13.6813C297.854 13.6813 298.502 13.722 299.16 13.8034L299.878 12.6124ZM296.169 17.2848C295.093 17.0609 294.186 16.9489 293.448 16.9489C291.653 16.9489 290.088 17.4579 288.752 18.4758C287.417 19.4734 286.17 21.2854 285.014 23.9117C283.878 26.5177 283.309 29.1236 283.309 31.7296C283.309 33.114 283.539 34.1116 283.997 34.7224C284.456 35.3331 285.054 35.6385 285.792 35.6385C287.167 35.6385 288.643 34.8852 290.218 33.3787C291.793 31.8517 292.949 29.6631 293.687 26.8129L296.169 17.2848Z" fill="#531818" fill-opacity="0.11"/>
<path d="M306.009 20.1555L305.112 18.9339C307.085 16.9184 308.96 15.4322 310.734 14.4753C312.509 13.5184 313.904 13.04 314.921 13.04C315.34 13.04 315.649 13.1316 315.848 13.3148C316.068 13.4981 316.177 13.7525 316.177 14.0783C316.177 14.4855 316.018 15.2693 315.699 16.4298C315.24 18.1399 314.921 19.4938 314.742 20.4914C319.527 15.5238 323.185 13.04 325.717 13.04C326.375 13.04 326.874 13.2232 327.213 13.5897C327.552 13.9561 327.721 14.5364 327.721 15.3304C327.721 16.1855 327.422 17.6411 326.824 19.6974C329.097 17.2747 331.071 15.5645 332.746 14.5669C334.42 13.549 335.726 13.04 336.663 13.04C337.501 13.04 338.149 13.2843 338.607 13.7729C339.066 14.2615 339.295 15.0148 339.295 16.0328C339.295 16.6435 339.196 17.3663 338.996 18.201C338.797 19.0357 338.069 21.5806 336.813 25.8356C335.238 31.1086 334.45 34.2541 334.45 35.2721C334.45 35.9643 334.729 36.3104 335.288 36.3104C335.667 36.3104 336.035 36.1882 336.394 35.9439C337.571 35.0888 338.777 34.0302 340.013 32.7679L341 33.8673C340.581 34.2134 339.794 34.926 338.637 36.005C337.042 37.4708 335.946 38.387 335.348 38.7535C334.191 39.4457 333.214 39.7918 332.417 39.7918C331.819 39.7918 331.29 39.4864 330.832 38.8756C330.373 38.2852 330.144 37.4607 330.144 36.402C330.144 35.4248 330.283 34.2847 330.562 32.9817C330.842 31.6583 331.659 28.7063 333.015 24.1255C334.032 20.6848 334.54 18.598 334.54 17.8651C334.54 17.1729 334.241 16.8268 333.643 16.8268C333.144 16.8268 332.477 17.0813 331.639 17.5902C329.924 18.6489 328.489 19.9417 327.332 21.4686C326.535 22.5273 325.837 24.2069 325.239 26.5075C323.903 31.5362 322.906 35.6385 322.248 38.8145H318.001L322.458 20.1555C322.777 18.8118 322.936 18.0381 322.936 17.8345C322.936 17.5088 322.856 17.2645 322.697 17.1016C322.537 16.9184 322.308 16.8268 322.009 16.8268C321.471 16.8268 320.633 17.2543 319.497 18.1094C317.523 19.5549 316.097 20.9597 315.22 22.3237C314.363 23.6674 313.625 25.7237 313.007 28.4925L310.704 38.8145H306.427L309.807 24.2476C310.804 20.0333 311.302 17.7429 311.302 17.3765C311.302 16.9082 311.123 16.6741 310.764 16.6741C309.986 16.6741 308.401 17.8345 306.009 20.1555Z" fill="url(#paint12_linear)"/>
<path d="M306.009 20.1555L305.112 18.9339C307.085 16.9184 308.96 15.4322 310.734 14.4753C312.509 13.5184 313.904 13.04 314.921 13.04C315.34 13.04 315.649 13.1316 315.848 13.3148C316.068 13.4981 316.177 13.7525 316.177 14.0783C316.177 14.4855 316.018 15.2693 315.699 16.4298C315.24 18.1399 314.921 19.4938 314.742 20.4914C319.527 15.5238 323.185 13.04 325.717 13.04C326.375 13.04 326.874 13.2232 327.213 13.5897C327.552 13.9561 327.721 14.5364 327.721 15.3304C327.721 16.1855 327.422 17.6411 326.824 19.6974C329.097 17.2747 331.071 15.5645 332.746 14.5669C334.42 13.549 335.726 13.04 336.663 13.04C337.501 13.04 338.149 13.2843 338.607 13.7729C339.066 14.2615 339.295 15.0148 339.295 16.0328C339.295 16.6435 339.196 17.3663 338.996 18.201C338.797 19.0357 338.069 21.5806 336.813 25.8356C335.238 31.1086 334.45 34.2541 334.45 35.2721C334.45 35.9643 334.729 36.3104 335.288 36.3104C335.667 36.3104 336.035 36.1882 336.394 35.9439C337.571 35.0888 338.777 34.0302 340.013 32.7679L341 33.8673C340.581 34.2134 339.794 34.926 338.637 36.005C337.042 37.4708 335.946 38.387 335.348 38.7535C334.191 39.4457 333.214 39.7918 332.417 39.7918C331.819 39.7918 331.29 39.4864 330.832 38.8756C330.373 38.2852 330.144 37.4607 330.144 36.402C330.144 35.4248 330.283 34.2847 330.562 32.9817C330.842 31.6583 331.659 28.7063 333.015 24.1255C334.032 20.6848 334.54 18.598 334.54 17.8651C334.54 17.1729 334.241 16.8268 333.643 16.8268C333.144 16.8268 332.477 17.0813 331.639 17.5902C329.924 18.6489 328.489 19.9417 327.332 21.4686C326.535 22.5273 325.837 24.2069 325.239 26.5075C323.903 31.5362 322.906 35.6385 322.248 38.8145H318.001L322.458 20.1555C322.777 18.8118 322.936 18.0381 322.936 17.8345C322.936 17.5088 322.856 17.2645 322.697 17.1016C322.537 16.9184 322.308 16.8268 322.009 16.8268C321.471 16.8268 320.633 17.2543 319.497 18.1094C317.523 19.5549 316.097 20.9597 315.22 22.3237C314.363 23.6674 313.625 25.7237 313.007 28.4925L310.704 38.8145H306.427L309.807 24.2476C310.804 20.0333 311.302 17.7429 311.302 17.3765C311.302 16.9082 311.123 16.6741 310.764 16.6741C309.986 16.6741 308.401 17.8345 306.009 20.1555Z" fill="#531818" fill-opacity="0.11"/>
<path d="M367.554 12.4863L366.035 11.7417C367.603 8.62419 369.222 6.46973 370.89 5.27832C372.577 4.06706 374.464 3.46143 376.549 3.46143C379.051 3.46143 381.046 4.2557 382.536 5.84424C384.025 7.43278 384.77 9.28939 384.77 11.4141C384.77 12.7246 384.501 14.055 383.965 15.4053C383.429 16.7555 382.546 18.1654 381.314 19.6348C380.52 20.6077 378.336 22.6232 374.762 25.6812C369.956 29.8511 366.581 33.2168 364.635 35.7783C367.236 35.6592 369.917 35.5996 372.677 35.5996C373.57 35.5996 374.345 35.6095 375 35.6294C376.45 35.689 377.442 35.55 377.979 35.2124C378.515 34.8748 379.398 33.743 380.629 31.8169H382.685C381.076 34.0409 379.676 36.7712 378.485 40.0078C377.075 39.7497 375.586 39.5511 374.017 39.4121C372.448 39.293 370.8 39.2334 369.073 39.2334C367.027 39.2334 364.019 39.3625 360.048 39.6206L360.644 37.7441C362.451 35.0635 365.151 32.0353 368.745 28.6597C372.299 25.3237 374.593 22.9906 375.625 21.6602C377.115 19.734 378.197 17.9172 378.872 16.2095C379.388 14.9386 379.646 13.7075 379.646 12.5161C379.646 10.729 379.16 9.29932 378.187 8.22705C377.214 7.15479 376.013 6.61865 374.583 6.61865C373.392 6.61865 372.22 7.04557 371.068 7.89941C369.937 8.75325 368.765 10.2822 367.554 12.4863Z" fill="url(#paint13_linear)"/>
<path d="M367.554 12.4863L366.035 11.7417C367.603 8.62419 369.222 6.46973 370.89 5.27832C372.577 4.06706 374.464 3.46143 376.549 3.46143C379.051 3.46143 381.046 4.2557 382.536 5.84424C384.025 7.43278 384.77 9.28939 384.77 11.4141C384.77 12.7246 384.501 14.055 383.965 15.4053C383.429 16.7555 382.546 18.1654 381.314 19.6348C380.52 20.6077 378.336 22.6232 374.762 25.6812C369.956 29.8511 366.581 33.2168 364.635 35.7783C367.236 35.6592 369.917 35.5996 372.677 35.5996C373.57 35.5996 374.345 35.6095 375 35.6294C376.45 35.689 377.442 35.55 377.979 35.2124C378.515 34.8748 379.398 33.743 380.629 31.8169H382.685C381.076 34.0409 379.676 36.7712 378.485 40.0078C377.075 39.7497 375.586 39.5511 374.017 39.4121C372.448 39.293 370.8 39.2334 369.073 39.2334C367.027 39.2334 364.019 39.3625 360.048 39.6206L360.644 37.7441C362.451 35.0635 365.151 32.0353 368.745 28.6597C372.299 25.3237 374.593 22.9906 375.625 21.6602C377.115 19.734 378.197 17.9172 378.872 16.2095C379.388 14.9386 379.646 13.7075 379.646 12.5161C379.646 10.729 379.16 9.29932 378.187 8.22705C377.214 7.15479 376.013 6.61865 374.583 6.61865C373.392 6.61865 372.22 7.04557 371.068 7.89941C369.937 8.75325 368.765 10.2822 367.554 12.4863Z" fill="#531818" fill-opacity="0.11"/>
<path d="M403.355 3.55078C406.195 3.55078 408.469 4.59326 410.176 6.67822C411.904 8.76318 412.768 11.8807 412.768 16.0308C412.768 21.9282 411.278 27.4186 408.3 32.502C405.341 37.5654 401.747 40.0972 397.518 40.0972C395.035 40.0972 392.931 39.015 391.203 36.8506C389.495 34.6862 388.642 31.7375 388.642 28.0044C388.642 23.616 389.495 19.327 391.203 15.1372C392.911 10.9276 394.837 7.94906 396.981 6.20166C399.126 4.43441 401.251 3.55078 403.355 3.55078ZM402.819 5.30811C401.588 5.30811 400.327 6.13216 399.037 7.78027C397.766 9.40853 396.584 12.4069 395.492 16.7754C394.42 21.124 393.884 25.2741 393.884 29.2256C393.884 32.4027 394.34 34.716 395.254 36.1655C396.187 37.6151 397.25 38.3398 398.441 38.3398C399.493 38.3398 400.536 37.8136 401.568 36.7612C403.097 35.1925 404.477 32.2438 405.708 27.915C406.94 23.5664 407.555 19.1979 407.555 14.8096C407.555 11.4141 407.039 8.8724 406.006 7.18457C405.232 5.93359 404.17 5.30811 402.819 5.30811Z" fill="url(#paint14_linear)"/>
<path d="M403.355 3.55078C406.195 3.55078 408.469 4.59326 410.176 6.67822C411.904 8.76318 412.768 11.8807 412.768 16.0308C412.768 21.9282 411.278 27.4186 408.3 32.502C405.341 37.5654 401.747 40.0972 397.518 40.0972C395.035 40.0972 392.931 39.015 391.203 36.8506C389.495 34.6862 388.642 31.7375 388.642 28.0044C388.642 23.616 389.495 19.327 391.203 15.1372C392.911 10.9276 394.837 7.94906 396.981 6.20166C399.126 4.43441 401.251 3.55078 403.355 3.55078ZM402.819 5.30811C401.588 5.30811 400.327 6.13216 399.037 7.78027C397.766 9.40853 396.584 12.4069 395.492 16.7754C394.42 21.124 393.884 25.2741 393.884 29.2256C393.884 32.4027 394.34 34.716 395.254 36.1655C396.187 37.6151 397.25 38.3398 398.441 38.3398C399.493 38.3398 400.536 37.8136 401.568 36.7612C403.097 35.1925 404.477 32.2438 405.708 27.915C406.94 23.5664 407.555 19.1979 407.555 14.8096C407.555 11.4141 407.039 8.8724 406.006 7.18457C405.232 5.93359 404.17 5.30811 402.819 5.30811Z" fill="#531818" fill-opacity="0.11"/>
<path d="M421.286 12.4863L419.767 11.7417C421.336 8.62419 422.954 6.46973 424.622 5.27832C426.31 4.06706 428.196 3.46143 430.281 3.46143C432.783 3.46143 434.779 4.2557 436.268 5.84424C437.757 7.43278 438.502 9.28939 438.502 11.4141C438.502 12.7246 438.234 14.055 437.698 15.4053C437.162 16.7555 436.278 18.1654 435.047 19.6348C434.253 20.6077 432.068 22.6232 428.494 25.6812C423.689 29.8511 420.313 33.2168 418.367 35.7783C420.968 35.6592 423.649 35.5996 426.409 35.5996C427.303 35.5996 428.077 35.6095 428.732 35.6294C430.182 35.689 431.175 35.55 431.711 35.2124C432.247 34.8748 433.131 33.743 434.362 31.8169H436.417C434.809 34.0409 433.409 36.7712 432.217 40.0078C430.807 39.7497 429.318 39.5511 427.75 39.4121C426.181 39.293 424.533 39.2334 422.805 39.2334C420.76 39.2334 417.752 39.3625 413.78 39.6206L414.376 37.7441C416.183 35.0635 418.883 32.0353 422.478 28.6597C426.032 25.3237 428.325 22.9906 429.358 21.6602C430.847 19.734 431.929 17.9172 432.604 16.2095C433.121 14.9386 433.379 13.7075 433.379 12.5161C433.379 10.729 432.892 9.29932 431.919 8.22705C430.946 7.15479 429.745 6.61865 428.315 6.61865C427.124 6.61865 425.952 7.04557 424.801 7.89941C423.669 8.75325 422.497 10.2822 421.286 12.4863Z" fill="url(#paint15_linear)"/>
<path d="M421.286 12.4863L419.767 11.7417C421.336 8.62419 422.954 6.46973 424.622 5.27832C426.31 4.06706 428.196 3.46143 430.281 3.46143C432.783 3.46143 434.779 4.2557 436.268 5.84424C437.757 7.43278 438.502 9.28939 438.502 11.4141C438.502 12.7246 438.234 14.055 437.698 15.4053C437.162 16.7555 436.278 18.1654 435.047 19.6348C434.253 20.6077 432.068 22.6232 428.494 25.6812C423.689 29.8511 420.313 33.2168 418.367 35.7783C420.968 35.6592 423.649 35.5996 426.409 35.5996C427.303 35.5996 428.077 35.6095 428.732 35.6294C430.182 35.689 431.175 35.55 431.711 35.2124C432.247 34.8748 433.131 33.743 434.362 31.8169H436.417C434.809 34.0409 433.409 36.7712 432.217 40.0078C430.807 39.7497 429.318 39.5511 427.75 39.4121C426.181 39.293 424.533 39.2334 422.805 39.2334C420.76 39.2334 417.752 39.3625 413.78 39.6206L414.376 37.7441C416.183 35.0635 418.883 32.0353 422.478 28.6597C426.032 25.3237 428.325 22.9906 429.358 21.6602C430.847 19.734 431.929 17.9172 432.604 16.2095C433.121 14.9386 433.379 13.7075 433.379 12.5161C433.379 10.729 432.892 9.29932 431.919 8.22705C430.946 7.15479 429.745 6.61865 428.315 6.61865C427.124 6.61865 425.952 7.04557 424.801 7.89941C423.669 8.75325 422.497 10.2822 421.286 12.4863Z" fill="#531818" fill-opacity="0.11"/>
<path d="M457.088 3.55078C459.927 3.55078 462.201 4.59326 463.909 6.67822C465.636 8.76318 466.5 11.8807 466.5 16.0308C466.5 21.9282 465.011 27.4186 462.032 32.502C459.074 37.5654 455.479 40.0972 451.25 40.0972C448.768 40.0972 446.663 39.015 444.936 36.8506C443.228 34.6862 442.374 31.7375 442.374 28.0044C442.374 23.616 443.228 19.327 444.936 15.1372C446.643 10.9276 448.569 7.94906 450.714 6.20166C452.858 4.43441 454.983 3.55078 457.088 3.55078ZM456.552 5.30811C455.321 5.30811 454.06 6.13216 452.769 7.78027C451.498 9.40853 450.317 12.4069 449.225 16.7754C448.152 21.124 447.616 25.2741 447.616 29.2256C447.616 32.4027 448.073 34.716 448.986 36.1655C449.92 37.6151 450.982 38.3398 452.173 38.3398C453.226 38.3398 454.268 37.8136 455.301 36.7612C456.83 35.1925 458.21 32.2438 459.441 27.915C460.672 23.5664 461.288 19.1979 461.288 14.8096C461.288 11.4141 460.771 8.8724 459.739 7.18457C458.964 5.93359 457.902 5.30811 456.552 5.30811Z" fill="url(#paint16_linear)"/>
<path d="M457.088 3.55078C459.927 3.55078 462.201 4.59326 463.909 6.67822C465.636 8.76318 466.5 11.8807 466.5 16.0308C466.5 21.9282 465.011 27.4186 462.032 32.502C459.074 37.5654 455.479 40.0972 451.25 40.0972C448.768 40.0972 446.663 39.015 444.936 36.8506C443.228 34.6862 442.374 31.7375 442.374 28.0044C442.374 23.616 443.228 19.327 444.936 15.1372C446.643 10.9276 448.569 7.94906 450.714 6.20166C452.858 4.43441 454.983 3.55078 457.088 3.55078ZM456.552 5.30811C455.321 5.30811 454.06 6.13216 452.769 7.78027C451.498 9.40853 450.317 12.4069 449.225 16.7754C448.152 21.124 447.616 25.2741 447.616 29.2256C447.616 32.4027 448.073 34.716 448.986 36.1655C449.92 37.6151 450.982 38.3398 452.173 38.3398C453.226 38.3398 454.268 37.8136 455.301 36.7612C456.83 35.1925 458.21 32.2438 459.441 27.915C460.672 23.5664 461.288 19.1979 461.288 14.8096C461.288 11.4141 460.771 8.8724 459.739 7.18457C458.964 5.93359 457.902 5.30811 456.552 5.30811Z" fill="#531818" fill-opacity="0.11"/>
<defs>
<linearGradient id="paint0_linear" x1="341" y1="27.5" x2="2.22307e-06" y2="27.5" gradientUnits="userSpaceOnUse">
<stop stop-color="#DC802C"/>
<stop offset="1" stop-color="#FFCF31"/>
</linearGradient>
<linearGradient id="paint1_linear" x1="341" y1="27.5" x2="2.22307e-06" y2="27.5" gradientUnits="userSpaceOnUse">
<stop stop-color="#DC802C"/>
<stop offset="1" stop-color="#FFCF31"/>
</linearGradient>
<linearGradient id="paint2_linear" x1="341" y1="27.5" x2="2.22307e-06" y2="27.5" gradientUnits="userSpaceOnUse">
<stop stop-color="#DC802C"/>
<stop offset="1" stop-color="#FFCF31"/>
</linearGradient>
<linearGradient id="paint3_linear" x1="341" y1="27.5" x2="2.22307e-06" y2="27.5" gradientUnits="userSpaceOnUse">
<stop stop-color="#DC802C"/>
<stop offset="1" stop-color="#FFCF31"/>
</linearGradient>
<linearGradient id="paint4_linear" x1="341" y1="27.5" x2="2.22307e-06" y2="27.5" gradientUnits="userSpaceOnUse">
<stop stop-color="#DC802C"/>
<stop offset="1" stop-color="#FFCF31"/>
</linearGradient>
<linearGradient id="paint5_linear" x1="341" y1="27.5" x2="2.22307e-06" y2="27.5" gradientUnits="userSpaceOnUse">
<stop stop-color="#DC802C"/>
<stop offset="1" stop-color="#FFCF31"/>
</linearGradient>
<linearGradient id="paint6_linear" x1="341" y1="27.5" x2="2.22307e-06" y2="27.5" gradientUnits="userSpaceOnUse">
<stop stop-color="#DC802C"/>
<stop offset="1" stop-color="#FFCF31"/>
</linearGradient>
<linearGradient id="paint7_linear" x1="341" y1="27.5" x2="2.22307e-06" y2="27.5" gradientUnits="userSpaceOnUse">
<stop stop-color="#DC802C"/>
<stop offset="1" stop-color="#FFCF31"/>
</linearGradient>
<linearGradient id="paint8_linear" x1="341" y1="27.5" x2="2.22307e-06" y2="27.5" gradientUnits="userSpaceOnUse">
<stop stop-color="#DC802C"/>
<stop offset="1" stop-color="#FFCF31"/>
</linearGradient>
<linearGradient id="paint9_linear" x1="341" y1="27.5" x2="2.22307e-06" y2="27.5" gradientUnits="userSpaceOnUse">
<stop stop-color="#DC802C"/>
<stop offset="1" stop-color="#FFCF31"/>
</linearGradient>
<linearGradient id="paint10_linear" x1="341" y1="27.5" x2="2.22307e-06" y2="27.5" gradientUnits="userSpaceOnUse">
<stop stop-color="#DC802C"/>
<stop offset="1" stop-color="#FFCF31"/>
</linearGradient>
<linearGradient id="paint11_linear" x1="341" y1="27.5" x2="2.22307e-06" y2="27.5" gradientUnits="userSpaceOnUse">
<stop stop-color="#DC802C"/>
<stop offset="1" stop-color="#FFCF31"/>
</linearGradient>
<linearGradient id="paint12_linear" x1="341" y1="27.5" x2="2.22307e-06" y2="27.5" gradientUnits="userSpaceOnUse">
<stop stop-color="#DC802C"/>
<stop offset="1" stop-color="#FFCF31"/>
</linearGradient>
<linearGradient id="paint13_linear" x1="341" y1="27.5" x2="2.22307e-06" y2="27.5" gradientUnits="userSpaceOnUse">
<stop stop-color="#DC802C"/>
<stop offset="1" stop-color="#FFCF31"/>
</linearGradient>
<linearGradient id="paint14_linear" x1="341" y1="27.5" x2="2.22307e-06" y2="27.5" gradientUnits="userSpaceOnUse">
<stop stop-color="#DC802C"/>
<stop offset="1" stop-color="#FFCF31"/>
</linearGradient>
<linearGradient id="paint15_linear" x1="341" y1="27.5" x2="2.22307e-06" y2="27.5" gradientUnits="userSpaceOnUse">
<stop stop-color="#DC802C"/>
<stop offset="1" stop-color="#FFCF31"/>
</linearGradient>
<linearGradient id="paint16_linear" x1="341" y1="27.5" x2="2.22307e-06" y2="27.5" gradientUnits="userSpaceOnUse">
<stop stop-color="#DC802C"/>
<stop offset="1" stop-color="#FFCF31"/>
</linearGradient>
</defs>
</svg>
