<svg width="442" height="57" viewBox="0 0 442 57" fill="none" xmlns="http://www.w3.org/2000/svg">
<path d="M16.6531 13.249L17.0013 11.8357C19.2065 11.6787 21.5859 11.2862 24.1393 10.6581C23.4622 12.6798 22.969 14.3089 22.6595 15.5455L21.0926 22.1111C24.5165 22.1111 27.0892 21.2474 28.8109 19.5201C30.5518 17.7732 31.4223 15.7025 31.4223 13.3079C31.4223 11.6395 30.7936 10.2949 29.5363 9.27428C28.2983 8.25362 26.4412 7.74329 23.9652 7.74329C20.4639 7.74329 17.1271 8.58729 13.9546 10.2753C10.7822 11.9633 8.30616 14.1715 6.52651 16.8998C4.7662 19.6085 3.88605 22.327 3.88605 25.0553C3.88605 25.8011 3.98277 26.4979 4.17621 27.1457C4.38899 27.7738 4.68882 28.3528 5.07571 28.8827C5.30783 29.1968 5.82045 29.6286 6.61356 30.1782C7.50339 30.8063 8.05469 31.2774 8.26748 31.5914C8.48026 31.8858 8.58665 32.2392 8.58665 32.6513C8.58665 33.0635 8.4319 33.4267 8.1224 33.7407C7.83223 34.0351 7.47437 34.1823 7.0488 34.1823C5.94619 34.1823 4.82423 33.3678 3.68293 31.7386C2.56098 30.1095 2 28.0976 2 25.703C2 22.4055 2.9672 19.2159 4.90161 16.1343C6.85536 13.0331 9.61189 10.5501 13.1712 8.68543C16.7305 6.82076 20.6477 5.88843 24.9227 5.88843C28.4046 5.88843 31.0451 6.58523 32.8441 7.97882C34.6624 9.37242 35.5716 11.0702 35.5716 13.0723C35.5716 14.9762 34.9623 16.7133 33.7436 18.2836C32.5249 19.8342 30.6776 21.0315 28.2015 21.8755C29.9038 22.1503 31.2482 22.6214 32.2348 23.2887C33.2213 23.9365 33.9757 24.7608 34.498 25.7619C35.0397 26.7629 35.3105 27.9112 35.3105 29.2066C35.3105 31.3264 34.6915 33.3383 33.4534 35.2423C32.2348 37.1265 30.4261 38.6968 28.0274 39.953C25.6481 41.1896 23.1624 41.8078 20.5703 41.8078C19.8159 41.8078 18.2007 41.7293 15.7246 41.5723C14.5446 41.5134 13.3066 41.484 12.0106 41.484C10.0375 41.484 8.28682 41.641 6.75864 41.9551L7.19388 40.3357C9.22501 40.218 10.6661 39.7273 11.5173 38.8636C12.3878 37.9804 13.2002 36.047 13.9546 33.0635L18.249 15.9576C18.4231 15.2314 18.5102 14.6818 18.5102 14.3089C18.5102 14.0145 18.3844 13.7593 18.1329 13.5434C17.9008 13.3079 17.601 13.1901 17.2334 13.1901C17.0787 13.1901 16.8853 13.2097 16.6531 13.249ZM20.6283 23.8776L19.1485 29.7955C18.3941 32.8574 17.6687 35.2128 16.9723 36.8616C16.5661 37.843 16.0438 38.6772 15.4054 39.3642C17.1464 39.796 18.6456 40.0119 19.9029 40.0119C23.2881 40.0119 25.8416 38.952 27.5632 36.8321C29.3041 34.7123 30.1746 32.3471 30.1746 29.7366C30.1746 28.4411 29.8458 27.3321 29.1881 26.4096C28.5497 25.4675 27.6986 24.8099 26.6347 24.437C25.5901 24.064 23.588 23.8776 20.6283 23.8776Z" fill="#761B2B"/>
<path d="M53.9678 34.094L54.9254 35.3895C50.1861 39.9628 46.1238 42.2495 42.7386 42.2495C41.3652 42.2495 40.3109 41.7784 39.5758 40.8363C38.8601 39.8941 38.5022 38.3827 38.5022 36.3022C38.5022 32.1018 39.7596 27.921 42.2743 23.7598C45.0986 19.0294 48.4741 16.6643 52.401 16.6643C53.7744 16.6643 54.819 17.0176 55.5347 17.7242C56.2698 18.4112 56.6373 19.3631 56.6373 20.5801C56.6373 21.8559 56.2021 23.1121 55.3316 24.3487C54.4611 25.5852 52.9039 26.8709 50.66 28.2056C49.538 28.8533 47.1394 30.0212 43.464 31.7092C43.2899 32.7691 43.2029 33.78 43.2029 34.7417C43.2029 36.1353 43.4156 37.1069 43.8412 37.6565C44.2861 38.2061 44.9245 38.4809 45.7563 38.4809C46.5494 38.4809 47.4199 38.2552 48.3677 37.8037C49.6444 37.1952 51.5111 35.9587 53.9678 34.094ZM43.8122 29.8249C46.9266 28.4117 49.2672 26.8905 50.8341 25.2614C51.898 24.1229 52.43 22.9943 52.43 21.8755C52.43 21.0315 52.2075 20.3642 51.7626 19.8735C51.337 19.3631 50.7761 19.108 50.0797 19.108C49.3639 19.108 48.6675 19.3827 47.9905 19.9323C47.0813 20.6586 46.3172 21.7577 45.6982 23.2299C44.8084 25.3889 44.1797 27.5873 43.8122 29.8249Z" fill="#761B2B"/>
<path d="M78.7476 16.2226L80.6626 15.8104L78.4864 23.2593C77.6159 26.2231 76.7938 29.6384 76.0201 33.5052C75.5945 35.6054 75.3817 36.9597 75.3817 37.5682C75.3817 38.1767 75.6235 38.4809 76.1071 38.4809C76.4166 38.4809 76.9099 38.2748 77.5869 37.8626C78.7862 37.1364 79.9372 36.2335 81.0398 35.1539L81.9683 36.3022C79.7631 38.3435 78.351 39.5801 77.732 40.0119C76.494 40.8755 75.314 41.5134 74.192 41.9256C73.457 42.2004 72.7412 42.3378 72.0448 42.3378C71.5419 42.3378 71.1647 42.22 70.9132 41.9845C70.6617 41.749 70.536 41.4055 70.536 40.954C70.536 40.6596 70.6134 40.2572 70.7681 39.7469L71.9288 35.7428C70.2652 37.7645 68.2824 39.5015 65.9805 40.954C64.5684 41.8569 63.2723 42.3084 62.0923 42.3084C60.9704 42.3084 60.1096 41.906 59.5099 41.1012C58.6974 40.0217 58.2912 38.6085 58.2912 36.8616C58.2912 34.781 58.8329 32.4649 59.9161 29.9132C61.0187 27.3616 62.4889 25.0455 64.3266 22.9649C66.1642 20.8843 68.0987 19.3533 70.1298 18.3719C71.6966 17.626 73.7084 17.2531 76.1651 17.2531C76.7841 17.2531 77.4128 17.2924 78.0512 17.3709L78.7476 16.2226ZM75.1496 20.7273C74.105 20.5114 73.2248 20.4034 72.5091 20.4034C70.7681 20.4034 69.2496 20.8941 67.9536 21.8755C66.6575 22.8373 65.4485 24.5842 64.3266 27.1162C63.224 29.6286 62.6726 32.141 62.6726 34.6534C62.6726 35.9881 62.8951 36.9499 63.34 37.5387C63.7849 38.1276 64.3652 38.422 65.081 38.422C66.4157 38.422 67.8472 37.6958 69.3754 36.2433C70.9035 34.7712 72.0255 32.6612 72.7412 29.9132L75.1496 20.7273Z" fill="#761B2B"/>
<path d="M103.527 17.5181H107.648L104.92 27.7934C103.315 33.7603 102.512 37.156 102.512 37.9804C102.512 38.3533 102.599 38.6379 102.773 38.8342C102.947 39.0305 103.14 39.1286 103.353 39.1286C103.682 39.1286 104.069 38.9814 104.514 38.687C105.152 38.2355 106.361 37.0971 108.141 35.2717L109.098 36.3611C105.21 40.4633 102.347 42.5145 100.51 42.5145C99.8906 42.5145 99.3587 42.2691 98.9137 41.7784C98.4882 41.3073 98.2754 40.6302 98.2754 39.7469C98.2754 38.7262 98.4882 37.3621 98.9137 35.6544C97.1921 37.6565 95.0643 39.4132 92.5302 40.9246C90.8473 41.9256 89.3868 42.4261 88.1488 42.4261C87.4717 42.4261 86.9398 42.2004 86.5529 41.749C86.166 41.2975 85.9726 40.5811 85.9726 39.5997C85.9726 38.8342 86.0596 38.0098 86.2337 37.1265C86.4852 35.89 87.1235 33.407 88.1488 29.6777C89.4448 24.9473 90.0928 22.1111 90.0928 21.1689C90.0928 20.6193 89.8994 20.3445 89.5125 20.3445C89.1643 20.3445 88.6904 20.531 88.0907 20.9039C87.4911 21.2572 86.4658 22.1307 85.015 23.5243L83.7383 22.4938C86.3304 20.1384 88.3035 18.5976 89.6576 17.8714C91.031 17.1255 92.1337 16.7526 92.9654 16.7526C93.4297 16.7526 93.8069 16.9292 94.0971 17.2825C94.3872 17.6162 94.5323 18.1462 94.5323 18.8724C94.5323 20.2268 93.8359 23.5537 92.4432 28.8533C91.2051 33.6229 90.5861 36.3414 90.5861 37.0088C90.5861 37.421 90.7119 37.7743 90.9633 38.0687C91.2342 38.3631 91.5243 38.5103 91.8338 38.5103C92.9171 38.5103 94.4549 37.6074 96.4474 35.8017C98.4398 33.9762 99.7455 31.9055 100.365 29.5894L103.527 17.5181Z" fill="#761B2B"/>
<path d="M119.37 12.189L123.984 10.3931L121.894 18.6369H127.901L127.437 20.7273H121.43L118.877 30.5904C118.084 33.5542 117.687 35.6152 117.687 36.7732C117.687 37.3032 117.794 37.686 118.006 37.9215C118.238 38.157 118.548 38.2748 118.935 38.2748C119.535 38.2748 120.453 37.9117 121.691 37.1854C123.316 36.2237 124.864 35.1343 126.334 33.9174L127.437 35.2717C123.2 38.5103 120.366 40.4928 118.935 41.219C117.503 41.9452 116.352 42.3084 115.482 42.3084C114.766 42.3084 114.196 42.0434 113.77 41.5134C113.364 40.9835 113.161 40.1198 113.161 38.9225C113.161 37.5093 113.528 35.3502 114.263 32.4452L117.252 20.7273H112.551L113.074 18.6369H117.745L119.37 12.189Z" fill="#761B2B"/>
<path d="M130.193 22.6999L129.265 21.3161L131.412 19.844C133.501 18.3915 134.971 17.4592 135.822 17.047C136.306 16.8115 136.751 16.6937 137.157 16.6937C137.563 16.6937 137.95 16.9292 138.318 17.4003C140.02 19.579 141.451 22.5232 142.612 26.233C143.773 29.923 144.353 33.5052 144.353 36.9793C144.353 37.4308 144.334 38.1178 144.295 39.0403C147.564 32.936 149.199 28.0878 149.199 24.4959C149.199 23.75 149.034 22.7588 148.705 21.5222C148.357 20.1482 148.183 19.1668 148.183 18.578C148.183 18.0088 148.357 17.5377 148.705 17.1648C149.073 16.7918 149.527 16.6054 150.069 16.6054C150.746 16.6054 151.288 16.8704 151.694 17.4003C152.12 17.9303 152.332 18.686 152.332 19.6674C152.332 22.1994 151.762 25.3595 150.62 29.1477C149.479 32.9163 147.68 36.9793 145.223 41.3368C142.786 45.6746 140.552 48.8936 138.521 50.9938C136.509 53.1136 134.555 54.625 132.659 55.5279C130.783 56.4504 129.003 56.9117 127.32 56.9117C126.044 56.9117 125.086 56.6663 124.448 56.1756C123.79 55.7045 123.461 55.1353 123.461 54.468C123.461 53.8791 123.713 53.3688 124.216 52.937C124.719 52.5248 125.396 52.3187 126.247 52.3187C126.905 52.3187 127.804 52.4463 128.945 52.7014C130.164 52.9762 130.996 53.1136 131.441 53.1136C132.621 53.1136 133.868 52.6131 135.184 51.6121C136.983 50.2381 138.405 48.5992 139.449 46.6952C140.513 44.7913 141.045 42.8678 141.045 40.9246C141.045 38.1963 140.649 34.9184 139.855 31.0909C139.082 27.2634 137.979 24.3388 136.548 22.3171C135.832 21.2769 135.068 20.7567 134.255 20.7567C133.307 20.7567 131.953 21.4044 130.193 22.6999Z" fill="#761B2B"/>
<path d="M180.71 13.249L181.058 11.8357C183.264 11.6787 185.643 11.2862 188.196 10.6581C187.519 12.6798 187.026 14.3089 186.716 15.5455L185.15 22.1111C188.573 22.1111 191.146 21.2474 192.868 19.5201C194.609 17.7732 195.479 15.7025 195.479 13.3079C195.479 11.6395 194.851 10.2949 193.593 9.27428C192.355 8.25362 190.498 7.74329 188.022 7.74329C184.521 7.74329 181.184 8.58729 178.012 10.2753C174.839 11.9633 172.363 14.1715 170.583 16.8998C168.823 19.6085 167.943 22.327 167.943 25.0553C167.943 25.8011 168.04 26.4979 168.233 27.1457C168.446 27.7738 168.746 28.3528 169.133 28.8827C169.365 29.1968 169.877 29.6286 170.671 30.1782C171.56 30.8063 172.112 31.2774 172.324 31.5914C172.537 31.8858 172.644 32.2392 172.644 32.6513C172.644 33.0635 172.489 33.4267 172.179 33.7407C171.889 34.0351 171.531 34.1823 171.106 34.1823C170.003 34.1823 168.881 33.3678 167.74 31.7386C166.618 30.1095 166.057 28.0976 166.057 25.703C166.057 22.4055 167.024 19.2159 168.959 16.1343C170.912 13.0331 173.669 10.5501 177.228 8.68543C180.787 6.82076 184.705 5.88843 188.98 5.88843C192.462 5.88843 195.102 6.58523 196.901 7.97882C198.719 9.37242 199.629 11.0702 199.629 13.0723C199.629 14.9762 199.019 16.7133 197.801 18.2836C196.582 19.8342 194.735 21.0315 192.259 21.8755C193.961 22.1503 195.305 22.6214 196.292 23.2887C197.278 23.9365 198.033 24.7608 198.555 25.7619C199.097 26.7629 199.367 27.9112 199.367 29.2066C199.367 31.3264 198.748 33.3383 197.51 35.2423C196.292 37.1265 194.483 38.6968 192.084 39.953C189.705 41.1896 187.219 41.8078 184.627 41.8078C183.873 41.8078 182.258 41.7293 179.782 41.5723C178.602 41.5134 177.364 41.484 176.068 41.484C174.094 41.484 172.344 41.641 170.816 41.9551L171.251 40.3357C173.282 40.218 174.723 39.7273 175.574 38.8636C176.445 37.9804 177.257 36.047 178.012 33.0635L182.306 15.9576C182.48 15.2314 182.567 14.6818 182.567 14.3089C182.567 14.0145 182.441 13.7593 182.19 13.5434C181.958 13.3079 181.658 13.1901 181.29 13.1901C181.136 13.1901 180.942 13.2097 180.71 13.249ZM184.685 23.8776L183.205 29.7955C182.451 32.8574 181.726 35.2128 181.029 36.8616C180.623 37.843 180.101 38.6772 179.462 39.3642C181.203 39.796 182.703 40.0119 183.96 40.0119C187.345 40.0119 189.899 38.952 191.62 36.8321C193.361 34.7123 194.232 32.3471 194.232 29.7366C194.232 28.4411 193.903 27.3321 193.245 26.4096C192.607 25.4675 191.756 24.8099 190.692 24.437C189.647 24.064 187.645 23.8776 184.685 23.8776Z" fill="#761B2B"/>
<path d="M222.609 16.2226L224.524 15.8104L222.348 23.2593C221.478 26.2231 220.656 29.6384 219.882 33.5052C219.456 35.6054 219.243 36.9597 219.243 37.5682C219.243 38.1767 219.485 38.4809 219.969 38.4809C220.278 38.4809 220.772 38.2748 221.449 37.8626C222.648 37.1364 223.799 36.2335 224.902 35.1539L225.83 36.3022C223.625 38.3435 222.213 39.5801 221.594 40.0119C220.356 40.8755 219.176 41.5134 218.054 41.9256C217.319 42.2004 216.603 42.3378 215.907 42.3378C215.404 42.3378 215.026 42.22 214.775 41.9845C214.524 41.749 214.398 41.4055 214.398 40.954C214.398 40.6596 214.475 40.2572 214.63 39.7469L215.791 35.7428C214.127 37.7645 212.144 39.5015 209.842 40.954C208.43 41.8569 207.134 42.3084 205.954 42.3084C204.832 42.3084 203.971 41.906 203.372 41.1012C202.559 40.0217 202.153 38.6085 202.153 36.8616C202.153 34.781 202.695 32.4649 203.778 29.9132C204.881 27.3616 206.351 25.0455 208.188 22.9649C210.026 20.8843 211.96 19.3533 213.992 18.3719C215.558 17.626 217.57 17.2531 220.027 17.2531C220.646 17.2531 221.275 17.2924 221.913 17.3709L222.609 16.2226ZM219.011 20.7273C217.967 20.5114 217.087 20.4034 216.371 20.4034C214.63 20.4034 213.111 20.8941 211.815 21.8755C210.519 22.8373 209.31 24.5842 208.188 27.1162C207.086 29.6286 206.534 32.141 206.534 34.6534C206.534 35.9881 206.757 36.9499 207.202 37.5387C207.647 38.1276 208.227 38.422 208.943 38.422C210.277 38.422 211.709 37.6958 213.237 36.2433C214.765 34.7712 215.887 32.6612 216.603 29.9132L219.011 20.7273Z" fill="#761B2B"/>
<path d="M235.899 12.189L240.512 10.3931L238.423 18.6369H244.429L243.965 20.7273H237.959L235.405 30.5904C234.612 33.5542 234.216 35.6152 234.216 36.7732C234.216 37.3032 234.322 37.686 234.535 37.9215C234.767 38.157 235.077 38.2748 235.463 38.2748C236.063 38.2748 236.982 37.9117 238.22 37.1854C239.845 36.2237 241.392 35.1343 242.863 33.9174L243.965 35.2717C239.729 38.5103 236.895 40.4928 235.463 41.219C234.032 41.9452 232.881 42.3084 232.011 42.3084C231.295 42.3084 230.724 42.0434 230.299 41.5134C229.892 40.9835 229.689 40.1198 229.689 38.9225C229.689 37.5093 230.057 35.3502 230.792 32.4452L233.781 20.7273H229.08L229.602 18.6369H234.274L235.899 12.189Z" fill="#761B2B"/>
<path d="M254.933 12.189L259.547 10.3931L257.458 18.6369H263.464L263 20.7273H256.993L254.44 30.5904C253.647 33.5542 253.25 35.6152 253.25 36.7732C253.25 37.3032 253.357 37.686 253.57 37.9215C253.802 38.157 254.111 38.2748 254.498 38.2748C255.098 38.2748 256.017 37.9117 257.255 37.1854C258.879 36.2237 260.427 35.1343 261.897 33.9174L263 35.2717C258.763 38.5103 255.929 40.4928 254.498 41.219C253.067 41.9452 251.916 42.3084 251.045 42.3084C250.329 42.3084 249.759 42.0434 249.333 41.5134C248.927 40.9835 248.724 40.1198 248.724 38.9225C248.724 37.5093 249.091 35.3502 249.826 32.4452L252.815 20.7273H248.114L248.637 18.6369H253.308L254.933 12.189Z" fill="#761B2B"/>
<path d="M277.914 34.3884L278.901 35.4483C277.392 37.1756 275.602 38.7557 273.533 40.1885C271.482 41.6018 269.789 42.3084 268.455 42.3084C267.855 42.3084 267.362 42.0728 266.975 41.6018C266.588 41.1503 266.395 40.5222 266.395 39.7175C266.395 38.1472 266.994 34.8889 268.194 29.9427L271.327 17.0176C272.469 12.3461 273.426 9.21539 274.2 7.62552C275.399 5.21126 277.092 3.33678 279.278 2.00207C281.483 0.667355 283.804 0 286.242 0C287.073 0 287.721 0.206095 288.186 0.618285C288.669 1.01085 288.911 1.49174 288.911 2.06095C288.911 2.68905 288.679 3.20919 288.215 3.62138C287.75 4.01395 287.073 4.21023 286.184 4.21023C285.603 4.21023 284.781 4.11209 283.717 3.91581C282.789 3.75878 281.928 3.68027 281.135 3.68027C280.342 3.68027 279.742 3.84711 279.336 4.18079C278.775 4.65186 278.262 5.64308 277.798 7.15444C277.353 8.66581 276.618 11.6493 275.593 16.1049L272.72 28.4411C271.289 34.624 270.573 37.8528 270.573 38.1276C270.573 38.7557 270.795 39.0697 271.24 39.0697C271.666 39.0697 272.285 38.8146 273.097 38.3042C274.703 37.2836 276.308 35.9783 277.914 34.3884Z" fill="#761B2B"/>
<path d="M295.324 34.094L296.281 35.3895C291.542 39.9628 287.48 42.2495 284.094 42.2495C282.721 42.2495 281.667 41.7784 280.932 40.8363C280.216 39.8941 279.858 38.3827 279.858 36.3022C279.858 32.1018 281.115 27.921 283.63 23.7598C286.454 19.0294 289.83 16.6643 293.757 16.6643C295.13 16.6643 296.175 17.0176 296.891 17.7242C297.626 18.4112 297.993 19.3631 297.993 20.5801C297.993 21.8559 297.558 23.1121 296.687 24.3487C295.817 25.5852 294.26 26.8709 292.016 28.2056C290.894 28.8533 288.495 30.0212 284.82 31.7092C284.646 32.7691 284.559 33.78 284.559 34.7417C284.559 36.1353 284.771 37.1069 285.197 37.6565C285.642 38.2061 286.28 38.4809 287.112 38.4809C287.905 38.4809 288.776 38.2552 289.724 37.8037C291 37.1952 292.867 35.9587 295.324 34.094ZM285.168 29.8249C288.282 28.4117 290.623 26.8905 292.19 25.2614C293.254 24.1229 293.786 22.9943 293.786 21.8755C293.786 21.0315 293.563 20.3642 293.118 19.8735C292.693 19.3631 292.132 19.108 291.436 19.108C290.72 19.108 290.023 19.3827 289.346 19.9323C288.437 20.6586 287.673 21.7577 287.054 23.2299C286.164 25.3889 285.536 27.5873 285.168 29.8249Z" fill="#761B2B"/>
<path d="M330.984 41.9845C332.725 43.6333 334.341 45.2231 335.83 46.7541C338.519 49.5021 340.395 51.2784 341.459 52.0832C342.968 53.2216 344.274 53.9969 345.376 54.4091C346.479 54.8409 347.485 55.0568 348.394 55.0568C349.168 55.0568 349.864 54.939 350.483 54.7035C351.102 54.468 351.663 54.1147 352.166 53.6436C352.456 53.3688 352.834 52.7701 353.298 51.8476C353.801 50.8466 354.439 50.3461 355.213 50.3461C355.6 50.3461 355.938 50.4933 356.228 50.7877C356.519 51.1018 356.664 51.4649 356.664 51.8771C356.664 52.937 355.88 53.9576 354.313 54.939C352.128 56.313 349.632 57 346.827 57C344.951 57 343.423 56.8037 342.243 56.4112C340.618 55.8616 339.07 55.0666 337.6 54.0263C336.149 52.9861 334.205 51.1803 331.768 48.609C329.543 46.2929 328.083 44.8208 327.386 44.1927C326.709 43.5842 326.032 43.0739 325.355 42.6617C324.988 42.4261 324.108 42.0336 322.715 41.484C320.007 40.3848 317.947 38.7361 316.534 36.5377C315.122 34.3394 314.416 31.6896 314.416 28.5883C314.416 23.2495 316.225 18.1854 319.842 13.3962C323.46 8.60692 328.131 6.21229 333.857 6.21229C336.585 6.21229 338.925 6.77169 340.879 7.8905C342.833 8.98967 344.371 10.6188 345.492 12.7779C346.634 14.937 347.204 17.3709 347.204 20.0795C347.204 24.8884 345.667 29.5305 342.591 34.0057C339.535 38.4809 335.666 41.1405 330.984 41.9845ZM332.29 8.36157C330.046 8.36157 327.976 9.03874 326.081 10.3931C324.204 11.7278 322.667 13.828 321.467 16.6937C320.268 19.5398 319.668 22.8471 319.668 26.6157C319.668 30.9339 320.606 34.2707 322.483 36.626C324.359 38.9618 326.7 40.1297 329.505 40.1297C331.594 40.1297 333.567 39.4328 335.424 38.0393C337.3 36.6457 338.838 34.4571 340.037 31.4737C341.256 28.4706 341.865 25.0258 341.865 21.1395C341.865 17.1157 340.937 13.985 339.08 11.7474C337.242 9.49019 334.979 8.36157 332.29 8.36157Z" fill="#761B2B"/>
<path d="M368.676 17.5181H372.797L370.069 27.7934C368.464 33.7603 367.661 37.156 367.661 37.9804C367.661 38.3533 367.748 38.6379 367.922 38.8342C368.096 39.0305 368.289 39.1286 368.502 39.1286C368.831 39.1286 369.218 38.9814 369.663 38.687C370.301 38.2355 371.51 37.0971 373.29 35.2717L374.247 36.3611C370.359 40.4633 367.496 42.5145 365.659 42.5145C365.04 42.5145 364.508 42.2691 364.063 41.7784C363.637 41.3073 363.424 40.6302 363.424 39.7469C363.424 38.7262 363.637 37.3621 364.063 35.6544C362.341 37.6565 360.213 39.4132 357.679 40.9246C355.996 41.9256 354.536 42.4261 353.298 42.4261C352.621 42.4261 352.089 42.2004 351.702 41.749C351.315 41.2975 351.122 40.5811 351.122 39.5997C351.122 38.8342 351.209 38.0098 351.383 37.1265C351.634 35.89 352.273 33.407 353.298 29.6777C354.594 24.9473 355.242 22.1111 355.242 21.1689C355.242 20.6193 355.048 20.3445 354.662 20.3445C354.313 20.3445 353.839 20.531 353.24 20.9039C352.64 21.2572 351.615 22.1307 350.164 23.5243L348.887 22.4938C351.479 20.1384 353.453 18.5976 354.807 17.8714C356.18 17.1255 357.283 16.7526 358.114 16.7526C358.579 16.7526 358.956 16.9292 359.246 17.2825C359.536 17.6162 359.681 18.1462 359.681 18.8724C359.681 20.2268 358.985 23.5537 357.592 28.8533C356.354 33.6229 355.735 36.3414 355.735 37.0088C355.735 37.421 355.861 37.7743 356.112 38.0687C356.383 38.3631 356.673 38.5103 356.983 38.5103C358.066 38.5103 359.604 37.6074 361.596 35.8017C363.589 33.9762 364.895 31.9055 365.514 29.5894L368.676 17.5181Z" fill="#761B2B"/>
<path d="M391.599 34.094L392.557 35.3895C387.817 39.9628 383.755 42.2495 380.37 42.2495C378.996 42.2495 377.942 41.7784 377.207 40.8363C376.491 39.8941 376.133 38.3827 376.133 36.3022C376.133 32.1018 377.391 27.921 379.906 23.7598C382.73 19.0294 386.105 16.6643 390.032 16.6643C391.406 16.6643 392.45 17.0176 393.166 17.7242C393.901 18.4112 394.269 19.3631 394.269 20.5801C394.269 21.8559 393.833 23.1121 392.963 24.3487C392.092 25.5852 390.535 26.8709 388.291 28.2056C387.169 28.8533 384.771 30.0212 381.095 31.7092C380.921 32.7691 380.834 33.78 380.834 34.7417C380.834 36.1353 381.047 37.1069 381.472 37.6565C381.917 38.2061 382.556 38.4809 383.388 38.4809C384.181 38.4809 385.051 38.2552 385.999 37.8037C387.276 37.1952 389.142 35.9587 391.599 34.094ZM381.443 29.8249C384.558 28.4117 386.898 26.8905 388.465 25.2614C389.529 24.1229 390.061 22.9943 390.061 21.8755C390.061 21.0315 389.839 20.3642 389.394 19.8735C388.968 19.3631 388.407 19.108 387.711 19.108C386.995 19.108 386.299 19.3827 385.622 19.9323C384.713 20.6586 383.948 21.7577 383.329 23.2299C382.44 25.3889 381.811 27.5873 381.443 29.8249Z" fill="#761B2B"/>
<path d="M411.794 34.094L412.752 35.3895C408.012 39.9628 403.95 42.2495 400.565 42.2495C399.192 42.2495 398.137 41.7784 397.402 40.8363C396.687 39.8941 396.329 38.3827 396.329 36.3022C396.329 32.1018 397.586 27.921 400.101 23.7598C402.925 19.0294 406.301 16.6643 410.227 16.6643C411.601 16.6643 412.645 17.0176 413.361 17.7242C414.096 18.4112 414.464 19.3631 414.464 20.5801C414.464 21.8559 414.029 23.1121 413.158 24.3487C412.288 25.5852 410.73 26.8709 408.486 28.2056C407.364 28.8533 404.966 30.0212 401.29 31.7092C401.116 32.7691 401.029 33.78 401.029 34.7417C401.029 36.1353 401.242 37.1069 401.668 37.6565C402.113 38.2061 402.751 38.4809 403.583 38.4809C404.376 38.4809 405.246 38.2552 406.194 37.8037C407.471 37.1952 409.338 35.9587 411.794 34.094ZM401.639 29.8249C404.753 28.4117 407.094 26.8905 408.661 25.2614C409.724 24.1229 410.256 22.9943 410.256 21.8755C410.256 21.0315 410.034 20.3642 409.589 19.8735C409.163 19.3631 408.602 19.108 407.906 19.108C407.19 19.108 406.494 19.3827 405.817 19.9323C404.908 20.6586 404.144 21.7577 403.525 23.2299C402.635 25.3889 402.006 27.5873 401.639 29.8249Z" fill="#761B2B"/>
<path d="M417.655 23.6126L416.669 22.5821C419.145 20.1875 421.118 18.5976 422.588 17.8125C424.058 17.0274 425.316 16.6348 426.36 16.6348C426.767 16.6348 427.086 16.7231 427.318 16.8998C427.55 17.0764 427.666 17.2825 427.666 17.5181C427.666 17.6947 427.618 18.0088 427.521 18.4602L426.215 24.3781C428.188 22.1601 430.664 20.0894 433.643 18.1658C435.23 17.1648 436.535 16.6643 437.561 16.6643C438.315 16.6643 438.905 16.9096 439.331 17.4003C439.756 17.891 439.969 18.5976 439.969 19.5201C439.969 20.1286 439.882 20.8156 439.708 21.5811C439.398 22.8569 438.586 25.6343 437.27 29.9132C436.032 33.9174 435.413 36.577 435.413 37.892C435.413 38.2846 435.471 38.579 435.587 38.7753C435.704 38.9716 435.868 39.0697 436.081 39.0697C436.642 39.0697 437.522 38.5201 438.721 37.421C439.572 36.6358 440.423 35.9096 441.275 35.2423L442 36.3022C440.22 38.3042 438.373 39.9137 436.458 41.1307C435.239 41.9158 434.233 42.3084 433.44 42.3084C432.705 42.3084 432.135 42.0336 431.728 41.484C431.322 40.954 431.119 40.0806 431.119 38.8636C431.119 37.1167 432.193 32.7691 434.34 25.8208C434.997 23.3476 435.326 21.905 435.326 21.4928C435.326 20.8843 434.968 20.5801 434.253 20.5801C433.479 20.5801 432.483 20.9923 431.264 21.8166C429.446 23.0336 427.927 24.4664 426.709 26.1152C425.935 27.1751 425.287 28.8631 424.764 31.1792L422.414 41.4545H418.091C418.903 38.5103 419.609 35.6937 420.209 33.0047L422.791 21.8166C422.888 21.3652 422.936 21.0413 422.936 20.845C422.936 20.3151 422.743 20.0501 422.356 20.0501C422.047 20.0501 421.602 20.2562 421.021 20.6684C419.822 21.4731 418.7 22.4545 417.655 23.6126Z" fill="#761B2B"/>
<path d="M14.6531 13.249L15.0013 11.8357C17.2065 11.6787 19.5859 11.2862 22.1393 10.6581C21.4622 12.6798 20.969 14.3089 20.6595 15.5455L19.0926 22.1111C22.5165 22.1111 25.0892 21.2474 26.8109 19.5201C28.5518 17.7732 29.4223 15.7025 29.4223 13.3079C29.4223 11.6395 28.7936 10.2949 27.5363 9.27428C26.2983 8.25362 24.4412 7.74329 21.9652 7.74329C18.4639 7.74329 15.1271 8.58729 11.9546 10.2753C8.7822 11.9633 6.30616 14.1715 4.52651 16.8998C2.7662 19.6085 1.88605 22.327 1.88605 25.0553C1.88605 25.8011 1.98277 26.4979 2.17621 27.1457C2.38899 27.7738 2.68882 28.3528 3.07571 28.8827C3.30783 29.1968 3.82045 29.6286 4.61356 30.1782C5.50339 30.8063 6.05469 31.2774 6.26748 31.5914C6.48026 31.8858 6.58665 32.2392 6.58665 32.6513C6.58665 33.0635 6.4319 33.4267 6.1224 33.7407C5.83223 34.0351 5.47437 34.1823 5.0488 34.1823C3.94619 34.1823 2.82423 33.3678 1.68293 31.7386C0.560978 30.1095 0 28.0976 0 25.703C0 22.4055 0.967203 19.2159 2.90161 16.1343C4.85536 13.0331 7.61189 10.5501 11.1712 8.68543C14.7305 6.82076 18.6477 5.88843 22.9227 5.88843C26.4046 5.88843 29.0451 6.58523 30.8441 7.97882C32.6624 9.37242 33.5716 11.0702 33.5716 13.0723C33.5716 14.9762 32.9623 16.7133 31.7436 18.2836C30.5249 19.8342 28.6776 21.0315 26.2015 21.8755C27.9038 22.1503 29.2482 22.6214 30.2348 23.2887C31.2213 23.9365 31.9757 24.7608 32.498 25.7619C33.0397 26.7629 33.3105 27.9112 33.3105 29.2066C33.3105 31.3264 32.6915 33.3383 31.4534 35.2423C30.2348 37.1265 28.4261 38.6968 26.0274 39.953C23.6481 41.1896 21.1624 41.8078 18.5703 41.8078C17.8159 41.8078 16.2007 41.7293 13.7246 41.5723C12.5446 41.5134 11.3066 41.484 10.0106 41.484C8.03746 41.484 6.28682 41.641 4.75864 41.9551L5.19388 40.3357C7.22501 40.218 8.66614 39.7273 9.51728 38.8636C10.3878 37.9804 11.2002 36.047 11.9546 33.0635L16.249 15.9576C16.4231 15.2314 16.5102 14.6818 16.5102 14.3089C16.5102 14.0145 16.3844 13.7593 16.1329 13.5434C15.9008 13.3079 15.601 13.1901 15.2334 13.1901C15.0787 13.1901 14.8853 13.2097 14.6531 13.249ZM18.6283 23.8776L17.1485 29.7955C16.3941 32.8574 15.6687 35.2128 14.9723 36.8616C14.5661 37.843 14.0438 38.6772 13.4054 39.3642C15.1464 39.796 16.6456 40.0119 17.9029 40.0119C21.2881 40.0119 23.8416 38.952 25.5632 36.8321C27.3041 34.7123 28.1746 32.3471 28.1746 29.7366C28.1746 28.4411 27.8458 27.3321 27.1881 26.4096C26.5497 25.4675 25.6986 24.8099 24.6347 24.437C23.5901 24.064 21.588 23.8776 18.6283 23.8776Z" fill="url(#paint0_linear)"/>
<path d="M51.9678 34.094L52.9254 35.3895C48.1861 39.9628 44.1238 42.2495 40.7386 42.2495C39.3652 42.2495 38.3109 41.7784 37.5758 40.8363C36.8601 39.8941 36.5022 38.3827 36.5022 36.3022C36.5022 32.1018 37.7596 27.921 40.2743 23.7598C43.0986 19.0294 46.4741 16.6643 50.401 16.6643C51.7744 16.6643 52.819 17.0176 53.5347 17.7242C54.2698 18.4112 54.6373 19.3631 54.6373 20.5801C54.6373 21.8559 54.2021 23.1121 53.3316 24.3487C52.4611 25.5852 50.9039 26.8709 48.66 28.2056C47.538 28.8533 45.1394 30.0212 41.464 31.7092C41.2899 32.7691 41.2029 33.78 41.2029 34.7417C41.2029 36.1353 41.4156 37.1069 41.8412 37.6565C42.2861 38.2061 42.9245 38.4809 43.7563 38.4809C44.5494 38.4809 45.4199 38.2552 46.3677 37.8037C47.6444 37.1952 49.5111 35.9587 51.9678 34.094ZM41.8122 29.8249C44.9266 28.4117 47.2672 26.8905 48.8341 25.2614C49.898 24.1229 50.43 22.9943 50.43 21.8755C50.43 21.0315 50.2075 20.3642 49.7626 19.8735C49.337 19.3631 48.7761 19.108 48.0797 19.108C47.3639 19.108 46.6675 19.3827 45.9905 19.9323C45.0813 20.6586 44.3172 21.7577 43.6982 23.2299C42.8084 25.3889 42.1797 27.5873 41.8122 29.8249Z" fill="url(#paint1_linear)"/>
<path d="M76.7476 16.2226L78.6626 15.8104L76.4864 23.2593C75.6159 26.2231 74.7938 29.6384 74.0201 33.5052C73.5945 35.6054 73.3817 36.9597 73.3817 37.5682C73.3817 38.1767 73.6235 38.4809 74.1071 38.4809C74.4166 38.4809 74.9099 38.2748 75.5869 37.8626C76.7862 37.1364 77.9372 36.2335 79.0398 35.1539L79.9683 36.3022C77.7631 38.3435 76.351 39.5801 75.732 40.0119C74.494 40.8755 73.314 41.5134 72.192 41.9256C71.457 42.2004 70.7412 42.3378 70.0448 42.3378C69.5419 42.3378 69.1647 42.22 68.9132 41.9845C68.6617 41.749 68.536 41.4055 68.536 40.954C68.536 40.6596 68.6134 40.2572 68.7681 39.7469L69.9288 35.7428C68.2652 37.7645 66.2824 39.5015 63.9805 40.954C62.5684 41.8569 61.2723 42.3084 60.0923 42.3084C58.9704 42.3084 58.1096 41.906 57.5099 41.1012C56.6974 40.0217 56.2912 38.6085 56.2912 36.8616C56.2912 34.781 56.8329 32.4649 57.9161 29.9132C59.0187 27.3616 60.4889 25.0455 62.3266 22.9649C64.1642 20.8843 66.0987 19.3533 68.1298 18.3719C69.6966 17.626 71.7084 17.2531 74.1651 17.2531C74.7841 17.2531 75.4128 17.2924 76.0512 17.3709L76.7476 16.2226ZM73.1496 20.7273C72.105 20.5114 71.2248 20.4034 70.5091 20.4034C68.7681 20.4034 67.2496 20.8941 65.9536 21.8755C64.6575 22.8373 63.4485 24.5842 62.3266 27.1162C61.224 29.6286 60.6726 32.141 60.6726 34.6534C60.6726 35.9881 60.8951 36.9499 61.34 37.5387C61.7849 38.1276 62.3652 38.422 63.081 38.422C64.4157 38.422 65.8472 37.6958 67.3754 36.2433C68.9035 34.7712 70.0255 32.6612 70.7412 29.9132L73.1496 20.7273Z" fill="url(#paint2_linear)"/>
<path d="M101.527 17.5181H105.648L102.92 27.7934C101.315 33.7603 100.512 37.156 100.512 37.9804C100.512 38.3533 100.599 38.6379 100.773 38.8342C100.947 39.0305 101.14 39.1286 101.353 39.1286C101.682 39.1286 102.069 38.9814 102.514 38.687C103.152 38.2355 104.361 37.0971 106.141 35.2717L107.098 36.3611C103.21 40.4633 100.347 42.5145 98.5096 42.5145C97.8906 42.5145 97.3587 42.2691 96.9137 41.7784C96.4882 41.3073 96.2754 40.6302 96.2754 39.7469C96.2754 38.7262 96.4882 37.3621 96.9137 35.6544C95.1921 37.6565 93.0643 39.4132 90.5302 40.9246C88.8473 41.9256 87.3868 42.4261 86.1488 42.4261C85.4717 42.4261 84.9398 42.2004 84.5529 41.749C84.166 41.2975 83.9726 40.5811 83.9726 39.5997C83.9726 38.8342 84.0596 38.0098 84.2337 37.1265C84.4852 35.89 85.1235 33.407 86.1488 29.6777C87.4448 24.9473 88.0928 22.1111 88.0928 21.1689C88.0928 20.6193 87.8994 20.3445 87.5125 20.3445C87.1643 20.3445 86.6904 20.531 86.0907 20.9039C85.4911 21.2572 84.4658 22.1307 83.015 23.5243L81.7383 22.4938C84.3304 20.1384 86.3035 18.5976 87.6576 17.8714C89.031 17.1255 90.1337 16.7526 90.9654 16.7526C91.4297 16.7526 91.8069 16.9292 92.0971 17.2825C92.3872 17.6162 92.5323 18.1462 92.5323 18.8724C92.5323 20.2268 91.8359 23.5537 90.4432 28.8533C89.2051 33.6229 88.5861 36.3414 88.5861 37.0088C88.5861 37.421 88.7119 37.7743 88.9633 38.0687C89.2342 38.3631 89.5243 38.5103 89.8338 38.5103C90.9171 38.5103 92.4549 37.6074 94.4474 35.8017C96.4398 33.9762 97.7455 31.9055 98.3645 29.5894L101.527 17.5181Z" fill="url(#paint3_linear)"/>
<path d="M117.37 12.189L121.984 10.3931L119.894 18.6369H125.901L125.437 20.7273H119.43L116.877 30.5904C116.084 33.5542 115.687 35.6152 115.687 36.7732C115.687 37.3032 115.794 37.686 116.006 37.9215C116.238 38.157 116.548 38.2748 116.935 38.2748C117.535 38.2748 118.453 37.9117 119.691 37.1854C121.316 36.2237 122.864 35.1343 124.334 33.9174L125.437 35.2717C121.2 38.5103 118.366 40.4928 116.935 41.219C115.503 41.9452 114.352 42.3084 113.482 42.3084C112.766 42.3084 112.196 42.0434 111.77 41.5134C111.364 40.9835 111.161 40.1198 111.161 38.9225C111.161 37.5093 111.528 35.3502 112.263 32.4452L115.252 20.7273H110.551L111.074 18.6369H115.745L117.37 12.189Z" fill="url(#paint4_linear)"/>
<path d="M128.193 22.6999L127.265 21.3161L129.412 19.844C131.501 18.3915 132.971 17.4592 133.822 17.047C134.306 16.8115 134.751 16.6937 135.157 16.6937C135.563 16.6937 135.95 16.9292 136.318 17.4003C138.02 19.579 139.451 22.5232 140.612 26.233C141.773 29.923 142.353 33.5052 142.353 36.9793C142.353 37.4308 142.334 38.1178 142.295 39.0403C145.564 32.936 147.199 28.0878 147.199 24.4959C147.199 23.75 147.034 22.7588 146.705 21.5222C146.357 20.1482 146.183 19.1668 146.183 18.578C146.183 18.0088 146.357 17.5377 146.705 17.1648C147.073 16.7918 147.527 16.6054 148.069 16.6054C148.746 16.6054 149.288 16.8704 149.694 17.4003C150.12 17.9303 150.332 18.686 150.332 19.6674C150.332 22.1994 149.762 25.3595 148.62 29.1477C147.479 32.9163 145.68 36.9793 143.223 41.3368C140.786 45.6746 138.552 48.8936 136.521 50.9938C134.509 53.1136 132.555 54.625 130.659 55.5279C128.783 56.4504 127.003 56.9117 125.32 56.9117C124.044 56.9117 123.086 56.6663 122.448 56.1756C121.79 55.7045 121.461 55.1353 121.461 54.468C121.461 53.8791 121.713 53.3688 122.216 52.937C122.719 52.5248 123.396 52.3187 124.247 52.3187C124.905 52.3187 125.804 52.4463 126.945 52.7014C128.164 52.9762 128.996 53.1136 129.441 53.1136C130.621 53.1136 131.868 52.6131 133.184 51.6121C134.983 50.2381 136.405 48.5992 137.449 46.6952C138.513 44.7913 139.045 42.8678 139.045 40.9246C139.045 38.1963 138.649 34.9184 137.855 31.0909C137.082 27.2634 135.979 24.3388 134.548 22.3171C133.832 21.2769 133.068 20.7567 132.255 20.7567C131.307 20.7567 129.953 21.4044 128.193 22.6999Z" fill="url(#paint5_linear)"/>
<path d="M178.71 13.249L179.058 11.8357C181.264 11.6787 183.643 11.2862 186.196 10.6581C185.519 12.6798 185.026 14.3089 184.716 15.5455L183.15 22.1111C186.573 22.1111 189.146 21.2474 190.868 19.5201C192.609 17.7732 193.479 15.7025 193.479 13.3079C193.479 11.6395 192.851 10.2949 191.593 9.27428C190.355 8.25362 188.498 7.74329 186.022 7.74329C182.521 7.74329 179.184 8.58729 176.012 10.2753C172.839 11.9633 170.363 14.1715 168.583 16.8998C166.823 19.6085 165.943 22.327 165.943 25.0553C165.943 25.8011 166.04 26.4979 166.233 27.1457C166.446 27.7738 166.746 28.3528 167.133 28.8827C167.365 29.1968 167.877 29.6286 168.671 30.1782C169.56 30.8063 170.112 31.2774 170.324 31.5914C170.537 31.8858 170.644 32.2392 170.644 32.6513C170.644 33.0635 170.489 33.4267 170.179 33.7407C169.889 34.0351 169.531 34.1823 169.106 34.1823C168.003 34.1823 166.881 33.3678 165.74 31.7386C164.618 30.1095 164.057 28.0976 164.057 25.703C164.057 22.4055 165.024 19.2159 166.959 16.1343C168.912 13.0331 171.669 10.5501 175.228 8.68543C178.787 6.82076 182.705 5.88843 186.98 5.88843C190.462 5.88843 193.102 6.58523 194.901 7.97882C196.719 9.37242 197.629 11.0702 197.629 13.0723C197.629 14.9762 197.019 16.7133 195.801 18.2836C194.582 19.8342 192.735 21.0315 190.259 21.8755C191.961 22.1503 193.305 22.6214 194.292 23.2887C195.278 23.9365 196.033 24.7608 196.555 25.7619C197.097 26.7629 197.367 27.9112 197.367 29.2066C197.367 31.3264 196.748 33.3383 195.51 35.2423C194.292 37.1265 192.483 38.6968 190.084 39.953C187.705 41.1896 185.219 41.8078 182.627 41.8078C181.873 41.8078 180.258 41.7293 177.782 41.5723C176.602 41.5134 175.364 41.484 174.068 41.484C172.094 41.484 170.344 41.641 168.816 41.9551L169.251 40.3357C171.282 40.218 172.723 39.7273 173.574 38.8636C174.445 37.9804 175.257 36.047 176.012 33.0635L180.306 15.9576C180.48 15.2314 180.567 14.6818 180.567 14.3089C180.567 14.0145 180.441 13.7593 180.19 13.5434C179.958 13.3079 179.658 13.1901 179.29 13.1901C179.136 13.1901 178.942 13.2097 178.71 13.249ZM182.685 23.8776L181.205 29.7955C180.451 32.8574 179.726 35.2128 179.029 36.8616C178.623 37.843 178.101 38.6772 177.462 39.3642C179.203 39.796 180.703 40.0119 181.96 40.0119C185.345 40.0119 187.899 38.952 189.62 36.8321C191.361 34.7123 192.232 32.3471 192.232 29.7366C192.232 28.4411 191.903 27.3321 191.245 26.4096C190.607 25.4675 189.756 24.8099 188.692 24.437C187.647 24.064 185.645 23.8776 182.685 23.8776Z" fill="url(#paint6_linear)"/>
<path d="M220.609 16.2226L222.524 15.8104L220.348 23.2593C219.478 26.2231 218.656 29.6384 217.882 33.5052C217.456 35.6054 217.243 36.9597 217.243 37.5682C217.243 38.1767 217.485 38.4809 217.969 38.4809C218.278 38.4809 218.772 38.2748 219.449 37.8626C220.648 37.1364 221.799 36.2335 222.902 35.1539L223.83 36.3022C221.625 38.3435 220.213 39.5801 219.594 40.0119C218.356 40.8755 217.176 41.5134 216.054 41.9256C215.319 42.2004 214.603 42.3378 213.907 42.3378C213.404 42.3378 213.026 42.22 212.775 41.9845C212.524 41.749 212.398 41.4055 212.398 40.954C212.398 40.6596 212.475 40.2572 212.63 39.7469L213.791 35.7428C212.127 37.7645 210.144 39.5015 207.842 40.954C206.43 41.8569 205.134 42.3084 203.954 42.3084C202.832 42.3084 201.971 41.906 201.372 41.1012C200.559 40.0217 200.153 38.6085 200.153 36.8616C200.153 34.781 200.695 32.4649 201.778 29.9132C202.881 27.3616 204.351 25.0455 206.188 22.9649C208.026 20.8843 209.96 19.3533 211.992 18.3719C213.558 17.626 215.57 17.2531 218.027 17.2531C218.646 17.2531 219.275 17.2924 219.913 17.3709L220.609 16.2226ZM217.011 20.7273C215.967 20.5114 215.087 20.4034 214.371 20.4034C212.63 20.4034 211.111 20.8941 209.815 21.8755C208.519 22.8373 207.31 24.5842 206.188 27.1162C205.086 29.6286 204.534 32.141 204.534 34.6534C204.534 35.9881 204.757 36.9499 205.202 37.5387C205.647 38.1276 206.227 38.422 206.943 38.422C208.277 38.422 209.709 37.6958 211.237 36.2433C212.765 34.7712 213.887 32.6612 214.603 29.9132L217.011 20.7273Z" fill="url(#paint7_linear)"/>
<path d="M233.899 12.189L238.512 10.3931L236.423 18.6369H242.429L241.965 20.7273H235.959L233.405 30.5904C232.612 33.5542 232.216 35.6152 232.216 36.7732C232.216 37.3032 232.322 37.686 232.535 37.9215C232.767 38.157 233.077 38.2748 233.463 38.2748C234.063 38.2748 234.982 37.9117 236.22 37.1854C237.845 36.2237 239.392 35.1343 240.863 33.9174L241.965 35.2717C237.729 38.5103 234.895 40.4928 233.463 41.219C232.032 41.9452 230.881 42.3084 230.011 42.3084C229.295 42.3084 228.724 42.0434 228.299 41.5134C227.892 40.9835 227.689 40.1198 227.689 38.9225C227.689 37.5093 228.057 35.3502 228.792 32.4452L231.781 20.7273H227.08L227.602 18.6369H232.274L233.899 12.189Z" fill="url(#paint8_linear)"/>
<path d="M252.933 12.189L257.547 10.3931L255.458 18.6369H261.464L261 20.7273H254.993L252.44 30.5904C251.647 33.5542 251.25 35.6152 251.25 36.7732C251.25 37.3032 251.357 37.686 251.57 37.9215C251.802 38.157 252.111 38.2748 252.498 38.2748C253.098 38.2748 254.017 37.9117 255.255 37.1854C256.879 36.2237 258.427 35.1343 259.897 33.9174L261 35.2717C256.763 38.5103 253.929 40.4928 252.498 41.219C251.067 41.9452 249.916 42.3084 249.045 42.3084C248.329 42.3084 247.759 42.0434 247.333 41.5134C246.927 40.9835 246.724 40.1198 246.724 38.9225C246.724 37.5093 247.091 35.3502 247.826 32.4452L250.815 20.7273H246.114L246.637 18.6369H251.308L252.933 12.189Z" fill="url(#paint9_linear)"/>
<path d="M275.914 34.3884L276.901 35.4483C275.392 37.1756 273.602 38.7557 271.533 40.1885C269.482 41.6018 267.789 42.3084 266.455 42.3084C265.855 42.3084 265.362 42.0728 264.975 41.6018C264.588 41.1503 264.395 40.5222 264.395 39.7175C264.395 38.1472 264.994 34.8889 266.194 29.9427L269.327 17.0176C270.469 12.3461 271.426 9.21539 272.2 7.62552C273.399 5.21126 275.092 3.33678 277.278 2.00207C279.483 0.667355 281.804 0 284.242 0C285.073 0 285.721 0.206095 286.186 0.618285C286.669 1.01085 286.911 1.49174 286.911 2.06095C286.911 2.68905 286.679 3.20919 286.215 3.62138C285.75 4.01395 285.073 4.21023 284.184 4.21023C283.603 4.21023 282.781 4.11209 281.717 3.91581C280.789 3.75878 279.928 3.68027 279.135 3.68027C278.342 3.68027 277.742 3.84711 277.336 4.18079C276.775 4.65186 276.262 5.64308 275.798 7.15444C275.353 8.66581 274.618 11.6493 273.593 16.1049L270.72 28.4411C269.289 34.624 268.573 37.8528 268.573 38.1276C268.573 38.7557 268.795 39.0697 269.24 39.0697C269.666 39.0697 270.285 38.8146 271.097 38.3042C272.703 37.2836 274.308 35.9783 275.914 34.3884Z" fill="url(#paint10_linear)"/>
<path d="M293.324 34.094L294.281 35.3895C289.542 39.9628 285.48 42.2495 282.094 42.2495C280.721 42.2495 279.667 41.7784 278.932 40.8363C278.216 39.8941 277.858 38.3827 277.858 36.3022C277.858 32.1018 279.115 27.921 281.63 23.7598C284.454 19.0294 287.83 16.6643 291.757 16.6643C293.13 16.6643 294.175 17.0176 294.891 17.7242C295.626 18.4112 295.993 19.3631 295.993 20.5801C295.993 21.8559 295.558 23.1121 294.687 24.3487C293.817 25.5852 292.26 26.8709 290.016 28.2056C288.894 28.8533 286.495 30.0212 282.82 31.7092C282.646 32.7691 282.559 33.78 282.559 34.7417C282.559 36.1353 282.771 37.1069 283.197 37.6565C283.642 38.2061 284.28 38.4809 285.112 38.4809C285.905 38.4809 286.776 38.2552 287.724 37.8037C289 37.1952 290.867 35.9587 293.324 34.094ZM283.168 29.8249C286.282 28.4117 288.623 26.8905 290.19 25.2614C291.254 24.1229 291.786 22.9943 291.786 21.8755C291.786 21.0315 291.563 20.3642 291.118 19.8735C290.693 19.3631 290.132 19.108 289.436 19.108C288.72 19.108 288.023 19.3827 287.346 19.9323C286.437 20.6586 285.673 21.7577 285.054 23.2299C284.164 25.3889 283.536 27.5873 283.168 29.8249Z" fill="url(#paint11_linear)"/>
<path d="M328.984 41.9845C330.725 43.6333 332.341 45.2231 333.83 46.7541C336.519 49.5021 338.395 51.2784 339.459 52.0832C340.968 53.2216 342.274 53.9969 343.376 54.4091C344.479 54.8409 345.485 55.0568 346.394 55.0568C347.168 55.0568 347.864 54.939 348.483 54.7035C349.102 54.468 349.663 54.1147 350.166 53.6436C350.456 53.3688 350.834 52.7701 351.298 51.8476C351.801 50.8466 352.439 50.3461 353.213 50.3461C353.6 50.3461 353.938 50.4933 354.228 50.7877C354.519 51.1018 354.664 51.4649 354.664 51.8771C354.664 52.937 353.88 53.9576 352.313 54.939C350.128 56.313 347.632 57 344.827 57C342.951 57 341.423 56.8037 340.243 56.4112C338.618 55.8616 337.07 55.0666 335.6 54.0263C334.149 52.9861 332.205 51.1803 329.768 48.609C327.543 46.2929 326.083 44.8208 325.386 44.1927C324.709 43.5842 324.032 43.0739 323.355 42.6617C322.988 42.4261 322.108 42.0336 320.715 41.484C318.007 40.3848 315.947 38.7361 314.534 36.5377C313.122 34.3394 312.416 31.6896 312.416 28.5883C312.416 23.2495 314.225 18.1854 317.842 13.3962C321.46 8.60692 326.131 6.21229 331.857 6.21229C334.585 6.21229 336.925 6.77169 338.879 7.8905C340.833 8.98967 342.371 10.6188 343.492 12.7779C344.634 14.937 345.204 17.3709 345.204 20.0795C345.204 24.8884 343.667 29.5305 340.591 34.0057C337.535 38.4809 333.666 41.1405 328.984 41.9845ZM330.29 8.36157C328.046 8.36157 325.976 9.03874 324.081 10.3931C322.204 11.7278 320.667 13.828 319.467 16.6937C318.268 19.5398 317.668 22.8471 317.668 26.6157C317.668 30.9339 318.606 34.2707 320.483 36.626C322.359 38.9618 324.7 40.1297 327.505 40.1297C329.594 40.1297 331.567 39.4328 333.424 38.0393C335.3 36.6457 336.838 34.4571 338.037 31.4737C339.256 28.4706 339.865 25.0258 339.865 21.1395C339.865 17.1157 338.937 13.985 337.08 11.7474C335.242 9.49019 332.979 8.36157 330.29 8.36157Z" fill="url(#paint12_linear)"/>
<path d="M366.676 17.5181H370.797L368.069 27.7934C366.464 33.7603 365.661 37.156 365.661 37.9804C365.661 38.3533 365.748 38.6379 365.922 38.8342C366.096 39.0305 366.289 39.1286 366.502 39.1286C366.831 39.1286 367.218 38.9814 367.663 38.687C368.301 38.2355 369.51 37.0971 371.29 35.2717L372.247 36.3611C368.359 40.4633 365.496 42.5145 363.659 42.5145C363.04 42.5145 362.508 42.2691 362.063 41.7784C361.637 41.3073 361.424 40.6302 361.424 39.7469C361.424 38.7262 361.637 37.3621 362.063 35.6544C360.341 37.6565 358.213 39.4132 355.679 40.9246C353.996 41.9256 352.536 42.4261 351.298 42.4261C350.621 42.4261 350.089 42.2004 349.702 41.749C349.315 41.2975 349.122 40.5811 349.122 39.5997C349.122 38.8342 349.209 38.0098 349.383 37.1265C349.634 35.89 350.273 33.407 351.298 29.6777C352.594 24.9473 353.242 22.1111 353.242 21.1689C353.242 20.6193 353.048 20.3445 352.662 20.3445C352.313 20.3445 351.839 20.531 351.24 20.9039C350.64 21.2572 349.615 22.1307 348.164 23.5243L346.887 22.4938C349.479 20.1384 351.453 18.5976 352.807 17.8714C354.18 17.1255 355.283 16.7526 356.114 16.7526C356.579 16.7526 356.956 16.9292 357.246 17.2825C357.536 17.6162 357.681 18.1462 357.681 18.8724C357.681 20.2268 356.985 23.5537 355.592 28.8533C354.354 33.6229 353.735 36.3414 353.735 37.0088C353.735 37.421 353.861 37.7743 354.112 38.0687C354.383 38.3631 354.673 38.5103 354.983 38.5103C356.066 38.5103 357.604 37.6074 359.596 35.8017C361.589 33.9762 362.895 31.9055 363.514 29.5894L366.676 17.5181Z" fill="url(#paint13_linear)"/>
<path d="M389.599 34.094L390.557 35.3895C385.817 39.9628 381.755 42.2495 378.37 42.2495C376.996 42.2495 375.942 41.7784 375.207 40.8363C374.491 39.8941 374.133 38.3827 374.133 36.3022C374.133 32.1018 375.391 27.921 377.906 23.7598C380.73 19.0294 384.105 16.6643 388.032 16.6643C389.406 16.6643 390.45 17.0176 391.166 17.7242C391.901 18.4112 392.269 19.3631 392.269 20.5801C392.269 21.8559 391.833 23.1121 390.963 24.3487C390.092 25.5852 388.535 26.8709 386.291 28.2056C385.169 28.8533 382.771 30.0212 379.095 31.7092C378.921 32.7691 378.834 33.78 378.834 34.7417C378.834 36.1353 379.047 37.1069 379.472 37.6565C379.917 38.2061 380.556 38.4809 381.388 38.4809C382.181 38.4809 383.051 38.2552 383.999 37.8037C385.276 37.1952 387.142 35.9587 389.599 34.094ZM379.443 29.8249C382.558 28.4117 384.898 26.8905 386.465 25.2614C387.529 24.1229 388.061 22.9943 388.061 21.8755C388.061 21.0315 387.839 20.3642 387.394 19.8735C386.968 19.3631 386.407 19.108 385.711 19.108C384.995 19.108 384.299 19.3827 383.622 19.9323C382.713 20.6586 381.948 21.7577 381.329 23.2299C380.44 25.3889 379.811 27.5873 379.443 29.8249Z" fill="url(#paint14_linear)"/>
<path d="M409.794 34.094L410.752 35.3895C406.012 39.9628 401.95 42.2495 398.565 42.2495C397.192 42.2495 396.137 41.7784 395.402 40.8363C394.687 39.8941 394.329 38.3827 394.329 36.3022C394.329 32.1018 395.586 27.921 398.101 23.7598C400.925 19.0294 404.301 16.6643 408.227 16.6643C409.601 16.6643 410.645 17.0176 411.361 17.7242C412.096 18.4112 412.464 19.3631 412.464 20.5801C412.464 21.8559 412.029 23.1121 411.158 24.3487C410.288 25.5852 408.73 26.8709 406.486 28.2056C405.364 28.8533 402.966 30.0212 399.29 31.7092C399.116 32.7691 399.029 33.78 399.029 34.7417C399.029 36.1353 399.242 37.1069 399.668 37.6565C400.113 38.2061 400.751 38.4809 401.583 38.4809C402.376 38.4809 403.246 38.2552 404.194 37.8037C405.471 37.1952 407.338 35.9587 409.794 34.094ZM399.639 29.8249C402.753 28.4117 405.094 26.8905 406.661 25.2614C407.724 24.1229 408.256 22.9943 408.256 21.8755C408.256 21.0315 408.034 20.3642 407.589 19.8735C407.163 19.3631 406.602 19.108 405.906 19.108C405.19 19.108 404.494 19.3827 403.817 19.9323C402.908 20.6586 402.144 21.7577 401.525 23.2299C400.635 25.3889 400.006 27.5873 399.639 29.8249Z" fill="url(#paint15_linear)"/>
<path d="M415.655 23.6126L414.669 22.5821C417.145 20.1875 419.118 18.5976 420.588 17.8125C422.058 17.0274 423.316 16.6348 424.36 16.6348C424.767 16.6348 425.086 16.7231 425.318 16.8998C425.55 17.0764 425.666 17.2825 425.666 17.5181C425.666 17.6947 425.618 18.0088 425.521 18.4602L424.215 24.3781C426.188 22.1601 428.664 20.0894 431.643 18.1658C433.23 17.1648 434.535 16.6643 435.561 16.6643C436.315 16.6643 436.905 16.9096 437.331 17.4003C437.756 17.891 437.969 18.5976 437.969 19.5201C437.969 20.1286 437.882 20.8156 437.708 21.5811C437.398 22.8569 436.586 25.6343 435.27 29.9132C434.032 33.9174 433.413 36.577 433.413 37.892C433.413 38.2846 433.471 38.579 433.587 38.7753C433.704 38.9716 433.868 39.0697 434.081 39.0697C434.642 39.0697 435.522 38.5201 436.721 37.421C437.572 36.6358 438.423 35.9096 439.275 35.2423L440 36.3022C438.22 38.3042 436.373 39.9137 434.458 41.1307C433.239 41.9158 432.233 42.3084 431.44 42.3084C430.705 42.3084 430.135 42.0336 429.728 41.484C429.322 40.954 429.119 40.0806 429.119 38.8636C429.119 37.1167 430.193 32.7691 432.34 25.8208C432.997 23.3476 433.326 21.905 433.326 21.4928C433.326 20.8843 432.968 20.5801 432.253 20.5801C431.479 20.5801 430.483 20.9923 429.264 21.8166C427.446 23.0336 425.927 24.4664 424.709 26.1152C423.935 27.1751 423.287 28.8631 422.764 31.1792L420.414 41.4545H416.091C416.903 38.5103 417.609 35.6937 418.209 33.0047L420.791 21.8166C420.888 21.3652 420.936 21.0413 420.936 20.845C420.936 20.3151 420.743 20.0501 420.356 20.0501C420.047 20.0501 419.602 20.2562 419.021 20.6684C417.822 21.4731 416.7 22.4545 415.655 23.6126Z" fill="url(#paint16_linear)"/>
<defs>
<linearGradient id="paint0_linear" x1="440" y1="28.5" x2="2.86848e-06" y2="28.5" gradientUnits="userSpaceOnUse">
<stop stop-color="#DC802C"/>
<stop offset="1" stop-color="#FFCF31"/>
</linearGradient>
<linearGradient id="paint1_linear" x1="440" y1="28.5" x2="2.86848e-06" y2="28.5" gradientUnits="userSpaceOnUse">
<stop stop-color="#DC802C"/>
<stop offset="1" stop-color="#FFCF31"/>
</linearGradient>
<linearGradient id="paint2_linear" x1="440" y1="28.5" x2="2.86848e-06" y2="28.5" gradientUnits="userSpaceOnUse">
<stop stop-color="#DC802C"/>
<stop offset="1" stop-color="#FFCF31"/>
</linearGradient>
<linearGradient id="paint3_linear" x1="440" y1="28.5" x2="2.86848e-06" y2="28.5" gradientUnits="userSpaceOnUse">
<stop stop-color="#DC802C"/>
<stop offset="1" stop-color="#FFCF31"/>
</linearGradient>
<linearGradient id="paint4_linear" x1="440" y1="28.5" x2="2.86848e-06" y2="28.5" gradientUnits="userSpaceOnUse">
<stop stop-color="#DC802C"/>
<stop offset="1" stop-color="#FFCF31"/>
</linearGradient>
<linearGradient id="paint5_linear" x1="440" y1="28.5" x2="2.86848e-06" y2="28.5" gradientUnits="userSpaceOnUse">
<stop stop-color="#DC802C"/>
<stop offset="1" stop-color="#FFCF31"/>
</linearGradient>
<linearGradient id="paint6_linear" x1="440" y1="28.5" x2="2.86848e-06" y2="28.5" gradientUnits="userSpaceOnUse">
<stop stop-color="#DC802C"/>
<stop offset="1" stop-color="#FFCF31"/>
</linearGradient>
<linearGradient id="paint7_linear" x1="440" y1="28.5" x2="2.86848e-06" y2="28.5" gradientUnits="userSpaceOnUse">
<stop stop-color="#DC802C"/>
<stop offset="1" stop-color="#FFCF31"/>
</linearGradient>
<linearGradient id="paint8_linear" x1="440" y1="28.5" x2="2.86848e-06" y2="28.5" gradientUnits="userSpaceOnUse">
<stop stop-color="#DC802C"/>
<stop offset="1" stop-color="#FFCF31"/>
</linearGradient>
<linearGradient id="paint9_linear" x1="440" y1="28.5" x2="2.86848e-06" y2="28.5" gradientUnits="userSpaceOnUse">
<stop stop-color="#DC802C"/>
<stop offset="1" stop-color="#FFCF31"/>
</linearGradient>
<linearGradient id="paint10_linear" x1="440" y1="28.5" x2="2.86848e-06" y2="28.5" gradientUnits="userSpaceOnUse">
<stop stop-color="#DC802C"/>
<stop offset="1" stop-color="#FFCF31"/>
</linearGradient>
<linearGradient id="paint11_linear" x1="440" y1="28.5" x2="2.86848e-06" y2="28.5" gradientUnits="userSpaceOnUse">
<stop stop-color="#DC802C"/>
<stop offset="1" stop-color="#FFCF31"/>
</linearGradient>
<linearGradient id="paint12_linear" x1="440" y1="28.5" x2="2.86848e-06" y2="28.5" gradientUnits="userSpaceOnUse">
<stop stop-color="#DC802C"/>
<stop offset="1" stop-color="#FFCF31"/>
</linearGradient>
<linearGradient id="paint13_linear" x1="440" y1="28.5" x2="2.86848e-06" y2="28.5" gradientUnits="userSpaceOnUse">
<stop stop-color="#DC802C"/>
<stop offset="1" stop-color="#FFCF31"/>
</linearGradient>
<linearGradient id="paint14_linear" x1="440" y1="28.5" x2="2.86848e-06" y2="28.5" gradientUnits="userSpaceOnUse">
<stop stop-color="#DC802C"/>
<stop offset="1" stop-color="#FFCF31"/>
</linearGradient>
<linearGradient id="paint15_linear" x1="440" y1="28.5" x2="2.86848e-06" y2="28.5" gradientUnits="userSpaceOnUse">
<stop stop-color="#DC802C"/>
<stop offset="1" stop-color="#FFCF31"/>
</linearGradient>
<linearGradient id="paint16_linear" x1="440" y1="28.5" x2="2.86848e-06" y2="28.5" gradientUnits="userSpaceOnUse">
<stop stop-color="#DC802C"/>
<stop offset="1" stop-color="#FFCF31"/>
</linearGradient>
</defs>
</svg>
